<?xml version="1.0" encoding="UTF-8"?>
<!DOCTYPE svg PUBLIC "-//W3C//DTD SVG 1.1//EN" "http://www.w3.org/Graphics/SVG/1.1/DTD/svg11.dtd">
<!-- Creator: CorelDRAW 2018 (64-Bit) -->
<svg xmlns="http://www.w3.org/2000/svg" xml:space="preserve" width="3036px" height="3114px" version="1.1" style="shape-rendering:geometricPrecision; text-rendering:geometricPrecision; image-rendering:optimizeQuality; fill-rule:evenodd; clip-rule:evenodd"
viewBox="0 0 3010.38 3087.79"
 xmlns:xlink="http://www.w3.org/1999/xlink">
 <defs>
  <style type="text/css">
   <![CDATA[
    .fil0 {fill:none}
    .fil4 {fill:#FDD588;fill-rule:nonzero}
    .fil5 {fill:#FAC7A2;fill-rule:nonzero}
    .fil2 {fill:#DA453F;fill-rule:nonzero}
    .fil1 {fill:#B92F3F;fill-rule:nonzero}
    .fil3 {fill:#5C2932;fill-rule:nonzero}
   ]]>
  </style>
 </defs>
 <g id="Слой_x0020_1">
  <metadata id="CorelCorpID_0Corel-Layer"/>
  <rect class="fil0" width="3010.38" height="3087.79"/>
  <g id="_2379310840832">
   <path class="fil1" d="M2513.76 1700.6c-7.18,0 -13.01,-5.83 -13.01,-13 0,-7.17 5.83,-13 13.01,-13 7.16,0 13,5.83 13,13 0,7.17 -5.84,13 -13,13zm-0.14 -122.69l-68.71 186.51 54.77 0c4.15,-12.87 6.41,-23.97 7.17,-28.09 -0.34,-3.49 2.06,-6.68 5.56,-7.24 0.28,-0.04 0.53,-0.04 0.8,-0.05 0.14,-0.01 0.28,-0.02 0.43,-0.03 0.1,0.01 0.19,0.02 0.29,0.02 0.29,0.01 0.59,0.01 0.88,0.05 3.51,0.57 5.91,3.77 5.57,7.26 0.77,4.12 3.03,15.22 7.18,28.08l54.76 0 -68.7 -186.51z"/>
   <path class="fil1" d="M2513.76 2040.02c-30.64,0 -55.56,-24.93 -55.56,-55.56 0,-30.63 24.92,-55.56 55.56,-55.56 30.63,0 55.55,24.93 55.55,55.56 0,30.63 -24.92,55.56 -55.55,55.56zm-0.14 -181.13c-11.93,3.57 -80.91,26.84 -80.91,87.69l0 133.68 70.52 0 4.27 -11.28c0.03,-0.06 0.07,-0.12 0.09,-0.17 0.1,-0.23 0.21,-0.45 0.33,-0.66 0.1,-0.18 0.18,-0.35 0.29,-0.52 0.13,-0.18 0.27,-0.35 0.42,-0.53 0.13,-0.16 0.26,-0.32 0.4,-0.47 0.16,-0.16 0.34,-0.29 0.51,-0.43 0.17,-0.14 0.32,-0.27 0.49,-0.39 0.18,-0.12 0.37,-0.21 0.56,-0.32 0.2,-0.11 0.4,-0.21 0.61,-0.3 0.06,-0.03 0.12,-0.07 0.19,-0.09 0.13,-0.05 0.27,-0.07 0.41,-0.11 0.21,-0.07 0.43,-0.14 0.66,-0.18 0.22,-0.04 0.44,-0.07 0.66,-0.09 0.2,-0.02 0.41,-0.04 0.62,-0.04 0.24,0 0.46,0.02 0.7,0.04 0.2,0.03 0.39,0.05 0.59,0.08 0.24,0.05 0.48,0.13 0.72,0.2 0.12,0.04 0.25,0.05 0.37,0.1 0.06,0.02 0.11,0.06 0.17,0.08 0.23,0.1 0.44,0.21 0.66,0.33 0.17,0.1 0.35,0.19 0.52,0.3 0.18,0.12 0.35,0.26 0.52,0.4 0.16,0.14 0.33,0.27 0.48,0.42 0.15,0.15 0.28,0.32 0.42,0.48 0.14,0.17 0.28,0.34 0.4,0.52 0.11,0.17 0.2,0.35 0.3,0.52 0.12,0.22 0.23,0.43 0.33,0.66 0.02,0.05 0.06,0.11 0.08,0.17l4.28 11.28 70.23 0 0 -133.68c0,-61 -68.97,-84.15 -80.89,-87.69z"/>
   <path class="fil1" d="M2513.76 2158.23c-2.46,0 -4.46,-2 -4.46,-4.45 0,-2.46 2,-4.46 4.46,-4.46 2.45,0 4.45,2 4.45,4.46 0,2.45 -2,4.45 -4.45,4.45zm0 -68.02l-56.81 149.99 0 121.86 18.37 0 0 -123.08c0,-40.15 34.34,-55.36 35.8,-55.98 0.03,-0.02 0.07,-0.02 0.1,-0.03 0.21,-0.09 0.43,-0.14 0.64,-0.21 0.21,-0.06 0.42,-0.13 0.63,-0.18 0.16,-0.03 0.34,-0.03 0.51,-0.05 0.26,-0.03 0.52,-0.07 0.78,-0.07 0.12,0 0.24,0.02 0.37,0.03 0.31,0.02 0.62,0.04 0.92,0.1 0.1,0.02 0.2,0.05 0.29,0.08 0.33,0.08 0.67,0.18 0.98,0.31 0.02,0.01 0.03,0.01 0.05,0.02 1.46,0.62 35.8,15.83 35.8,55.98l0 123.08 18.38 0 0 -121.86 -56.81 -149.99z"/>
   <polygon class="fil1" points="2607.88,1946.58 2607.88,1575.37 2621.67,1520.98 2635.45,1575.37 2635.45,2080.26 2607.88,2080.26 "/>
   <polygon class="fil1" points="2700.69,1332.88 2719.7,1446.62 2719.7,1507.7 2681.67,1507.7 2681.67,1446.62 "/>
   <polygon class="fil1" points="2648.82,1845.22 2752.55,1845.22 2752.55,1788.41 2648.82,1788.41 "/>
   <path class="fil1" d="M2695.55 1600.15c0,-10.11 3.02,-14.73 5.15,-16.74 2.07,1.99 5.13,6.63 5.13,16.74l0 174.89 -10.28 0 0 -174.89z"/>
   <path class="fil1" d="M2695.55 1905.37c0,-10.12 3.02,-14.74 5.15,-16.74 2.07,1.98 5.13,6.62 5.13,16.74l0 174.89 -10.28 0 0 -174.89z"/>
   <polygon class="fil1" points="2765.92,2080.26 2765.92,1575.37 2779.7,1520.98 2793.49,1575.37 2793.49,2080.26 "/>
   <path class="fil1" d="M2557.34 1814.54c-10.95,-8.06 -19.1,-22.4 -24.93,-36.75l49.87 0c-5.83,14.34 -13.97,28.68 -24.94,36.75z"/>
   <path class="fil1" d="M2494.84 1777.79c-5.83,14.34 -13.98,28.68 -24.95,36.75 -10.94,-8.06 -19.09,-22.4 -24.92,-36.75l49.87 0z"/>
   <polygon class="fil1" points="2326.54,1332.88 2345.56,1446.62 2345.56,1507.7 2307.54,1507.7 2307.54,1446.62 "/>
   <path class="fil1" d="M2321.4 1775.04l0 -174.89c0,-10.11 3.03,-14.73 5.16,-16.74 2.06,1.99 5.13,6.63 5.13,16.74l0 174.89 -10.29 0z"/>
   <polygon class="fil1" points="2274.68,1845.22 2378.41,1845.22 2378.41,1788.41 2274.68,1788.41 "/>
   <polygon class="fil1" points="2233.74,1575.37 2247.53,1520.98 2261.31,1575.37 2261.31,2080.26 2233.74,2080.26 "/>
   <path class="fil1" d="M2321.4 1905.37c0,-10.12 3.03,-14.74 5.16,-16.74 2.06,1.98 5.13,6.62 5.13,16.74l0 174.89 -10.29 0 0 -174.89z"/>
   <polygon class="fil1" points="2391.78,1851.9 2391.78,1575.37 2405.57,1520.98 2419.35,1575.37 2419.35,2080.26 2391.78,2080.26 "/>
   <path class="fil1" d="M2443.58 2201.83l-11.28 -30.33c-0.03,-0.08 -0.08,-0.15 -0.11,-0.22 -0.09,-0.22 -0.19,-0.42 -0.3,-0.62 -0.11,-0.18 -0.2,-0.37 -0.33,-0.55 -0.12,-0.18 -0.26,-0.35 -0.4,-0.52 -0.13,-0.16 -0.26,-0.32 -0.41,-0.47 -0.16,-0.17 -0.34,-0.31 -0.53,-0.46 -0.14,-0.12 -0.29,-0.25 -0.46,-0.35 -0.19,-0.14 -0.4,-0.25 -0.61,-0.37 -0.18,-0.09 -0.36,-0.18 -0.54,-0.26 -0.08,-0.03 -0.16,-0.08 -0.25,-0.12 -0.14,-0.05 -0.28,-0.07 -0.43,-0.11 -0.19,-0.06 -0.38,-0.11 -0.58,-0.15 -0.23,-0.05 -0.45,-0.08 -0.68,-0.1 -0.22,-0.02 -0.43,-0.03 -0.64,-0.03 -0.21,0 -0.42,0.01 -0.64,0.03 -0.22,0.02 -0.45,0.05 -0.67,0.09 -0.2,0.05 -0.39,0.1 -0.6,0.16 -0.14,0.05 -0.28,0.06 -0.42,0.11 -0.08,0.04 -0.16,0.09 -0.24,0.12 -0.19,0.08 -0.37,0.18 -0.55,0.27 -0.21,0.11 -0.42,0.22 -0.61,0.35 -0.16,0.11 -0.31,0.24 -0.47,0.37 -0.18,0.14 -0.36,0.28 -0.52,0.45 -0.14,0.15 -0.28,0.31 -0.41,0.47 -0.14,0.17 -0.28,0.34 -0.4,0.52 -0.12,0.18 -0.22,0.37 -0.32,0.55 -0.12,0.2 -0.22,0.4 -0.31,0.62 -0.02,0.07 -0.07,0.14 -0.1,0.22l-11.28 30.33 0 -85.93 35.09 0 0 85.93z"/>
   <path class="fil1" d="M2361.7 2211.76l-39.47 -75.56c0,-0.01 -0.01,-0.02 -0.01,-0.03 -0.18,-0.33 -0.4,-0.65 -0.64,-0.96 -0.03,-0.05 -0.06,-0.1 -0.1,-0.15 -0.15,-0.19 -0.35,-0.35 -0.52,-0.52 -0.14,-0.14 -0.26,-0.29 -0.41,-0.41 -0.07,-0.06 -0.15,-0.1 -0.22,-0.15 -0.29,-0.21 -0.58,-0.42 -0.9,-0.58 -0.01,-0.01 -0.02,-0.02 -0.02,-0.03 -0.12,-0.06 -0.24,-0.09 -0.36,-0.14 -0.27,-0.12 -0.54,-0.24 -0.82,-0.33 -0.2,-0.06 -0.41,-0.09 -0.61,-0.13 -0.22,-0.04 -0.44,-0.1 -0.66,-0.12 -0.21,-0.02 -0.41,-0.01 -0.62,-0.01 -0.23,0 -0.45,-0.01 -0.68,0.01 -0.2,0.02 -0.39,0.07 -0.59,0.11 -0.23,0.04 -0.46,0.08 -0.69,0.14 -0.24,0.08 -0.47,0.18 -0.7,0.29 -0.15,0.06 -0.31,0.1 -0.46,0.18 -0.02,0.01 -0.03,0.02 -0.04,0.03 -0.26,0.13 -0.49,0.31 -0.72,0.47 -0.13,0.1 -0.27,0.16 -0.39,0.27 -0.08,0.06 -0.15,0.15 -0.23,0.22 -0.25,0.22 -0.49,0.45 -0.7,0.71 -0.03,0.03 -0.04,0.06 -0.07,0.09 -0.25,0.33 -0.47,0.66 -0.66,1.01 -0.01,0.01 -0.02,0.02 -0.02,0.03l-39.47 75.56 0 -95.86 90.78 0 0 95.86z"/>
   <polygon class="fil1" points="2237.5,2362.06 2257.55,2362.06 2257.55,2115.9 2237.5,2115.9 "/>
   <path class="fil1" d="M2316.32 2218.78c4.95,2.05 19.35,10.17 19.35,35.25l0 108.03 -38.71 0 0 -108.03c0,-25.05 14.34,-33.17 19.36,-35.25z"/>
   <polygon class="fil1" points="2375.07,2362.06 2395.12,2362.06 2395.12,2115.9 2375.07,2115.9 "/>
   <path class="fil1" d="M2711.21 2218.78c4.95,2.05 19.34,10.17 19.34,35.25l0 108.03 -38.7 0 0 -108.03c0,-25.05 14.34,-33.17 19.36,-35.25z"/>
   <polygon class="fil1" points="2769.96,2362.06 2790.01,2362.06 2790.01,2115.9 2769.96,2115.9 "/>
   <path class="fil1" d="M2756.59 2211.76l-39.47 -75.56c-0.01,-0.01 -0.01,-0.02 -0.01,-0.03 -0.19,-0.33 -0.4,-0.65 -0.64,-0.96 -0.04,-0.05 -0.07,-0.1 -0.1,-0.15 -0.16,-0.19 -0.35,-0.35 -0.52,-0.52 -0.14,-0.14 -0.26,-0.29 -0.42,-0.41 -0.06,-0.06 -0.14,-0.1 -0.21,-0.15 -0.29,-0.21 -0.58,-0.42 -0.9,-0.58 -0.01,-0.01 -0.02,-0.02 -0.03,-0.03 -0.11,-0.06 -0.23,-0.09 -0.35,-0.14 -0.27,-0.12 -0.54,-0.24 -0.82,-0.33 -0.21,-0.06 -0.41,-0.09 -0.62,-0.13 -0.22,-0.04 -0.43,-0.1 -0.65,-0.12 -0.21,-0.02 -0.42,-0.01 -0.63,-0.01 -0.22,0 -0.45,-0.01 -0.68,0.01 -0.2,0.02 -0.39,0.07 -0.58,0.11 -0.23,0.04 -0.47,0.08 -0.69,0.14 -0.24,0.08 -0.47,0.18 -0.7,0.29 -0.16,0.06 -0.32,0.1 -0.47,0.18 -0.01,0.01 -0.02,0.02 -0.04,0.03 -0.25,0.13 -0.48,0.31 -0.72,0.47 -0.12,0.1 -0.26,0.16 -0.39,0.27 -0.08,0.06 -0.14,0.15 -0.22,0.22 -0.25,0.22 -0.5,0.45 -0.71,0.71 -0.02,0.03 -0.04,0.06 -0.06,0.09 -0.25,0.33 -0.48,0.66 -0.67,1.01 0,0.01 -0.01,0.02 -0.02,0.03l-39.46 75.56 0 -95.86 90.78 0 0 95.86z"/>
   <polygon class="fil1" points="2632.39,2362.06 2652.44,2362.06 2652.44,2115.9 2632.39,2115.9 "/>
   <path class="fil1" d="M2619.02 2115.9l0 85.93 -11.28 -30.33c-0.03,-0.08 -0.08,-0.15 -0.11,-0.22 -0.08,-0.22 -0.19,-0.42 -0.3,-0.62 -0.1,-0.18 -0.2,-0.37 -0.32,-0.55 -0.12,-0.18 -0.26,-0.35 -0.4,-0.52 -0.14,-0.16 -0.27,-0.32 -0.41,-0.47 -0.17,-0.17 -0.35,-0.31 -0.53,-0.46 -0.15,-0.12 -0.3,-0.25 -0.46,-0.35 -0.2,-0.14 -0.41,-0.25 -0.62,-0.37 -0.18,-0.09 -0.35,-0.18 -0.54,-0.26 -0.08,-0.03 -0.16,-0.08 -0.25,-0.12 -0.13,-0.05 -0.28,-0.07 -0.42,-0.11 -0.19,-0.06 -0.39,-0.11 -0.59,-0.15 -0.23,-0.05 -0.45,-0.08 -0.68,-0.1 -0.21,-0.02 -0.42,-0.03 -0.64,-0.03 -0.21,0 -0.42,0.01 -0.63,0.03 -0.23,0.02 -0.45,0.05 -0.68,0.09 -0.2,0.05 -0.39,0.1 -0.59,0.16 -0.15,0.05 -0.28,0.06 -0.42,0.11 -0.09,0.04 -0.16,0.09 -0.25,0.12 -0.19,0.08 -0.37,0.18 -0.54,0.27 -0.21,0.11 -0.42,0.22 -0.62,0.35 -0.16,0.11 -0.31,0.24 -0.47,0.37 -0.18,0.14 -0.35,0.28 -0.52,0.45 -0.14,0.15 -0.27,0.31 -0.41,0.47 -0.14,0.17 -0.28,0.34 -0.4,0.52 -0.11,0.18 -0.22,0.37 -0.32,0.55 -0.11,0.2 -0.21,0.4 -0.3,0.62 -0.03,0.07 -0.08,0.14 -0.11,0.22l-11.28 30.33 0 -85.93 35.09 0z"/>
   <path class="fil2" d="M1501.25 1807.08l-26.73 0 0 -72.59 26.73 0 0 72.59zm-100.9 0l-26.73 0 0 -72.59 26.73 0 0 72.59zm108.5 -126.37c-7.35,-4.75 -15.26,-9.88 -20.59,-16.74 -5.33,6.86 -13.23,11.99 -20.59,16.74 -12.64,8.15 -23.55,15.19 -23.55,28.48 0,3.68 -2.99,6.68 -6.68,6.68 -3.69,0 -6.69,-3 -6.69,-6.68 0,-13.29 -10.91,-20.33 -23.55,-28.48 -7.35,-4.75 -15.26,-9.88 -20.59,-16.74 -5.32,6.86 -13.23,11.99 -20.59,16.74 -12.64,8.15 -23.55,15.19 -23.55,28.48l0 186.49c0,0.01 0.01,0.03 0.01,0.04 0,3.95 1.13,7.41 3.09,10.58 7.31,-22.16 28.01,-35.59 46.67,-47.63 20.67,-13.34 38.51,-24.86 38.51,-44.9 0,-3.69 3,-6.69 6.69,-6.69 3.69,0 6.68,3 6.68,6.69 0,20.04 17.85,31.56 38.51,44.9 18.66,12.04 39.36,25.47 46.67,47.63 1.96,-3.17 3.1,-6.63 3.1,-10.58 0,-0.01 0,-0.03 0,-0.04l0 -186.49c0,-13.29 -10.91,-20.33 -23.55,-28.48z"/>
   <polygon class="fil2" points="1601.18,1460.07 1612.1,1519.58 1590.26,1519.58 "/>
   <polygon class="fil2" points="1392.92,1227.73 1481.95,1227.73 1481.95,1539.63 1392.92,1539.63 "/>
   <polygon class="fil2" points="1553.27,1539.63 1495.32,1539.63 1495.32,1276.8 1559.25,1539.63 "/>
   <polygon class="fil2" points="1379.55,1276.8 1379.55,1539.63 1315.62,1539.63 "/>
   <polygon class="fil2" points="1273.69,1460.07 1284.61,1519.58 1262.77,1519.58 "/>
   <path class="fil2" d="M1437.44 1624.66l155.2 0 0 316.09c-6.36,-6.36 -14.21,-11.46 -21.63,-16.25 -13.52,-8.73 -25.19,-16.26 -25.24,-28.71l0 -190.82c0,-10.1 7.44,-15.63 19.7,-23.55 10.98,-7.09 23.44,-15.12 23.44,-30.38 0,-3.69 -2.99,-6.68 -6.68,-6.68 -3.69,0 -6.69,2.99 -6.69,6.68 0,7.44 -6.54,12.19 -17.32,19.15 -6.96,4.5 -14.93,9.67 -20.16,17.05 -5.85,-7.36 -14.19,-12.75 -21.96,-17.76 -12.93,-8.35 -20.78,-14.09 -20.78,-23.36 0,-3.69 -2.99,-6.68 -6.68,-6.68 -0.13,0 -0.25,0.03 -0.38,0.04 -0.12,-0.01 -0.25,-0.04 -0.37,-0.04 -3.7,0 -6.69,2.99 -6.69,6.68 0,9.27 -7.85,15.01 -20.78,23.36 -8.24,5.31 -17.1,11.07 -22.98,19.14 -5.88,-8.07 -14.75,-13.83 -22.99,-19.14 -12.93,-8.35 -20.78,-14.09 -20.78,-23.36 0,-3.69 -2.99,-6.68 -6.68,-6.68 -0.13,0 -0.25,0.03 -0.38,0.04 -0.13,-0.01 -0.25,-0.04 -0.38,-0.04 -3.69,0 -6.68,2.99 -6.68,6.68 0,9.27 -7.85,15.01 -20.78,23.36 -7.77,5.01 -16.11,10.4 -21.96,17.76 -5.23,-7.38 -13.19,-12.55 -20.16,-17.05 -10.78,-6.96 -17.32,-11.71 -17.32,-19.15 0,-3.69 -2.99,-6.68 -6.69,-6.68 -3.69,0 -6.68,2.99 -6.68,6.68 0,15.26 12.46,23.29 23.45,30.38 12.25,7.92 19.69,13.45 19.69,23.55l0 190.82c-0.05,12.45 -11.72,19.98 -25.24,28.71 -7.42,4.79 -15.27,9.89 -21.64,16.25l0 -316.09 155.22 0z"/>
   <path class="fil2" d="M1543.63 2361.38l-212.39 0 0 -133.88c0,-63.05 39.69,-106.32 106.2,-115.96 66.51,9.64 106.19,52.91 106.19,115.96l0 133.88z"/>
   <path class="fil2" d="M1592.29 2073.76l-46.52 0 0 -151.08c5.45,4.93 11.88,9.11 17.99,13.05 14.67,9.47 28.53,18.41 28.53,34.85l0 103.18z"/>
   <polygon class="fil2" points="1404.01,2040.9 1404.01,1974.99 1430.75,1974.99 1430.75,2047.58 1404.01,2047.58 "/>
   <polygon class="fil2" points="1444.12,1974.99 1470.86,1974.99 1470.86,2047.58 1444.12,2047.58 "/>
   <path class="fil2" d="M1476.81 1951.35l-33.35 -69.35c-0.04,-0.09 -0.1,-0.15 -0.14,-0.24 -0.11,-0.2 -0.23,-0.39 -0.35,-0.58 -0.13,-0.18 -0.25,-0.36 -0.38,-0.52 -0.14,-0.16 -0.28,-0.31 -0.43,-0.45 -0.17,-0.17 -0.33,-0.34 -0.51,-0.48 -0.15,-0.12 -0.31,-0.23 -0.47,-0.34 -0.21,-0.14 -0.42,-0.28 -0.64,-0.39 -0.07,-0.04 -0.13,-0.09 -0.21,-0.13 -0.11,-0.05 -0.22,-0.07 -0.32,-0.12 -0.21,-0.09 -0.43,-0.17 -0.66,-0.23 -0.21,-0.07 -0.43,-0.13 -0.66,-0.16 -0.19,-0.04 -0.38,-0.07 -0.57,-0.09 -0.24,-0.03 -0.48,-0.04 -0.73,-0.04 -0.18,0 -0.37,0.01 -0.56,0.03 -0.24,0.02 -0.48,0.06 -0.72,0.1 -0.19,0.04 -0.37,0.09 -0.56,0.14 -0.24,0.07 -0.47,0.16 -0.7,0.26 -0.1,0.04 -0.21,0.06 -0.31,0.11 -0.08,0.04 -0.13,0.09 -0.21,0.13 -0.21,0.11 -0.42,0.25 -0.63,0.38 -0.16,0.12 -0.33,0.23 -0.48,0.35 -0.18,0.15 -0.33,0.3 -0.49,0.46 -0.16,0.16 -0.31,0.31 -0.45,0.47 -0.13,0.17 -0.25,0.34 -0.36,0.52 -0.13,0.19 -0.26,0.38 -0.37,0.59 -0.04,0.08 -0.1,0.14 -0.14,0.23l-33.35 69.35c-6.89,-11.22 -18.68,-18.88 -29.56,-25.9 -4.23,-2.73 -8.27,-5.35 -11.87,-8.03 3.12,-21.82 22.43,-34.34 42.86,-47.52 14.66,-9.46 29.61,-19.16 37.95,-32.68 8.34,13.52 23.29,23.22 37.94,32.68 20.43,13.18 39.75,25.7 42.86,47.52 -3.59,2.68 -7.64,5.3 -11.87,8.03 -10.87,7.02 -22.67,14.68 -29.56,25.9z"/>
   <path class="fil2" d="M1329.1 2047.7l0 26.06 -46.52 0 0 -103.18c0,-16.44 13.86,-25.38 28.53,-34.85 6.11,-3.94 12.54,-8.12 17.99,-13.05l0 125.02z"/>
   <polygon class="fil2" points="1282.22,2087.13 1592.64,2087.13 1592.64,2097.15 1282.22,2097.15 "/>
   <polygon class="fil2" points="1592.64,1611.29 1282.22,1611.29 1282.22,1601.27 1592.64,1601.27 "/>
   <path class="fil3" d="M2987.59 2375.43l-2964.8 0c-3.69,0 -6.68,-2.99 -6.68,-6.68 0,-3.69 2.99,-6.69 6.68,-6.69l2964.8 0c3.69,0 6.68,3 6.68,6.69 0,3.69 -2.99,6.68 -6.68,6.68z"/>
   <path class="fil3" d="M1033.49 1183.79c4.85,0 8.8,-3.94 8.8,-8.78 0,-4.85 -3.95,-8.79 -8.8,-8.79 -4.84,0 -8.78,3.94 -8.78,8.79 0,4.84 3.94,8.78 8.78,8.78z"/>
   <path class="fil3" d="M2188.27 712.36c-3.99,0 -7.24,3.24 -7.24,7.23 0,3.99 3.25,7.23 7.24,7.23 3.99,0 7.23,-3.24 7.23,-7.23 0,-3.99 -3.24,-7.23 -7.23,-7.23z"/>
   <path class="fil3" d="M2157.25 2073.21c-3.98,0 -7.23,3.25 -7.23,7.23 0,3.99 3.25,7.24 7.23,7.24 4,0 7.24,-3.25 7.24,-7.24 0,-3.98 -3.24,-7.23 -7.24,-7.23z"/>
   <path class="fil3" d="M143.68 1422.49c-3.99,0 -7.23,3.25 -7.23,7.23 0,3.99 3.24,7.24 7.23,7.24 3.99,0 7.23,-3.25 7.23,-7.24 0,-3.98 -3.24,-7.23 -7.23,-7.23z"/>
   <path class="fil3" d="M2474.54 1299.43c4.4,0 7.98,-3.58 7.98,-7.98 0,-4.4 -3.58,-7.98 -7.98,-7.98 -4.4,0 -7.98,3.58 -7.98,7.98 0,4.4 3.58,7.98 7.98,7.98z"/>
   <path class="fil3" d="M2100.33 1346.74c1.53,0 2.78,1.25 2.78,2.78 0,1.53 -1.25,2.78 -2.78,2.78 -1.53,0 -2.77,-1.25 -2.77,-2.78 0,-1.53 1.24,-2.78 2.77,-2.78zm0 13.37c5.84,0 10.59,-4.75 10.59,-10.59 0,-5.84 -4.75,-10.59 -10.59,-10.59 -5.84,0 -10.59,4.75 -10.59,10.59 0,5.84 4.75,10.59 10.59,10.59z"/>
   <path class="fil3" d="M252.48 1292.29c2.47,2.05 6.04,2.05 8.51,0.01l38.93 -32.14 38.92 32.14c1.25,1.03 2.76,1.53 4.25,1.53 1.93,0 3.84,-0.83 5.16,-2.43 2.35,-2.85 1.94,-7.06 -0.9,-9.41l-43.18 -35.65c-2.47,-2.04 -6.04,-2.04 -8.51,0l-38.92 32.14 -38.9 -32.14c-2.47,-2.04 -6.04,-2.04 -8.51,0l-38.91 32.14 -38.9 -32.14c-2.85,-2.36 -7.06,-1.95 -9.4,0.9 -2.36,2.85 -1.95,7.06 0.89,9.41l43.15 35.64c2.47,2.05 6.04,2.05 8.51,0.01l38.91 -32.14 38.9 32.13z"/>
   <path class="fil3" d="M1736.87 801.07c1.25,1.03 2.76,1.53 4.25,1.53 1.93,0 3.84,-0.83 5.17,-2.43 2.34,-2.85 1.94,-7.06 -0.9,-9.41l-43.19 -35.64c-2.47,-2.04 -6.04,-2.04 -8.51,0l-38.92 32.13 -38.91 -32.13c-2.47,-2.04 -6.03,-2.04 -8.51,0l-38.9 32.13 -38.9 -32.13c-2.84,-2.36 -7.06,-1.95 -9.41,0.89 -2.35,2.85 -1.95,7.06 0.9,9.41l43.15 35.65c2.47,2.04 6.04,2.04 8.51,0l38.91 -32.13 38.9 32.13c2.47,2.04 6.04,2.04 8.51,0l38.93 -32.14 38.92 32.14z"/>
   <path class="fil3" d="M694.14 914.83l49.19 0c3.69,0 6.68,-2.99 6.68,-6.68 0,-3.7 -2.99,-6.68 -6.68,-6.68l-49.19 0c-3.69,0 -6.68,2.98 -6.68,6.68 0,3.69 2.99,6.68 6.68,6.68z"/>
   <path class="fil3" d="M743.33 930.57l-24.6 0c-3.68,0 -6.68,2.99 -6.68,6.68 0,3.7 3,6.69 6.68,6.69l24.6 0c3.69,0 6.68,-2.99 6.68,-6.69 0,-3.69 -2.99,-6.68 -6.68,-6.68z"/>
   <path class="fil3" d="M781.33 861.36l9.22 0c3.69,0 6.68,-2.99 6.68,-6.68 0,-3.69 -2.99,-6.68 -6.68,-6.68l-9.22 0c-3.69,0 -6.69,2.99 -6.69,6.68 0,3.69 3,6.68 6.69,6.68z"/>
   <path class="fil3" d="M801.2 887.75c2.01,0.77 4.25,0.5 6.04,-0.68 1.78,-1.18 2.89,-3.14 2.99,-5.28 0.83,-19 16.36,-33.88 35.36,-33.88 18.48,0 33.65,13.88 35.29,32.28 0.3,3.38 3.08,6 6.47,6.09 12.81,0.36 22.85,10.67 22.85,23.47 0,12.96 -10.55,23.51 -23.51,23.51l-93.71 0c-12.97,0 -23.51,-10.55 -23.51,-23.51 0,-12.96 10.54,-23.51 23.51,-23.51 2.78,0 5.54,0.51 8.22,1.51zm-51.81 -0.65l14.54 0c-4.88,6.26 -7.83,14.11 -7.83,22.65 0,20.33 16.54,36.87 36.88,36.87l93.71 0c20.33,0 36.87,-16.54 36.87,-36.87 0,-18.16 -12.86,-33.12 -30.17,-36.25 -4.55,-22.55 -24.22,-38.96 -47.8,-38.96 -23.43,0 -43.05,16.44 -47.71,38.67 -1.63,-0.23 -3.26,-0.34 -4.9,-0.34 -2.7,0 -5.33,0.31 -7.86,0.87l-35.73 0c-3.69,0 -6.68,2.99 -6.68,6.68 0,3.69 2.99,6.68 6.68,6.68z"/>
   <path class="fil3" d="M2622.95 989.91c0.01,0 0.02,0 0.03,0l0.79 0.04c2.87,0.12 5.36,-1.62 6.4,-4.23 4.63,-11.73 15.84,-19.31 28.55,-19.31 16.91,0 30.66,13.6 30.64,30.63l-0.04 0.69c-0.1,2.45 1.15,4.75 3.26,6.01 2.1,1.25 4.71,1.26 6.83,0.01 4.77,-2.83 10.19,-4.32 15.69,-4.32 16.91,0 30.67,13.6 30.67,30.32 0,16.72 -13.76,30.32 -30.67,30.32l-92.33 0c-19.57,0 -35.49,-15.74 -35.49,-35.09 0,-19.34 15.91,-35.07 35.67,-35.07zm-66.3 3.51l29.14 0c-7.37,8.49 -11.87,19.5 -11.87,31.56 0,7.96 1.97,15.45 5.42,22.09l-22.69 0c-3.69,0 -6.68,2.99 -6.68,6.68 0,3.7 2.99,6.69 6.68,6.69l24.59 0c2.27,0 4.27,-1.14 5.48,-2.87 8.94,9.72 21.77,15.87 36.05,15.87l92.33 0c24.28,0 44.04,-19.6 44.04,-43.69 0,-24.08 -19.76,-43.68 -44.04,-43.68 -4.49,0 -8.95,0.69 -13.21,2.03 -4.05,-19.97 -21.87,-35.06 -43.17,-35.06 -16.68,0 -31.55,9.12 -39.08,23.58 -5.3,0.33 -10.35,1.55 -15.06,3.44l-47.93 0c-3.69,0 -6.68,2.98 -6.68,6.68 0,3.69 2.99,6.68 6.68,6.68z"/>
   <path class="fil3" d="M2511.34 1019.92l49.19 0c3.69,0 6.68,-2.99 6.68,-6.68 0,-3.69 -2.99,-6.68 -6.68,-6.68l-49.19 0c-3.69,0 -6.68,2.99 -6.68,6.68 0,3.69 2.99,6.68 6.68,6.68z"/>
   <path class="fil3" d="M2526.52 1047.07c-3.69,0 -6.68,2.99 -6.68,6.68 0,3.7 2.99,6.69 6.68,6.69l5.16 0c3.69,0 6.69,-2.99 6.69,-6.69 0,-3.69 -3,-6.68 -6.69,-6.68l-5.16 0z"/>
   <path class="fil3" d="M2603.25 966.41l5.16 0c3.69,0 6.69,-2.99 6.69,-6.69 0,-3.69 -3,-6.68 -6.69,-6.68l-5.16 0c-3.69,0 -6.68,2.99 -6.68,6.68 0,3.7 2.99,6.69 6.68,6.69z"/>
   <path class="fil3" d="M1741.13 1222.88c-3.69,0 -6.69,2.99 -6.69,6.68l0 6.34 -6.33 0c-3.7,0 -6.69,2.99 -6.69,6.69 0,3.69 2.99,6.68 6.69,6.68l6.33 0 0 6.34c0,3.69 3,6.68 6.69,6.68 3.69,0 6.68,-2.99 6.68,-6.68l0 -6.34 6.34 0c3.69,0 6.68,-2.99 6.68,-6.68 0,-3.7 -2.99,-6.69 -6.68,-6.69l-6.34 0 0 -6.34c0,-3.69 -2.99,-6.68 -6.68,-6.68z"/>
   <path class="fil3" d="M805.51 1509.53c3.69,0 6.69,-2.99 6.69,-6.68l0 -6.34 6.33 0c3.7,0 6.69,-2.99 6.69,-6.69 0,-3.69 -2.99,-6.68 -6.69,-6.68l-6.33 0 0 -6.34c0,-3.69 -3,-6.68 -6.69,-6.68 -3.69,0 -6.68,2.99 -6.68,6.68l0 6.34 -6.34 0c-3.69,0 -6.68,2.99 -6.68,6.68 0,3.7 2.99,6.69 6.68,6.69l6.34 0 0 6.34c0,3.69 2.99,6.68 6.68,6.68z"/>
   <path class="fil3" d="M1180.16 1991.14l6.34 0 0 6.34c0,3.69 3,6.69 6.69,6.69 3.69,0 6.68,-3 6.68,-6.69l0 -6.34 6.34 0c3.69,0 6.68,-2.99 6.68,-6.68 0,-3.69 -2.99,-6.68 -6.68,-6.68l-6.34 0 0 -6.34c0,-3.69 -2.99,-6.69 -6.68,-6.69 -3.69,0 -6.69,3 -6.69,6.69l0 6.34 -6.34 0c-3.69,0 -6.68,2.99 -6.68,6.68 0,3.69 2.99,6.68 6.68,6.68z"/>
   <path class="fil3" d="M1328.05 861.36l1.34 0 0 1.35c0,3.68 2.99,6.68 6.68,6.68 3.7,0 6.69,-3 6.69,-6.68l0 -1.35 1.34 0c3.7,0 6.68,-2.99 6.68,-6.68 0,-3.69 -2.98,-6.68 -6.68,-6.68l-1.34 0 0 -1.34c0,-3.7 -2.99,-6.69 -6.69,-6.69 -3.69,0 -6.68,2.99 -6.68,6.69l0 1.34 -1.34 0c-3.69,0 -6.68,2.99 -6.68,6.68 0,3.69 2.99,6.68 6.68,6.68z"/>
   <path class="fil3" d="M119.24 1951.65l1.34 0 0 1.34c0,3.69 2.99,6.68 6.69,6.68 3.69,0 6.68,-2.99 6.68,-6.68l0 -1.34 1.34 0c3.69,0 6.69,-3 6.69,-6.69 0,-3.69 -3,-6.68 -6.69,-6.68l-1.34 0 0 -1.35c0,-3.68 -2.99,-6.68 -6.68,-6.68 -3.7,0 -6.69,3 -6.69,6.68l0 1.35 -1.34 0c-3.69,0 -6.68,2.99 -6.68,6.68 0,3.69 2.99,6.69 6.68,6.69z"/>
   <path class="fil3" d="M1728.75 1781.58c3.69,0 6.69,-2.99 6.69,-6.68l0 -1.34 1.34 0c3.69,0 6.69,-3 6.69,-6.69 0,-3.68 -3,-6.68 -6.69,-6.68l-1.34 0 0 -1.34c0,-3.69 -3,-6.69 -6.69,-6.69 -3.69,0 -6.68,3 -6.68,6.69l0 1.34 -1.34 0c-3.69,0 -6.68,3 -6.68,6.68 0,3.69 2.99,6.69 6.68,6.69l1.34 0 0 1.34c0,3.69 2.99,6.68 6.68,6.68z"/>
   <path class="fil3" d="M2927.67 1644.36l-1.34 0 0 -1.35c0,-3.69 -2.99,-6.68 -6.68,-6.68 -3.7,0 -6.69,2.99 -6.69,6.68l0 1.35 -1.34 0c-3.69,0 -6.68,2.99 -6.68,6.68 0,3.69 2.99,6.68 6.68,6.68l1.34 0 0 1.34c0,3.69 2.99,6.69 6.69,6.69 3.69,0 6.68,-3 6.68,-6.69l0 -1.34 1.34 0c3.69,0 6.68,-2.99 6.68,-6.68 0,-3.69 -2.99,-6.68 -6.68,-6.68z"/>
   <path class="fil3" d="M1758.18 2320.43l-50.63 0c-14.14,0 -25.66,-11.51 -25.66,-25.65 0,-8.6 4.29,-16.59 11.47,-21.36 2.15,-1.44 3.28,-3.97 2.91,-6.53 -0.25,-1.7 -0.36,-3.12 -0.36,-4.45 0,-17.36 14.12,-31.49 31.48,-31.49 17.36,0 31.48,14.13 31.48,31.49 0,4.77 -1.07,9.4 -3.21,13.76 -0.93,1.91 -0.9,4.16 0.1,6.05 0.99,1.89 2.83,3.19 4.95,3.49 8.5,1.24 14.92,8.66 14.92,17.24 0,9.62 -7.83,17.45 -17.45,17.45zm12.32 -45.66c1.16,-3.99 1.74,-8.12 1.74,-12.33 0,-24.73 -20.12,-44.85 -44.85,-44.85 -24.73,0 -44.85,20.12 -44.85,44.85 0,0.76 0.03,1.53 0.07,2.33 -8.89,7.38 -14.08,18.32 -14.08,30.01 0,21.52 17.5,39.02 39.02,39.02l14.53 0 0 29.24c0,3.69 2.99,6.68 6.68,6.68 3.69,0 6.69,-2.99 6.69,-6.68l0 -29.24 22.73 0c16.99,0 30.81,-13.82 30.81,-30.82 0,-12.39 -7.55,-23.39 -18.49,-28.21z"/>
   <path class="fil3" d="M1193.25 2328.66l-33.98 0c-9.03,0 -16.37,-7.34 -16.37,-16.37 0,-6.25 3.55,-11.87 9.26,-14.66 1.8,-0.87 3.11,-2.5 3.58,-4.45 0.46,-1.94 0.03,-3.99 -1.17,-5.59 -3.84,-5.08 -5.87,-11.1 -5.87,-17.41 0,-15.97 12.99,-28.96 28.96,-28.96 15.97,0 28.96,12.99 28.96,28.96 0,3.03 -0.48,6.03 -1.43,8.95 -0.87,2.69 0.05,5.65 2.3,7.37 5.88,4.5 9.25,11.3 9.25,18.66 0,12.96 -10.54,23.5 -23.49,23.5zm26.74 -58.48c0,-23.34 -18.99,-42.33 -42.33,-42.33 -23.34,0 -42.33,18.99 -42.33,42.33 0,6.85 1.63,13.47 4.76,19.46 -6.64,5.56 -10.56,13.74 -10.56,22.65 0,16.4 13.34,29.74 29.74,29.74l14.08 0 0 25.06c0,3.69 3,6.69 6.69,6.69 3.69,0 6.68,-3 6.68,-6.69l0 -25.06 6.53 0c20.33,0 36.86,-16.54 36.86,-36.87 0,-10.01 -3.97,-19.37 -11.04,-26.28 0.61,-2.86 0.92,-5.78 0.92,-8.7z"/>
   <path class="fil3" d="M2902.77 2337.17l-24.87 0c-8.5,0 -15.41,-6.92 -15.41,-15.41 0,-4.82 2.21,-9.29 6.07,-12.23 2.25,-1.73 3.17,-4.68 2.29,-7.37 -0.63,-1.97 -0.95,-3.99 -0.95,-6.01 0,-10.69 8.71,-19.4 19.41,-19.4 10.7,0 19.4,8.71 19.4,19.4 0,4.23 -1.35,8.26 -3.93,11.67 -1.2,1.59 -1.64,3.64 -1.17,5.59 0.46,1.94 1.77,3.57 3.58,4.45 3.55,1.73 5.77,5.23 5.77,9.12 0,5.62 -4.57,10.19 -10.19,10.19zm19.31 -41.02c0,-18.07 -14.7,-32.77 -32.77,-32.77 -18.08,0 -32.78,14.7 -32.78,32.77 0,1.94 0.18,3.87 0.52,5.79 -5.09,5.31 -7.93,12.33 -7.93,19.82 0,15.87 12.91,28.78 28.78,28.78l2.98 0 0 16.55c0,3.69 2.99,6.69 6.68,6.69 3.69,0 6.69,-3 6.69,-6.69l0 -16.55 8.52 0c12.99,0 23.56,-10.57 23.56,-23.56 0,-6.58 -2.69,-12.65 -7.31,-17.02 2.01,-4.29 3.06,-8.97 3.06,-13.81z"/>
   <path class="fil3" d="M131.49 2330.33c-3.43,3.8 -8.14,6.04 -13.26,6.29 -4.13,0.21 -14.6,0.12 -21.41,0.06l-5.4 -0.03c-6.88,0 -12.48,-5.6 -12.48,-12.49 0,-6.85 5.57,-12.44 12.42,-12.47 2.19,-0.01 4.24,-1.09 5.48,-2.89 1.24,-1.8 1.52,-4.1 0.75,-6.15 -0.53,-1.42 -0.8,-2.88 -0.8,-4.34 0,-6.88 5.6,-12.49 12.49,-12.49 5.81,0 10.8,3.96 12.13,9.63 0.47,2.03 1.86,3.72 3.74,4.57 6.59,2.99 10.91,9.31 11.27,16.5 0.26,5.11 -1.49,10.02 -4.93,13.81zm2 -41.04c-3.71,-10.06 -13.25,-16.83 -24.21,-16.83 -14.26,0 -25.86,11.59 -25.86,25.85 0,0.42 0.01,0.85 0.03,1.27 -10.36,3.37 -17.88,13.14 -17.88,24.58 0,14.26 11.6,25.85 25.85,25.85l5.29 0.04c1.32,0.01 2.79,0.02 4.3,0.03l0 18.46c0,3.69 2.99,6.68 6.68,6.68 3.69,0 6.68,-2.99 6.68,-6.68l0 -18.46c1.83,-0.02 3.41,-0.05 4.54,-0.11 8.67,-0.43 16.66,-4.22 22.49,-10.67 5.83,-6.44 8.81,-14.77 8.37,-23.45 -0.56,-11.15 -6.71,-21.07 -16.28,-26.56z"/>
   <path class="fil3" d="M2137.05 2315.19c-5.51,6.1 -13.08,9.68 -21.29,10.09 -2.48,0.13 -7.01,0.19 -13.46,0.19 -6,0 -12.59,-0.06 -17.76,-0.1 -3.37,-0.02 -6.15,-0.05 -7.78,-0.05 -11.64,0 -21.1,-9.45 -21.1,-21.08 0,-11.57 9.42,-21.04 21,-21.09 2.19,-0.01 4.24,-1.09 5.48,-2.89 1.24,-1.8 1.52,-4.09 0.75,-6.14 -0.91,-2.41 -1.37,-4.89 -1.37,-7.36 0,-11.63 9.47,-21.08 21.1,-21.08 9.84,0 18.28,6.69 20.51,16.27 0.47,2.02 1.86,3.71 3.75,4.57 10.57,4.79 17.5,14.94 18.09,26.48 0.41,8.21 -2.4,16.09 -7.92,22.19zm-1.79 -59.43c-4.66,-13.96 -17.65,-23.45 -32.64,-23.45 -19,0 -34.46,15.45 -34.46,34.45 0,1.36 0.08,2.71 0.24,4.06 -14.97,3.74 -26.11,17.33 -26.11,33.42 0,19 15.46,34.45 34.47,34.45 1.61,0 4.34,0.02 7.67,0.05 2.76,0.02 5.94,0.04 9.22,0.07l0 29.73c0,3.69 2.99,6.68 6.68,6.68 3.69,0 6.69,-2.99 6.69,-6.68l0 -29.71c4.26,-0.03 7.37,-0.09 9.41,-0.2 11.78,-0.59 22.62,-5.73 30.53,-14.47 7.91,-8.75 11.95,-20.05 11.36,-31.83 -0.78,-15.51 -9.53,-29.24 -23.06,-36.57z"/>
   <path class="fil3" d="M2513.76 2158.23c-2.46,0 -4.46,-2 -4.46,-4.45 0,-2.46 2,-4.46 4.46,-4.46 2.45,0 4.45,2 4.45,4.46 0,2.45 -2,4.45 -4.45,4.45zm0 -22.28c-9.83,0 -17.83,8 -17.83,17.83 0,9.83 8,17.82 17.83,17.82 9.82,0 17.82,-7.99 17.82,-17.82 0,-9.83 -8,-17.83 -17.82,-17.83z"/>
   <path class="fil3" d="M2513.76 1674.6c7.16,0 13,5.83 13,13 0,7.17 -5.84,13 -13,13 -7.18,0 -13.01,-5.83 -13.01,-13 0,-7.17 5.83,-13 13.01,-13zm0 39.37c14.53,0 26.36,-11.83 26.36,-26.37 0,-14.54 -11.83,-26.37 -26.36,-26.37 -14.54,0 -26.37,11.83 -26.37,26.37 0,14.54 11.83,26.37 26.37,26.37z"/>
   <path class="fil3" d="M2570.57 2115.9l0 86.57 -32.79 -86.57 32.79 0zm48.45 0l0 85.93 -11.28 -30.33c-0.03,-0.08 -0.08,-0.15 -0.11,-0.22 -0.08,-0.22 -0.19,-0.42 -0.3,-0.62 -0.1,-0.18 -0.2,-0.37 -0.32,-0.55 -0.12,-0.18 -0.26,-0.35 -0.4,-0.52 -0.14,-0.16 -0.27,-0.32 -0.41,-0.47 -0.17,-0.17 -0.35,-0.31 -0.53,-0.46 -0.15,-0.12 -0.3,-0.25 -0.46,-0.35 -0.2,-0.14 -0.41,-0.25 -0.62,-0.37 -0.18,-0.09 -0.35,-0.18 -0.54,-0.26 -0.08,-0.03 -0.16,-0.08 -0.25,-0.12 -0.13,-0.05 -0.28,-0.07 -0.42,-0.11 -0.19,-0.06 -0.39,-0.11 -0.59,-0.15 -0.23,-0.05 -0.45,-0.08 -0.68,-0.1 -0.21,-0.02 -0.42,-0.03 -0.64,-0.03 -0.21,0 -0.42,0.01 -0.63,0.03 -0.23,0.02 -0.45,0.05 -0.68,0.09 -0.2,0.05 -0.39,0.1 -0.59,0.16 -0.15,0.05 -0.28,0.06 -0.42,0.11 -0.09,0.04 -0.16,0.09 -0.25,0.12 -0.19,0.08 -0.37,0.18 -0.54,0.27 -0.21,0.11 -0.42,0.22 -0.62,0.35 -0.16,0.11 -0.31,0.24 -0.47,0.37 -0.18,0.14 -0.35,0.28 -0.52,0.45 -0.14,0.15 -0.27,0.31 -0.41,0.47 -0.14,0.17 -0.28,0.34 -0.4,0.52 -0.11,0.18 -0.22,0.37 -0.32,0.55 -0.11,0.2 -0.21,0.4 -0.3,0.62 -0.03,0.07 -0.08,0.14 -0.11,0.22l-11.28 30.33 0 -85.93 35.09 0zm33.42 246.16l-20.05 0 0 -246.16 20.05 0 0 246.16zm104.15 -150.3l-39.47 -75.56c-0.01,-0.01 -0.01,-0.02 -0.01,-0.03 -0.19,-0.33 -0.4,-0.65 -0.64,-0.96 -0.04,-0.05 -0.07,-0.1 -0.1,-0.15 -0.16,-0.19 -0.35,-0.35 -0.52,-0.52 -0.14,-0.14 -0.26,-0.29 -0.42,-0.41 -0.06,-0.06 -0.14,-0.1 -0.21,-0.15 -0.29,-0.21 -0.58,-0.42 -0.9,-0.58 -0.01,-0.01 -0.02,-0.02 -0.03,-0.03 -0.11,-0.06 -0.23,-0.09 -0.35,-0.14 -0.27,-0.12 -0.54,-0.24 -0.82,-0.33 -0.21,-0.06 -0.41,-0.09 -0.62,-0.13 -0.22,-0.04 -0.43,-0.1 -0.65,-0.12 -0.21,-0.02 -0.42,-0.01 -0.63,-0.01 -0.22,0 -0.45,-0.01 -0.68,0.01 -0.2,0.02 -0.39,0.07 -0.58,0.11 -0.23,0.04 -0.47,0.08 -0.69,0.14 -0.24,0.08 -0.47,0.18 -0.7,0.29 -0.16,0.06 -0.32,0.1 -0.47,0.18 -0.01,0.01 -0.02,0.02 -0.04,0.03 -0.25,0.13 -0.48,0.31 -0.72,0.47 -0.12,0.1 -0.26,0.16 -0.39,0.27 -0.08,0.06 -0.14,0.15 -0.22,0.22 -0.25,0.22 -0.5,0.45 -0.71,0.71 -0.02,0.03 -0.04,0.06 -0.06,0.09 -0.25,0.33 -0.48,0.66 -0.67,1.01 0,0.01 -0.01,0.02 -0.02,0.03l-39.46 75.56 0 -95.86 90.78 0 0 95.86zm33.42 150.3l-20.05 0 0 -246.16 20.05 0 0 246.16zm-78.8 -143.28c4.95,2.05 19.34,10.17 19.34,35.25l0 108.03 -38.7 0 0 -108.03c0,-25.05 14.34,-33.17 19.36,-35.25zm-45.4 21.84l45.39 -86.9 45.39 86.9 0 121.44 -12.67 0 0 -108.03c0,-31.72 -19.58,-45.52 -30.45,-48.62 -0.04,-0.01 -0.08,-0.02 -0.11,-0.03 -0.16,-0.05 -0.34,-0.11 -0.5,-0.15 -0.09,-0.03 -0.19,-0.03 -0.28,-0.05 -0.25,-0.05 -0.5,-0.09 -0.76,-0.11 -0.21,-0.02 -0.42,-0.04 -0.63,-0.04 -0.2,0 -0.4,0.02 -0.61,0.04 -0.27,0.02 -0.53,0.06 -0.78,0.12 -0.09,0.01 -0.18,0.01 -0.27,0.04 -0.14,0.04 -0.31,0.09 -0.46,0.14 -0.06,0.02 -0.11,0.03 -0.16,0.05 -10.88,3.11 -30.43,16.91 -30.43,48.61l0 108.03 -12.67 0 0 -121.44zm-81.88 -0.43l17.54 -47.18 17.55 47.18 0 121.87 -35.09 0 0 -121.87zm-175.44 0l17.54 -47.18 17.55 47.18 0 121.87 -35.09 0 0 -121.87zm-33.42 -124.29l20.05 0 0 246.16 -20.05 0 0 -246.16zm-58.75 102.88c4.95,2.05 19.35,10.17 19.35,35.25l0 108.03 -38.71 0 0 -108.03c0,-25.05 14.34,-33.17 19.36,-35.25zm-45.4 21.84l45.39 -86.9 45.39 86.9 0 121.44 -12.67 0 0 -108.03c0,-31.72 -19.57,-45.52 -30.45,-48.62 -0.03,-0.01 -0.07,-0.02 -0.11,-0.03 -0.16,-0.05 -0.34,-0.11 -0.5,-0.15 -0.09,-0.03 -0.19,-0.03 -0.27,-0.05 -0.26,-0.05 -0.51,-0.09 -0.77,-0.11 -0.21,-0.02 -0.42,-0.04 -0.62,-0.04 -0.21,0 -0.41,0.02 -0.62,0.04 -0.27,0.02 -0.53,0.06 -0.78,0.12 -0.09,0.01 -0.17,0.01 -0.26,0.04 -0.15,0.04 -0.32,0.09 -0.47,0.14 -0.05,0.02 -0.11,0.03 -0.16,0.05 -10.88,3.11 -30.43,16.91 -30.43,48.61l0 108.03 -12.67 0 0 -121.44zm-33.42 -124.72l20.05 0 0 246.16 -20.05 0 0 -246.16zm124.2 95.86l-39.47 -75.56c0,-0.01 -0.01,-0.02 -0.01,-0.03 -0.18,-0.33 -0.4,-0.65 -0.64,-0.96 -0.03,-0.05 -0.06,-0.1 -0.1,-0.15 -0.15,-0.19 -0.35,-0.35 -0.52,-0.52 -0.14,-0.14 -0.26,-0.29 -0.41,-0.41 -0.07,-0.06 -0.15,-0.1 -0.22,-0.15 -0.29,-0.21 -0.58,-0.42 -0.9,-0.58 -0.01,-0.01 -0.02,-0.02 -0.02,-0.03 -0.12,-0.06 -0.24,-0.09 -0.36,-0.14 -0.27,-0.12 -0.54,-0.24 -0.82,-0.33 -0.2,-0.06 -0.41,-0.09 -0.61,-0.13 -0.22,-0.04 -0.44,-0.1 -0.66,-0.12 -0.21,-0.02 -0.41,-0.01 -0.62,-0.01 -0.23,0 -0.45,-0.01 -0.68,0.01 -0.2,0.02 -0.39,0.07 -0.59,0.11 -0.23,0.04 -0.46,0.08 -0.69,0.14 -0.24,0.08 -0.47,0.18 -0.7,0.29 -0.15,0.06 -0.31,0.1 -0.46,0.18 -0.02,0.01 -0.03,0.02 -0.04,0.03 -0.26,0.13 -0.49,0.31 -0.72,0.47 -0.13,0.1 -0.27,0.16 -0.39,0.27 -0.08,0.06 -0.15,0.15 -0.23,0.22 -0.25,0.22 -0.49,0.45 -0.7,0.71 -0.03,0.03 -0.04,0.06 -0.07,0.09 -0.25,0.33 -0.47,0.66 -0.66,1.01 -0.01,0.01 -0.02,0.02 -0.02,0.03l-39.47 75.56 0 -95.86 90.78 0 0 95.86zm81.88 -9.93l-11.28 -30.33c-0.03,-0.08 -0.08,-0.15 -0.11,-0.22 -0.09,-0.22 -0.19,-0.42 -0.3,-0.62 -0.11,-0.18 -0.2,-0.37 -0.33,-0.55 -0.12,-0.18 -0.26,-0.35 -0.4,-0.52 -0.13,-0.16 -0.26,-0.32 -0.41,-0.47 -0.16,-0.17 -0.34,-0.31 -0.53,-0.46 -0.14,-0.12 -0.29,-0.25 -0.46,-0.35 -0.19,-0.14 -0.4,-0.25 -0.61,-0.37 -0.18,-0.09 -0.36,-0.18 -0.54,-0.26 -0.08,-0.03 -0.16,-0.08 -0.25,-0.12 -0.14,-0.05 -0.28,-0.07 -0.43,-0.11 -0.19,-0.06 -0.38,-0.11 -0.58,-0.15 -0.23,-0.05 -0.45,-0.08 -0.68,-0.1 -0.22,-0.02 -0.43,-0.03 -0.64,-0.03 -0.21,0 -0.42,0.01 -0.64,0.03 -0.22,0.02 -0.45,0.05 -0.67,0.09 -0.2,0.05 -0.39,0.1 -0.6,0.16 -0.14,0.05 -0.28,0.06 -0.42,0.11 -0.08,0.04 -0.16,0.09 -0.24,0.12 -0.19,0.08 -0.37,0.18 -0.55,0.27 -0.21,0.11 -0.42,0.22 -0.61,0.35 -0.16,0.11 -0.31,0.24 -0.47,0.37 -0.18,0.14 -0.36,0.28 -0.52,0.45 -0.14,0.15 -0.28,0.31 -0.41,0.47 -0.14,0.17 -0.28,0.34 -0.4,0.52 -0.12,0.18 -0.22,0.37 -0.32,0.55 -0.12,0.2 -0.22,0.4 -0.31,0.62 -0.02,0.07 -0.07,0.14 -0.1,0.22l-11.28 30.33 0 -85.93 35.09 0 0 85.93zm13.37 0.64l0 -86.57 32.78 0 -32.78 86.57zm56.81 159.59l-25.07 0 0 -123.08c0,-25.77 18.11,-38.42 25.07,-42.34 6.95,3.92 25.06,16.58 25.06,42.34l0 123.08 -25.06 0zm56.81 -121.86l0 121.86 -18.38 0 0 -123.08c0,-40.15 -34.34,-55.36 -35.8,-55.98 -0.02,-0.01 -0.03,-0.01 -0.05,-0.02 -0.31,-0.13 -0.65,-0.23 -0.98,-0.31 -0.09,-0.03 -0.19,-0.06 -0.29,-0.08 -0.3,-0.06 -0.61,-0.08 -0.92,-0.1 -0.13,-0.01 -0.25,-0.03 -0.37,-0.03 -0.26,0 -0.52,0.04 -0.78,0.07 -0.17,0.02 -0.35,0.02 -0.51,0.05 -0.21,0.05 -0.42,0.12 -0.63,0.18 -0.21,0.07 -0.43,0.12 -0.64,0.21 -0.03,0.01 -0.07,0.01 -0.1,0.03 -1.46,0.62 -35.8,15.83 -35.8,55.98l0 123.08 -18.37 0 0 -121.86 56.81 -149.99 56.81 149.99zm-137.86 -159.94l0 -133.68c0,-60.85 68.98,-84.12 80.91,-87.69 11.92,3.54 80.89,26.69 80.89,87.69l0 133.68 -70.23 0 -4.28 -11.28c-0.02,-0.06 -0.06,-0.12 -0.08,-0.17 -0.1,-0.23 -0.21,-0.44 -0.33,-0.66 -0.1,-0.17 -0.19,-0.35 -0.3,-0.52 -0.12,-0.18 -0.26,-0.35 -0.4,-0.52 -0.14,-0.16 -0.27,-0.33 -0.42,-0.48 -0.15,-0.15 -0.32,-0.28 -0.48,-0.42 -0.17,-0.14 -0.34,-0.28 -0.52,-0.4 -0.17,-0.11 -0.35,-0.2 -0.52,-0.3 -0.22,-0.12 -0.43,-0.23 -0.66,-0.33 -0.06,-0.02 -0.11,-0.06 -0.17,-0.08 -0.12,-0.05 -0.25,-0.06 -0.37,-0.1 -0.24,-0.07 -0.48,-0.15 -0.72,-0.2 -0.2,-0.03 -0.39,-0.05 -0.59,-0.08 -0.24,-0.02 -0.46,-0.04 -0.7,-0.04 -0.21,0 -0.42,0.02 -0.62,0.04 -0.22,0.02 -0.44,0.05 -0.66,0.09 -0.23,0.04 -0.45,0.11 -0.66,0.18 -0.14,0.04 -0.28,0.06 -0.41,0.11 -0.07,0.02 -0.13,0.06 -0.19,0.09 -0.21,0.09 -0.41,0.19 -0.61,0.3 -0.19,0.11 -0.38,0.2 -0.56,0.32 -0.17,0.12 -0.32,0.25 -0.49,0.39 -0.17,0.14 -0.35,0.27 -0.51,0.43 -0.14,0.15 -0.27,0.31 -0.4,0.47 -0.15,0.18 -0.29,0.35 -0.42,0.53 -0.11,0.17 -0.19,0.34 -0.29,0.52 -0.12,0.21 -0.23,0.43 -0.33,0.66 -0.02,0.05 -0.06,0.11 -0.09,0.17l-4.27 11.28 -70.52 0zm-40.93 -228.36l0 -276.53 13.79 -54.39 13.78 54.39 0 504.89 -27.57 0 0 -228.36zm-70.38 53.47c0,-10.12 3.03,-14.74 5.16,-16.74 2.06,1.98 5.13,6.62 5.13,16.74l0 174.89 -10.29 0 0 -174.89zm-46.72 -46.78l103.73 0 0 221.67 -33.36 0 0 -174.89c0,-23.9 -13.58,-29.85 -16.24,-30.79 -0.1,-0.03 -0.2,-0.07 -0.3,-0.1 -0.05,-0.02 -0.13,-0.04 -0.15,-0.05 -0.09,-0.02 -0.19,-0.02 -0.27,-0.04 -0.3,-0.08 -0.61,-0.14 -0.92,-0.17 -0.2,-0.02 -0.4,-0.01 -0.6,-0.01 -0.22,0 -0.44,-0.01 -0.66,0.01 -0.29,0.03 -0.56,0.09 -0.84,0.15 -0.11,0.03 -0.23,0.03 -0.34,0.06 -0.03,0.01 -0.12,0.04 -0.19,0.06 -0.06,0.02 -0.12,0.04 -0.18,0.06 -2.47,0.85 -16.33,6.69 -16.33,30.82l0 174.89 -33.35 0 0 -221.67zm-40.94 -283.22l13.79 -54.39 13.78 54.39 0 504.89 -27.57 0 0 -504.89zm40.94 213.04l103.73 0 0 56.81 -103.73 0 0 -56.81zm46.72 -13.37l0 -174.89c0,-10.11 3.03,-14.73 5.16,-16.74 2.06,1.99 5.13,6.63 5.13,16.74l0 174.89 -10.29 0zm-15.92 -253.97l42.13 0 30.8 82.15 0 171.82 -33.36 0 0 -174.89c0,-23.9 -13.58,-29.85 -16.24,-30.78 -0.1,-0.04 -0.2,-0.08 -0.3,-0.11 -0.05,-0.01 -0.13,-0.04 -0.15,-0.04 -0.09,-0.03 -0.19,-0.03 -0.28,-0.06 -0.29,-0.07 -0.6,-0.12 -0.9,-0.16 -0.22,-0.02 -0.43,-0.01 -0.64,-0.01 -0.21,0 -0.41,-0.01 -0.62,0.01 -0.3,0.04 -0.59,0.09 -0.89,0.16 -0.1,0.03 -0.21,0.03 -0.3,0.06 -0.03,0.01 -0.11,0.03 -0.16,0.05 -0.08,0.02 -0.16,0.05 -0.24,0.08 -2.52,0.87 -16.3,6.75 -16.3,30.8l0 174.89 -33.35 0 0 -171.82 30.8 -82.15zm21.06 -188.19l19.02 113.74 0 61.08 -38.02 0 0 -61.08 19 -113.74zm168.3 444.91c-5.83,14.34 -13.98,28.68 -24.95,36.75 -10.94,-8.06 -19.09,-22.4 -24.92,-36.75l49.87 0zm18.78 -199.88l68.7 186.51 -54.76 0c-4.15,-12.86 -6.41,-23.96 -7.18,-28.08 0.34,-3.49 -2.06,-6.69 -5.57,-7.26 -0.29,-0.04 -0.59,-0.04 -0.88,-0.05 -0.1,0 -0.19,-0.01 -0.29,-0.02 -0.15,0.01 -0.29,0.02 -0.43,0.03 -0.27,0.01 -0.52,0.01 -0.8,0.05 -3.5,0.56 -5.9,3.75 -5.56,7.24 -0.76,4.12 -3.02,15.22 -7.17,28.09l-54.77 0 68.71 -186.51zm43.72 236.63c-10.95,-8.06 -19.1,-22.4 -24.93,-36.75l49.87 0c-5.83,14.34 -13.97,28.68 -24.94,36.75zm208.58 265.72l0 -504.89 13.78 -54.39 13.79 54.39 0 504.89 -27.57 0zm-70.37 -174.89c0,-10.12 3.02,-14.74 5.15,-16.74 2.07,1.98 5.13,6.62 5.13,16.74l0 174.89 -10.28 0 0 -174.89zm-46.73 -46.78l103.73 0 0 221.67 -33.36 0 0 -174.89c0,-23.94 -13.62,-29.87 -16.25,-30.79 -0.09,-0.03 -0.19,-0.07 -0.29,-0.1 -0.04,-0.02 -0.12,-0.04 -0.15,-0.05 -0.09,-0.02 -0.18,-0.02 -0.28,-0.05 -0.3,-0.07 -0.6,-0.13 -0.9,-0.16 -0.2,-0.02 -0.4,-0.01 -0.6,-0.01 -0.23,0 -0.45,-0.01 -0.67,0.01 -0.28,0.03 -0.55,0.09 -0.81,0.15 -0.13,0.02 -0.25,0.03 -0.37,0.06 -0.03,0.01 -0.12,0.04 -0.19,0.06 -0.05,0.02 -0.1,0.03 -0.15,0.05 -2.41,0.83 -16.35,6.64 -16.35,30.83l0 174.89 -33.36 0 0 -221.67zm46.73 -258.44c0,-10.11 3.02,-14.73 5.15,-16.74 2.07,1.99 5.13,6.63 5.13,16.74l0 174.89 -10.28 0 0 -174.89zm-46.73 188.26l103.73 0 0 56.81 -103.73 0 0 -56.81zm30.8 -267.34l42.13 0 30.8 82.15 0 171.82 -33.36 0 0 -174.89c0,-23.93 -13.62,-29.86 -16.25,-30.78 -0.09,-0.04 -0.19,-0.08 -0.29,-0.11 -0.04,-0.01 -0.12,-0.04 -0.15,-0.04 -0.09,-0.03 -0.19,-0.03 -0.29,-0.06 -0.29,-0.07 -0.58,-0.12 -0.89,-0.16 -0.21,-0.02 -0.42,-0.01 -0.64,-0.01 -0.2,0 -0.41,-0.01 -0.62,0.01 -0.29,0.03 -0.58,0.09 -0.86,0.16 -0.11,0.02 -0.22,0.03 -0.33,0.06 -0.03,0.01 -0.11,0.03 -0.17,0.05 -0.06,0.02 -0.13,0.04 -0.2,0.07 -2.47,0.85 -16.32,6.69 -16.32,30.81l0 174.89 -33.36 0 0 -171.82 30.8 -82.15zm21.07 -188.19l19.01 113.74 0 61.08 -38.03 0 0 -61.08 19.02 -113.74zm-92.81 613.7l0 -371.21 13.79 -54.39 13.78 54.39 0 504.89 -27.57 0 0 -133.68zm-91.56 -100.82c-0.74,-0.31 -1.53,-0.48 -2.35,-0.5 -0.13,-0.01 -0.24,-0.02 -0.35,-0.02 -0.12,0 -0.24,0.01 -0.35,0.02 -0.82,0.02 -1.62,0.19 -2.36,0.5 -8.09,2.34 -54.8,17.23 -78.2,54.31l0 -116.97c7.37,17.86 18.26,36.14 33.81,45.24 0.01,0.01 0.04,0.01 0.05,0.02 0.36,0.21 0.75,0.34 1.14,0.48 0.16,0.05 0.32,0.15 0.48,0.19 0.4,0.11 0.81,0.13 1.21,0.16 0.17,0.01 0.33,0.06 0.49,0.06l0.01 0c0.16,0 0.32,-0.05 0.48,-0.06 0.41,-0.03 0.82,-0.05 1.22,-0.16 0.16,-0.04 0.31,-0.14 0.48,-0.19 0.38,-0.14 0.78,-0.27 1.13,-0.48 0.02,-0.01 0.04,-0.01 0.06,-0.02 21.05,-12.32 33.56,-41.47 40.35,-63.62 6.77,22.15 19.29,51.3 40.34,63.62 0.02,0.01 0.04,0.01 0.06,0.02 0.35,0.21 0.75,0.34 1.13,0.48 0.17,0.05 0.32,0.15 0.48,0.19 0.4,0.11 0.81,0.13 1.22,0.16 0.16,0.01 0.32,0.06 0.48,0.06l0.01 0c0.16,0 0.32,-0.05 0.49,-0.06 0.4,-0.03 0.81,-0.05 1.21,-0.16 0.16,-0.04 0.31,-0.14 0.48,-0.19 0.39,-0.14 0.78,-0.27 1.14,-0.48 0.01,-0.01 0.04,-0.01 0.05,-0.02 15.55,-9.1 26.44,-27.38 33.8,-45.24l0 116.97c-23.39,-37.08 -70.11,-51.98 -78.19,-54.31zm84.88 247.86l203.29 0c3.69,0 6.68,-2.99 6.68,-6.68 0,-2.86 -1.8,-5.27 -4.31,-6.23l0 -506.18c0,-0.04 -0.02,-0.09 -0.02,-0.13 0,-0.23 -0.04,-0.46 -0.07,-0.69 -0.02,-0.22 -0.05,-0.45 -0.1,-0.68 -0.01,-0.05 -0.01,-0.09 -0.02,-0.14l-20.47 -80.76c-0.02,-0.1 -0.07,-0.19 -0.1,-0.29 -0.07,-0.22 -0.15,-0.44 -0.25,-0.66 -0.07,-0.19 -0.16,-0.38 -0.26,-0.56 -0.11,-0.2 -0.23,-0.39 -0.35,-0.57 -0.12,-0.17 -0.23,-0.34 -0.36,-0.5 -0.15,-0.18 -0.32,-0.35 -0.49,-0.52 -0.13,-0.13 -0.25,-0.25 -0.39,-0.36 -0.2,-0.17 -0.41,-0.32 -0.63,-0.47 -0.15,-0.09 -0.28,-0.17 -0.43,-0.26 -0.22,-0.12 -0.45,-0.22 -0.7,-0.32 -0.17,-0.07 -0.35,-0.14 -0.53,-0.2 -0.12,-0.04 -0.22,-0.09 -0.35,-0.12 -0.11,-0.03 -0.23,-0.03 -0.35,-0.06 -0.2,-0.04 -0.4,-0.06 -0.61,-0.09 -0.23,-0.02 -0.45,-0.04 -0.68,-0.03 -0.22,-0.01 -0.44,0.01 -0.66,0.03 -0.21,0.03 -0.42,0.05 -0.62,0.09 -0.12,0.03 -0.24,0.03 -0.36,0.06 -0.12,0.03 -0.23,0.08 -0.34,0.12 -0.18,0.06 -0.36,0.12 -0.53,0.19 -0.24,0.11 -0.48,0.21 -0.71,0.34 -0.14,0.08 -0.27,0.16 -0.41,0.25 -0.23,0.15 -0.44,0.3 -0.64,0.47 -0.14,0.11 -0.26,0.23 -0.39,0.35 -0.17,0.17 -0.34,0.35 -0.5,0.54 -0.12,0.15 -0.24,0.32 -0.35,0.48 -0.12,0.19 -0.24,0.38 -0.35,0.58 -0.1,0.18 -0.19,0.37 -0.27,0.56 -0.09,0.22 -0.17,0.44 -0.24,0.66 -0.03,0.1 -0.08,0.19 -0.11,0.29l-19.37 76.47 -20.79 -55.43 0 -67.11c0,-0.18 -0.04,-0.36 -0.05,-0.54 -0.02,-0.19 -0.01,-0.37 -0.04,-0.56l-25.69 -153.72c-0.02,-0.08 -0.04,-0.14 -0.06,-0.2 -0.05,-0.26 -0.12,-0.49 -0.2,-0.74 -0.06,-0.18 -0.11,-0.36 -0.18,-0.53 -0.1,-0.23 -0.22,-0.44 -0.33,-0.65 -0.1,-0.17 -0.18,-0.34 -0.29,-0.5 -0.13,-0.2 -0.29,-0.38 -0.45,-0.57 -0.12,-0.14 -0.22,-0.28 -0.36,-0.41 -0.17,-0.18 -0.36,-0.33 -0.55,-0.48 -0.15,-0.12 -0.29,-0.24 -0.44,-0.34 -0.18,-0.13 -0.38,-0.24 -0.58,-0.34 -0.19,-0.1 -0.38,-0.21 -0.59,-0.3 -0.16,-0.07 -0.34,-0.12 -0.52,-0.17 -0.25,-0.09 -0.51,-0.17 -0.78,-0.22 -0.06,-0.01 -0.11,-0.04 -0.16,-0.04 -0.12,-0.02 -0.23,-0.01 -0.35,-0.03 -0.26,-0.03 -0.51,-0.05 -0.77,-0.05 -0.25,0 -0.5,0.02 -0.75,0.05 -0.11,0.01 -0.22,0.01 -0.34,0.03 -0.05,0 -0.1,0.03 -0.16,0.04 -0.29,0.06 -0.58,0.14 -0.87,0.24 -0.13,0.04 -0.27,0.08 -0.4,0.14 -0.26,0.1 -0.51,0.24 -0.75,0.38 -0.14,0.07 -0.28,0.14 -0.41,0.23 -0.22,0.15 -0.42,0.31 -0.62,0.49 -0.13,0.1 -0.26,0.21 -0.38,0.33 -0.17,0.17 -0.33,0.37 -0.49,0.56 -0.12,0.14 -0.23,0.28 -0.33,0.43 -0.14,0.19 -0.24,0.39 -0.34,0.59 -0.11,0.19 -0.21,0.38 -0.29,0.57 -0.08,0.19 -0.14,0.38 -0.2,0.57 -0.07,0.23 -0.14,0.47 -0.19,0.72 -0.01,0.06 -0.05,0.12 -0.06,0.2l-25.69 153.72c-0.03,0.19 -0.02,0.37 -0.04,0.56 -0.01,0.18 -0.06,0.36 -0.06,0.54l0 67.11 -20.78 55.43 -19.37 -76.47c-0.03,-0.1 -0.08,-0.19 -0.11,-0.29 -0.07,-0.22 -0.15,-0.44 -0.24,-0.66 -0.08,-0.19 -0.17,-0.38 -0.27,-0.56 -0.11,-0.2 -0.23,-0.39 -0.35,-0.57 -0.12,-0.17 -0.23,-0.34 -0.36,-0.5 -0.15,-0.18 -0.32,-0.35 -0.49,-0.52 -0.13,-0.13 -0.25,-0.25 -0.39,-0.36 -0.2,-0.17 -0.41,-0.32 -0.63,-0.47 -0.14,-0.09 -0.28,-0.17 -0.42,-0.26 -0.23,-0.12 -0.46,-0.22 -0.71,-0.32 -0.17,-0.07 -0.35,-0.14 -0.53,-0.2 -0.12,-0.04 -0.22,-0.09 -0.34,-0.12 -0.12,-0.03 -0.24,-0.03 -0.35,-0.06 -0.21,-0.04 -0.41,-0.06 -0.62,-0.09 -0.23,-0.02 -0.45,-0.04 -0.67,-0.03 -0.22,-0.01 -0.45,0.01 -0.67,0.03 -0.21,0.03 -0.42,0.05 -0.62,0.09 -0.12,0.03 -0.24,0.03 -0.36,0.06 -0.12,0.03 -0.22,0.08 -0.34,0.12 -0.18,0.06 -0.36,0.12 -0.53,0.19 -0.24,0.11 -0.48,0.21 -0.71,0.34 -0.14,0.08 -0.27,0.16 -0.41,0.25 -0.23,0.15 -0.44,0.3 -0.64,0.47 -0.14,0.11 -0.26,0.23 -0.38,0.35 -0.18,0.17 -0.35,0.35 -0.51,0.54 -0.12,0.15 -0.23,0.32 -0.35,0.48 -0.12,0.19 -0.24,0.38 -0.35,0.58 -0.1,0.18 -0.19,0.37 -0.26,0.56 -0.1,0.22 -0.18,0.44 -0.25,0.66 -0.03,0.1 -0.08,0.19 -0.11,0.29l-20.46 80.76c-0.01,0.05 -0.01,0.09 -0.02,0.14 -0.05,0.23 -0.07,0.45 -0.11,0.68 -0.02,0.23 -0.06,0.46 -0.06,0.69 0,0.04 -0.02,0.09 -0.02,0.13l0 160.58c-0.27,1.58 -1.3,7.2 -3.25,14.91l-70.86 -192.35c-0.2,-2.52 -1.81,-4.81 -4.34,-5.74 -0.67,-0.25 -1.37,-0.35 -2.06,-0.38 -0.13,-0.01 -0.26,-0.02 -0.4,-0.02 -0.11,0 -0.21,0.01 -0.32,0.02 -0.7,0.02 -1.41,0.12 -2.11,0.38 -2.53,0.93 -4.13,3.22 -4.34,5.74l-70.85 192.33c-1.95,-7.66 -2.98,-13.27 -3.27,-14.87l0 -160.6c0,-0.04 -0.01,-0.09 -0.01,-0.13 0,-0.23 -0.04,-0.46 -0.07,-0.69 -0.02,-0.22 -0.05,-0.45 -0.1,-0.68 -0.01,-0.05 -0.01,-0.09 -0.02,-0.14l-20.47 -80.76c-0.02,-0.1 -0.07,-0.19 -0.1,-0.29 -0.07,-0.22 -0.15,-0.44 -0.24,-0.66 -0.08,-0.19 -0.17,-0.38 -0.27,-0.56 -0.11,-0.2 -0.22,-0.39 -0.35,-0.57 -0.12,-0.17 -0.23,-0.34 -0.36,-0.5 -0.15,-0.18 -0.32,-0.35 -0.48,-0.52 -0.13,-0.13 -0.26,-0.25 -0.41,-0.37 -0.19,-0.16 -0.4,-0.31 -0.61,-0.45 -0.15,-0.09 -0.29,-0.19 -0.45,-0.27 -0.21,-0.12 -0.44,-0.22 -0.68,-0.32 -0.18,-0.07 -0.36,-0.14 -0.55,-0.2 -0.11,-0.04 -0.21,-0.09 -0.33,-0.12 -0.12,-0.03 -0.24,-0.03 -0.35,-0.05 -0.21,-0.05 -0.42,-0.07 -0.63,-0.1 -0.23,-0.02 -0.45,-0.04 -0.66,-0.04 -0.23,0 -0.44,0.02 -0.67,0.04 -0.22,0.03 -0.43,0.05 -0.63,0.1 -0.12,0.02 -0.23,0.02 -0.35,0.05 -0.12,0.03 -0.22,0.08 -0.34,0.12 -0.18,0.06 -0.37,0.13 -0.54,0.2 -0.24,0.1 -0.47,0.2 -0.69,0.32 -0.15,0.08 -0.29,0.18 -0.44,0.27 -0.22,0.14 -0.42,0.29 -0.61,0.45 -0.15,0.12 -0.28,0.24 -0.41,0.37 -0.17,0.17 -0.33,0.34 -0.48,0.52 -0.13,0.16 -0.24,0.33 -0.36,0.5 -0.13,0.18 -0.24,0.37 -0.35,0.57 -0.1,0.18 -0.19,0.37 -0.26,0.56 -0.1,0.22 -0.18,0.44 -0.25,0.66 -0.03,0.1 -0.08,0.19 -0.11,0.29l-19.37 76.47 -20.79 -55.43 0 -67.11c0,-0.18 -0.04,-0.36 -0.06,-0.54 -0.01,-0.19 0,-0.37 -0.03,-0.56l-25.69 -153.72c-0.01,-0.08 -0.04,-0.13 -0.06,-0.2 -0.05,-0.26 -0.12,-0.5 -0.2,-0.74 -0.06,-0.18 -0.11,-0.36 -0.18,-0.53 -0.09,-0.23 -0.22,-0.44 -0.34,-0.66 -0.09,-0.16 -0.17,-0.33 -0.28,-0.49 -0.14,-0.2 -0.3,-0.39 -0.46,-0.58 -0.11,-0.14 -0.22,-0.27 -0.34,-0.4 -0.18,-0.18 -0.38,-0.34 -0.57,-0.5 -0.14,-0.1 -0.28,-0.22 -0.42,-0.32 -0.19,-0.13 -0.4,-0.24 -0.6,-0.35 -0.19,-0.1 -0.38,-0.2 -0.57,-0.29 -0.17,-0.07 -0.36,-0.12 -0.54,-0.18 -0.24,-0.08 -0.5,-0.16 -0.77,-0.21 -0.05,-0.01 -0.1,-0.04 -0.17,-0.04 -0.11,-0.02 -0.23,-0.01 -0.34,-0.03 -0.26,-0.03 -0.51,-0.05 -0.77,-0.05 -0.25,0 -0.5,0.02 -0.75,0.05 -0.11,0.01 -0.22,0.01 -0.34,0.03 -0.05,0 -0.1,0.03 -0.16,0.04 -0.3,0.06 -0.58,0.14 -0.87,0.24 -0.13,0.04 -0.27,0.08 -0.39,0.13 -0.27,0.11 -0.52,0.25 -0.78,0.39 -0.13,0.07 -0.26,0.14 -0.38,0.22 -0.23,0.16 -0.44,0.33 -0.64,0.5 -0.13,0.11 -0.25,0.21 -0.37,0.32 -0.18,0.18 -0.34,0.38 -0.5,0.58 -0.11,0.14 -0.22,0.27 -0.32,0.42 -0.13,0.19 -0.24,0.39 -0.35,0.6 -0.1,0.18 -0.2,0.37 -0.29,0.56 -0.07,0.19 -0.13,0.38 -0.19,0.57 -0.07,0.23 -0.14,0.47 -0.19,0.72 -0.02,0.06 -0.04,0.12 -0.06,0.2l-25.69 153.72c-0.03,0.19 -0.02,0.37 -0.04,0.56 -0.02,0.18 -0.05,0.36 -0.05,0.54l0 67.11 -20.78 55.43 -19.38 -76.47c-0.03,-0.1 -0.08,-0.19 -0.11,-0.29 -0.07,-0.22 -0.15,-0.44 -0.24,-0.66 -0.08,-0.19 -0.17,-0.38 -0.27,-0.57 -0.11,-0.19 -0.22,-0.37 -0.34,-0.56 -0.12,-0.17 -0.24,-0.34 -0.37,-0.5 -0.15,-0.18 -0.31,-0.35 -0.47,-0.51 -0.14,-0.13 -0.27,-0.26 -0.42,-0.38 -0.19,-0.16 -0.39,-0.3 -0.6,-0.45 -0.15,-0.09 -0.3,-0.19 -0.46,-0.27 -0.21,-0.12 -0.44,-0.22 -0.67,-0.32 -0.18,-0.07 -0.37,-0.14 -0.56,-0.2 -0.11,-0.04 -0.22,-0.09 -0.33,-0.12 -0.12,-0.03 -0.23,-0.03 -0.34,-0.05 -0.22,-0.05 -0.43,-0.07 -0.64,-0.1 -0.23,-0.02 -0.44,-0.04 -0.66,-0.04 -0.23,0 -0.44,0.02 -0.67,0.04 -0.21,0.03 -0.42,0.05 -0.63,0.1 -0.12,0.02 -0.23,0.02 -0.34,0.05 -0.13,0.03 -0.23,0.08 -0.35,0.12 -0.18,0.06 -0.37,0.13 -0.54,0.2 -0.24,0.1 -0.47,0.2 -0.68,0.32 -0.16,0.08 -0.3,0.18 -0.45,0.27 -0.21,0.14 -0.42,0.29 -0.61,0.45 -0.14,0.12 -0.28,0.24 -0.41,0.37 -0.17,0.17 -0.33,0.34 -0.48,0.52 -0.13,0.16 -0.24,0.33 -0.36,0.5 -0.13,0.18 -0.24,0.37 -0.35,0.57 -0.1,0.18 -0.19,0.37 -0.26,0.56 -0.1,0.22 -0.18,0.44 -0.25,0.66 -0.03,0.1 -0.08,0.19 -0.1,0.29l-20.47 80.76c-0.01,0.05 -0.01,0.09 -0.02,0.14 -0.05,0.23 -0.07,0.45 -0.1,0.68 -0.03,0.23 -0.07,0.46 -0.07,0.69 0,0.04 -0.02,0.09 -0.02,0.13l0 506.28c-2.37,1.02 -4.03,3.38 -4.03,6.13 0,3.69 2.99,6.68 6.68,6.68l275.15 0 -3.37 8.92 -271.78 0c-3.69,0 -6.68,2.99 -6.68,6.68 0,3.69 2.99,6.68 6.68,6.68l1.11 0 0 252.85c0,3.69 3,6.68 6.69,6.68l565.87 0c3.69,0 6.69,-2.99 6.69,-6.68l0 -252.85 1.11 0c3.69,0 6.68,-2.99 6.68,-6.68 0,-3.69 -2.99,-6.68 -6.68,-6.68l-271.78 0 -3.37 -8.92 71.86 0z"/>
   <path class="fil3" d="M2458.2 1984.46c0,-30.63 24.92,-55.56 55.56,-55.56 30.63,0 55.55,24.93 55.55,55.56 0,30.63 -24.92,55.56 -55.55,55.56 -30.64,0 -55.56,-24.93 -55.56,-55.56zm124.48 0c0,-38 -30.92,-68.93 -68.92,-68.93 -38.01,0 -68.93,30.93 -68.93,68.93 0,38 30.92,68.92 68.93,68.92 38,0 68.92,-30.92 68.92,-68.92z"/>
   <path class="fil3" d="M2291.07 1797.32c-3.69,0 -6.68,2.99 -6.68,6.68l0 26.74c0,3.69 2.99,6.68 6.68,6.68 3.69,0 6.69,-2.99 6.69,-6.68l0 -26.74c0,-3.69 -3,-6.68 -6.69,-6.68z"/>
   <path class="fil3" d="M2314.72 1797.32c-3.69,0 -6.69,2.99 -6.69,6.68l0 26.74c0,3.69 3,6.68 6.69,6.68 3.69,0 6.68,-2.99 6.68,-6.68l0 -26.74c0,-3.69 -2.99,-6.68 -6.68,-6.68z"/>
   <path class="fil3" d="M2338.37 1797.32c-3.69,0 -6.68,2.99 -6.68,6.68l0 26.74c0,3.69 2.99,6.68 6.68,6.68 3.69,0 6.68,-2.99 6.68,-6.68l0 -26.74c0,-3.69 -2.99,-6.68 -6.68,-6.68z"/>
   <path class="fil3" d="M2362.02 1797.32c-3.69,0 -6.69,2.99 -6.69,6.68l0 26.74c0,3.69 3,6.68 6.69,6.68 3.69,0 6.68,-2.99 6.68,-6.68l0 -26.74c0,-3.69 -2.99,-6.68 -6.68,-6.68z"/>
   <path class="fil3" d="M2736.16 1797.32c-3.69,0 -6.69,2.99 -6.69,6.68l0 26.74c0,3.69 3,6.68 6.69,6.68 3.69,0 6.68,-2.99 6.68,-6.68l0 -26.74c0,-3.69 -2.99,-6.68 -6.68,-6.68z"/>
   <path class="fil3" d="M2712.51 1797.32c-3.69,0 -6.68,2.99 -6.68,6.68l0 26.74c0,3.69 2.99,6.68 6.68,6.68 3.69,0 6.68,-2.99 6.68,-6.68l0 -26.74c0,-3.69 -2.99,-6.68 -6.68,-6.68z"/>
   <path class="fil3" d="M2688.86 1797.32c-3.69,0 -6.68,2.99 -6.68,6.68l0 26.74c0,3.69 2.99,6.68 6.68,6.68 3.69,0 6.69,-2.99 6.69,-6.68l0 -26.74c0,-3.69 -3,-6.68 -6.69,-6.68z"/>
   <path class="fil3" d="M2665.21 1797.32c-3.69,0 -6.68,2.99 -6.68,6.68l0 26.74c0,3.69 2.99,6.68 6.68,6.68 3.69,0 6.69,-2.99 6.69,-6.68l0 -26.74c0,-3.69 -3,-6.68 -6.69,-6.68z"/>
   <path class="fil3" d="M2018.4 1781.72l-49.75 0 0 -29.7 49.75 0 0 29.7zm0 60.9l0 29.7 -49.75 0 0 -29.7 49.75 0zm0 222.78l0 59.41 -49.75 0 0 -59.41 49.75 0zm-63.12 295.98l-31.19 0 0 -764.57 31.19 0 0 764.57zm-77.23 -236.57l-60.16 0 0 -59.41 92.83 0 0 59.41 -32.67 0zm-6.69 237.25l-26.73 0 0 -223.88 26.73 0 0 223.88zm-26.73 -476.37l26.73 0 0 166.34 -26.73 0 0 -166.34zm-26.74 -43.07l92.83 0 0 29.7 -92.83 0 0 -29.7zm26.74 -47.53l26.73 0 0 34.16 -26.73 0 0 -34.16zm-26.74 -43.07l92.83 0 0 29.7 -92.83 0 0 -29.7zm26.74 -168.57c0,-7.37 6,-13.37 13.37,-13.37 7.37,0 13.36,6 13.36,13.37l0 155.2 -26.73 0 0 -155.2zm110.65 -385.42l0 11.14 -31.19 0 0 -11.14 31.19 0zm-31.19 372.05l31.19 0 0 13.37 -31.19 0 0 -13.37zm31.19 -334.18l-31.19 0 0 -13.37 31.19 0 0 13.37zm0 307.45l0 13.36 -31.19 0 0 -13.36 31.19 0zm0 -26.74l0 13.37 -31.19 0 0 -13.37 31.19 0zm0 -26.73l0 13.36 -31.19 0 0 -13.36 31.19 0zm0 -26.74l0 13.37 -31.19 0 0 -13.37 31.19 0zm0 -26.73l0 13.36 -31.19 0 0 -13.36 31.19 0zm0 -26.74l0 13.37 -31.19 0 0 -13.37 31.19 0zm0 -26.73l0 13.37 -31.19 0 0 -13.37 31.19 0zm0 -26.73l0 13.36 -31.19 0 0 -13.36 31.19 0zm0 -26.74l0 13.37 -31.19 0 0 -13.37 31.19 0zm0 -26.73l0 13.36 -31.19 0 0 -13.36 31.19 0zm-31.19 -40.1l0 -13.37 31.19 0 0 13.37 -31.19 0zm31.19 13.36l0 13.37 -31.19 0 0 -13.37 31.19 0zm-44.56 519.09l0 34.16 -25.99 0 0 -34.16 25.99 0zm0 90.6l0 166.34 -25.99 0 0 -166.34 25.99 0zm114.36 -147.04l-56.43 0 0 -547.31c0,-3.69 -3,-6.68 -6.69,-6.68l-15.59 0 0 -71.29c0,-3.7 -3,-6.69 -6.68,-6.69 -3.69,0 -6.69,2.99 -6.69,6.69l0 71.29 -15.59 0c-3.69,0 -6.69,2.99 -6.69,6.68l0 547.31 -25.99 0 0 -155.2c0,-14.75 -11.99,-26.74 -26.73,-26.74 -14.75,0 -26.74,11.99 -26.74,26.74l0 155.2 -20.05 0c-3.69,0 -6.68,3 -6.68,6.69l0 43.07c0,3.69 2.99,6.68 6.68,6.68l20.05 0 0 34.16 -20.05 0c-3.69,0 -6.68,2.99 -6.68,6.68l0 43.08c0,3.69 2.99,6.68 6.68,6.68l20.05 0 0 166.34 -20.05 0c-3.69,0 -6.68,3 -6.68,6.69l0 72.78c0,3.69 2.99,6.68 6.68,6.68l20.05 0 0 230.57c0,3.69 3,6.68 6.69,6.68l40.1 0c3.69,0 6.68,-2.99 6.68,-6.68l0 -230.57 25.99 0 0 229.88c0,3.69 3,6.68 6.69,6.68l44.55 0c3.69,0 6.69,-2.99 6.69,-6.68l0 -229.88 56.43 0c3.69,0 6.69,-2.99 6.69,-6.68l0 -72.78c0,-3.69 -3,-6.69 -6.69,-6.69l-56.43 0 0 -166.34 56.43 0c3.69,0 6.69,-2.99 6.69,-6.68l0 -43.08c0,-3.69 -3,-6.68 -6.69,-6.68l-56.43 0 0 -34.16 56.43 0c3.69,0 6.69,-2.99 6.69,-6.68l0 -43.07c0,-3.69 -3,-6.69 -6.69,-6.69z"/>
   <path class="fil3" d="M1939.69 1083.29c3.68,0 6.68,-2.99 6.68,-6.68l0 -186.03c0,-3.69 -3,-6.68 -6.68,-6.68 -3.69,0 -6.69,2.99 -6.69,6.68l0 186.03c0,3.69 3,6.68 6.69,6.68z"/>
   <path class="fil3" d="M1919.64 1102.23l40.1 0c3.69,0 6.68,-2.99 6.68,-6.68 0,-3.7 -2.99,-6.69 -6.68,-6.69l-40.1 0c-3.69,0 -6.69,2.99 -6.69,6.69 0,3.69 3,6.68 6.69,6.68z"/>
   <path class="fil3" d="M1373.62 1734.49l26.73 0 0 72.59 -26.73 0 0 -72.59zm-13.37 -6.68l0 85.96c0,3.69 2.99,6.68 6.68,6.68l40.11 0c3.69,0 6.68,-2.99 6.68,-6.68l0 -85.96c0,-3.69 -2.99,-6.69 -6.68,-6.69l-40.11 0c-3.69,0 -6.68,3 -6.68,6.69z"/>
   <path class="fil3" d="M1417.87 1321.49c1.12,0.73 2.39,1.08 3.64,1.08 2.18,0 4.32,-1.07 5.6,-3.04l10.33 -15.84 10.32 15.84c1.28,1.97 3.42,3.04 5.6,3.04 1.26,0 2.52,-0.35 3.65,-1.08 3.09,-2.02 3.96,-6.16 1.95,-9.25l-15.92 -24.44c-0.01,-0.01 -0.02,-0.02 -0.03,-0.03 -0.17,-0.25 -0.37,-0.48 -0.57,-0.71 -0.1,-0.11 -0.18,-0.23 -0.28,-0.33 -0.12,-0.12 -0.27,-0.22 -0.39,-0.33 -0.21,-0.18 -0.42,-0.37 -0.65,-0.52 -0.01,-0.01 -0.02,-0.02 -0.04,-0.03 -0.12,-0.08 -0.26,-0.12 -0.38,-0.2 -0.25,-0.13 -0.49,-0.27 -0.74,-0.38 -0.2,-0.08 -0.4,-0.12 -0.6,-0.18 -0.21,-0.07 -0.42,-0.14 -0.64,-0.19 -0.22,-0.04 -0.43,-0.05 -0.65,-0.07 -0.22,-0.02 -0.42,-0.05 -0.63,-0.05 -0.22,0 -0.42,0.03 -0.64,0.05 -0.22,0.02 -0.43,0.03 -0.65,0.07 -0.22,0.05 -0.43,0.12 -0.65,0.19 -0.19,0.06 -0.39,0.1 -0.59,0.18 -0.26,0.11 -0.51,0.26 -0.76,0.39 -0.12,0.07 -0.24,0.11 -0.36,0.19 -0.02,0.01 -0.02,0.02 -0.04,0.03 -0.24,0.16 -0.46,0.36 -0.68,0.55 -0.12,0.1 -0.25,0.19 -0.36,0.3 -0.11,0.11 -0.19,0.24 -0.3,0.36 -0.19,0.22 -0.39,0.44 -0.55,0.68 0,0.01 -0.02,0.02 -0.03,0.03l-15.92 24.44c-2.01,3.09 -1.14,7.23 1.96,9.25z"/>
   <path class="fil3" d="M1417.87 1453.07c1.12,0.74 2.39,1.08 3.64,1.08 2.18,0 4.32,-1.06 5.6,-3.03l10.33 -15.84 10.32 15.84c1.28,1.97 3.42,3.03 5.6,3.03 1.26,0 2.52,-0.34 3.65,-1.08 3.09,-2.01 3.96,-6.16 1.95,-9.24l-15.92 -24.44c-0.01,-0.01 -0.02,-0.02 -0.03,-0.03 -0.16,-0.24 -0.36,-0.47 -0.55,-0.69 -0.1,-0.12 -0.19,-0.25 -0.3,-0.36 -0.1,-0.1 -0.23,-0.19 -0.35,-0.29 -0.23,-0.19 -0.45,-0.39 -0.69,-0.55 -0.02,-0.01 -0.02,-0.02 -0.04,-0.03 -0.1,-0.07 -0.22,-0.11 -0.33,-0.17 -0.26,-0.15 -0.52,-0.3 -0.8,-0.42 -0.18,-0.07 -0.38,-0.11 -0.56,-0.17 -0.23,-0.07 -0.44,-0.15 -0.67,-0.19 -0.22,-0.04 -0.43,-0.05 -0.65,-0.08 -0.21,-0.02 -0.42,-0.05 -0.63,-0.05 -0.22,0 -0.43,0.03 -0.64,0.05 -0.22,0.03 -0.43,0.04 -0.65,0.08 -0.23,0.04 -0.45,0.12 -0.67,0.19 -0.19,0.06 -0.37,0.1 -0.56,0.17 -0.28,0.12 -0.55,0.27 -0.82,0.43 -0.1,0.06 -0.21,0.09 -0.31,0.16 -0.01,0 -0.02,0.02 -0.03,0.02 -0.26,0.17 -0.49,0.38 -0.73,0.59 -0.1,0.09 -0.22,0.16 -0.32,0.26 -0.11,0.11 -0.21,0.26 -0.31,0.38 -0.19,0.22 -0.38,0.43 -0.54,0.67 0,0.01 -0.02,0.02 -0.03,0.03l-15.92 24.44c-2.01,3.08 -1.14,7.23 1.96,9.24z"/>
   <path class="fil3" d="M1273.69 1400.02c3.7,0 6.69,-2.99 6.69,-6.69l0 -22.27c0,-3.7 -2.99,-6.69 -6.69,-6.69 -3.69,0 -6.68,2.99 -6.68,6.69l0 22.27c0,3.7 2.99,6.69 6.68,6.69z"/>
   <path class="fil3" d="M1386.23 1192.83c3.7,0 6.69,-2.99 6.69,-6.69l0 -22.27c0,-3.7 -2.99,-6.69 -6.69,-6.69 -3.69,0 -6.68,2.99 -6.68,6.69l0 22.27c0,3.7 2.99,6.69 6.68,6.69z"/>
   <path class="fil3" d="M1474.52 1734.49l26.73 0 0 72.59 -26.73 0 0 -72.59zm-6.68 85.96l40.1 0c3.69,0 6.68,-2.99 6.68,-6.68l0 -85.96c0,-3.69 -2.99,-6.69 -6.68,-6.69l-40.1 0c-3.7,0 -6.69,3 -6.69,6.69l0 85.96c0,3.69 2.99,6.68 6.69,6.68z"/>
   <path class="fil3" d="M1613.44 1587.9l-24.52 0 0 -41.59c0,-0.01 -0.01,-0.03 -0.01,-0.04l0 -13.32 24.53 0 0 54.95zm-20.8 23.39l-310.42 0 0 -10.02 310.42 0 0 10.02zm-35.64 750.09l0 -133.88c0,-54.17 -27.56,-96.2 -74.29,-116.98l109.93 0 0 250.86 -35.64 0zm-274.78 -250.86l109.95 0c-46.74,20.78 -74.3,62.81 -74.3,116.98l0 133.88 -35.65 0 0 -250.86zm0 -23.39l310.42 0 0 10.02 -310.42 0 0 -10.02zm46.88 -39.43l0 26.06 -46.52 0 0 -103.18c0,-16.44 13.86,-25.38 28.53,-34.85 6.11,-3.94 12.54,-8.12 17.99,-13.05l0 125.02zm147.71 -96.35l-33.35 -69.35c-0.04,-0.09 -0.1,-0.15 -0.14,-0.24 -0.11,-0.2 -0.23,-0.39 -0.35,-0.58 -0.13,-0.18 -0.25,-0.36 -0.38,-0.52 -0.14,-0.16 -0.28,-0.31 -0.43,-0.45 -0.17,-0.17 -0.33,-0.34 -0.51,-0.48 -0.15,-0.12 -0.31,-0.23 -0.47,-0.34 -0.21,-0.14 -0.42,-0.28 -0.64,-0.39 -0.07,-0.04 -0.13,-0.09 -0.21,-0.13 -0.11,-0.05 -0.22,-0.07 -0.32,-0.12 -0.21,-0.09 -0.43,-0.17 -0.66,-0.23 -0.21,-0.07 -0.43,-0.13 -0.66,-0.16 -0.19,-0.04 -0.38,-0.07 -0.57,-0.09 -0.24,-0.03 -0.48,-0.04 -0.73,-0.04 -0.18,0 -0.37,0.01 -0.56,0.03 -0.24,0.02 -0.48,0.06 -0.72,0.1 -0.19,0.04 -0.37,0.09 -0.56,0.14 -0.24,0.07 -0.47,0.16 -0.7,0.26 -0.1,0.04 -0.21,0.06 -0.31,0.11 -0.08,0.04 -0.13,0.09 -0.21,0.13 -0.21,0.11 -0.42,0.25 -0.63,0.38 -0.16,0.12 -0.33,0.23 -0.48,0.35 -0.18,0.15 -0.33,0.3 -0.49,0.46 -0.16,0.16 -0.31,0.31 -0.45,0.47 -0.13,0.17 -0.25,0.34 -0.36,0.52 -0.13,0.19 -0.26,0.38 -0.37,0.59 -0.04,0.08 -0.1,0.14 -0.14,0.23l-33.35 69.35c-6.89,-11.22 -18.68,-18.88 -29.56,-25.9 -4.23,-2.73 -8.27,-5.35 -11.87,-8.03 3.12,-21.82 22.43,-34.34 42.86,-47.52 14.66,-9.46 29.61,-19.16 37.95,-32.68 8.34,13.52 23.29,23.22 37.94,32.68 20.43,13.18 39.75,25.7 42.86,47.52 -3.59,2.68 -7.64,5.3 -11.87,8.03 -10.87,7.02 -22.67,14.68 -29.56,25.9zm-32.69 23.64l26.74 0 0 72.59 -26.74 0 0 -72.59zm-36.16 -13.37l29.48 -61.3 29.47 61.3 -58.95 0zm-3.95 79.28l0 -65.91 26.74 0 0 72.59 -26.74 0 0 -6.68zm33.43 32.86l-94.97 0 0 -150.76c0.84,0.77 1.7,1.53 2.58,2.26 0.24,0.22 0.48,0.42 0.74,0.6 4.88,3.96 10.28,7.47 15.46,10.82 15.12,9.75 29.4,18.97 29.4,35.97l0 81.62c0,3.69 2.99,6.68 6.68,6.68l80.21 0c3.69,0 6.68,-2.99 6.68,-6.68l0 -81.62c0,-17 14.29,-26.22 29.4,-35.97 5.18,-3.35 10.59,-6.86 15.47,-10.82 0.26,-0.18 0.5,-0.38 0.73,-0.6 0.88,-0.73 1.74,-1.49 2.58,-2.26l0 150.76 -94.96 0zm154.85 0l-46.52 0 0 -151.08c5.45,4.93 11.88,9.11 17.99,13.05 14.67,9.47 28.53,18.41 28.53,34.85l0 103.18zm-205.68 -409.79c5.33,6.86 13.24,11.99 20.59,16.74 12.64,8.15 23.55,15.19 23.55,28.48 0,3.68 3,6.68 6.69,6.68 3.69,0 6.68,-3 6.68,-6.68 0,-13.29 10.91,-20.33 23.55,-28.48 7.36,-4.75 15.26,-9.88 20.59,-16.74 5.33,6.86 13.24,11.99 20.59,16.74 12.64,8.15 23.55,15.19 23.55,28.48l0 186.49c0,0.01 0,0.03 0,0.04 0,3.95 -1.14,7.41 -3.1,10.58 -7.31,-22.16 -28.01,-35.59 -46.67,-47.63 -20.66,-13.34 -38.51,-24.86 -38.51,-44.9 0,-3.69 -2.99,-6.69 -6.68,-6.69 -3.69,0 -6.69,3 -6.69,6.69 0,20.04 -17.84,31.56 -38.51,44.9 -18.66,12.04 -39.36,25.47 -46.67,47.63 -1.96,-3.17 -3.09,-6.63 -3.09,-10.58 0,-0.01 -0.01,-0.03 -0.01,-0.04l0 -186.49c0,-13.29 10.91,-20.33 23.55,-28.48 7.36,-4.75 15.27,-9.88 20.59,-16.74zm157.02 697.41l-212.39 0 0 -133.88c0,-63.05 39.69,-106.32 106.2,-115.96 66.51,9.64 106.19,52.91 106.19,115.96l0 133.88zm-106.19 -736.72l155.2 0 0 316.09c-6.36,-6.36 -14.21,-11.46 -21.63,-16.25 -13.52,-8.73 -25.19,-16.26 -25.24,-28.71l0 -190.82c0,-10.1 7.44,-15.63 19.7,-23.55 10.98,-7.09 23.44,-15.12 23.44,-30.38 0,-3.69 -2.99,-6.68 -6.68,-6.68 -3.69,0 -6.69,2.99 -6.69,6.68 0,7.44 -6.54,12.19 -17.32,19.15 -6.96,4.5 -14.93,9.67 -20.16,17.05 -5.85,-7.36 -14.19,-12.75 -21.96,-17.76 -12.93,-8.35 -20.78,-14.09 -20.78,-23.36 0,-3.69 -2.99,-6.68 -6.68,-6.68 -0.13,0 -0.25,0.03 -0.38,0.04 -0.12,-0.01 -0.25,-0.04 -0.37,-0.04 -3.7,0 -6.69,2.99 -6.69,6.68 0,9.27 -7.85,15.01 -20.78,23.36 -8.24,5.31 -17.1,11.07 -22.98,19.14 -5.88,-8.07 -14.75,-13.83 -22.99,-19.14 -12.93,-8.35 -20.78,-14.09 -20.78,-23.36 0,-3.69 -2.99,-6.68 -6.68,-6.68 -0.13,0 -0.25,0.03 -0.38,0.04 -0.13,-0.01 -0.25,-0.04 -0.38,-0.04 -3.69,0 -6.68,2.99 -6.68,6.68 0,9.27 -7.85,15.01 -20.78,23.36 -7.77,5.01 -16.11,10.4 -21.96,17.76 -5.23,-7.38 -13.19,-12.55 -20.16,-17.05 -10.78,-6.96 -17.32,-11.71 -17.32,-19.15 0,-3.69 -2.99,-6.68 -6.69,-6.68 -3.69,0 -6.68,2.99 -6.68,6.68 0,15.26 12.46,23.29 23.45,30.38 12.25,7.92 19.69,13.45 19.69,23.55l0 190.82c-0.05,12.45 -11.72,19.98 -25.24,28.71 -7.42,4.79 -15.27,9.89 -21.64,16.25l0 -316.09 155.22 0zm-176.01 -91.71l24.53 0 0 13.32c0,0.01 -0.01,0.03 -0.01,0.04l0 41.59 -24.52 0 0 -54.95zm12.26 -72.88l10.92 59.51 -21.84 0 10.92 -59.51zm41.22 92.93l0 34.9 -15.58 0 0 -34.9 15.58 0zm64.64 -276.2l0 262.83 -63.93 0 63.93 -262.83zm173.72 262.83l-57.95 0 0 -262.83 63.93 262.83 -5.98 0zm-138.11 13.37l15.59 0 0 34.9 -15.59 0 0 -34.9zm-22.24 -325.27l89.03 0 0 311.9 -89.03 0 0 -311.9zm-64.64 360.17l0 -34.9 15.59 0 0 34.9 -15.59 0zm28.96 0l0 -34.9 15.59 0 0 34.9 -15.59 0zm28.96 0l0 -34.9 15.59 0 0 34.9 -15.59 0zm57.92 0l0 -34.9 15.59 0 0 34.9 -15.59 0zm28.96 0l0 -34.9 15.59 0 0 34.9 -15.59 0zm28.96 0l0 -34.9 15.59 0 0 34.9 -15.59 0zm28.96 0l0 -34.9 15.59 0 0 34.9 -15.59 0zm44.54 0l-15.58 0 0 -34.9 15.58 0 0 34.9zm25.64 -127.83l10.92 59.51 -21.84 0 10.92 -59.51zm25.63 66.33l0 -0.14c0,-0.19 -0.04,-0.37 -0.06,-0.56 -0.01,-0.22 -0.01,-0.43 -0.05,-0.64l-18.95 -103.23c0,-0.04 -0.02,-0.07 -0.03,-0.11 -0.05,-0.25 -0.13,-0.49 -0.21,-0.74 -0.06,-0.18 -0.1,-0.36 -0.18,-0.53 -0.08,-0.21 -0.21,-0.41 -0.32,-0.61 -0.1,-0.18 -0.18,-0.36 -0.29,-0.53 -0.14,-0.2 -0.31,-0.38 -0.46,-0.57 -0.12,-0.14 -0.22,-0.29 -0.35,-0.41 -0.2,-0.2 -0.41,-0.36 -0.64,-0.54 -0.11,-0.09 -0.22,-0.19 -0.35,-0.28 -0.21,-0.14 -0.44,-0.25 -0.66,-0.37 -0.16,-0.08 -0.32,-0.18 -0.48,-0.25 -0.19,-0.08 -0.39,-0.13 -0.58,-0.19 -0.23,-0.08 -0.47,-0.16 -0.71,-0.21 -0.04,0 -0.06,-0.02 -0.1,-0.03 -0.16,-0.03 -0.33,-0.02 -0.49,-0.04 -0.24,-0.02 -0.47,-0.05 -0.72,-0.05 -0.25,-0.01 -0.5,0.03 -0.75,0.06 -0.15,0.02 -0.3,0.01 -0.45,0.03 -0.04,0.01 -0.07,0.03 -0.11,0.03 -0.25,0.05 -0.49,0.14 -0.73,0.21 -0.19,0.07 -0.38,0.11 -0.56,0.19 -0.17,0.07 -0.34,0.18 -0.51,0.27 -0.22,0.11 -0.44,0.22 -0.63,0.35 -0.14,0.09 -0.25,0.21 -0.38,0.3 -0.21,0.17 -0.42,0.32 -0.61,0.51 -0.13,0.13 -0.24,0.29 -0.36,0.43 -0.15,0.18 -0.32,0.36 -0.45,0.56 -0.11,0.17 -0.2,0.35 -0.29,0.53 -0.12,0.2 -0.24,0.4 -0.33,0.61 -0.07,0.17 -0.11,0.36 -0.17,0.54 -0.08,0.24 -0.16,0.48 -0.21,0.73 -0.01,0.04 -0.03,0.07 -0.03,0.11l-18.92 103.06c0,0.02 -0.01,0.04 -0.01,0.06l-0.02 0.11c-0.03,0.14 -0.02,0.28 -0.04,0.43 -0.03,0.26 -0.08,0.5 -0.08,0.77l0 13.37 -2.54 0 -77.87 -320.16c-0.01,-0.06 -0.05,-0.1 -0.07,-0.16 -0.17,-0.64 -0.43,-1.25 -0.77,-1.81 -0.03,-0.04 -0.05,-0.08 -0.08,-0.12 -0.35,-0.55 -0.81,-1.02 -1.31,-1.44 -0.09,-0.08 -0.17,-0.15 -0.27,-0.22 -0.5,-0.38 -1.06,-0.69 -1.66,-0.91 -0.11,-0.04 -0.21,-0.07 -0.32,-0.11 -0.64,-0.2 -1.31,-0.33 -2.01,-0.33l-102.41 0c-0.7,0 -1.37,0.13 -2.01,0.33 -0.11,0.04 -0.21,0.07 -0.32,0.11 -0.6,0.22 -1.16,0.53 -1.66,0.91 -0.1,0.07 -0.18,0.14 -0.27,0.22 -0.5,0.42 -0.95,0.89 -1.31,1.44 -0.03,0.04 -0.05,0.08 -0.08,0.12 -0.34,0.56 -0.6,1.17 -0.77,1.81 -0.02,0.06 -0.06,0.1 -0.07,0.16l-77.87 320.16 -2.54 0 0 -13.37c0,-0.27 -0.05,-0.52 -0.08,-0.78 -0.02,-0.14 -0.01,-0.28 -0.04,-0.42l-0.01 -0.11c-0.01,-0.02 -0.01,-0.04 -0.02,-0.07l-18.91 -103.05c-0.01,-0.04 -0.03,-0.07 -0.04,-0.11 -0.05,-0.25 -0.13,-0.48 -0.2,-0.72 -0.06,-0.19 -0.11,-0.38 -0.18,-0.56 -0.08,-0.18 -0.18,-0.34 -0.27,-0.51 -0.12,-0.22 -0.22,-0.44 -0.36,-0.64 -0.09,-0.13 -0.19,-0.24 -0.28,-0.35 -0.18,-0.22 -0.34,-0.44 -0.54,-0.64 -0.1,-0.11 -0.23,-0.19 -0.35,-0.29 -0.2,-0.18 -0.41,-0.37 -0.64,-0.52 -0.13,-0.09 -0.28,-0.16 -0.42,-0.24 -0.24,-0.13 -0.47,-0.27 -0.72,-0.37 -0.14,-0.06 -0.3,-0.1 -0.45,-0.15 -0.27,-0.09 -0.54,-0.18 -0.82,-0.24 -0.03,0 -0.06,-0.02 -0.1,-0.03 -0.14,-0.02 -0.28,-0.01 -0.42,-0.03 -0.27,-0.03 -0.53,-0.06 -0.8,-0.06 -0.22,0 -0.44,0.03 -0.65,0.05 -0.18,0.02 -0.36,0.01 -0.55,0.04 -0.04,0.01 -0.08,0.03 -0.12,0.04 -0.23,0.04 -0.44,0.12 -0.66,0.19 -0.2,0.06 -0.41,0.12 -0.61,0.2 -0.19,0.08 -0.36,0.19 -0.55,0.29 -0.2,0.1 -0.4,0.2 -0.59,0.32 -0.18,0.13 -0.34,0.28 -0.51,0.43 -0.16,0.12 -0.32,0.24 -0.46,0.38 -0.18,0.18 -0.34,0.39 -0.5,0.59 -0.1,0.13 -0.22,0.25 -0.32,0.39 -0.13,0.2 -0.24,0.42 -0.35,0.64 -0.09,0.17 -0.19,0.33 -0.27,0.51 -0.08,0.18 -0.12,0.38 -0.18,0.57 -0.08,0.24 -0.16,0.47 -0.21,0.71 -0.01,0.04 -0.02,0.07 -0.03,0.11l-18.94 103.23c-0.05,0.21 -0.04,0.42 -0.06,0.64 -0.01,0.19 -0.06,0.37 -0.06,0.56l0 0.14c0,0 0,0 0,0.01l0 68.18c0,3.68 3,6.68 6.69,6.68l14.11 0 0 766.79c0,3.69 2.99,6.68 6.68,6.68l323.79 0c3.69,0 6.68,-2.99 6.68,-6.68l0 -766.79 14.11 0c3.69,0 6.69,-3 6.69,-6.68l0 -68.18c0,-0.01 0,-0.01 0,-0.01z"/>
   <path class="fil3" d="M1601.18 1400.02c3.69,0 6.68,-2.99 6.68,-6.69l0 -22.27c0,-3.7 -2.99,-6.69 -6.68,-6.69 -3.69,0 -6.69,2.99 -6.69,6.69l0 22.27c0,3.7 3,6.69 6.69,6.69z"/>
   <path class="fil3" d="M1488.64 1192.83c3.69,0 6.68,-2.99 6.68,-6.69l0 -22.27c0,-3.7 -2.99,-6.69 -6.68,-6.69 -3.69,0 -6.69,2.99 -6.69,6.69l0 22.27c0,3.7 3,6.69 6.69,6.69z"/>
   <path class="fil3" d="M977.8 2251.06l-300.76 0 0 -12.54c47.29,-0.98 337.32,-6.45 401.01,5.09l0 7.45 -100.25 0zm73.52 111l-66.84 0 0 -97.63 66.84 0 0 97.63zm-103.97 0l0 -97.63 23.76 0 0 97.63 -23.76 0zm-13.37 -97.63l0 97.63 -84.65 0 0 -97.63 84.65 0zm-121.78 97.63l0 -97.63 23.76 0 0 97.63 -23.76 0zm-301.51 -152.59l35.65 0 0 152.59 -35.65 0 0 -152.59zm-270.18 39.72c6.63,-0.87 13.68,-1.84 21.15,-2.93l-31.58 115.8 -20.31 0 30.74 -112.87zm65.22 -322.36c2.7,-79.59 -45.56,-290.11 -56.15,-335.21l185.37 0 0 7.98 -14.11 0c-1.94,0 -3.79,0.84 -5.06,2.31 -1.27,1.47 -1.84,3.42 -1.56,5.34 0.14,0.91 13.61,93.58 35.63,278.44 11.36,95.41 4.65,176.44 -4.45,232.43 -0.53,1.14 -0.73,2.38 -0.58,3.6 -6.74,40.29 -14.58,66.88 -17.35,75.64 -99.89,29.31 -201.1,40.65 -234.66,43.81 22.56,-47.33 110.26,-236.04 112.92,-314.34zm167.54 -341.9c0,-48.07 39.1,-87.18 87.18,-87.18 48.07,0 87.18,39.11 87.18,87.18 0,4.93 -0.51,9.84 -1.33,14.67l-171.8 0c-0.82,-4.82 -1.23,-9.74 -1.23,-14.67zm217.83 78.3c-6.68,-2.66 -13.95,-6.2 -21.56,-9.92 -21.68,-10.63 -48.67,-23.86 -78.56,-24.19 -0.46,-0.01 -0.92,-0.01 -1.38,-0.01 -40.67,0 -80.43,20.43 -115.06,59.16 -13.47,15.06 -23.66,30.03 -30.48,41.18 -7.95,-62.2 -13.33,-101.04 -15.52,-116.48l40.33 0c0.05,0 0.1,0.02 0.15,0.02 0.08,0 0.16,-0.02 0.23,-0.02l223.86 0 -2.01 50.26zm133.5 63.32c13.82,3.66 34.61,10.7 58.68,18.85 60.61,20.51 142.64,48.28 194.77,49.67l0 9.84c-13.64,-1.48 -34.91,-0.3 -58.82,1.05 -28.2,1.58 -57.38,3.22 -74.49,0.37 -6.67,-1.12 -14.77,-3.08 -24.14,-5.35 -39.63,-9.59 -99.51,-24.08 -160.59,-0.23 -32.39,12.65 -51.2,21.13 -62.08,27.09l3.39 -85.1c16.78,-5.95 81.67,-27.2 123.28,-16.19zm-147.56 482.91c140.84,-1.62 365.16,-1.74 401.01,4.4l0 16.21c-71.1,-11.35 -352.06,-5.96 -401.01,-4.92l0 -15.69zm-117.33 0.01l103.96 0 0 48.27c0,3.7 2.99,6.69 6.68,6.69l128.48 0 0 97.63 -239.12 0 0 -152.59zm-117.85 -13.36c1.16,-3.86 2.61,-8.97 4.23,-15.18 29.77,-0.51 181.37,-2.7 224.25,3.48l-0.47 11.7 -228.01 0zm19.49 -93.36c17.61,-8.37 104.54,-48.54 148.19,-46.45 39.99,1.76 59.65,19.18 64.92,24.71l-1.05 26.32c-16,-8.66 -42.84,-12.88 -80.1,-12.65 -44.94,0.37 -105.68,8.12 -133.09,15.88 0.39,-2.55 0.76,-5.13 1.13,-7.81zm226.78 -364.97c0,0.01 0,0.02 0,0.02l-1.16 29.13c-20.78,-40.58 -63.4,-91.01 -117.71,-95.46 -43.84,-3.56 -82.47,43.5 -114.92,139.99 -2.66,-21.65 -5.15,-41.58 -7.45,-59.82 7.07,-13.8 59.03,-109.16 142.69,-109.16 0.42,0 0.83,0 1.25,0 26.87,0.3 51.29,12.27 72.83,22.83 9.47,4.64 18.47,8.98 26.88,11.96l-2.41 60.51zm389.92 96.59c-27.58,-6.28 -116.52,-22.85 -185.29,6.3 -74.3,31.49 -174.97,32.41 -196.23,22.12l0.2 -4.99c0,-0.01 0,-0.01 0,-0.02 0,-0.01 0,-0.02 0,-0.03l0.56 -14.03c4.4,-3.08 19.27,-11.65 67.58,-30.52 57.16,-22.33 114.59,-8.42 152.58,0.78 9.63,2.33 17.94,4.34 25.09,5.53 18.59,3.1 48.51,1.41 77.45,-0.21 22.67,-1.27 46.01,-2.58 58.06,-0.95l0 16.02zm-394.5 354.21c124.55,-2.66 351.22,-5.9 394.5,-0.88l0 12.92c-58.17,-7.79 -336.62,-5.22 -394.79,-4.59l0.29 -7.45zm-230.95 -35.41c55.38,-4.86 185.63,-13.16 219.06,-1.83l-0.78 19.67c-45.39,-5.96 -184.76,-4.12 -221.46,-3.51 1.03,-4.42 2.1,-9.19 3.18,-14.33zm12.73 -84.42c15.93,-15.13 105.09,-72.18 155.48,-57.81 31.21,8.89 51.87,24.95 55.26,29.63l-0.93 23.44c-11.61,-8.62 -32.52,-19.63 -65.01,-21.07 -42.33,-1.73 -118.3,31.05 -146.77,44.12 0.7,-5.86 1.36,-11.95 1.97,-18.31zm2.22 -28.52c23.9,-19.42 123.21,-77.93 169.12,-70.9 28.6,4.4 38.96,32.78 40.72,38.26l-0.63 15.75c-12.12,-9.24 -31.51,-19.34 -52.28,-25.26 -49.64,-14.14 -126.12,29.18 -157.62,52.37 0.25,-3.36 0.48,-6.76 0.69,-10.22zm1.29 -28.85c22.42,-28.19 109.75,-99.05 151.55,-88.03 26.85,7.06 56.32,36.73 58.23,53.14l-0.17 4.32c-7.98,-10.81 -20.55,-21.73 -39.75,-24.68 -47.58,-7.33 -135.56,42.6 -170.26,66.85 0.15,-3.81 0.29,-7.67 0.4,-11.6zm0.07 -46.02c11.37,-15.33 88.39,-87.19 138.32,-84.26 49.23,2.79 73.48,42.91 72.95,56.28l0 0 -0.48 12.11c-13.4,-17.3 -35.55,-33.71 -55.91,-39.07 -44.01,-11.51 -121.07,46.74 -154.62,80.73 0.04,-8.39 -0.05,-16.99 -0.26,-25.79zm-1.11 -27.84c0,-0.05 0.01,-0.1 0.01,-0.14 0.56,-9.23 35.86,-62.06 80.89,-92.61 27.1,-18.38 51.09,-24.33 71.3,-17.71 59.32,19.46 62.11,56.22 61.69,72.36l-0.18 4.72 -0.01 0.13c0,0.01 0,0.01 0,0.01l-0.1 2.7c-13.35,-18.59 -37.73,-37.21 -73.42,-39.23 -47.7,-2.69 -112.82,50.82 -139.77,78.43 -0.13,-2.88 -0.24,-5.73 -0.41,-8.66zm-2.43 -32.03c6.55,-17.82 25.84,-46.29 47.46,-69.93 26.67,-29.18 53.24,-47.19 72.88,-49.42 20.75,-2.35 47.12,9.21 70.52,30.95 15.86,14.75 25.54,30.08 26.89,38.03 -11.46,-17.98 -31.13,-31.63 -58.95,-40.76 -27.04,-8.88 -59.54,0.6 -94.01,27.38 -25.33,19.68 -50.25,48.38 -64.24,70.1 -0.18,-2.11 -0.35,-4.21 -0.55,-6.35zm-3.33 -30.42c4.52,-14.35 22.79,-50.22 47.08,-83.64 27.94,-38.45 53.72,-59.38 70.78,-57.3 34.46,4.11 82.34,45.85 98.36,86.71 -4.18,-4.92 -8.65,-9.55 -12.94,-13.53 -12.58,-11.71 -45.7,-38.5 -81.12,-34.45 -43.71,4.96 -97.6,66.82 -121.48,107.9 -0.23,-1.91 -0.46,-3.8 -0.68,-5.69zm616.01 6.57c-31.02,-17.94 -68.63,-21.69 -107.32,-10.34 -14.02,4.1 -28.18,8.64 -43.16,13.43 -48.52,15.53 -98.69,31.59 -142.19,32.15 -50.55,0.74 -79.72,-11.97 -90.2,-20.12l0.8 -20.08c11.25,3.56 28.53,5.47 49.19,5.47 44.72,0 105.02,-8.92 152.81,-29.18 67.02,-28.39 158.08,-9.97 180.07,-4.85l0 33.52zm-393.43 280.11c56.12,-8.19 303.89,-6.62 393.43,-4.43l0 17.02c-59.14,-5.81 -343.72,-0.2 -393.96,0.85l0.53 -13.44zm250.72 -86.09c34.3,-7.08 55.57,3.39 80.2,15.52 18.2,8.97 37.06,18.13 62.51,21.06l0 7.14c-117.57,-25.68 -339.45,-5.61 -391.77,0.75l0.95 -23.94c51.84,14.54 215.31,-13.74 248.11,-20.53zm-51.74 -39.31l2.87 -0.64c31.53,-6.95 100.07,15.41 145.42,30.2 20.41,6.66 36.17,11.78 46.16,13.76l0 19.13c-22.5,-2.9 -39.84,-11.36 -56.6,-19.61 -24.59,-12.12 -50.03,-24.65 -88.82,-16.62 -32.24,6.67 -87.76,15.65 -139.12,20.65 -71.17,6.94 -96.68,2.69 -105.73,-0.8l1.12 -28.06c37.69,13.44 118.7,-1.27 194.7,-18.01zm158.42 -6.66c-33.36,-11.58 -74.88,-26 -101,-27.4 -22.25,-1.16 -59.95,4.7 -96.38,10.38 -32.62,5.1 -66.39,10.45 -85.75,9.91 -38.29,-0.91 -59.22,-10.75 -68.07,-16.32l0.12 -2.94c23.03,8.75 84.91,25.68 171.52,-1.34 85.84,-26.78 175.9,-4.92 215.59,16.15l0 23.39c-8.55,-2.29 -22.46,-7.12 -36.03,-11.83zm-351.8 -8.46c12.35,6.23 34.28,13.9 68.35,14.72 20.6,0.48 53.4,-4.64 88.14,-10.07 35.74,-5.58 72.7,-11.37 93.6,-10.24 24.23,1.3 64.76,15.37 97.32,26.68 19.15,6.65 32.15,11.09 40.42,12.94l0 10.77c-9.64,-2.27 -25.47,-7.42 -42.02,-12.82 -49.51,-16.16 -117.34,-38.27 -152.43,-30.55l-2.88 0.63c-43.36,9.56 -156.33,34.45 -191.25,16.87l0.75 -18.93zm387.83 -68.05c-33.02,-11.44 -103.64,-14.66 -174.31,7.83 -79.01,25.14 -195.28,16.42 -211.29,4.32l0.34 -8.42c15.84,8.07 41.75,11.99 72.9,11.99 54.69,0 125.39,-12.03 185.5,-34.63 94.44,-35.49 116.08,-9.87 126.48,2.45 0.13,0.16 0.25,0.3 0.38,0.46l0 16zm0 50.02c-44.45,-21.05 -134.15,-40.64 -219.57,-13.98 -89.63,27.96 -150.5,6.99 -166.98,-0.06l0.38 -9.66c21.39,8.63 62.04,10.42 76.55,10.78 4.57,0.11 9.14,0.17 13.7,0.17 46.72,0 91.89,-5.95 125.66,-16.7 76.42,-24.32 146.46,-16.39 170.26,-6.25l0 35.7zm-392.31 130.46c47.36,-5.97 275.64,-27.32 392.31,-0.59l0 10.88c-82.55,-1.99 -328.78,-4 -392.89,4.24l0.58 -14.53zm8.83 -221.48c15.61,8.74 44.21,18.09 87.13,18.09 1.27,0 2.56,-0.01 3.85,-0.02 45.5,-0.59 96.64,-16.96 146.1,-32.78 14.9,-4.78 28.98,-9.28 42.83,-13.35 48.05,-14.08 82.46,-1.08 103.57,13.25l0 20.49c-16.32,-13.99 -49.39,-26.99 -131.56,3.9 -101.57,38.19 -225.74,43.12 -253.1,19.84l0.15 -3.68c0,-0.01 0,-0.01 0,-0.01 0,0 0,-0.01 0,-0.02l1.03 -25.71zm-236.33 -68.72l0.18 -0.61c22.1,-74.4 59.08,-162.26 109.75,-158.06 63.16,5.17 108.6,82.1 117.52,114.41l-0.21 5.3c-6.47,-12.57 -15.49,-25.27 -26.79,-37.42 -24.25,-26.07 -53.11,-43.35 -77.2,-46.22 -42.84,-5.16 -99.19,80.14 -122.63,127.74 -0.21,-1.71 -0.42,-3.44 -0.62,-5.14zm-0.3 281.53c23.74,-8.84 182.7,-32.16 214.84,-1.94l-0.58 14.64c-45.32,-11.65 -178.15,-1.48 -216.87,1.83 0.88,-4.62 1.75,-9.47 2.61,-14.53zm-214.01 237.07l32.18 -117.99c7.32,-1.14 14.9,-2.38 22.75,-3.73l-33.18 121.72 -21.75 0zm35.61 0l33.89 -124.32c7.54,-1.38 15.27,-2.87 23.15,-4.44l-35.29 128.76 -21.75 0zm35.62 0l36.11 -131.81c7.79,-1.66 15.69,-3.42 23.66,-5.29l-38.01 137.1 -21.76 0zm182.17 0l-146.54 0 39.01 -140.68c14.52,-3.61 29.21,-7.56 43.87,-11.91l63.66 0 0 152.59zm594.09 -153.26l0 -420.39c0,-1.8 -0.72,-3.52 -2.01,-4.78 -1.28,-1.25 -3.08,-1.92 -4.81,-1.91 -49.37,1.17 -134.65,-27.87 -197.03,-48.99 -24.3,-8.22 -45.29,-15.33 -59.56,-19.1 -42.14,-11.16 -102.84,6.83 -126.12,14.74l4.86 -121.82c0.07,-1.82 -0.61,-3.59 -1.87,-4.9 -1.26,-1.31 -3,-2.05 -4.82,-2.05l-40.14 0c0.71,-4.84 1.08,-9.75 1.08,-14.67 0,-55.44 -45.11,-100.54 -100.55,-100.54 -55.45,0 -100.55,45.1 -100.55,100.54 0,4.92 0.39,9.83 1.1,14.67l-12.69 0 0 -14.67c0,-3.68 -2.99,-6.68 -6.68,-6.68l-200.51 0c-2.04,0 -3.98,0.94 -5.24,2.55 -1.27,1.6 -1.73,3.7 -1.25,5.69 0.6,2.53 60.65,254.21 57.74,339.88 -2.89,85.15 -115.53,317.2 -116.66,319.54 -1.05,2.14 -0.87,4.68 0.46,6.67 1.25,1.84 3.33,2.94 5.54,2.94 0.16,0 0.32,-0.01 0.47,-0.02 0.46,-0.03 17.14,-1.26 43.98,-4.51l-31.59 116c-0.54,2.01 -0.12,4.16 1.14,5.82 1.27,1.65 3.23,2.62 5.31,2.62l856.98 0c3.69,0 6.68,-2.99 6.68,-6.68l0 -104.32 20.06 0c3.69,0 6.68,-2.99 6.68,-6.69l0 -48.91c0,-0.01 0,-0.02 0,-0.03z"/>
   <path class="fil4" d="M801.2 887.75c2.01,0.77 4.25,0.5 6.04,-0.68 1.78,-1.18 2.89,-3.14 2.99,-5.28 0.83,-19 16.36,-33.88 35.36,-33.88 18.48,0 33.65,13.88 35.29,32.28 0.3,3.38 3.08,6 6.47,6.09 12.81,0.36 22.85,10.67 22.85,23.47 0,12.96 -10.55,23.51 -23.51,23.51l-93.71 0c-12.97,0 -23.51,-10.55 -23.51,-23.51 0,-12.96 10.54,-23.51 23.51,-23.51 2.78,0 5.54,0.51 8.22,1.51z"/>
   <path class="fil5" d="M2622.95 989.91c0.01,0 0.02,0 0.03,0l0.79 0.04c2.87,0.12 5.36,-1.62 6.4,-4.23 4.63,-11.73 15.84,-19.31 28.55,-19.31 16.91,0 30.66,13.6 30.64,30.63l-0.04 0.69c-0.1,2.45 1.15,4.75 3.26,6.01 2.1,1.25 4.71,1.26 6.83,0.01 4.77,-2.83 10.19,-4.32 15.69,-4.32 16.91,0 30.67,13.6 30.67,30.32 0,16.72 -13.76,30.32 -30.67,30.32l-92.33 0c-19.57,0 -35.49,-15.74 -35.49,-35.09 0,-19.34 15.91,-35.07 35.67,-35.07z"/>
   <path class="fil1" d="M131.49 2330.33c-3.43,3.8 -8.14,6.04 -13.26,6.29 -4.13,0.21 -14.6,0.12 -21.41,0.06l-5.4 -0.03c-6.88,0 -12.48,-5.6 -12.48,-12.49 0,-6.85 5.57,-12.44 12.42,-12.47 2.19,-0.01 4.24,-1.09 5.48,-2.89 1.24,-1.8 1.52,-4.1 0.75,-6.15 -0.53,-1.42 -0.8,-2.88 -0.8,-4.34 0,-6.88 5.6,-12.49 12.49,-12.49 5.81,0 10.8,3.96 12.13,9.63 0.47,2.03 1.86,3.72 3.74,4.57 6.59,2.99 10.91,9.31 11.27,16.5 0.26,5.11 -1.49,10.02 -4.93,13.81z"/>
   <path class="fil4" d="M1193.25 2328.66l-33.98 0c-9.03,0 -16.37,-7.34 -16.37,-16.37 0,-6.25 3.55,-11.87 9.26,-14.66 1.8,-0.87 3.11,-2.5 3.58,-4.45 0.46,-1.94 0.03,-3.99 -1.17,-5.59 -3.84,-5.08 -5.87,-11.1 -5.87,-17.41 0,-15.97 12.99,-28.96 28.96,-28.96 15.97,0 28.96,12.99 28.96,28.96 0,3.03 -0.48,6.03 -1.43,8.95 -0.87,2.69 0.05,5.65 2.3,7.37 5.88,4.5 9.25,11.3 9.25,18.66 0,12.96 -10.54,23.5 -23.49,23.5z"/>
   <path class="fil5" d="M1758.18 2320.43l-50.63 0c-14.14,0 -25.66,-11.51 -25.66,-25.65 0,-8.6 4.29,-16.59 11.47,-21.36 2.15,-1.44 3.28,-3.97 2.91,-6.53 -0.25,-1.7 -0.36,-3.12 -0.36,-4.45 0,-17.36 14.12,-31.49 31.48,-31.49 17.36,0 31.48,14.13 31.48,31.49 0,4.77 -1.07,9.4 -3.21,13.76 -0.93,1.91 -0.9,4.16 0.1,6.05 0.99,1.89 2.83,3.19 4.95,3.49 8.5,1.24 14.92,8.66 14.92,17.24 0,9.62 -7.83,17.45 -17.45,17.45z"/>
   <path class="fil2" d="M2137.05 2315.19c-5.51,6.1 -13.08,9.68 -21.29,10.09 -2.48,0.13 -7.01,0.19 -13.46,0.19 -6,0 -12.59,-0.06 -17.76,-0.1 -3.37,-0.02 -6.15,-0.05 -7.78,-0.05 -11.64,0 -21.1,-9.45 -21.1,-21.08 0,-11.57 9.42,-21.04 21,-21.09 2.19,-0.01 4.24,-1.09 5.48,-2.89 1.24,-1.8 1.52,-4.09 0.75,-6.14 -0.91,-2.41 -1.37,-4.89 -1.37,-7.36 0,-11.63 9.47,-21.08 21.1,-21.08 9.84,0 18.28,6.69 20.51,16.27 0.47,2.02 1.86,3.71 3.75,4.57 10.57,4.79 17.5,14.94 18.09,26.48 0.41,8.21 -2.4,16.09 -7.92,22.19z"/>
   <path class="fil4" d="M2902.77 2337.17l-24.87 0c-8.5,0 -15.41,-6.92 -15.41,-15.41 0,-4.82 2.21,-9.29 6.07,-12.23 2.25,-1.73 3.17,-4.68 2.29,-7.37 -0.63,-1.97 -0.95,-3.99 -0.95,-6.01 0,-10.69 8.71,-19.4 19.41,-19.4 10.7,0 19.4,8.71 19.4,19.4 0,4.23 -1.35,8.26 -3.93,11.67 -1.2,1.59 -1.64,3.64 -1.17,5.59 0.46,1.94 1.77,3.57 3.58,4.45 3.55,1.73 5.77,5.23 5.77,9.12 0,5.62 -4.57,10.19 -10.19,10.19z"/>
   <path class="fil5" d="M497.33 2362.06l-146.54 0 39.01 -140.68c14.52,-3.61 29.21,-7.56 43.87,-11.91l63.66 0 0 152.59z"/>
   <path class="fil5" d="M279.54 2362.06l33.89 -124.32c7.54,-1.38 15.27,-2.87 23.15,-4.44l-35.29 128.76 -21.75 0z"/>
   <path class="fil5" d="M458.24 1843.46l0.18 -0.61c22.1,-74.4 59.08,-162.26 109.75,-158.06 63.16,5.17 108.6,82.1 117.52,114.41l-0.21 5.3c-6.47,-12.57 -15.49,-25.27 -26.79,-37.42 -24.25,-26.07 -53.11,-43.35 -77.2,-46.22 -42.84,-5.16 -99.19,80.14 -122.63,127.74 -0.21,-1.71 -0.42,-3.44 -0.62,-5.14z"/>
   <path class="fil5" d="M694.57 1912.18c15.61,8.74 44.21,18.09 87.13,18.09 1.27,0 2.56,-0.01 3.85,-0.02 45.5,-0.59 96.64,-16.96 146.1,-32.78 14.9,-4.78 28.98,-9.28 42.83,-13.35 48.05,-14.08 82.46,-1.08 103.57,13.25l0 20.49c-16.32,-13.99 -49.39,-26.99 -131.56,3.9 -101.57,38.19 -225.74,43.12 -253.1,19.84l0.15 -3.68c0,-0.01 0,-0.01 0,-0.01 0,0 0,-0.01 0,-0.02l1.03 -25.71z"/>
   <path class="fil5" d="M1078.05 2003.2c-44.45,-21.05 -134.15,-40.64 -219.57,-13.98 -89.63,27.96 -150.5,6.99 -166.98,-0.06l0.38 -9.66c21.39,8.63 62.04,10.42 76.55,10.78 4.57,0.11 9.14,0.17 13.7,0.17 46.72,0 91.89,-5.95 125.66,-16.7 76.42,-24.32 146.46,-16.39 170.26,-6.25l0 35.7z"/>
   <path class="fil5" d="M690.22 2021.23c12.35,6.23 34.28,13.9 68.35,14.72 20.6,0.48 53.4,-4.64 88.14,-10.07 35.74,-5.58 72.7,-11.37 93.6,-10.24 24.23,1.3 64.76,15.37 97.32,26.68 19.15,6.65 32.15,11.09 40.42,12.94l0 10.77c-9.64,-2.27 -25.47,-7.42 -42.02,-12.82 -49.51,-16.16 -117.34,-38.27 -152.43,-30.55l-2.88 0.63c-43.36,9.56 -156.33,34.45 -191.25,16.87l0.75 -18.93z"/>
   <path class="fil5" d="M935.34 2075.66c34.3,-7.08 55.57,3.39 80.2,15.52 18.2,8.97 37.06,18.13 62.51,21.06l0 7.14c-117.57,-25.68 -339.45,-5.61 -391.77,0.75l0.95 -23.94c51.84,14.54 215.31,-13.74 248.11,-20.53z"/>
   <path class="fil5" d="M684.62 2161.75c56.12,-8.19 303.89,-6.62 393.43,-4.43l0 17.02c-59.14,-5.81 -343.72,-0.2 -393.96,0.85l0.53 -13.44z"/>
   <path class="fil5" d="M465.37 1905.49c6.55,-17.82 25.84,-46.29 47.46,-69.93 26.67,-29.18 53.24,-47.19 72.88,-49.42 20.75,-2.35 47.12,9.21 70.52,30.95 15.86,14.75 25.54,30.08 26.89,38.03 -11.46,-17.98 -31.13,-31.63 -58.95,-40.76 -27.04,-8.88 -59.54,0.6 -94.01,27.38 -25.33,19.68 -50.25,48.38 -64.24,70.1 -0.18,-2.11 -0.35,-4.21 -0.55,-6.35z"/>
   <path class="fil5" d="M468.91 1965.36c11.37,-15.33 88.39,-87.19 138.32,-84.26 49.23,2.79 73.48,42.91 72.95,56.28l0 0 -0.48 12.11c-13.4,-17.3 -35.55,-33.71 -55.91,-39.07 -44.01,-11.51 -121.07,46.74 -154.62,80.73 0.04,-8.39 -0.05,-16.99 -0.26,-25.79z"/>
   <path class="fil5" d="M467.55 2040.23c23.9,-19.42 123.21,-77.93 169.12,-70.9 28.6,4.4 38.96,32.78 40.72,38.26l-0.63 15.75c-12.12,-9.24 -31.51,-19.34 -52.28,-25.26 -49.64,-14.14 -126.12,29.18 -157.62,52.37 0.25,-3.36 0.48,-6.76 0.69,-10.22z"/>
   <path class="fil5" d="M452.6 2153.17c55.38,-4.86 185.63,-13.16 219.06,-1.83l-0.78 19.67c-45.39,-5.96 -184.76,-4.12 -221.46,-3.51 1.03,-4.42 2.1,-9.19 3.18,-14.33z"/>
   <path class="fil5" d="M1078.05 1834.37c-27.58,-6.28 -116.52,-22.85 -185.29,6.3 -74.3,31.49 -174.97,32.41 -196.23,22.12l0.2 -4.99c0,-0.01 0,-0.01 0,-0.02 0,-0.01 0,-0.02 0,-0.03l0.56 -14.03c4.4,-3.08 19.27,-11.65 67.58,-30.52 57.16,-22.33 114.59,-8.42 152.58,0.78 9.63,2.33 17.94,4.34 25.09,5.53 18.59,3.1 48.51,1.41 77.45,-0.21 22.67,-1.27 46.01,-2.58 58.06,-0.95l0 16.02z"/>
   <path class="fil5" d="M461.35 2102.75c17.61,-8.37 104.54,-48.54 148.19,-46.45 39.99,1.76 59.65,19.18 64.92,24.71l-1.05 26.32c-16,-8.66 -42.84,-12.88 -80.1,-12.65 -44.94,0.37 -105.68,8.12 -133.09,15.88 0.39,-2.55 0.76,-5.13 1.13,-7.81z"/>
   <path class="fil5" d="M559.71 2209.47l103.96 0 0 48.27c0,3.7 2.99,6.69 6.68,6.69l128.48 0 0 97.63 -239.12 0 0 -152.59z"/>
   <path class="fil5" d="M677.04 2209.46c140.84,-1.62 365.16,-1.74 401.01,4.4l0 16.21c-71.1,-11.35 -352.06,-5.96 -401.01,-4.92l0 -15.69z"/>
   <path class="fil5" d="M691.1 1663.23c-6.68,-2.66 -13.95,-6.2 -21.56,-9.92 -21.68,-10.63 -48.67,-23.86 -78.56,-24.19 -0.46,-0.01 -0.92,-0.01 -1.38,-0.01 -40.67,0 -80.43,20.43 -115.06,59.16 -13.47,15.06 -23.66,30.03 -30.48,41.18 -7.95,-62.2 -13.33,-101.04 -15.52,-116.48l40.33 0c0.05,0 0.1,0.02 0.15,0.02 0.08,0 0.16,-0.02 0.23,-0.02l223.86 0 -2.01 50.26z"/>
   <path class="fil5" d="M473.27 1584.93c0,-48.07 39.1,-87.18 87.18,-87.18 48.07,0 87.18,39.11 87.18,87.18 0,4.93 -0.51,9.84 -1.33,14.67l-171.8 0c-0.82,-4.82 -1.23,-9.74 -1.23,-14.67z"/>
   <path class="fil5" d="M305.73 1926.83c2.7,-79.59 -45.56,-290.11 -56.15,-335.21l185.37 0 0 7.98 -14.11 0c-1.94,0 -3.79,0.84 -5.06,2.31 -1.27,1.47 -1.84,3.42 -1.56,5.34 0.14,0.91 13.61,93.58 35.63,278.44 11.36,95.41 4.65,176.44 -4.45,232.43 -0.53,1.14 -0.73,2.38 -0.58,3.6 -6.74,40.29 -14.58,66.88 -17.35,75.64 -99.89,29.31 -201.1,40.65 -234.66,43.81 22.56,-47.33 110.26,-236.04 112.92,-314.34z"/>
   <path class="fil5" d="M240.51 2249.19c6.63,-0.87 13.68,-1.84 21.15,-2.93l-31.58 115.8 -20.31 0 30.74 -112.87z"/>
   <polygon class="fil5" points="849.33,2362.06 933.98,2362.06 933.98,2264.43 849.33,2264.43 "/>
   <polygon class="fil5" points="984.48,2362.06 1051.32,2362.06 1051.32,2264.43 984.48,2264.43 "/>
   <polygon class="fil4" points="1924.09,1289.37 1955.28,1289.37 1955.28,1276 1924.09,1276 "/>
   <polygon class="fil4" points="1924.09,1342.84 1955.28,1342.84 1955.28,1329.47 1924.09,1329.47 "/>
   <polygon class="fil4" points="1924.09,1396.31 1955.28,1396.31 1955.28,1382.94 1924.09,1382.94 "/>
   <polygon class="fil4" points="1924.09,1449.77 1955.28,1449.77 1955.28,1436.41 1924.09,1436.41 "/>
   <polygon class="fil4" points="1924.09,1503.24 1955.28,1503.24 1955.28,1489.88 1924.09,1489.88 "/>
   <polygon class="fil4" points="1924.09,1556.71 1955.28,1556.71 1955.28,1543.35 1924.09,1543.35 "/>
   <polygon class="fil4" points="1924.09,1235.9 1955.28,1235.9 1955.28,1222.53 1924.09,1222.53 "/>
   <path class="fil4" d="M1844.63 1583.45c0,-7.37 6,-13.37 13.37,-13.37 7.37,0 13.36,6 13.36,13.37l0 155.2 -26.73 0 0 -155.2z"/>
   <polygon class="fil4" points="1817.89,1752.02 1910.72,1752.02 1910.72,1781.72 1817.89,1781.72 "/>
   <polygon class="fil4" points="1844.63,1829.25 1871.36,1829.25 1871.36,1795.09 1844.63,1795.09 "/>
   <polygon class="fil4" points="1817.89,1842.62 1910.72,1842.62 1910.72,1872.32 1817.89,1872.32 "/>
   <polygon class="fil4" points="1844.63,2052.03 1871.36,2052.03 1871.36,1885.69 1844.63,1885.69 "/>
   <polygon class="fil4" points="1844.63,2362.06 1871.36,2362.06 1871.36,2138.18 1844.63,2138.18 "/>
   <polygon class="fil4" points="1878.05,2124.81 1817.89,2124.81 1817.89,2065.4 1910.72,2065.4 1910.72,2124.81 "/>
   <polygon class="fil4" points="1955.28,2361.38 1924.09,2361.38 1924.09,1596.81 1955.28,1596.81 "/>
   <polygon class="fil4" points="1968.65,2124.81 2018.4,2124.81 2018.4,2065.4 1968.65,2065.4 "/>
   <polygon class="fil4" points="1968.65,1872.32 2018.4,1872.32 2018.4,1842.62 1968.65,1842.62 "/>
   <polygon class="fil4" points="1968.65,1781.72 2018.4,1781.72 2018.4,1752.02 1968.65,1752.02 "/>
  </g>
 </g>
</svg>
