<?xml version="1.0" encoding="UTF-8"?>
<!DOCTYPE svg PUBLIC "-//W3C//DTD SVG 1.1//EN" "http://www.w3.org/Graphics/SVG/1.1/DTD/svg11.dtd">
<!-- Creator: CorelDRAW 2018 (64-Bit) -->
<svg xmlns="http://www.w3.org/2000/svg" xml:space="preserve" width="3693px" height="2987px" version="1.1" style="shape-rendering:geometricPrecision; text-rendering:geometricPrecision; image-rendering:optimizeQuality; fill-rule:evenodd; clip-rule:evenodd"
viewBox="0 0 3774.16 3052.77"
 xmlns:xlink="http://www.w3.org/1999/xlink">
 <defs>
  <style type="text/css">
   <![CDATA[
    .fil42 {fill:#1D3B5B;fill-rule:nonzero}
    .fil53 {fill:#244666;fill-rule:nonzero}
    .fil6 {fill:#2459A8;fill-rule:nonzero}
    .fil8 {fill:#2462AF;fill-rule:nonzero}
    .fil7 {fill:#3467BD;fill-rule:nonzero}
    .fil11 {fill:#3477CD;fill-rule:nonzero}
    .fil9 {fill:#3A79C6;fill-rule:nonzero}
    .fil43 {fill:#3B4270;fill-rule:nonzero}
    .fil48 {fill:#3B4F83;fill-rule:nonzero}
    .fil10 {fill:#5285D6;fill-rule:nonzero}
    .fil14 {fill:#5B85DA;fill-rule:nonzero}
    .fil12 {fill:#72A5FF;fill-rule:nonzero}
    .fil51 {fill:#8AA8BA;fill-rule:nonzero}
    .fil50 {fill:#91BAF9;fill-rule:nonzero}
    .fil13 {fill:#A3B8FF;fill-rule:nonzero}
    .fil15 {fill:#A5D1F9;fill-rule:nonzero}
    .fil47 {fill:#A8D8FF;fill-rule:nonzero}
    .fil52 {fill:#B1CDE6;fill-rule:nonzero}
    .fil16 {fill:#B6E1FF;fill-rule:nonzero}
    .fil17 {fill:#DFAC44;fill-rule:nonzero}
    .fil54 {fill:#E4B887;fill-rule:nonzero}
    .fil45 {fill:#EFE2CA;fill-rule:nonzero}
    .fil18 {fill:#F7C144;fill-rule:nonzero}
    .fil49 {fill:#FDFDFD;fill-rule:nonzero}
    .fil44 {fill:#3B4270;fill-rule:nonzero;fill-opacity:0.200000}
    .fil41 {fill:#6D99BF;fill-rule:nonzero;fill-opacity:0.501961}
    .fil19 {fill:#F7C144;fill-rule:nonzero;fill-opacity:0.501961}
    .fil5 {fill:#D4E1EF;fill-rule:nonzero;fill-opacity:0.800000}
    .fil46 {fill:#EFE2CA;fill-rule:nonzero;fill-opacity:0.800000}
    .fil4 {fill:url(#id52);fill-rule:nonzero}
    .fil1 {fill:url(#id53);fill-rule:nonzero}
    .fil2 {fill:url(#id54);fill-rule:nonzero}
    .fil3 {fill:url(#id55);fill-rule:nonzero}
    .fil36 {fill:url(#id56);fill-rule:nonzero}
    .fil37 {fill:url(#id57);fill-rule:nonzero}
    .fil40 {fill:url(#id58);fill-rule:nonzero}
    .fil35 {fill:url(#id59);fill-rule:nonzero}
    .fil34 {fill:url(#id60);fill-rule:nonzero}
    .fil27 {fill:url(#id61);fill-rule:nonzero}
    .fil29 {fill:url(#id62);fill-rule:nonzero}
    .fil33 {fill:url(#id63);fill-rule:nonzero}
    .fil22 {fill:url(#id64);fill-rule:nonzero}
    .fil25 {fill:url(#id65);fill-rule:nonzero}
    .fil28 {fill:url(#id66);fill-rule:nonzero}
    .fil31 {fill:url(#id67);fill-rule:nonzero}
    .fil30 {fill:url(#id68);fill-rule:nonzero}
    .fil21 {fill:url(#id69);fill-rule:nonzero}
    .fil24 {fill:url(#id70);fill-rule:nonzero}
    .fil26 {fill:url(#id71);fill-rule:nonzero}
    .fil23 {fill:url(#id72);fill-rule:nonzero}
    .fil0 {fill:url(#id73);fill-rule:nonzero}
    .fil32 {fill:url(#id74);fill-rule:nonzero}
    .fil20 {fill:url(#id75);fill-rule:nonzero}
    .fil39 {fill:url(#id76);fill-rule:nonzero}
    .fil38 {fill:url(#id77);fill-rule:nonzero}
   ]]>
  </style>
    <mask id="id0">
  <linearGradient id="id1" gradientUnits="userSpaceOnUse" x1="1093.75" y1="1905.74" x2="1333.2" y2="338.4">
   <stop offset="0" style="stop-opacity:0.0980392; stop-color:white"/>
   <stop offset="0.529412" style="stop-opacity:0.45098; stop-color:white"/>
   <stop offset="1" style="stop-opacity:1; stop-color:white"/>
  </linearGradient>
     <rect style="fill:url(#id1)" x="372.86" y="-0.46" width="1747.28" height="1812.72"/>
    </mask>
    <mask id="id2">
  <linearGradient id="id3" gradientUnits="userSpaceOnUse" x1="3035.98" y1="989.72" x2="3035.98" y2="562.47">
   <stop offset="0" style="stop-opacity:0.0980392; stop-color:white"/>
   <stop offset="0.529412" style="stop-opacity:126.945; stop-color:white"/>
   <stop offset="1" style="stop-opacity:1; stop-color:white"/>
  </linearGradient>
     <rect style="fill:url(#id3)" x="2821.9" y="562.01" width="428.17" height="428.17"/>
    </mask>
    <mask id="id4">
  <linearGradient id="id5" gradientUnits="userSpaceOnUse" x1="2845.96" y1="591.64" x2="2845.96" y2="317.13">
   <stop offset="0" style="stop-opacity:0.0980392; stop-color:white"/>
   <stop offset="0.529412" style="stop-opacity:-73.3373; stop-color:white"/>
   <stop offset="1" style="stop-opacity:1; stop-color:white"/>
  </linearGradient>
     <rect style="fill:url(#id5)" x="2708.24" y="316.67" width="275.43" height="275.43"/>
    </mask>
    <mask id="id6">
  <linearGradient id="id7" gradientUnits="userSpaceOnUse" x1="877.66" y1="2083.61" x2="877.66" y2="1548.57">
   <stop offset="0" style="stop-opacity:0.0980392; stop-color:white"/>
   <stop offset="0.529412" style="stop-opacity:-128.051; stop-color:white"/>
   <stop offset="1" style="stop-opacity:1; stop-color:white"/>
  </linearGradient>
     <rect style="fill:url(#id7)" x="609.68" y="1548.11" width="535.96" height="535.96"/>
    </mask>
    <mask id="id8">
  <linearGradient id="id9" gradientUnits="userSpaceOnUse" x1="1129.05" y1="1585.1" x2="1129.05" y2="1241.33">
   <stop offset="0" style="stop-opacity:0.0980392; stop-color:white"/>
   <stop offset="0.529412" style="stop-opacity:122.929; stop-color:white"/>
   <stop offset="1" style="stop-opacity:1; stop-color:white"/>
  </linearGradient>
     <rect style="fill:url(#id9)" x="956.71" y="1240.87" width="344.69" height="344.69"/>
    </mask>
    <mask id="id10">
  <linearGradient id="id11" gradientUnits="userSpaceOnUse" x1="69.36" y1="2306.45" x2="338.87" y2="1740.84">
   <stop offset="0" style="stop-opacity:0.0980392; stop-color:white"/>
   <stop offset="0.529412" style="stop-opacity:0.45098; stop-color:white"/>
   <stop offset="1" style="stop-opacity:1; stop-color:white"/>
  </linearGradient>
     <rect style="fill:url(#id11)" x="-0.46" y="1794.36" width="425.1" height="425.1"/>
    </mask>
    <mask id="id12">
  <linearGradient id="id13" gradientUnits="userSpaceOnUse" x1="69.36" y1="2306.44" x2="338.88" y2="1740.84">
   <stop offset="0" style="stop-opacity:0.0980392; stop-color:white"/>
   <stop offset="0.529412" style="stop-opacity:-32.6784; stop-color:white"/>
   <stop offset="1" style="stop-opacity:1; stop-color:white"/>
  </linearGradient>
     <rect style="fill:url(#id13)" x="27.67" y="1822.48" width="368.85" height="368.85"/>
    </mask>
    <mask id="id14">
  <linearGradient id="id15" gradientUnits="userSpaceOnUse" x1="79.65" y1="2284.84" x2="328.94" y2="1761.69">
   <stop offset="0" style="stop-opacity:0.0980392; stop-color:white"/>
   <stop offset="0.529412" style="stop-opacity:106.365; stop-color:white"/>
   <stop offset="1" style="stop-opacity:1; stop-color:white"/>
  </linearGradient>
     <rect style="fill:url(#id15)" x="145.16" y="1899.09" width="133.86" height="215.63"/>
    </mask>
    <mask id="id16">
  <linearGradient id="id17" gradientUnits="userSpaceOnUse" x1="456.92" y1="1644.5" x2="615.42" y2="1311.87">
   <stop offset="0" style="stop-opacity:0.0980392; stop-color:white"/>
   <stop offset="0.529412" style="stop-opacity:-32.6784; stop-color:white"/>
   <stop offset="1" style="stop-opacity:1; stop-color:white"/>
  </linearGradient>
     <rect style="fill:url(#id17)" x="415.67" y="1343.15" width="250.38" height="250.38"/>
    </mask>
    <mask id="id18">
  <linearGradient id="id19" gradientUnits="userSpaceOnUse" x1="456.92" y1="1644.5" x2="615.42" y2="1311.87">
   <stop offset="0" style="stop-opacity:0.0980392; stop-color:white"/>
   <stop offset="0.529412" style="stop-opacity:-32.6784; stop-color:white"/>
   <stop offset="1" style="stop-opacity:1; stop-color:white"/>
  </linearGradient>
     <rect style="fill:url(#id19)" x="432.21" y="1359.69" width="217.29" height="217.3"/>
    </mask>
    <mask id="id20">
  <linearGradient id="id21" gradientUnits="userSpaceOnUse" x1="462.98" y1="1631.78" x2="609.57" y2="1324.14">
   <stop offset="0" style="stop-opacity:0.0980392; stop-color:white"/>
   <stop offset="0.529412" style="stop-opacity:-13.102; stop-color:white"/>
   <stop offset="1" style="stop-opacity:1; stop-color:white"/>
  </linearGradient>
     <rect style="fill:url(#id21)" x="501.31" y="1404.75" width="79.1" height="127.18"/>
    </mask>
    <mask id="id22">
  <linearGradient id="id23" gradientUnits="userSpaceOnUse" x1="3178.01" y1="1437.71" x2="3336.51" y2="1105.08">
   <stop offset="0" style="stop-opacity:0.0980392; stop-color:white"/>
   <stop offset="0.529412" style="stop-opacity:-13.102; stop-color:white"/>
   <stop offset="1" style="stop-opacity:1; stop-color:white"/>
  </linearGradient>
     <rect style="fill:url(#id23)" x="3136.76" y="1136.37" width="250.38" height="250.38"/>
    </mask>
    <mask id="id24">
  <linearGradient id="id25" gradientUnits="userSpaceOnUse" x1="3178" y1="1437.72" x2="3336.51" y2="1105.09">
   <stop offset="0" style="stop-opacity:0.0980392; stop-color:white"/>
   <stop offset="0.529412" style="stop-opacity:-86.3882; stop-color:white"/>
   <stop offset="1" style="stop-opacity:1; stop-color:white"/>
  </linearGradient>
     <rect style="fill:url(#id25)" x="3153.3" y="1152.91" width="217.3" height="217.3"/>
    </mask>
    <mask id="id26">
  <linearGradient id="id27" gradientUnits="userSpaceOnUse" x1="3184.06" y1="1425" x2="3330.66" y2="1117.35">
   <stop offset="0" style="stop-opacity:0.0980392; stop-color:white"/>
   <stop offset="0.529412" style="stop-opacity:-42.7176; stop-color:white"/>
   <stop offset="1" style="stop-opacity:1; stop-color:white"/>
  </linearGradient>
     <rect style="fill:url(#id27)" x="3222.39" y="1197.96" width="79.11" height="127.19"/>
    </mask>
    <mask id="id28">
  <linearGradient id="id29" gradientUnits="userSpaceOnUse" x1="3124.69" y1="2220.72" x2="3359.43" y2="1728.1">
   <stop offset="0" style="stop-opacity:0.0980392; stop-color:white"/>
   <stop offset="0.529412" style="stop-opacity:-78.3569; stop-color:white"/>
   <stop offset="1" style="stop-opacity:1; stop-color:white"/>
  </linearGradient>
     <rect style="fill:url(#id29)" x="3063.82" y="1774.65" width="370.36" height="370.37"/>
    </mask>
    <mask id="id30">
  <linearGradient id="id31" gradientUnits="userSpaceOnUse" x1="3124.68" y1="2220.72" x2="3359.42" y2="1728.11">
   <stop offset="0" style="stop-opacity:0.0980392; stop-color:white"/>
   <stop offset="0.529412" style="stop-opacity:-13.102; stop-color:white"/>
   <stop offset="1" style="stop-opacity:1; stop-color:white"/>
  </linearGradient>
     <rect style="fill:url(#id31)" x="3088.31" y="1799.15" width="321.38" height="321.37"/>
    </mask>
    <mask id="id32">
  <linearGradient id="id33" gradientUnits="userSpaceOnUse" x1="3133.66" y1="2201.9" x2="3350.77" y2="1746.26">
   <stop offset="0" style="stop-opacity:0.0980392; stop-color:white"/>
   <stop offset="0.529412" style="stop-opacity:-13.6039; stop-color:white"/>
   <stop offset="1" style="stop-opacity:1; stop-color:white"/>
  </linearGradient>
     <rect style="fill:url(#id33)" x="3190.65" y="1865.88" width="116.71" height="187.92"/>
    </mask>
    <mask id="id34">
  <linearGradient id="id35" gradientUnits="userSpaceOnUse" x1="202.22" y1="1343.36" x2="411.68" y2="903.79">
   <stop offset="0" style="stop-opacity:0.0980392; stop-color:white"/>
   <stop offset="0.529412" style="stop-opacity:-32.6784; stop-color:white"/>
   <stop offset="1" style="stop-opacity:1; stop-color:white"/>
  </linearGradient>
     <rect style="fill:url(#id35)" x="147.86" y="945.28" width="330.58" height="330.58"/>
    </mask>
    <mask id="id36">
  <linearGradient id="id37" gradientUnits="userSpaceOnUse" x1="202.22" y1="1343.36" x2="411.68" y2="903.79">
   <stop offset="0" style="stop-opacity:0.0980392; stop-color:white"/>
   <stop offset="0.529412" style="stop-opacity:-13.6039; stop-color:white"/>
   <stop offset="1" style="stop-opacity:1; stop-color:white"/>
  </linearGradient>
     <rect style="fill:url(#id37)" x="169.72" y="967.14" width="286.87" height="286.86"/>
    </mask>
    <mask id="id38">
  <linearGradient id="id39" gradientUnits="userSpaceOnUse" x1="210.23" y1="1326.57" x2="403.96" y2="919.99">
   <stop offset="0" style="stop-opacity:0.0980392; stop-color:white"/>
   <stop offset="0.529412" style="stop-opacity:109.376; stop-color:white"/>
   <stop offset="1" style="stop-opacity:1; stop-color:white"/>
  </linearGradient>
     <rect style="fill:url(#id39)" x="261.03" y="1026.68" width="104.24" height="167.78"/>
    </mask>
    <mask id="id40">
  <linearGradient id="id41" gradientUnits="userSpaceOnUse" x1="3527.97" y1="1756.4" x2="3714.97" y2="1363.96">
   <stop offset="0" style="stop-opacity:0.0980392; stop-color:white"/>
   <stop offset="0.529412" style="stop-opacity:-32.6784; stop-color:white"/>
   <stop offset="1" style="stop-opacity:1; stop-color:white"/>
  </linearGradient>
     <rect style="fill:url(#id41)" x="3479.39" y="1400.96" width="295.23" height="295.23"/>
    </mask>
    <mask id="id42">
  <linearGradient id="id43" gradientUnits="userSpaceOnUse" x1="3527.97" y1="1756.4" x2="3714.97" y2="1363.97">
   <stop offset="0" style="stop-opacity:0.0980392; stop-color:white"/>
   <stop offset="0.529412" style="stop-opacity:-34.1843; stop-color:white"/>
   <stop offset="1" style="stop-opacity:1; stop-color:white"/>
  </linearGradient>
     <rect style="fill:url(#id43)" x="3498.9" y="1420.47" width="256.2" height="256.2"/>
    </mask>
    <mask id="id44">
  <linearGradient id="id45" gradientUnits="userSpaceOnUse" x1="3535.11" y1="1741.41" x2="3708.07" y2="1378.43">
   <stop offset="0" style="stop-opacity:0.0980392; stop-color:white"/>
   <stop offset="0.529412" style="stop-opacity:-86.3882; stop-color:white"/>
   <stop offset="1" style="stop-opacity:1; stop-color:white"/>
  </linearGradient>
     <rect style="fill:url(#id45)" x="3580.42" y="1473.63" width="93.16" height="149.89"/>
    </mask>
    <mask id="id46">
  <linearGradient id="id47" gradientUnits="userSpaceOnUse" x1="1182.73" y1="444.41" x2="1335.04" y2="124.78">
   <stop offset="0" style="stop-opacity:0.0980392; stop-color:white"/>
   <stop offset="0.529412" style="stop-opacity:20.0275; stop-color:white"/>
   <stop offset="1" style="stop-opacity:1; stop-color:white"/>
  </linearGradient>
     <rect style="fill:url(#id47)" x="1143.08" y="154.82" width="240.63" height="240.63"/>
    </mask>
    <mask id="id48">
  <linearGradient id="id49" gradientUnits="userSpaceOnUse" x1="1182.73" y1="444.41" x2="1335.04" y2="124.78">
   <stop offset="0" style="stop-opacity:0.0980392; stop-color:white"/>
   <stop offset="0.529412" style="stop-opacity:20.0275; stop-color:white"/>
   <stop offset="1" style="stop-opacity:1; stop-color:white"/>
  </linearGradient>
     <rect style="fill:url(#id49)" x="1158.97" y="170.72" width="208.85" height="208.84"/>
    </mask>
    <mask id="id50">
  <linearGradient id="id51" gradientUnits="userSpaceOnUse" x1="1188.55" y1="432.2" x2="1329.42" y2="136.57">
   <stop offset="0" style="stop-opacity:0.0980392; stop-color:white"/>
   <stop offset="0.529412" style="stop-opacity:20.0275; stop-color:white"/>
   <stop offset="1" style="stop-opacity:1; stop-color:white"/>
  </linearGradient>
     <rect style="fill:url(#id51)" x="1225.37" y="214.01" width="76.05" height="122.25"/>
    </mask>
  <linearGradient id="id52" gradientUnits="userSpaceOnUse" x1="1129.05" y1="1585.1" x2="1129.05" y2="1241.33">
   <stop offset="0" style="stop-opacity:1; stop-color:#82CFF1"/>
   <stop offset="0.529412" style="stop-opacity:1; stop-color:#82CFF1"/>
   <stop offset="1" style="stop-opacity:1; stop-color:#82CFF1"/>
  </linearGradient>
  <linearGradient id="id53" gradientUnits="userSpaceOnUse" xlink:href="#id52" x1="3035.98" y1="989.72" x2="3035.98" y2="562.47">
  </linearGradient>
  <linearGradient id="id54" gradientUnits="userSpaceOnUse" xlink:href="#id52" x1="2845.96" y1="591.64" x2="2845.96" y2="317.13">
  </linearGradient>
  <linearGradient id="id55" gradientUnits="userSpaceOnUse" xlink:href="#id52" x1="877.66" y1="2083.61" x2="877.66" y2="1548.57">
  </linearGradient>
  <linearGradient id="id56" gradientUnits="userSpaceOnUse" x1="3527.97" y1="1756.4" x2="3714.97" y2="1363.97">
   <stop offset="0" style="stop-opacity:1; stop-color:#FFDF8B"/>
   <stop offset="0.529412" style="stop-opacity:1; stop-color:#FFDF8B"/>
   <stop offset="1" style="stop-opacity:1; stop-color:#FFDF8B"/>
  </linearGradient>
  <linearGradient id="id57" gradientUnits="userSpaceOnUse" xlink:href="#id56" x1="3535.11" y1="1741.41" x2="3708.07" y2="1378.43">
  </linearGradient>
  <linearGradient id="id58" gradientUnits="userSpaceOnUse" xlink:href="#id56" x1="1188.55" y1="432.2" x2="1329.42" y2="136.57">
  </linearGradient>
  <linearGradient id="id59" gradientUnits="userSpaceOnUse" xlink:href="#id56" x1="3527.97" y1="1756.4" x2="3714.97" y2="1363.96">
  </linearGradient>
  <linearGradient id="id60" gradientUnits="userSpaceOnUse" xlink:href="#id56" x1="210.23" y1="1326.57" x2="403.96" y2="919.99">
  </linearGradient>
  <linearGradient id="id61" gradientUnits="userSpaceOnUse" xlink:href="#id56" x1="3178" y1="1437.72" x2="3336.51" y2="1105.09">
  </linearGradient>
  <linearGradient id="id62" gradientUnits="userSpaceOnUse" xlink:href="#id56" x1="3124.69" y1="2220.72" x2="3359.43" y2="1728.1">
  </linearGradient>
  <linearGradient id="id63" gradientUnits="userSpaceOnUse" xlink:href="#id56" x1="202.22" y1="1343.36" x2="411.68" y2="903.79">
  </linearGradient>
  <linearGradient id="id64" gradientUnits="userSpaceOnUse" xlink:href="#id56" x1="79.65" y1="2284.84" x2="328.94" y2="1761.69">
  </linearGradient>
  <linearGradient id="id65" gradientUnits="userSpaceOnUse" xlink:href="#id56" x1="462.98" y1="1631.78" x2="609.57" y2="1324.14">
  </linearGradient>
  <linearGradient id="id66" gradientUnits="userSpaceOnUse" xlink:href="#id56" x1="3184.06" y1="1425" x2="3330.66" y2="1117.35">
  </linearGradient>
  <linearGradient id="id67" gradientUnits="userSpaceOnUse" xlink:href="#id56" x1="3133.66" y1="2201.9" x2="3350.77" y2="1746.26">
  </linearGradient>
  <linearGradient id="id68" gradientUnits="userSpaceOnUse" xlink:href="#id56" x1="3124.68" y1="2220.72" x2="3359.42" y2="1728.11">
  </linearGradient>
  <linearGradient id="id69" gradientUnits="userSpaceOnUse" xlink:href="#id56" x1="69.36" y1="2306.44" x2="338.88" y2="1740.84">
  </linearGradient>
  <linearGradient id="id70" gradientUnits="userSpaceOnUse" xlink:href="#id56" x1="456.92" y1="1644.5" x2="615.42" y2="1311.87">
  </linearGradient>
  <linearGradient id="id71" gradientUnits="userSpaceOnUse" xlink:href="#id56" x1="3178.01" y1="1437.71" x2="3336.51" y2="1105.08">
  </linearGradient>
  <linearGradient id="id72" gradientUnits="userSpaceOnUse" xlink:href="#id56" x1="456.92" y1="1644.5" x2="615.42" y2="1311.87">
  </linearGradient>
  <linearGradient id="id73" gradientUnits="userSpaceOnUse" x1="1093.75" y1="1905.74" x2="1333.2" y2="338.4">
   <stop offset="0" style="stop-opacity:1; stop-color:#81B7E4"/>
   <stop offset="0.529412" style="stop-opacity:1; stop-color:#81B7E4"/>
   <stop offset="1" style="stop-opacity:1; stop-color:#81B7E4"/>
  </linearGradient>
  <linearGradient id="id74" gradientUnits="userSpaceOnUse" xlink:href="#id56" x1="202.22" y1="1343.36" x2="411.68" y2="903.79">
  </linearGradient>
  <linearGradient id="id75" gradientUnits="userSpaceOnUse" xlink:href="#id56" x1="69.36" y1="2306.45" x2="338.87" y2="1740.84">
  </linearGradient>
  <linearGradient id="id76" gradientUnits="userSpaceOnUse" xlink:href="#id56" x1="1182.73" y1="444.41" x2="1335.04" y2="124.78">
  </linearGradient>
  <linearGradient id="id77" gradientUnits="userSpaceOnUse" xlink:href="#id56" x1="1182.73" y1="444.41" x2="1335.04" y2="124.78">
  </linearGradient>
 </defs>
 <g id="Слой_x0020_1">
  <metadata id="CorelCorpID_0Corel-Layer"/>
  <g id="_2302599693408">
   <path class="fil0" style="mask:url(#id0)" d="M742.35 1739.08l-207.08 0 0 -602.63 207.08 0 0 602.63zm303.85 -802.84l0 0 -207.09 0 0 802.84 207.09 0 0 -802.84zm303.84 67.84l0 0 -207.09 0 0 735 207.09 0 0 -735zm303.85 -250.7l0 0 -207.09 0 0 985.7 207.09 0 0 -985.7zm303.84 -359.05l0 0 -207.09 0 0 1344.75 207.09 0 0 -1344.75zm-55.87 -394.33l0 0 -165.67 93.8 66.53 39.15 -558.16 682.22 -305.46 -202.2 -314.16 379.62 27.75 22.98 293.52 -354.69 302.22 200.06 585.33 -709.72 66.53 39.15 1.57 -190.37zm217.82 1794.72l0 0 -1746.36 0 0 17.08 1746.36 0 0 -17.08z"/>
   <path class="fil1" style="mask:url(#id2)" d="M2822.36 758.09l0 36.01c0,10.99 7.63,20.51 18.35,22.89l7.14 1.6c7.96,1.77 14.46,7.53 17.07,15.26 2.59,7.7 5.69,15.16 9.25,22.36 3.62,7.31 3.12,15.99 -1.26,22.87l-3.93 6.17c-5.89,9.27 -4.56,21.4 3.22,29.17l25.46 25.46c7.77,7.77 19.89,9.11 29.17,3.21l5.78 -3.68c6.93,-4.4 15.66,-4.89 22.99,-1.2 7.35,3.69 14.98,6.89 22.85,9.57 7.68,2.61 13.41,9.11 15.17,17.03l1.46 6.56c2.39,10.72 11.9,18.35 22.9,18.35l36.01 0c10.99,0 20.5,-7.63 22.89,-18.35l1.33 -5.95c1.78,-8 7.58,-14.53 15.36,-17.1 8.16,-2.69 16.06,-5.95 23.66,-9.72 7.3,-3.62 15.97,-3.1 22.85,1.27l5.06 3.22c9.27,5.9 21.39,4.56 29.17,-3.21l25.46 -25.46c7.77,-7.77 9.1,-19.9 3.21,-29.17l-2.97 -4.67c-4.44,-6.98 -4.85,-15.76 -1.13,-23.15 3.85,-7.64 7.17,-15.59 9.93,-23.81 2.6,-7.79 9.09,-13.65 17.12,-15.44l5.32 -1.19c10.73,-2.38 18.36,-11.9 18.36,-22.89l0 -36.01c0,-10.99 -7.63,-20.5 -18.36,-22.89l-5.32 -1.19c-8.03,-1.78 -14.52,-7.64 -17.12,-15.44 -2.76,-8.21 -6.08,-16.16 -9.93,-23.81 -3.72,-7.39 -3.31,-16.17 1.13,-23.15l2.97 -4.67c5.89,-9.27 4.56,-21.4 -3.21,-29.17l-25.46 -25.46c-7.78,-7.77 -19.9,-9.11 -29.17,-3.21l-5.06 3.22c-6.88,4.37 -15.55,4.9 -22.85,1.27 -7.6,-3.77 -15.5,-7.03 -23.66,-9.72 -7.78,-2.56 -13.58,-9.1 -15.36,-17.09l-1.33 -5.95c-2.39,-10.73 -11.9,-18.36 -22.89,-18.36l-36.01 0c-11,0 -20.51,7.63 -22.9,18.36l-1.46 6.55c-1.76,7.92 -7.49,14.42 -15.17,17.03 -7.87,2.68 -15.5,5.89 -22.85,9.58 -7.33,3.68 -16.06,3.19 -22.99,-1.21l-5.78 -3.68c-9.28,-5.9 -21.4,-4.56 -29.17,3.21l-25.46 25.46c-7.78,7.77 -9.11,19.9 -3.22,29.17l3.93 6.17c4.38,6.88 4.88,15.56 1.26,22.87 -3.56,7.2 -6.66,14.66 -9.25,22.36 -2.61,7.73 -9.11,13.49 -17.07,15.27l-7.14 1.59c-10.72,2.39 -18.35,11.9 -18.35,22.89zm108.7 18.01l0 0c0,-58.41 47.35,-105.77 105.76,-105.77 58.41,0 105.76,47.36 105.76,105.77 0,58.41 -47.35,105.76 -105.76,105.76 -58.41,0 -105.76,-47.35 -105.76,-105.76z"/>
   <path class="fil2" style="mask:url(#id4)" d="M2708.7 442.82l0 23.14c0,7.05 4.91,13.17 11.8,14.7l4.59 1.03c5.11,1.13 9.29,4.84 10.96,9.8 1.66,4.95 3.66,9.74 5.94,14.37 2.33,4.7 2.01,10.27 -0.81,14.69l-2.52 3.97c-3.79,5.96 -2.93,13.75 2.07,18.74l16.35 16.36c5,4.99 12.79,5.85 18.75,2.06l3.71 -2.36c4.45,-2.83 10.06,-3.14 14.77,-0.78 4.72,2.37 9.63,4.43 14.69,6.15 4.93,1.68 8.61,5.86 9.74,10.95l0.94 4.21c1.54,6.89 7.65,11.79 14.71,11.79l23.14 0c7.06,0 13.17,-4.9 14.71,-11.79l0.85 -3.82c1.14,-5.14 4.87,-9.34 9.87,-10.99 5.24,-1.73 10.32,-3.82 15.2,-6.24 4.69,-2.33 10.26,-1.99 14.68,0.81l3.25 2.07c5.96,3.79 13.75,2.93 18.74,-2.06l16.36 -16.36c5,-4.99 5.85,-12.78 2.06,-18.74l-1.9 -3c-2.85,-4.49 -3.12,-10.13 -0.73,-14.88 2.48,-4.91 4.61,-10.02 6.38,-15.29 1.68,-5.01 5.85,-8.78 11,-9.92l3.42 -0.77c6.89,-1.53 11.79,-7.65 11.79,-14.7l0 -23.14c0,-7.07 -4.9,-13.18 -11.79,-14.71l-3.42 -0.77c-5.15,-1.14 -9.32,-4.91 -11,-9.91 -1.77,-5.28 -3.9,-10.39 -6.38,-15.3 -2.39,-4.75 -2.12,-10.39 0.73,-14.88l1.9 -3c3.79,-5.96 2.94,-13.75 -2.06,-18.74l-16.36 -16.36c-4.99,-4.99 -12.78,-5.85 -18.74,-2.06l-3.25 2.07c-4.42,2.8 -9.99,3.14 -14.68,0.81 -4.88,-2.42 -9.96,-4.51 -15.2,-6.24 -5,-1.65 -8.73,-5.85 -9.87,-10.99l-0.85 -3.82c-1.54,-6.89 -7.65,-11.79 -14.71,-11.79l-23.14 0c-7.06,0 -13.17,4.9 -14.71,11.79l-0.94 4.21c-1.13,5.09 -4.81,9.27 -9.74,10.94 -5.06,1.73 -9.97,3.79 -14.69,6.16 -4.71,2.36 -10.32,2.05 -14.77,-0.78l-3.71 -2.36c-5.96,-3.79 -13.75,-2.93 -18.75,2.06l-16.35 16.36c-5,4.99 -5.86,12.78 -2.07,18.74l2.52 3.96c2.82,4.43 3.14,10 0.81,14.7 -2.28,4.62 -4.28,9.42 -5.94,14.37 -1.67,4.96 -5.85,8.67 -10.96,9.8l-4.59 1.03c-6.89,1.53 -11.8,7.64 -11.8,14.71zm69.84 11.56l0 0c0,-37.53 30.43,-67.95 67.96,-67.95 37.53,0 67.95,30.42 67.95,67.95 0,37.54 -30.42,67.96 -67.95,67.96 -37.53,0 -67.96,-30.42 -67.96,-67.96z"/>
   <path class="fil3" style="mask:url(#id6)" d="M610.14 1793.54l0 45.1c0,13.76 9.56,25.68 22.99,28.67l8.94 1.99c9.97,2.22 18.11,9.44 21.37,19.12 3.25,9.64 7.13,18.98 11.59,27.99 4.53,9.17 3.9,20.02 -1.58,28.65l-4.91 7.72c-7.39,11.61 -5.72,26.8 4.01,36.53l31.89 31.89c9.73,9.73 24.92,11.4 36.53,4.02l7.25 -4.61c8.67,-5.52 19.6,-6.13 28.78,-1.51 9.2,4.62 18.76,8.63 28.62,11.99 9.62,3.27 16.79,11.4 19,21.32l1.82 8.21c3,13.43 14.91,22.99 28.67,22.99l45.1 0c13.76,0 25.68,-9.56 28.67,-22.99l1.66 -7.45c2.23,-10.01 9.5,-18.19 19.24,-21.41 10.22,-3.37 20.1,-7.45 29.62,-12.17 9.14,-4.54 20.01,-3.88 28.62,1.6l6.33 4.03c11.62,7.38 26.8,5.71 36.53,-4.02l31.89 -31.89c9.73,-9.73 11.4,-24.92 4.02,-36.53l-3.72 -5.85c-5.56,-8.74 -6.07,-19.74 -1.42,-28.99 4.83,-9.57 8.99,-19.53 12.43,-29.81 3.27,-9.76 11.4,-17.1 21.44,-19.34l6.67 -1.48c13.44,-2.99 22.99,-14.91 22.99,-28.67l0 -45.1c0,-13.76 -9.55,-25.68 -22.99,-28.67l-6.67 -1.48c-10.04,-2.24 -18.17,-9.58 -21.44,-19.34 -3.44,-10.29 -7.6,-20.24 -12.43,-29.81 -4.65,-9.25 -4.14,-20.25 1.42,-28.99l3.72 -5.85c7.38,-11.62 5.71,-26.8 -4.02,-36.53l-31.89 -31.89c-9.73,-9.73 -24.91,-11.4 -36.53,-4.02l-6.33 4.03c-8.61,5.48 -19.48,6.14 -28.62,1.6 -9.52,-4.72 -19.4,-8.8 -29.62,-12.17 -9.74,-3.22 -17.01,-11.4 -19.24,-21.41l-1.66 -7.45c-2.99,-13.43 -14.91,-22.99 -28.67,-22.99l-45.1 0c-13.76,0 -25.67,9.56 -28.67,22.99l-1.82 8.2c-2.21,9.93 -9.38,18.06 -19,21.33 -9.86,3.36 -19.42,7.37 -28.62,11.99 -9.18,4.62 -20.11,4.01 -28.78,-1.51l-7.25 -4.61c-11.61,-7.38 -26.8,-5.71 -36.53,4.02l-31.89 31.89c-9.73,9.73 -11.4,24.91 -4.01,36.53l4.91 7.72c5.48,8.63 6.11,19.49 1.58,28.64 -4.46,9.02 -8.34,18.36 -11.59,28 -3.26,9.68 -11.4,16.9 -21.37,19.12l-8.94 1.99c-13.43,2.99 -22.99,14.91 -22.99,28.67zm136.13 22.55l0 0c0,-73.15 59.3,-132.45 132.44,-132.45 73.15,0 132.45,59.3 132.45,132.45 0,73.15 -59.3,132.44 -132.45,132.44 -73.14,0 -132.44,-59.29 -132.44,-132.44z"/>
   <path class="fil4" style="mask:url(#id8)" d="M957.17 1398.73l0 28.97c0,8.85 6.14,16.5 14.77,18.42l5.75 1.29c6.4,1.42 11.63,6.06 13.73,12.28 2.08,6.19 4.58,12.2 7.44,17.99 2.91,5.88 2.51,12.86 -1.01,18.4l-3.16 4.97c-4.75,7.46 -3.68,17.21 2.58,23.46l20.49 20.49c6.25,6.25 16.01,7.33 23.47,2.58l4.65 -2.96c5.58,-3.54 12.6,-3.93 18.5,-0.97 5.91,2.97 12.05,5.55 18.38,7.71 6.19,2.1 10.79,7.32 12.21,13.7l1.18 5.27c1.92,8.63 9.58,14.77 18.42,14.77l28.97 0c8.84,0 16.5,-6.14 18.42,-14.77l1.07 -4.78c1.43,-6.43 6.1,-11.69 12.36,-13.76 6.56,-2.17 12.92,-4.79 19.03,-7.82 5.88,-2.92 12.86,-2.49 18.39,1.03l4.07 2.58c7.46,4.75 17.22,3.67 23.47,-2.58l20.49 -20.49c6.25,-6.25 7.32,-16 2.58,-23.46l-2.39 -3.77c-3.57,-5.61 -3.9,-12.68 -0.91,-18.62 3.1,-6.15 5.77,-12.55 7.99,-19.16 2.1,-6.27 7.32,-10.98 13.77,-12.42l4.29 -0.96c8.63,-1.92 14.77,-9.57 14.77,-18.42l0 -28.97c0,-8.84 -6.14,-16.5 -14.77,-18.42l-4.29 -0.96c-6.45,-1.43 -11.67,-6.15 -13.77,-12.41 -2.22,-6.62 -4.89,-13.01 -7.99,-19.16 -2.99,-5.95 -2.66,-13.02 0.91,-18.63l2.39 -3.76c4.74,-7.46 3.67,-17.22 -2.58,-23.47l-20.49 -20.49c-6.25,-6.25 -16.01,-7.32 -23.47,-2.58l-4.07 2.59c-5.53,3.52 -12.51,3.94 -18.39,1.03 -6.11,-3.04 -12.47,-5.66 -19.03,-7.83 -6.26,-2.06 -10.93,-7.32 -12.36,-13.75l-1.07 -4.79c-1.92,-8.63 -9.58,-14.77 -18.42,-14.77l-28.97 0c-8.84,0 -16.5,6.14 -18.42,14.77l-1.18 5.28c-1.42,6.37 -6.02,11.6 -12.21,13.7 -6.33,2.16 -12.47,4.73 -18.38,7.7 -5.9,2.97 -12.92,2.57 -18.5,-0.97l-4.65 -2.96c-7.46,-4.74 -17.22,-3.67 -23.47,2.58l-20.49 20.49c-6.25,6.25 -7.33,16.01 -2.58,23.47l3.16 4.97c3.52,5.54 3.92,12.51 1.01,18.4 -2.86,5.79 -5.36,11.79 -7.44,17.99 -2.1,6.21 -7.33,10.85 -13.73,12.28l-5.75 1.28c-8.63,1.92 -14.77,9.58 -14.77,18.42zm87.46 14.49l0 0c0,-47 38.1,-85.1 85.1,-85.1 47,0 85.1,38.1 85.1,85.1 0,46.99 -38.1,85.1 -85.1,85.1 -47,0 -85.1,-38.11 -85.1,-85.1z"/>
   <path class="fil5" d="M2800.76 2418.07c0,350.54 -471.41,634.7 -1052.93,634.7 -581.52,0 -1052.93,-284.16 -1052.93,-634.7 0,-350.53 471.41,-634.69 1052.93,-634.69 581.52,0 1052.93,284.16 1052.93,634.69z"/>
   <path class="fil5" d="M3369 2667.14c0,143.53 -392.56,259.88 -876.8,259.88 -484.25,0 -876.8,-116.35 -876.8,-259.88 0,-143.53 392.55,-259.88 876.8,-259.88 484.24,0 876.8,116.35 876.8,259.88z"/>
   <polygon class="fil6" points="1708.6,1253.4 1708.6,2411.59 1988.91,2666.27 1988.91,1508.09 "/>
   <path class="fil7" d="M1708.6 1253.4l280.31 254.69 477.86 217.55c180.47,-50.22 295.8,-126.73 295.8,-212.5 0,-151.21 -358.45,-273.86 -800.54,-273.86 -88.63,0 -173.88,5.05 -253.43,14.12z"/>
   <polygon class="fil8" points="1988.91,1508.09 1988.91,2666.27 2466.77,2883.83 2466.77,1725.64 "/>
   <path class="fil9" d="M2484.75 1720.36c5.89,-1.74 11.84,-3.46 17.58,-5.26 5.1,-1.59 9.99,-3.26 14.97,-4.9 5.56,-1.84 11.18,-3.65 16.59,-5.54 7.78,-2.71 15.36,-5.5 22.8,-8.32 1.6,-0.61 3.29,-1.19 4.87,-1.8 9.02,-3.48 17.76,-7.05 26.26,-10.7 2.5,-1.07 4.85,-2.17 7.3,-3.26 5.92,-2.61 11.78,-5.24 17.43,-7.93 2.97,-1.41 5.81,-2.86 8.71,-4.29 4.91,-2.44 9.75,-4.89 14.43,-7.38 2.93,-1.55 5.78,-3.13 8.62,-4.7 4.43,-2.47 8.75,-4.96 12.96,-7.48 2.67,-1.6 5.34,-3.2 7.92,-4.82 4.2,-2.63 8.22,-5.3 12.17,-7.99 2.27,-1.54 4.6,-3.07 6.79,-4.63 4.34,-3.1 8.42,-6.23 12.42,-9.39 1.51,-1.19 3.15,-2.36 4.61,-3.56 5.32,-4.36 10.34,-8.78 15.01,-13.26 0.97,-0.92 1.79,-1.88 2.73,-2.81 3.59,-3.57 7.06,-7.16 10.23,-10.79 1.41,-1.63 2.65,-3.27 3.98,-4.9 2.44,-3 4.81,-6.01 6.96,-9.04 1.29,-1.84 2.46,-3.68 3.64,-5.53 1.88,-2.92 3.64,-5.85 5.24,-8.8 1.02,-1.89 2,-3.79 2.91,-5.7 1.44,-3 2.68,-6.03 3.82,-9.06 0.71,-1.86 1.45,-3.71 2.04,-5.59 1.05,-3.31 1.82,-6.64 2.52,-9.98 0.34,-1.61 0.79,-3.21 1.05,-4.82 0.78,-4.96 1.26,-9.95 1.26,-14.98l0 -0.01 0 0 0 1158.18c0,5.04 -0.48,10.03 -1.26,14.99 -0.26,1.62 -0.71,3.21 -1.05,4.82 -0.7,3.34 -1.47,6.68 -2.52,9.99 -0.59,1.87 -1.33,3.72 -2.04,5.59 -1.14,3.03 -2.38,6.05 -3.82,9.06 -0.91,1.91 -1.89,3.8 -2.92,5.69 -1.59,2.96 -3.35,5.89 -5.22,8.81 -1.19,1.84 -2.36,3.69 -3.66,5.52 -2.14,3.03 -4.5,6.04 -6.94,9.03 -1.33,1.64 -2.58,3.29 -4,4.92 -3.15,3.61 -6.6,7.18 -10.17,10.73 -0.96,0.95 -1.8,1.93 -2.79,2.88 -4.66,4.47 -9.67,8.88 -14.99,13.24 -1.48,1.22 -3.14,2.4 -4.67,3.61 -3.99,3.14 -8.05,6.26 -12.37,9.34 -2.19,1.56 -4.52,3.1 -6.8,4.64 -3.94,2.68 -7.95,5.35 -12.14,7.97 -2.6,1.63 -5.28,3.24 -7.97,4.85 -4.2,2.51 -8.5,5 -12.92,7.46 -2.84,1.57 -5.7,3.15 -8.63,4.7 -4.68,2.5 -9.52,4.95 -14.43,7.38 -2.9,1.43 -5.74,2.88 -8.71,4.29 -5.65,2.69 -11.51,5.32 -17.43,7.94 -2.45,1.08 -4.8,2.19 -7.3,3.26 -8.5,3.64 -17.24,7.21 -26.26,10.69 -1.58,0.62 -3.27,1.19 -4.87,1.8 -6.63,2.51 -13.28,5.02 -20.18,7.45 -0.85,0.3 -1.77,0.58 -2.62,0.88 -5.41,1.89 -11.03,3.7 -16.59,5.53 -4.98,1.64 -9.87,3.31 -14.97,4.91 -5.69,1.78 -11.59,3.48 -17.43,5.21 -4.48,1.32 -8.8,2.7 -13.37,3.99 -1.58,0.45 -3.17,0.89 -4.76,1.34l0 -1158.19c6.13,-1.71 12,-3.52 17.98,-5.28z"/>
   <polygon class="fil10" points="1113.45,1655.64 1113.45,2584.77 1842.97,2635.96 1842.97,1706.83 "/>
   <path class="fil11" d="M1113.45 1655.64l729.52 51.19 -262.52 -238.49c-231.01,33.3 -406.5,102.57 -467,187.3z"/>
   <path class="fil12" d="M1920.31 2043.16l-736.46 -51.62c-6.94,14.61 -10.86,29.52 -10.86,44.74 0,85.71 115.15,162.16 295.26,212.38l452.06 -205.5z"/>
   <path class="fil13" d="M1173.55 2042.97c0.3,4.29 0.8,8.58 1.68,12.82 0.45,2.2 1.05,4.38 1.65,6.57 0.98,3.53 2.13,7.05 3.5,10.55 0.88,2.23 1.79,4.47 2.82,6.68 1.55,3.32 3.32,6.61 5.21,9.89 1.25,2.16 2.45,4.34 3.85,6.49 2.18,3.34 4.66,6.65 7.19,9.96 1.51,1.96 2.9,3.94 4.53,5.89 3.3,3.94 6.99,7.82 10.78,11.68 1.26,1.29 2.35,2.6 3.67,3.87 5.34,5.19 11.14,10.29 17.36,15.33 1.45,1.17 3.09,2.3 4.58,3.47 5.16,4.01 10.51,7.99 16.2,11.9 2.4,1.65 4.96,3.27 7.45,4.89 5.67,3.71 11.57,7.37 17.72,10.98 2.69,1.58 5.39,3.16 8.18,4.72 9.67,5.42 19.71,10.76 30.42,15.92 7.74,3.73 15.79,7.38 24.06,10.97 2.55,1.11 5.22,2.18 7.82,3.27 5.65,2.38 11.37,4.73 17.24,7.03 5.54,2.18 11.26,4.3 16.99,6.41 4.46,1.65 8.88,3.32 13.46,4.93 6.01,2.11 12.22,4.15 18.42,6.19 4.54,1.5 9,3.02 13.64,4.48 11.8,3.71 23.85,7.33 36.28,10.8l0 678.83c-12.43,-3.47 -24.48,-7.09 -36.28,-10.8 -0.91,-0.29 -1.91,-0.55 -2.82,-0.84 -3.71,-1.18 -7.18,-2.44 -10.82,-3.64 -6.2,-2.04 -12.41,-4.08 -18.42,-6.19 -4.59,-1.62 -9,-3.28 -13.46,-4.93 -5.74,-2.12 -11.45,-4.23 -16.99,-6.41 -1.45,-0.57 -3.02,-1.1 -4.46,-1.68 -4.39,-1.76 -8.57,-3.58 -12.84,-5.37 -2.57,-1.08 -5.21,-2.14 -7.73,-3.24 -8.19,-3.55 -16.18,-7.16 -23.86,-10.85 -0.08,-0.04 -0.14,-0.09 -0.23,-0.13 -10.71,-5.16 -20.73,-10.49 -30.4,-15.91 -1.14,-0.64 -2.47,-1.23 -3.59,-1.88 -1.64,-0.93 -3.03,-1.92 -4.64,-2.86 -6.14,-3.61 -12.02,-7.26 -17.68,-10.96 -1.61,-1.06 -3.46,-2.06 -5.03,-3.12 -0.86,-0.58 -1.57,-1.19 -2.43,-1.78 -5.71,-3.92 -11.07,-7.91 -16.23,-11.93 -1.24,-0.97 -2.68,-1.89 -3.88,-2.86 -0.24,-0.19 -0.42,-0.38 -0.66,-0.57 -6.22,-5.04 -12.02,-10.15 -17.37,-15.34 -0.16,-0.15 -0.35,-0.29 -0.51,-0.44 -1.15,-1.13 -2.05,-2.3 -3.16,-3.43 -3.8,-3.86 -7.48,-7.74 -10.78,-11.68 -0.38,-0.45 -0.86,-0.89 -1.23,-1.34 -1.23,-1.5 -2.13,-3.04 -3.29,-4.55 -2.54,-3.3 -5.02,-6.61 -7.2,-9.97 -0.48,-0.73 -1.12,-1.45 -1.59,-2.19 -0.88,-1.42 -1.44,-2.88 -2.26,-4.3 -1.89,-3.27 -3.66,-6.56 -5.21,-9.87 -0.48,-1.03 -1.17,-2.05 -1.62,-3.08 -0.51,-1.19 -0.73,-2.42 -1.2,-3.61 -1.37,-3.5 -2.52,-7.02 -3.5,-10.56 -0.37,-1.33 -1,-2.63 -1.32,-3.96 -0.2,-0.86 -0.16,-1.74 -0.33,-2.59 -0.88,-4.26 -1.38,-8.54 -1.68,-12.84 -0.09,-1.34 -0.48,-2.66 -0.52,-4 -0.02,-0.89 -0.04,-1.79 -0.04,-2.68l0 -678.83c0,2.24 0.41,4.45 0.56,6.69z"/>
   <polygon class="fil14" points="1468.25,2248.66 1468.25,2927.49 1920.31,2721.99 1920.31,2043.16 "/>
   <path class="fil15" d="M1529.29 2525.05c19.43,4.63 39.64,8.9 60.23,12.96 7.86,1.54 15.93,2.98 23.94,4.44 10.47,1.91 20.95,3.81 31.67,5.56 7.16,1.18 14.49,2.24 21.76,3.35 16.33,2.48 32.92,4.78 49.78,6.9 7.15,0.9 14.26,1.83 21.49,2.66 21.28,2.45 42.89,4.65 64.9,6.52 2.34,0.2 4.6,0.47 6.95,0.66 23.12,1.89 46.69,3.38 70.52,4.59 10.42,0.53 21.02,0.87 31.56,1.26 10.52,0.4 20.98,0.85 31.6,1.11 19.72,0.48 39.58,0.79 59.66,0.79 21.3,0 42.39,-0.29 63.29,-0.83 4.49,-0.12 8.88,-0.34 13.35,-0.49 15.48,-0.48 30.86,-1.06 46.08,-1.83 6.73,-0.35 13.37,-0.77 20.04,-1.17 12.86,-0.76 25.64,-1.6 38.29,-2.57 7,-0.53 13.97,-1.09 20.9,-1.68 12.51,-1.07 24.87,-2.26 37.14,-3.52 6.43,-0.66 12.9,-1.29 19.27,-2 13.7,-1.54 27.18,-3.23 40.56,-5 4.72,-0.63 9.56,-1.17 14.25,-1.83 18.15,-2.53 36,-5.25 53.49,-8.2 4.62,-0.78 9.02,-1.68 13.6,-2.49 13.18,-2.33 26.32,-4.68 39.08,-7.24 11.16,-2.23 21.89,-4.69 32.72,-7.09 7.06,-1.58 14.36,-3.03 21.27,-4.67l0 447.05c-0.86,0.2 -1.72,0.4 -2.58,0.6 -6.07,1.43 -12.51,2.68 -18.69,4.06 -10.83,2.41 -21.56,4.86 -32.72,7.1 -0.73,0.14 -1.41,0.31 -2.14,0.46 -12.05,2.4 -24.51,4.58 -36.94,6.77 -4.58,0.81 -8.98,1.72 -13.6,2.5 -0.26,0.04 -0.5,0.09 -0.75,0.13 -16.37,2.76 -33.04,5.33 -50,7.72 -0.9,0.12 -1.84,0.22 -2.74,0.35 -4.69,0.65 -9.52,1.2 -14.25,1.82 -10.84,1.43 -21.61,2.91 -32.66,4.19 -2.6,0.3 -5.3,0.52 -7.91,0.82 -6.34,0.7 -12.78,1.33 -19.19,1.99 -7.55,0.78 -14.99,1.65 -22.63,2.35 -4.83,0.44 -9.79,0.76 -14.64,1.18 -6.9,0.59 -13.84,1.15 -20.81,1.68 -5.05,0.38 -9.99,0.86 -15.07,1.21 -7.67,0.53 -15.51,0.9 -23.25,1.36 -6.68,0.39 -13.31,0.82 -20.04,1.16 -2.82,0.14 -5.58,0.36 -8.42,0.49 -12.43,0.59 -25.06,0.96 -37.66,1.35 -4.47,0.14 -8.86,0.36 -13.35,0.48 -0.81,0.02 -1.59,0.06 -2.39,0.08 -18.44,0.46 -37.05,0.72 -55.8,0.75 -1.7,0.01 -3.4,0.01 -5.1,0.01 -18.06,0 -35.98,-0.2 -53.75,-0.59 -1.99,-0.04 -3.93,-0.16 -5.91,-0.2 -10.58,-0.26 -20.98,-0.71 -31.45,-1.11 -8.83,-0.33 -17.8,-0.51 -26.55,-0.93 -1.76,-0.08 -3.45,-0.25 -5.21,-0.34 -23.81,-1.21 -47.35,-2.7 -70.47,-4.59 -0.36,-0.03 -0.73,-0.04 -1.09,-0.07 -1.99,-0.16 -3.87,-0.42 -5.86,-0.59 -22.01,-1.86 -43.62,-4.06 -64.9,-6.51 -7.24,-0.84 -14.34,-1.76 -21.49,-2.66 -16.86,-2.13 -33.45,-4.43 -49.78,-6.91 -4.25,-0.64 -8.75,-1.13 -12.96,-1.8 -3,-0.47 -5.82,-1.05 -8.8,-1.54 -10.73,-1.76 -21.2,-3.66 -31.67,-5.57 -5.92,-1.08 -12.09,-2.02 -17.92,-3.15 -2.07,-0.4 -3.96,-0.88 -6.02,-1.29 -20.6,-4.06 -40.8,-8.33 -60.23,-12.95l0 -447.05z"/>
   <path class="fil16" d="M2476.68 2525.24l-473.33 -215.6 -474.06 215.41c134.49,32.04 297.81,50.8 474.06,50.8 175.88,0 339.02,-18.7 473.33,-50.61z"/>
   <path class="fil5" d="M888.24 2575.76c0,122.69 -119.48,222.15 -266.85,222.15 -147.38,0 -266.86,-99.46 -266.86,-222.15 0,-122.7 119.48,-222.16 266.86,-222.16 147.37,0 266.85,99.46 266.85,222.16z"/>
   <path class="fil17" d="M1058.04 2564.86l-3.29 0c-0.75,-3.3 -1.6,-6.59 -2.59,-9.89 -26.22,-86.75 -137.57,-144.91 -253.23,-144.91 -115.67,0 -227.01,58.16 -253.23,144.91 -0.99,3.3 -1.84,6.59 -2.58,9.89l-3.28 0 0 30.91 0 0c1.13,94.82 104.29,180.76 259.09,180.76 154.8,0 257.97,-85.94 259.09,-180.76l0.02 0 0 -30.91z"/>
   <path class="fil18" d="M798.93 2381.63c-115.67,0 -227.01,58.16 -253.23,144.91 -33.06,109.41 76.4,221.56 253.23,221.56 176.83,0 286.29,-112.15 253.23,-221.56 -26.22,-86.75 -137.57,-144.91 -253.23,-144.91z"/>
   <path class="fil19" d="M798.93 2390.98c-108.2,0 -211.21,54.85 -233.72,135.56 -27.89,99.98 73.76,200.41 233.72,200.41 159.96,0 261.61,-100.43 233.72,-200.41 -22.51,-80.71 -125.52,-135.56 -233.72,-135.56zm0 321.23l0 0c-148.19,0 -244.1,-92.38 -219.64,-185.67 20,-76.3 116.96,-128.65 219.64,-128.65 102.68,0 199.65,52.35 219.65,128.65 24.45,93.29 -71.46,185.67 -219.65,185.67z"/>
   <path class="fil19" d="M773.35 2490.86c3.18,-2.24 8.07,-3.87 14.68,-4.9l-0.34 25.03c-6.4,-1.33 -11.27,-2.96 -14.57,-4.89 -3.31,-1.9 -4.9,-4.34 -4.79,-7.29 0.11,-3.05 1.79,-5.7 5.02,-7.95zm56.8 58.16l0 0c3.53,2.12 5.38,4.87 5.52,8.24 0.15,3.39 -1.42,6.33 -4.76,8.81 -3.34,2.49 -8.46,4.3 -15.31,5.41l-0.53 -28c6.52,1.58 11.55,3.42 15.08,5.54zm-31.22 -138.97l0 0c-92.98,0 -179.52,47.89 -195.53,116.49 -19.14,82.04 66.75,161.35 195.53,161.35 128.78,0 214.67,-79.31 195.53,-161.35 -16.01,-68.6 -102.56,-116.49 -195.53,-116.49zm67.31 174.07l0 0c-11.11,8.48 -27.86,13.82 -50.1,15.91l0.48 25.71 -30.5 0 0.34 -25.05c-14.64,-0.59 -28.49,-2.52 -41.52,-5.77 -12.94,-3.22 -23.17,-7.15 -30.74,-11.77l17.98 -25.49c6.89,3.81 15.14,7.03 24.72,9.65 9.6,2.63 19.6,4.31 29.95,5.01l0.46 -33.72c-13.04,-2.19 -23.98,-4.63 -32.82,-7.31 -8.78,-2.66 -15.98,-6.54 -21.56,-11.58 -5.53,-4.98 -7.9,-11.5 -7.18,-19.49 0.87,-9.68 6.82,-17.81 17.72,-24.47 10.7,-6.54 25.63,-10.48 44.86,-11.89l0.24 -17.52 24.67 0 0.32 17.2c20.72,1.08 38.05,4.38 52.04,9.97l-11.33 20.91c-13.38,-4.97 -26.77,-7.95 -40.29,-8.98l0.56 30.11c12.62,1.97 23.38,4.23 32.29,6.76 8.94,2.57 16.63,6.41 23.07,11.57 6.54,5.21 10.24,12.17 11.08,20.95 1.05,11.17 -3.8,20.96 -14.74,29.29z"/>
   <path class="fil17" d="M1016.47 2466.87l-3.3 0c-0.74,-3.3 -1.59,-6.59 -2.59,-9.89 -26.22,-86.75 -137.56,-144.92 -253.23,-144.92 -115.66,0 -227,58.17 -253.22,144.92 -0.99,3.3 -1.85,6.59 -2.59,9.89l-3.28 0 0 30.91 0.01 0c1.12,94.82 104.29,180.76 259.08,180.76 154.81,0 257.97,-85.94 259.09,-180.76l0.03 0 0 -30.91z"/>
   <path class="fil18" d="M757.35 2283.64c-115.66,0 -227,58.16 -253.22,144.91 -33.07,109.41 76.39,221.56 253.22,221.56 176.84,0 286.3,-112.15 253.23,-221.56 -26.22,-86.75 -137.56,-144.91 -253.23,-144.91z"/>
   <path class="fil19" d="M757.35 2292.99c-108.19,0 -211.2,54.85 -233.71,135.56 -27.89,99.98 73.77,200.41 233.71,200.41 159.96,0 261.61,-100.43 233.73,-200.41 -22.52,-80.71 -125.53,-135.56 -233.73,-135.56zm0 321.23l0 0c-148.18,0 -244.1,-92.38 -219.64,-185.67 20,-76.3 116.96,-128.65 219.64,-128.65 102.69,0 199.65,52.35 219.65,128.65 24.46,93.29 -71.46,185.67 -219.65,185.67z"/>
   <path class="fil19" d="M731.77 2392.87c3.19,-2.24 8.08,-3.87 14.69,-4.9l-0.34 25.02c-6.4,-1.33 -11.27,-2.95 -14.58,-4.88 -3.31,-1.9 -4.9,-4.34 -4.79,-7.29 0.12,-3.05 1.79,-5.7 5.02,-7.95zm56.81 58.16l0 0c3.52,2.12 5.38,4.86 5.52,8.24 0.14,3.39 -1.43,6.33 -4.76,8.81 -3.34,2.49 -8.47,4.3 -15.31,5.41l-0.53 -28c6.52,1.58 11.54,3.42 15.08,5.54zm-31.23 -138.97l0 0c-92.97,0 -179.51,47.89 -195.52,116.49 -19.15,82.04 66.75,161.35 195.52,161.35 128.79,0 214.68,-79.31 195.53,-161.35 -16.01,-68.6 -102.55,-116.49 -195.53,-116.49zm67.32 174.07l0 0c-11.12,8.48 -27.86,13.82 -50.1,15.91l0.48 25.71 -30.5 0 0.34 -25.05c-14.65,-0.59 -28.49,-2.52 -41.52,-5.77 -12.95,-3.23 -23.18,-7.15 -30.74,-11.77l17.97 -25.49c6.9,3.81 15.15,7.03 24.72,9.65 9.61,2.63 19.61,4.31 29.96,5.01l0.46 -33.72c-13.04,-2.2 -23.99,-4.63 -32.82,-7.31 -8.78,-2.67 -15.98,-6.54 -21.56,-11.58 -5.54,-4.98 -7.9,-11.5 -7.18,-19.49 0.87,-9.68 6.82,-17.81 17.72,-24.47 10.69,-6.55 25.63,-10.48 44.86,-11.89l0.24 -17.52 24.66 0 0.33 17.2c20.72,1.07 38.04,4.38 52.04,9.97l-11.33 20.91c-13.39,-4.97 -26.77,-7.95 -40.3,-8.98l0.57 30.11c12.62,1.97 23.37,4.22 32.28,6.76 8.94,2.56 16.64,6.41 23.08,11.56 6.54,5.21 10.24,12.18 11.07,20.96 1.06,11.17 -3.79,20.96 -14.73,29.29z"/>
   <path class="fil17" d="M976.34 2367.41l-3.3 0c-0.74,-3.3 -1.59,-6.59 -2.59,-9.89 -26.22,-86.75 -137.56,-144.92 -253.23,-144.92 -115.66,0 -227,58.17 -253.22,144.92 -0.99,3.3 -1.85,6.59 -2.59,9.89l-3.28 0 0 30.91 0.01 0c1.12,94.82 104.29,180.76 259.08,180.76 154.81,0 257.97,-85.94 259.09,-180.76l0.03 0 0 -30.91z"/>
   <path class="fil18" d="M717.22 2184.18c-115.66,0 -227,58.16 -253.22,144.91 -33.07,109.41 76.39,221.56 253.22,221.56 176.84,0 286.3,-112.15 253.23,-221.56 -26.22,-86.75 -137.56,-144.91 -253.23,-144.91z"/>
   <path class="fil19" d="M717.22 2193.53c-108.19,0 -211.2,54.85 -233.72,135.56 -27.88,99.98 73.77,200.41 233.72,200.41 159.96,0 261.61,-100.43 233.73,-200.41 -22.52,-80.71 -125.53,-135.56 -233.73,-135.56zm0 321.23l0 0c-148.18,0 -244.1,-92.38 -219.64,-185.67 20,-76.3 116.97,-128.65 219.64,-128.65 102.69,0 199.65,52.35 219.65,128.65 24.45,93.29 -71.46,185.67 -219.65,185.67z"/>
   <path class="fil19" d="M691.64 2293.41c3.19,-2.25 8.07,-3.87 14.69,-4.9l-0.35 25.02c-6.39,-1.32 -11.26,-2.95 -14.57,-4.88 -3.31,-1.9 -4.9,-4.34 -4.79,-7.29 0.12,-3.05 1.79,-5.7 5.02,-7.95zm56.81 58.16l0 0c3.52,2.12 5.37,4.86 5.51,8.24 0.15,3.39 -1.42,6.33 -4.76,8.81 -3.33,2.49 -8.46,4.29 -15.3,5.41l-0.53 -28c6.52,1.58 11.54,3.42 15.08,5.54zm-31.23 -138.97l0 0c-92.97,0 -179.51,47.89 -195.52,116.49 -19.15,82.04 66.75,161.36 195.52,161.36 128.79,0 214.68,-79.32 195.53,-161.36 -16.01,-68.6 -102.55,-116.49 -195.53,-116.49zm67.32 174.07l0 0c-11.12,8.48 -27.87,13.82 -50.1,15.91l0.48 25.71 -30.51 0 0.35 -25.05c-14.65,-0.59 -28.49,-2.52 -41.52,-5.77 -12.94,-3.23 -23.18,-7.15 -30.74,-11.77l17.97 -25.49c6.9,3.81 15.15,7.03 24.72,9.65 9.61,2.63 19.6,4.31 29.96,5.01l0.46 -33.72c-13.04,-2.19 -23.99,-4.63 -32.83,-7.31 -8.78,-2.67 -15.97,-6.54 -21.55,-11.58 -5.54,-4.98 -7.9,-11.5 -7.18,-19.49 0.87,-9.68 6.82,-17.81 17.72,-24.47 10.69,-6.55 25.63,-10.48 44.86,-11.89l0.24 -17.52 24.66 0 0.33 17.2c20.72,1.07 38.04,4.38 52.03,9.97l-11.32 20.91c-13.39,-4.97 -26.77,-7.95 -40.3,-8.98l0.57 30.11c12.62,1.97 23.37,4.23 32.28,6.76 8.94,2.56 16.63,6.4 23.07,11.56 6.55,5.21 10.25,12.18 11.08,20.96 1.06,11.17 -3.8,20.96 -14.73,29.29z"/>
   <path class="fil17" d="M1016.47 2289.6l-3.3 0c-0.74,-3.3 -1.59,-6.59 -2.59,-9.89 -26.22,-86.75 -137.56,-144.91 -253.23,-144.91 -115.66,0 -227,58.16 -253.22,144.91 -0.99,3.3 -1.85,6.59 -2.59,9.89l-3.28 0 0 30.91 0.01 0c1.12,94.81 104.29,180.76 259.08,180.76 154.81,0 257.97,-85.95 259.09,-180.76l0.03 0 0 -30.91z"/>
   <path class="fil18" d="M757.35 2106.36c-115.66,0 -227,58.17 -253.22,144.92 -33.07,109.41 76.39,221.56 253.22,221.56 176.84,0 286.3,-112.15 253.23,-221.56 -26.22,-86.75 -137.56,-144.92 -253.23,-144.92z"/>
   <path class="fil19" d="M757.35 2115.72c-108.19,0 -211.2,54.85 -233.71,135.56 -27.89,99.98 73.77,200.41 233.71,200.41 159.96,0 261.61,-100.43 233.73,-200.41 -22.52,-80.71 -125.53,-135.56 -233.73,-135.56zm0 321.23l0 0c-148.18,0 -244.1,-92.38 -219.64,-185.67 20,-76.3 116.96,-128.65 219.64,-128.65 102.69,0 199.65,52.35 219.65,128.65 24.46,93.29 -71.46,185.67 -219.65,185.67z"/>
   <path class="fil19" d="M731.77 2215.6c3.19,-2.24 8.08,-3.87 14.69,-4.91l-0.34 25.03c-6.4,-1.32 -11.27,-2.95 -14.58,-4.88 -3.31,-1.9 -4.9,-4.34 -4.79,-7.29 0.12,-3.05 1.79,-5.7 5.02,-7.95zm56.81 58.16l0 0c3.52,2.12 5.38,4.87 5.52,8.24 0.14,3.39 -1.43,6.33 -4.76,8.81 -3.34,2.49 -8.47,4.3 -15.31,5.41l-0.53 -28c6.52,1.58 11.54,3.42 15.08,5.54zm-31.23 -138.96l0 0c-92.97,0 -179.51,47.88 -195.52,116.48 -19.15,82.04 66.75,161.35 195.52,161.35 128.79,0 214.68,-79.31 195.53,-161.35 -16.01,-68.6 -102.55,-116.48 -195.53,-116.48zm67.32 174.06l0 0c-11.12,8.49 -27.86,13.82 -50.1,15.91l0.48 25.71 -30.5 0 0.34 -25.05c-14.65,-0.59 -28.49,-2.52 -41.52,-5.77 -12.95,-3.23 -23.18,-7.15 -30.74,-11.77l17.97 -25.49c6.9,3.81 15.15,7.03 24.72,9.65 9.61,2.63 19.61,4.31 29.96,5.01l0.46 -33.71c-13.04,-2.2 -23.99,-4.64 -32.82,-7.32 -8.78,-2.67 -15.98,-6.54 -21.56,-11.58 -5.54,-4.98 -7.9,-11.51 -7.18,-19.49 0.87,-9.67 6.82,-17.81 17.72,-24.47 10.69,-6.54 25.63,-10.48 44.86,-11.89l0.24 -17.52 24.66 0 0.33 17.2c20.72,1.07 38.04,4.38 52.04,9.98l-11.33 20.9c-13.39,-4.97 -26.77,-7.95 -40.3,-8.98l0.57 30.11c12.62,1.97 23.37,4.22 32.28,6.76 8.94,2.56 16.64,6.41 23.08,11.56 6.54,5.22 10.24,12.18 11.07,20.96 1.06,11.17 -3.79,20.96 -14.73,29.29z"/>
   <path class="fil17" d="M1037.25 2190.14l-3.29 0c-0.74,-3.3 -1.59,-6.59 -2.59,-9.89 -26.22,-86.75 -137.57,-144.92 -253.23,-144.92 -115.66,0 -227,58.17 -253.22,144.92 -1,3.3 -1.85,6.59 -2.59,9.89l-3.28 0 0 30.91 0.01 0c1.12,94.82 104.28,180.76 259.08,180.76 154.8,0 257.97,-85.94 259.09,-180.76l0.02 0 0 -30.91z"/>
   <path class="fil18" d="M778.14 2006.9c-115.66,0 -227,58.17 -253.22,144.92 -33.07,109.41 76.39,221.56 253.22,221.56 176.84,0 286.3,-112.15 253.23,-221.56 -26.22,-86.75 -137.57,-144.92 -253.23,-144.92z"/>
   <path class="fil19" d="M778.14 2016.26c-108.2,0 -211.2,54.85 -233.72,135.56 -27.88,99.98 73.77,200.41 233.72,200.41 159.96,0 261.61,-100.43 233.72,-200.41 -22.51,-80.71 -125.52,-135.56 -233.72,-135.56zm0 321.23l0 0c-148.18,0 -244.1,-92.38 -219.64,-185.67 20,-76.29 116.96,-128.65 219.64,-128.65 102.68,0 199.65,52.36 219.65,128.65 24.46,93.29 -71.46,185.67 -219.65,185.67z"/>
   <path class="fil19" d="M752.56 2116.14c3.19,-2.24 8.07,-3.87 14.68,-4.9l-0.34 25.02c-6.39,-1.32 -11.26,-2.95 -14.57,-4.88 -3.31,-1.9 -4.9,-4.34 -4.79,-7.29 0.12,-3.05 1.79,-5.7 5.02,-7.95zm56.8 58.16l0 0c3.53,2.13 5.38,4.87 5.53,8.24 0.14,3.39 -1.43,6.33 -4.77,8.81 -3.33,2.49 -8.46,4.3 -15.31,5.41l-0.52 -28c6.51,1.58 11.54,3.42 15.07,5.54zm-31.22 -138.97l0 0c-92.97,0 -179.51,47.89 -195.52,116.49 -19.15,82.04 66.74,161.36 195.52,161.36 128.79,0 214.67,-79.32 195.53,-161.36 -16.01,-68.6 -102.56,-116.49 -195.53,-116.49zm67.32 174.07l0 0c-11.12,8.48 -27.86,13.82 -50.11,15.91l0.49 25.71 -30.51 0 0.35 -25.05c-14.65,-0.59 -28.49,-2.52 -41.53,-5.77 -12.94,-3.23 -23.17,-7.15 -30.74,-11.77l17.98 -25.49c6.9,3.81 15.15,7.03 24.72,9.65 9.61,2.63 19.6,4.31 29.95,5.01l0.47 -33.71c-13.04,-2.2 -23.99,-4.64 -32.83,-7.32 -8.78,-2.67 -15.98,-6.54 -21.55,-11.58 -5.54,-4.98 -7.9,-11.51 -7.18,-19.49 0.87,-9.67 6.82,-17.81 17.71,-24.47 10.7,-6.55 25.64,-10.48 44.87,-11.89l0.24 -17.52 24.66 0 0.33 17.2c20.71,1.07 38.04,4.38 52.03,9.98l-11.32 20.9c-13.39,-4.97 -26.78,-7.95 -40.3,-8.98l0.57 30.11c12.62,1.97 23.37,4.23 32.28,6.76 8.94,2.56 16.63,6.41 23.07,11.56 6.55,5.22 10.25,12.18 11.08,20.96 1.06,11.17 -3.8,20.96 -14.73,29.29z"/>
   <path class="fil5" d="M1246.5 2740.36c0,100.18 -112.3,181.39 -250.83,181.39 -138.53,0 -250.83,-81.21 -250.83,-181.39 0,-100.18 112.3,-181.39 250.83,-181.39 138.53,0 250.83,81.21 250.83,181.39z"/>
   <path class="fil18" d="M1100.13 2369.17c-151.56,0 -274.42,122.86 -274.42,274.42 0,151.56 122.86,274.42 274.42,274.42 151.55,0 274.42,-122.86 274.42,-274.42 0,-151.56 -122.87,-274.42 -274.42,-274.42z"/>
   <path class="fil19" d="M1100.13 2390.31c-139.89,0 -253.28,113.4 -253.28,253.28 0,139.89 113.39,253.28 253.28,253.28 139.88,0 253.28,-113.39 253.28,-253.28 0,-139.88 -113.4,-253.28 -253.28,-253.28zm0 491.31l0 0c-131.46,0 -238.03,-106.57 -238.03,-238.03 0,-131.46 106.57,-238.03 238.03,-238.03 131.46,0 238.03,106.57 238.03,238.03 0,131.46 -106.57,238.03 -238.03,238.03z"/>
   <path class="fil19" d="M1071.17 2585.23c3.53,-3.85 9.04,-6.66 16.55,-8.43l0 41.96c-7.1,-2.16 -12.53,-4.82 -16.26,-7.98 -3.75,-3.14 -5.63,-7.18 -5.63,-12.11 0,-5.12 1.78,-9.61 5.34,-13.44zm61.91 92.64l0 0c3.63,3.15 5.46,7.19 5.46,12.12 0,4.93 -1.76,9.17 -5.32,12.72 -3.53,3.54 -8.87,6.11 -15.94,7.68l0 -40.79c6.88,2.37 12.14,5.12 15.8,8.27zm-32.95 -246.17l0 0c-117.03,0 -211.89,94.87 -211.89,211.89 0,117.03 94.86,211.89 211.89,211.89 117.02,0 211.89,-94.86 211.89,-211.89 0,-117.02 -94.87,-211.89 -211.89,-211.89zm68.25 296.27l0 0c-11.8,11.52 -28.86,18.66 -51.1,21.43l0 33.1 -29.56 0 0 -32.22c-14.6,-0.78 -28.48,-3.35 -41.68,-7.69 -13.21,-4.33 -23.84,-9.64 -31.92,-15.95l16.26 -36.06c7.48,5.52 16.26,10.15 26.31,13.89 10.03,3.74 20.37,6.11 31.03,7.1l0 -49.36c-14,-3.35 -25.83,-7.09 -35.48,-11.23 -9.64,-4.13 -17.72,-10.2 -24.22,-18.18 -6.52,-7.98 -9.76,-18.57 -9.76,-31.77 0,-16.35 5.96,-30.39 17.89,-42.12 11.91,-11.71 29.1,-18.86 51.57,-21.42l0 -32.8 29.56 0 0 32.2c24.22,1.98 44.23,7.99 59.98,18.04l-14.77 36.35c-14.79,-8.47 -29.84,-13.59 -45.21,-15.38l0 50.25c13.78,3.16 25.45,6.76 35.02,10.79 9.54,4.04 17.58,10.05 24.07,18.03 6.52,7.98 9.77,18.48 9.77,31.47 0,16.17 -5.92,30 -17.76,41.53z"/>
   <path class="fil20" style="mask:url(#id10)" d="M212.09 1794.82c-117.14,0 -212.09,94.95 -212.09,212.08 0,117.14 94.95,212.1 212.09,212.1 117.14,0 212.09,-94.96 212.09,-212.1 0,-117.13 -94.95,-212.08 -212.09,-212.08zm0 407.84l0 0c-108.11,0 -195.76,-87.64 -195.76,-195.76 0,-108.11 87.65,-195.75 195.76,-195.75 108.11,0 195.75,87.64 195.75,195.75 0,108.12 -87.64,195.76 -195.75,195.76z"/>
   <path class="fil21" style="mask:url(#id12)" d="M212.09 1822.94c-101.6,0 -183.96,82.36 -183.96,183.96 0,101.61 82.36,183.97 183.96,183.97 101.6,0 183.97,-82.36 183.97,-183.97 0,-101.6 -82.37,-183.96 -183.97,-183.96zm0 347.73l0 0c-90.44,0 -163.76,-73.32 -163.76,-163.77 0,-90.44 73.32,-163.76 163.76,-163.76 90.44,0 163.76,73.32 163.76,163.76 0,90.45 -73.32,163.77 -163.76,163.77z"/>
   <path class="fil22" style="mask:url(#id14)" d="M252.41 2001.76c-7.4,-3.11 -16.41,-5.89 -27.07,-8.34l0 -38.83c11.88,1.38 23.52,5.34 34.95,11.88l11.42 -28.09c-12.18,-7.77 -27.65,-12.41 -46.37,-13.94l0 -24.89 -22.84 0 0 25.36c-17.36,1.98 -30.66,7.5 -39.85,16.55 -9.23,9.06 -13.84,19.92 -13.84,32.55 0,10.2 2.51,18.39 7.55,24.56 5.02,6.17 11.27,10.85 18.72,14.05 7.45,3.19 16.6,6.09 27.42,8.68l0 38.14c-8.24,-0.76 -16.23,-2.59 -23.98,-5.48 -7.77,-2.89 -14.55,-6.47 -20.34,-10.74l-12.56 27.87c6.24,4.88 14.46,8.99 24.66,12.33 10.21,3.36 20.93,5.34 32.22,5.94l0 24.9 22.84 0 0 -25.58c17.2,-2.14 30.38,-7.66 39.5,-16.56 9.15,-8.91 13.72,-19.6 13.72,-32.09 0,-10.05 -2.51,-18.17 -7.54,-24.33 -5.02,-6.17 -11.23,-10.82 -18.61,-13.94zm-49.91 -14.04l0 0c-5.49,-1.67 -9.69,-3.73 -12.57,-6.17 -2.9,-2.43 -4.35,-5.55 -4.35,-9.36 0,-3.96 1.38,-7.43 4.13,-10.39 2.73,-2.98 6.99,-5.14 12.79,-6.52l0 32.44zm35.17 64.87l0 0c-2.73,2.74 -6.86,4.72 -12.33,5.94l0 -31.52c5.32,1.83 9.39,3.96 12.22,6.39 2.81,2.44 4.22,5.56 4.22,9.37 0,3.81 -1.36,7.08 -4.11,9.82z"/>
   <path class="fil23" style="mask:url(#id16)" d="M540.86 1343.61c-68.89,0 -124.73,55.84 -124.73,124.73 0,68.89 55.84,124.73 124.73,124.73 68.89,0 124.73,-55.84 124.73,-124.73 0,-68.89 -55.84,-124.73 -124.73,-124.73zm0 239.85l0 0c-63.58,0 -115.12,-51.54 -115.12,-115.12 0,-63.58 51.54,-115.12 115.12,-115.12 63.58,0 115.12,51.54 115.12,115.12 0,63.58 -51.54,115.12 -115.12,115.12z"/>
   <path class="fil24" style="mask:url(#id18)" d="M540.86 1360.15c-59.75,0 -108.19,48.44 -108.19,108.19 0,59.75 48.44,108.19 108.19,108.19 59.75,0 108.18,-48.44 108.18,-108.19 0,-59.75 -48.43,-108.19 -108.18,-108.19zm0 204.5l0 0c-53.19,0 -96.31,-43.12 -96.31,-96.31 0,-53.19 43.12,-96.31 96.31,-96.31 53.19,0 96.3,43.12 96.3,96.31 0,53.19 -43.11,96.31 -96.3,96.31z"/>
   <path class="fil25" style="mask:url(#id20)" d="M564.57 1465.31c-4.35,-1.83 -9.65,-3.46 -15.92,-4.9l0 -22.84c6.99,0.81 13.83,3.14 20.56,6.99l6.71 -16.52c-7.16,-4.57 -16.26,-7.3 -27.27,-8.2l0 -14.63 -13.43 0 0 14.9c-10.21,1.17 -18.03,4.42 -23.44,9.74 -5.42,5.33 -8.13,11.71 -8.13,19.14 0,6.01 1.47,10.82 4.44,14.44 2.95,3.63 6.62,6.39 11,8.27 4.39,1.88 9.77,3.58 16.13,5.1l0 22.43c-4.84,-0.44 -9.55,-1.52 -14.1,-3.22 -4.57,-1.7 -8.56,-3.8 -11.96,-6.31l-7.39 16.38c3.67,2.87 8.5,5.29 14.5,7.26 6.01,1.97 12.31,3.13 18.95,3.49l0 14.64 13.43 0 0 -15.04c10.12,-1.26 17.87,-4.5 23.23,-9.74 5.38,-5.24 8.07,-11.53 8.07,-18.87 0,-5.91 -1.47,-10.69 -4.44,-14.31 -2.95,-3.63 -6.6,-6.36 -10.94,-8.2zm-29.35 -8.26l0 0c-3.23,-0.98 -5.7,-2.19 -7.39,-3.63 -1.71,-1.42 -2.56,-3.26 -2.56,-5.5 0,-2.33 0.81,-4.37 2.43,-6.11 1.6,-1.75 4.11,-3.02 7.52,-3.83l0 19.07zm20.68 38.16l0 0c-1.61,1.61 -4.03,2.77 -7.25,3.49l0 -18.54c3.13,1.07 5.52,2.33 7.18,3.76 1.65,1.43 2.49,3.27 2.49,5.51 0,2.24 -0.8,4.16 -2.42,5.78z"/>
   <path class="fil26" style="mask:url(#id22)" d="M3261.95 1136.83c-68.89,0 -124.73,55.84 -124.73,124.73 0,68.88 55.84,124.73 124.73,124.73 68.88,0 124.73,-55.85 124.73,-124.73 0,-68.89 -55.85,-124.73 -124.73,-124.73zm0 239.85l0 0c-63.58,0 -115.12,-51.54 -115.12,-115.12 0,-63.58 51.54,-115.12 115.12,-115.12 63.58,0 115.12,51.54 115.12,115.12 0,63.58 -51.54,115.12 -115.12,115.12z"/>
   <path class="fil27" style="mask:url(#id24)" d="M3261.95 1153.37c-59.76,0 -108.19,48.44 -108.19,108.19 0,59.75 48.43,108.19 108.19,108.19 59.75,0 108.19,-48.44 108.19,-108.19 0,-59.75 -48.44,-108.19 -108.19,-108.19zm0 204.5l0 0c-53.19,0 -96.31,-43.13 -96.31,-96.31 0,-53.19 43.12,-96.31 96.31,-96.31 53.19,0 96.3,43.12 96.3,96.31 0,53.18 -43.11,96.31 -96.3,96.31z"/>
   <path class="fil28" style="mask:url(#id26)" d="M3285.66 1258.53c-4.35,-1.83 -9.65,-3.46 -15.92,-4.9l0 -22.84c6.99,0.81 13.83,3.14 20.55,6.98l6.72 -16.51c-7.17,-4.57 -16.26,-7.3 -27.27,-8.2l0 -14.64 -13.43 0 0 14.91c-10.21,1.17 -18.03,4.42 -23.44,9.74 -5.42,5.33 -8.14,11.71 -8.14,19.14 0,6 1.48,10.82 4.44,14.44 2.95,3.63 6.63,6.39 11.01,8.26 4.39,1.88 9.76,3.58 16.13,5.11l0 22.43c-4.85,-0.44 -9.55,-1.52 -14.11,-3.22 -4.56,-1.7 -8.56,-3.81 -11.95,-6.32l-7.4 16.39c3.68,2.87 8.51,5.29 14.51,7.25 6,1.98 12.31,3.14 18.95,3.5l0 14.64 13.43 0 0 -15.04c10.11,-1.26 17.86,-4.5 23.23,-9.74 5.38,-5.24 8.07,-11.53 8.07,-18.88 0,-5.9 -1.48,-10.68 -4.44,-14.3 -2.95,-3.63 -6.6,-6.36 -10.94,-8.2zm-29.35 -8.26l0 0c-3.23,-0.98 -5.7,-2.19 -7.39,-3.63 -1.71,-1.42 -2.56,-3.26 -2.56,-5.5 0,-2.33 0.81,-4.37 2.42,-6.11 1.61,-1.75 4.12,-3.03 7.53,-3.83l0 19.07zm20.68 38.15l0 0c-1.61,1.62 -4.03,2.78 -7.25,3.5l0 -18.54c3.13,1.07 5.52,2.32 7.18,3.76 1.65,1.43 2.49,3.27 2.49,5.51 0,2.24 -0.8,4.16 -2.42,5.77z"/>
   <path class="fil29" style="mask:url(#id28)" d="M3249 1775.11c-102.02,0 -184.72,82.71 -184.72,184.73 0,102.02 82.7,184.72 184.72,184.72 102.02,0 184.72,-82.7 184.72,-184.72 0,-102.02 -82.7,-184.73 -184.72,-184.73zm0 355.22l0 0c-94.16,0 -170.49,-76.33 -170.49,-170.49 0,-94.16 76.33,-170.5 170.49,-170.5 94.16,0 170.5,76.34 170.5,170.5 0,94.16 -76.34,170.49 -170.5,170.49z"/>
   <path class="fil30" style="mask:url(#id30)" d="M3249 1799.61c-88.49,0 -160.23,71.74 -160.23,160.23 0,88.49 71.74,160.22 160.23,160.22 88.49,0 160.23,-71.73 160.23,-160.22 0,-88.49 -71.74,-160.23 -160.23,-160.23zm0 302.86l0 0c-78.77,0 -142.63,-63.86 -142.63,-142.63 0,-78.78 63.86,-142.63 142.63,-142.63 78.77,0 142.64,63.85 142.64,142.63 0,78.77 -63.87,142.63 -142.64,142.63z"/>
   <path class="fil31" style="mask:url(#id32)" d="M3284.12 1955.35c-6.45,-2.7 -14.3,-5.13 -23.58,-7.25l0 -33.83c10.35,1.2 20.49,4.65 30.44,10.35l9.94 -24.46c-10.6,-6.77 -24.07,-10.82 -40.38,-12.15l0 -21.67 -19.89 0 0 22.08c-15.13,1.72 -26.7,6.53 -34.71,14.42 -8.04,7.89 -12.05,17.34 -12.05,28.34 0,8.89 2.19,16.03 6.57,21.39 4.38,5.38 9.82,9.46 16.31,12.24 6.49,2.78 14.45,5.3 23.88,7.56l0 33.22c-7.17,-0.66 -14.14,-2.25 -20.89,-4.77 -6.77,-2.52 -12.67,-5.64 -17.71,-9.35l-10.94 24.27c5.44,4.25 12.59,7.83 21.48,10.74 8.89,2.92 18.23,4.65 28.06,5.17l0 21.69 19.89 0 0 -22.28c14.98,-1.86 26.46,-6.67 34.41,-14.43 7.97,-7.76 11.95,-17.07 11.95,-27.95 0,-8.75 -2.19,-15.81 -6.58,-21.18 -4.37,-5.38 -9.77,-9.42 -16.2,-12.15zm-43.47 -12.22l0 0c-4.78,-1.46 -8.44,-3.25 -10.95,-5.38 -2.52,-2.11 -3.79,-4.83 -3.79,-8.15 0,-3.45 1.2,-6.47 3.6,-9.05 2.38,-2.59 6.09,-4.48 11.14,-5.68l0 28.26zm30.63 56.5l0 0c-2.38,2.39 -5.98,4.11 -10.74,5.17l0 -27.46c4.64,1.6 8.18,3.45 10.64,5.57 2.45,2.12 3.68,4.84 3.68,8.16 0,3.32 -1.19,6.17 -3.58,8.56z"/>
   <path class="fil32" style="mask:url(#id34)" d="M313.15 945.74c-91.03,0 -164.83,73.8 -164.83,164.83 0,91.03 73.8,164.83 164.83,164.83 91.03,0 164.83,-73.8 164.83,-164.83 0,-91.03 -73.8,-164.83 -164.83,-164.83zm0 316.96l0 0c-84.02,0 -152.13,-68.11 -152.13,-152.13 0,-84.02 68.11,-152.13 152.13,-152.13 84.02,0 152.14,68.11 152.14,152.13 0,84.02 -68.12,152.13 -152.14,152.13z"/>
   <path class="fil33" style="mask:url(#id36)" d="M313.15 967.6c-78.96,0 -142.97,64.01 -142.97,142.97 0,78.96 64.01,142.97 142.97,142.97 78.96,0 142.98,-64.01 142.98,-142.97 0,-78.96 -64.02,-142.97 -142.98,-142.97zm0 270.24l0 0c-70.29,0 -127.27,-56.98 -127.27,-127.27 0,-70.29 56.98,-127.27 127.27,-127.27 70.29,0 127.28,56.98 127.28,127.27 0,70.29 -56.99,127.27 -127.28,127.27z"/>
   <path class="fil34" style="mask:url(#id38)" d="M344.49 1106.57c-5.75,-2.42 -12.76,-4.58 -21.04,-6.48l0 -30.17c9.23,1.06 18.28,4.14 27.16,9.22l8.87 -21.82c-9.46,-6.04 -21.48,-9.65 -36.03,-10.84l0 -19.34 -17.75 0 0 19.7c-13.5,1.54 -23.83,5.83 -30.98,12.87 -7.16,7.04 -10.75,15.48 -10.75,25.29 0,7.93 1.95,14.29 5.87,19.08 3.9,4.8 8.76,8.44 14.55,10.93 5.79,2.48 12.9,4.73 21.31,6.74l0 29.65c-6.4,-0.59 -12.62,-2.02 -18.64,-4.26 -6.04,-2.25 -11.31,-5.03 -15.8,-8.35l-9.77 21.66c4.86,3.79 11.24,6.98 19.17,9.58 7.93,2.61 16.27,4.15 25.04,4.62l0 19.35 17.75 0 0 -19.88c13.37,-1.66 23.61,-5.95 30.7,-12.87 7.11,-6.93 10.66,-15.24 10.66,-24.95 0,-7.8 -1.95,-14.11 -5.86,-18.89 -3.9,-4.8 -8.73,-8.41 -14.46,-10.84zm-38.79 -10.92l0 0c-4.27,-1.29 -7.53,-2.89 -9.77,-4.79 -2.25,-1.88 -3.38,-4.31 -3.38,-7.27 0,-3.08 1.07,-5.77 3.21,-8.08 2.12,-2.31 5.43,-3.99 9.94,-5.06l0 25.2zm27.33 50.42l0 0c-2.12,2.13 -5.33,3.67 -9.58,4.62l0 -24.5c4.13,1.42 7.3,3.07 9.49,4.97 2.18,1.89 3.28,4.32 3.28,7.28 0,2.96 -1.05,5.5 -3.19,7.63z"/>
   <path class="fil35" style="mask:url(#id40)" d="M3627 1401.42c-81.27,0 -147.15,65.88 -147.15,147.15 0,81.28 65.88,147.16 147.15,147.16 81.27,0 147.16,-65.88 147.16,-147.16 0,-81.27 -65.89,-147.15 -147.16,-147.15zm0 282.97l0 0c-75.01,0 -135.82,-60.81 -135.82,-135.82 0,-75.01 60.81,-135.82 135.82,-135.82 75.01,0 135.82,60.81 135.82,135.82 0,75.01 -60.81,135.82 -135.82,135.82z"/>
   <path class="fil36" style="mask:url(#id42)" d="M3627 1420.93c-70.49,0 -127.64,57.15 -127.64,127.64 0,70.5 57.15,127.64 127.64,127.64 70.5,0 127.64,-57.14 127.64,-127.64 0,-70.49 -57.14,-127.64 -127.64,-127.64zm0 241.27l0 0c-62.75,0 -113.63,-50.88 -113.63,-113.63 0,-62.75 50.88,-113.62 113.63,-113.62 62.75,0 113.63,50.87 113.63,113.62 0,62.75 -50.88,113.63 -113.63,113.63z"/>
   <path class="fil37" style="mask:url(#id44)" d="M3654.97 1545c-5.13,-2.16 -11.38,-4.08 -18.77,-5.78l0 -26.95c8.24,0.96 16.31,3.71 24.25,8.25l7.91 -19.49c-8.45,-5.39 -19.18,-8.62 -32.16,-9.68l0 -17.26 -15.85 0 0 17.59c-12.05,1.37 -21.27,5.2 -27.66,11.48 -6.39,6.29 -9.59,13.82 -9.59,22.59 0,7.08 1.74,12.76 5.24,17.04 3.48,4.28 7.81,7.53 12.98,9.74 5.17,2.22 11.52,4.23 19.03,6.03l0 26.46c-5.72,-0.53 -11.26,-1.8 -16.64,-3.8 -5.39,-2.01 -10.1,-4.49 -14.11,-7.45l-8.72 19.33c4.33,3.39 10.03,6.24 17.11,8.56 7.09,2.33 14.53,3.7 22.36,4.12l0 17.28 15.85 0 0 -17.75c11.93,-1.48 21.07,-5.31 27.4,-11.49 6.35,-6.18 9.52,-13.6 9.52,-22.27 0,-6.97 -1.74,-12.6 -5.23,-16.87 -3.49,-4.29 -7.8,-7.51 -12.92,-9.68zm-34.62 -9.74l0 0c-3.81,-1.16 -6.72,-2.59 -8.72,-4.28 -2.01,-1.69 -3.02,-3.85 -3.02,-6.5 0,-2.74 0.95,-5.15 2.86,-7.21 1.9,-2.06 4.85,-3.56 8.88,-4.52l0 22.51zm24.4 45.01l0 0c-1.9,1.91 -4.76,3.28 -8.55,4.12l0 -21.87c3.68,1.27 6.51,2.74 8.47,4.43 1.95,1.69 2.93,3.86 2.93,6.5 0,2.65 -0.94,4.92 -2.85,6.82z"/>
   <path class="fil38" style="mask:url(#id46)" d="M1263.4 155.28c-66.2,0 -119.86,53.66 -119.86,119.86 0,66.19 53.66,119.85 119.86,119.85 66.19,0 119.85,-53.66 119.85,-119.85 0,-66.2 -53.66,-119.86 -119.85,-119.86zm0 230.48l0 0c-61.1,0 -110.63,-49.53 -110.63,-110.62 0,-61.1 49.53,-110.63 110.63,-110.63 61.09,0 110.62,49.53 110.62,110.63 0,61.09 -49.53,110.62 -110.62,110.62z"/>
   <path class="fil39" style="mask:url(#id48)" d="M1263.4 171.18c-57.42,0 -103.97,46.54 -103.97,103.96 0,57.41 46.55,103.96 103.97,103.96 57.41,0 103.96,-46.55 103.96,-103.96 0,-57.42 -46.55,-103.96 -103.96,-103.96zm0 196.5l0 0c-51.11,0 -92.55,-41.43 -92.55,-92.54 0,-51.11 41.44,-92.55 92.55,-92.55 51.11,0 92.54,41.44 92.54,92.55 0,51.11 -41.43,92.54 -92.54,92.54z"/>
   <path class="fil40" style="mask:url(#id50)" d="M1286.18 272.23c-4.18,-1.76 -9.27,-3.33 -15.29,-4.71l0 -21.95c6.71,0.78 13.28,3.02 19.74,6.72l6.45 -15.88c-6.88,-4.39 -15.62,-7.01 -26.19,-7.87l0 -14.07 -12.92 0 0 14.33c-9.81,1.12 -17.32,4.24 -22.52,9.35 -5.21,5.13 -7.81,11.26 -7.81,18.4 0,5.76 1.41,10.39 4.26,13.87 2.84,3.49 6.37,6.14 10.58,7.94 4.21,1.81 9.38,3.44 15.49,4.91l0 21.56c-4.65,-0.43 -9.17,-1.47 -13.55,-3.1 -4.39,-1.64 -8.22,-3.66 -11.49,-6.07l-7.1 15.75c3.53,2.75 8.17,5.08 13.94,6.97 5.77,1.89 11.83,3.01 18.2,3.35l0 14.07 12.92 0 0 -14.45c9.71,-1.21 17.16,-4.33 22.32,-9.36 5.16,-5.04 7.75,-11.08 7.75,-18.14 0,-5.67 -1.42,-10.26 -4.26,-13.74 -2.84,-3.49 -6.35,-6.12 -10.52,-7.88zm-28.21 -7.94l0 0c-3.1,-0.94 -5.47,-2.1 -7.1,-3.48 -1.64,-1.37 -2.45,-3.14 -2.45,-5.29 0,-2.24 0.77,-4.2 2.33,-5.88 1.54,-1.68 3.95,-2.9 7.22,-3.68l0 18.33zm19.88 36.66l0 0c-1.55,1.55 -3.88,2.67 -6.96,3.36l0 -17.81c3,1.03 5.3,2.23 6.9,3.61 1.58,1.38 2.38,3.14 2.38,5.29 0,2.16 -0.77,4 -2.32,5.55z"/>
   <path class="fil41" d="M2200.49 1334.09c0,0 -254.29,-23.89 -280.18,32.13 -25.89,56.02 291.7,133.19 340.2,146.92 48.5,13.73 327.31,170.7 327.31,170.7 0,0 -37.6,267.28 -45.75,317.55 -8.15,50.28 -24.48,252.52 15.82,352.21 40.29,99.7 135.43,144.14 149.44,119.24 14.01,-24.9 -8.65,-608.6 0,-630.02 8.66,-21.42 49.15,-219.56 49.15,-219.56l-555.99 -289.17z"/>
   <path class="fil42" d="M3081.54 2353.6c0,0 16.77,95.7 67.74,82.29 50.98,-13.41 251.82,-131.06 258.17,-147.72 6.36,-16.65 -44.14,-33.69 -68.69,-21.89 -24.55,11.8 -125.23,46.9 -134.48,49.73 -9.25,2.83 -122.74,37.59 -122.74,37.59z"/>
   <path class="fil42" d="M2633.18 2099.49c0,0 -60.14,16.45 -39.9,93.65 20.23,77.21 166.3,222.29 193.28,211.73 26.97,-10.56 -25.17,-218.24 -62.29,-244.45 -37.12,-26.21 -91.09,-60.93 -91.09,-60.93z"/>
   <path class="fil43" d="M2860.45 1189.39c0,0 337.29,218.39 274.56,353.01 -62.74,134.61 -421.76,680.19 -421.76,680.19 0,0 -83.82,-92.78 -74.14,-127.32 9.68,-34.53 231.62,-579.11 192.54,-611.26 -39.09,-32.15 -339.45,-226.97 -339.45,-226.97 0,0 252.73,-153.82 368.25,-67.65z"/>
   <path class="fil44" d="M3101.2 1547.17c-10.84,-74.26 -55.98,-138.38 -72.82,-211.31 -1.28,-5.52 -2.05,-10.86 -2.59,-16.11 -77.64,-73.52 -165.34,-130.36 -165.34,-130.36 -115.52,-86.17 -368.25,67.65 -368.25,67.65 0,0 300.36,194.82 339.45,226.97 39.08,32.15 -182.86,576.73 -192.54,611.26 -2.23,7.94 0.63,19.02 6.12,31.28 42.51,-41.9 162.23,-322.96 277.11,-331.38 0.42,-0.03 -16.99,16.97 -16.57,16.95 81.78,-83.27 156.96,-164.68 199.38,-222.35 -0.78,-14.31 -1.91,-28.55 -3.95,-42.6z"/>
   <path class="fil43" d="M2308.67 1447c0,0 107.84,139.42 474.06,222.34 166,267.86 298.81,684.26 298.81,684.26l122.74 -37.59c0,0 -87.28,-642.46 -195.39,-772.54 -61.25,-73.71 -343.4,-312.31 -446.95,-340.21 -103.54,-27.9 -216.31,140.76 -253.27,243.74z"/>
   <path class="fil45" d="M2294.67 410.2c0,0 -26.45,152.45 -33.75,179.81 -7.3,27.37 84.29,100.95 134.33,86.28 50.04,-14.68 69.93,-77.91 69.93,-77.91l-10.84 -135.86c0,0 -145.63,-35.75 -159.67,-52.32z"/>
   <path class="fil46" d="M2294.67 410.2c0,0 -26.45,152.45 -33.75,179.81 -7.3,27.37 84.29,100.95 134.33,86.28 50.04,-14.68 69.93,-77.91 69.93,-77.91l-10.84 -135.86c0,0 -145.63,-35.75 -159.67,-52.32z"/>
   <path class="fil47" d="M2246.64 513.16l164.22 181.27 49.16 -167.47c0,0 251.56,71.27 281.48,104.95 29.93,33.68 -158.36,578.95 -179.81,587.75 -21.46,8.8 -706.52,-631.45 -315.05,-706.5z"/>
   <path class="fil43" d="M3100.44 1048.45c-8.99,-9.28 -329.01,-382.86 -358.94,-416.54 -29.92,-33.68 -281.48,-104.95 -281.48,-104.95l68.3 611.07 -281.68 -624.87c-391.47,75.05 -178.47,519.03 -131.29,553.28 32.99,23.95 94.16,241.82 127.99,370.77 2.22,3.03 4.28,6.17 6.16,9.43 2.4,4.13 5.01,8.13 7.51,12.19 1.04,1.21 2.32,2.72 4,4.73 5.08,4.7 9.91,9.64 14.86,14.47 0.91,0.2 9.23,6.55 13.16,9.71 0.79,0.18 1.5,0.32 2.46,0.56 4.05,1.03 8.08,2.21 12.09,3.47 74.87,-82.65 241.52,-265.31 258.11,-272.11 21.45,-8.8 267.35,44.82 267.35,44.82 0,0 1.51,-74.81 -38.04,-128.95 -5.33,-7.29 -52.21,-103.7 -26.05,-110.89 34.12,-9.39 119.69,116.98 180.48,123.51 92.17,9.89 159.17,-95.42 155.01,-99.7z"/>
   <path class="fil44" d="M2561.69 1219.66c5.01,-2.05 26.26,0.14 55.86,4.7 -0.69,-100.17 129.23,-81.73 137.49,-170.69 1,-10.81 23.8,-64.54 24.83,-51.95 1.33,-8.46 2.79,-16.89 4.41,-25.25 7.97,-41.28 36.16,-65.27 69.9,-74.47 -1.67,-4.5 -3.14,-9.09 -4.22,-13.82 -29.74,-11.02 -57.44,-26.8 -82.1,-49.73 -17.71,-16.47 -33.29,-35.61 -46.88,-56.47 -8.35,73.44 -18.9,146.18 -47.93,216.3 -23.06,55.73 -74.65,94.04 -137.22,77.5 6.51,54.58 10.84,97.49 11.25,117.95 -220.8,313.21 -261.6,113.78 -278.23,45.29 123.01,-10.24 263.29,-85.82 263.29,-85.82l-44.07 -91.92c-68.95,-0.74 -137.14,-56.54 -108.01,-139.91 6.25,-17.91 11.06,-35.98 14.99,-54.15l-148.41 -354.06c-36.71,7.04 -86.76,32.03 -113.13,44.92 4.62,16.67 41.48,48.99 55.04,139.52 30.02,1.4 64.91,3.6 81.7,0.82 -6.06,25.69 -21.42,58.52 -19.57,82.69 34.21,51.27 70.77,81.57 89.57,109.54 -12.83,27.85 -35.76,51.21 -58.83,59.94 -14.64,5.55 -29.7,-42.3 -61,-136.28 -126.41,116.54 -140.38,226.5 -105.07,252.13 32.99,23.95 94.16,241.82 127.99,370.77 2.22,3.03 4.28,6.17 6.16,9.43 2.4,4.13 5.01,8.13 7.51,12.19 1.04,1.21 2.32,2.72 4,4.73 5.08,4.7 9.91,9.64 14.86,14.47 0.91,0.2 9.23,6.55 13.16,9.71 0.79,0.18 1.5,0.32 2.46,0.56 4.05,1.03 8.08,2.21 12.09,3.47 74.87,-82.65 241.52,-265.31 258.11,-272.11z"/>
   <path class="fil45" d="M2626.08 197.28c0,0 -46.26,176.18 -68.82,225.64 -58.71,128.67 -110.89,97.73 -143.28,94.15 -32.58,-3.6 -112.21,-67.01 -126.37,-94.96 -23.93,-47.24 -52.68,-144.94 -27.37,-198.09 25.31,-53.15 266.75,-197.05 365.84,-26.74z"/>
   <path class="fil48" d="M2246.64 513.16c0,0 298.71,583.4 295.4,664.57 0,0 -253.42,-412.13 -271.56,-420.53l14.9 -76.46 -80.78 2.32c0,0 -50.99,-112.48 -71.1,-124.98 -20.1,-12.5 95.59,-45.01 113.14,-44.92z"/>
   <path class="fil48" d="M2460.02 526.96c0,0 7.45,487.15 82.41,626.41 0,0 8.37,-401.91 6.81,-432.39l-45.23 -29.15 46.71 -7.38c0,0 18.23,-75.98 21.41,-128.35 -37.75,-18.26 -91.15,-12 -112.11,-29.14z"/>
   <polygon class="fil49" points="2246.64,513.16 2280.64,489.26 2385.82,653.42 2338.59,725.28 "/>
   <polygon class="fil49" points="2385.82,653.42 2459.76,543 2467.73,712.08 "/>
   <polygon class="fil50" points="2356.05,698.71 2384.54,734.63 2426.08,726.66 2439.38,691.77 2385.82,653.42 "/>
   <path class="fil43" d="M2064.28 612.53c0,0 -102.2,204.97 -26.17,386.21 53.15,126.72 142.72,211.88 310.09,199.29 164.33,-12.37 359.12,-143.59 359.12,-143.59 0,0 1.32,-82.18 -31.98,-94.89 0,0 -167.82,125.25 -324.86,93.34 -120.37,-24.47 -130.69,-201.06 -130.17,-231.51 0.51,-30.45 -156.03,-208.85 -156.03,-208.85z"/>
   <path class="fil45" d="M2665.56 966.41c0,0 55.67,-78.25 78.19,-90.08 22.52,-11.83 172.36,14.89 172.36,14.89 0,0 23.02,85.53 -19.52,78.83 -42.53,-6.71 -108.29,43.02 -114.42,44.96 -6.12,1.93 -79.62,27.17 -99.91,26.85 -20.3,-0.32 -16.7,-75.45 -16.7,-75.45z"/>
   <polygon class="fil51" points="2979.49,852.82 2833.01,1248.64 2842.55,1260.97 3098.03,1283.63 3293.66,919.46 3282.37,910.97 "/>
   <polygon class="fil52" points="2988.7,863.23 2842.55,1260.97 3114.43,1302.82 3293.66,919.46 "/>
   <path class="fil53" d="M3131.81 1025.84c-1.4,15.7 -16.93,27.13 -34.71,25.56 -17.78,-1.58 -31.06,-15.58 -29.66,-31.26 1.39,-15.69 16.93,-27.13 34.7,-25.56 17.78,1.58 31.06,15.58 29.67,31.26z"/>
   <path class="fil45" d="M3209.85 1092.23c0,0 -12.62,53.08 -34.82,54.85 -39.46,3.16 -93.96,-28.89 -109.62,-1.72 -15.65,27.16 -36.88,21.43 -25.39,65.43 11.49,43.99 11.61,65.32 56.86,78.21 45.26,12.9 109.16,16.95 124.96,-19.35 15.8,-36.3 48.07,-151.53 -11.99,-177.42z"/>
   <path class="fil54" d="M2322.01 314.38c0,0 24.44,-21.25 28.24,-92.93 3.81,-71.67 54.88,-84.26 115.85,-45.82 60.98,38.45 138.09,71.79 186.82,37.75 48.73,-34.03 63.83,-142.68 -29.66,-156.64 -93.49,-13.97 -166.32,20.58 -222.17,-3.5 -55.84,-24.09 -138.95,-17.36 -161.84,75.99 -22.89,93.35 -20.68,208.51 41.13,279.09 0,0 -2.13,-37.11 -1.84,-53.57 -33.79,-64.79 10.88,-95.77 43.47,-40.37z"/>
   <path class="fil50" d="M2384.54 734.63c1.62,26.42 9.32,205.61 -146.03,247.45 -105.57,28.44 -260.47,164.43 -262.59,170.49 -2.13,6.06 -2.4,152.25 -2.4,152.25l122.31 -30.56c14.6,-24.14 161.16,-176.15 254.65,-221.37 93.49,-45.24 75.6,-326.23 75.6,-326.23l-41.54 7.97z"/>
  </g>
 </g>
</svg>
