<?xml version="1.0" encoding="UTF-8"?>
<!DOCTYPE svg PUBLIC "-//W3C//DTD SVG 1.1//EN" "http://www.w3.org/Graphics/SVG/1.1/DTD/svg11.dtd">
<!-- Creator: CorelDRAW 2018 (64-Bit) -->
<svg xmlns="http://www.w3.org/2000/svg" xml:space="preserve" width="3810px" height="4529px" version="1.1" style="shape-rendering:geometricPrecision; text-rendering:geometricPrecision; image-rendering:optimizeQuality; fill-rule:evenodd; clip-rule:evenodd"
viewBox="0 0 3787 4502.04"
 xmlns:xlink="http://www.w3.org/1999/xlink">
 <defs>
  <style type="text/css">
   <![CDATA[
    .fil0 {fill:none}
    .fil4 {fill:#FDD588;fill-rule:nonzero}
    .fil5 {fill:#FAC7A2;fill-rule:nonzero}
    .fil2 {fill:#DA453F;fill-rule:nonzero}
    .fil1 {fill:#B92F3F;fill-rule:nonzero}
    .fil3 {fill:#5C2932;fill-rule:nonzero}
   ]]>
  </style>
 </defs>
 <g id="Слой_x0020_1">
  <metadata id="CorelCorpID_0Corel-Layer"/>
  <rect class="fil0" width="3787" height="4502.04"/>
  <g id="_2379305192848">
   <path class="fil1" d="M2831.06 2636.17c-6.66,0 -12.08,-5.42 -12.08,-12.08 0,-6.67 5.42,-12.09 12.08,-12.09 6.67,0 12.09,5.42 12.09,12.09 0,6.66 -5.42,12.08 -12.09,12.08zm-0.13 -114.05l-63.86 173.38 50.91 0c3.86,-11.96 5.96,-22.29 6.66,-26.11 -0.31,-3.25 1.92,-6.21 5.18,-6.73 0.25,-0.04 0.49,-0.04 0.74,-0.05 0.13,-0.01 0.26,-0.02 0.39,-0.02 0.1,0 0.18,0.01 0.27,0.01 0.28,0.01 0.55,0.01 0.83,0.05 3.26,0.53 5.49,3.5 5.17,6.75 0.72,3.83 2.82,14.15 6.68,26.1l50.9 0 -63.87 -173.38z"/>
   <path class="fil1" d="M2831.06 2951.7c-28.47,0 -51.64,-23.17 -51.64,-51.65 0,-28.48 23.17,-51.65 51.64,-51.65 28.48,0 51.65,23.17 51.65,51.65 0,28.48 -23.17,51.65 -51.65,51.65zm-0.13 -168.38c-11.08,3.32 -75.2,24.95 -75.2,81.52l0 124.26 65.55 0 3.97 -10.48c0.02,-0.06 0.06,-0.11 0.08,-0.16 0.09,-0.21 0.2,-0.41 0.31,-0.62 0.09,-0.16 0.17,-0.32 0.27,-0.47 0.12,-0.18 0.25,-0.33 0.39,-0.49 0.13,-0.15 0.24,-0.31 0.37,-0.44 0.15,-0.15 0.31,-0.28 0.48,-0.4 0.15,-0.13 0.29,-0.26 0.46,-0.37 0.16,-0.11 0.33,-0.19 0.51,-0.29 0.19,-0.1 0.38,-0.2 0.57,-0.29 0.06,-0.02 0.11,-0.05 0.17,-0.08 0.13,-0.05 0.26,-0.06 0.38,-0.1 0.2,-0.06 0.41,-0.13 0.62,-0.17 0.21,-0.04 0.4,-0.06 0.61,-0.08 0.19,-0.02 0.39,-0.03 0.58,-0.03 0.22,-0.01 0.43,0.01 0.65,0.03 0.18,0.03 0.37,0.04 0.55,0.08 0.23,0.04 0.45,0.11 0.67,0.18 0.11,0.03 0.23,0.05 0.34,0.09 0.06,0.02 0.1,0.06 0.16,0.08 0.21,0.09 0.41,0.19 0.61,0.3 0.17,0.09 0.33,0.18 0.48,0.28 0.17,0.11 0.33,0.24 0.49,0.38 0.15,0.13 0.31,0.25 0.45,0.38 0.14,0.14 0.26,0.3 0.39,0.45 0.12,0.16 0.26,0.32 0.37,0.49 0.11,0.15 0.19,0.32 0.28,0.48 0.11,0.2 0.22,0.4 0.3,0.61 0.02,0.05 0.06,0.1 0.08,0.16l3.97 10.48 65.3 0 0 -124.26c0,-56.71 -64.12,-78.23 -75.21,-81.52z"/>
   <path class="fil1" d="M2831.06 3061.59c-2.28,0 -4.14,-1.86 -4.14,-4.14 0,-2.29 1.86,-4.15 4.14,-4.15 2.29,0 4.15,1.86 4.15,4.15 0,2.28 -1.86,4.14 -4.15,4.14zm0 -63.24l-52.81 139.44 0 113.28 17.09 0 0 -114.41c0,-37.33 31.91,-51.47 33.27,-52.05 0.04,-0.01 0.07,-0.01 0.1,-0.03 0.19,-0.08 0.39,-0.12 0.59,-0.19 0.2,-0.05 0.39,-0.12 0.59,-0.17 0.15,-0.03 0.31,-0.03 0.47,-0.04 0.24,-0.03 0.48,-0.07 0.72,-0.07 0.12,0 0.23,0.02 0.35,0.03 0.29,0.01 0.57,0.04 0.86,0.09 0.09,0.02 0.18,0.05 0.27,0.08 0.31,0.08 0.62,0.16 0.91,0.29 0.01,0.01 0.03,0.01 0.05,0.01 1.35,0.58 33.27,14.72 33.27,52.05l0 114.41 17.08 0 0 -113.28 -52.81 -139.44z"/>
   <polygon class="fil1" points="2918.56,2864.84 2918.56,2519.76 2931.38,2469.19 2944.19,2519.76 2944.19,2989.1 2918.56,2989.1 "/>
   <polygon class="fil1" points="3004.84,2294.34 3022.51,2400.07 3022.51,2456.85 2987.16,2456.85 2987.16,2400.07 "/>
   <polygon class="fil1" points="2956.62,2770.61 3053.05,2770.61 3053.05,2717.8 2956.62,2717.8 "/>
   <path class="fil1" d="M3000.06 2542.8c0,-9.41 2.81,-13.7 4.79,-15.56 1.92,1.84 4.77,6.15 4.77,15.56l0 162.57 -9.56 0 0 -162.57z"/>
   <path class="fil1" d="M3000.06 2826.53c0,-9.41 2.81,-13.7 4.79,-15.56 1.92,1.84 4.77,6.15 4.77,15.56l0 162.57 -9.56 0 0 -162.57z"/>
   <polygon class="fil1" points="3065.48,2989.1 3065.48,2519.76 3078.29,2469.19 3091.11,2519.76 3091.11,2989.1 "/>
   <path class="fil1" d="M2871.58 2742.09c-10.18,-7.5 -17.75,-20.82 -23.17,-34.16l46.36 0c-5.42,13.33 -13,26.66 -23.19,34.16z"/>
   <path class="fil1" d="M2813.48 2707.93c-5.42,13.33 -12.99,26.66 -23.19,34.16 -10.18,-7.5 -17.75,-20.82 -23.17,-34.16l46.36 0z"/>
   <polygon class="fil1" points="2657.03,2294.34 2674.71,2400.07 2674.71,2456.85 2639.36,2456.85 2639.36,2400.07 "/>
   <path class="fil1" d="M2652.25 2705.37l0 -162.57c0,-9.41 2.81,-13.7 4.79,-15.56 1.92,1.84 4.77,6.15 4.77,15.56l0 162.57 -9.56 0z"/>
   <polygon class="fil1" points="2608.82,2770.61 2705.25,2770.61 2705.25,2717.8 2608.82,2717.8 "/>
   <polygon class="fil1" points="2570.76,2519.76 2583.58,2469.19 2596.39,2519.76 2596.39,2989.1 2570.76,2989.1 "/>
   <path class="fil1" d="M2652.25 2826.53c0,-9.41 2.81,-13.7 4.79,-15.56 1.92,1.84 4.77,6.15 4.77,15.56l0 162.57 -9.56 0 0 -162.57z"/>
   <polygon class="fil1" points="2717.68,2776.82 2717.68,2519.76 2730.49,2469.19 2743.3,2519.76 2743.3,2989.1 2717.68,2989.1 "/>
   <path class="fil1" d="M2765.83 3102.12l-10.49 -28.2c-0.03,-0.07 -0.07,-0.13 -0.1,-0.2 -0.08,-0.2 -0.18,-0.39 -0.28,-0.58 -0.1,-0.17 -0.19,-0.35 -0.3,-0.51 -0.11,-0.17 -0.24,-0.33 -0.37,-0.48 -0.13,-0.15 -0.25,-0.3 -0.38,-0.44 -0.16,-0.16 -0.32,-0.29 -0.5,-0.43 -0.13,-0.11 -0.27,-0.23 -0.42,-0.33 -0.19,-0.12 -0.38,-0.23 -0.58,-0.33 -0.16,-0.09 -0.33,-0.17 -0.5,-0.25 -0.07,-0.03 -0.14,-0.08 -0.23,-0.11 -0.13,-0.05 -0.26,-0.06 -0.4,-0.1 -0.17,-0.06 -0.36,-0.1 -0.54,-0.14 -0.21,-0.05 -0.42,-0.07 -0.63,-0.09 -0.2,-0.02 -0.4,-0.03 -0.59,-0.04 -0.2,0.01 -0.4,0.02 -0.6,0.04 -0.21,0.02 -0.42,0.04 -0.63,0.08 -0.18,0.05 -0.36,0.09 -0.55,0.15 -0.13,0.04 -0.26,0.05 -0.39,0.1 -0.08,0.03 -0.15,0.08 -0.23,0.11 -0.17,0.08 -0.34,0.17 -0.5,0.26 -0.2,0.1 -0.39,0.2 -0.57,0.32 -0.15,0.1 -0.3,0.22 -0.44,0.34 -0.17,0.14 -0.33,0.26 -0.48,0.42 -0.14,0.14 -0.26,0.29 -0.39,0.44 -0.12,0.16 -0.26,0.31 -0.37,0.48 -0.11,0.16 -0.2,0.34 -0.3,0.51 -0.1,0.19 -0.2,0.38 -0.28,0.58 -0.02,0.07 -0.07,0.13 -0.1,0.2l-10.48 28.2 0 -79.88 32.62 0 0 79.88z"/>
   <path class="fil1" d="M2689.72 3111.35l-36.7 -70.24c0,-0.01 -0.01,-0.02 -0.01,-0.03 -0.17,-0.31 -0.37,-0.61 -0.59,-0.89 -0.04,-0.04 -0.06,-0.09 -0.1,-0.14 -0.14,-0.17 -0.32,-0.33 -0.48,-0.48 -0.13,-0.14 -0.24,-0.28 -0.38,-0.39 -0.07,-0.05 -0.14,-0.09 -0.2,-0.13 -0.27,-0.21 -0.54,-0.4 -0.84,-0.55 -0.01,-0.01 -0.02,-0.02 -0.02,-0.02 -0.11,-0.06 -0.22,-0.08 -0.33,-0.13 -0.25,-0.12 -0.51,-0.23 -0.77,-0.31 -0.19,-0.06 -0.38,-0.08 -0.57,-0.12 -0.2,-0.04 -0.4,-0.09 -0.61,-0.11 -0.19,-0.02 -0.38,-0.01 -0.58,-0.01 -0.21,0 -0.42,-0.01 -0.63,0.01 -0.18,0.02 -0.36,0.06 -0.54,0.1 -0.22,0.04 -0.43,0.07 -0.64,0.13 -0.23,0.07 -0.44,0.17 -0.66,0.27 -0.14,0.06 -0.29,0.1 -0.43,0.17 -0.01,0.01 -0.02,0.02 -0.03,0.03 -0.24,0.12 -0.46,0.28 -0.68,0.43 -0.11,0.09 -0.24,0.15 -0.36,0.25 -0.07,0.06 -0.13,0.14 -0.21,0.21 -0.22,0.2 -0.46,0.41 -0.65,0.65 -0.03,0.03 -0.04,0.06 -0.06,0.09 -0.24,0.3 -0.44,0.61 -0.62,0.94 0,0.01 -0.01,0.02 -0.02,0.03l-36.69 70.24 0 -89.11 84.4 0 0 89.11z"/>
   <polygon class="fil1" points="2574.26,3251.07 2592.9,3251.07 2592.9,3022.24 2574.26,3022.24 "/>
   <path class="fil1" d="M2647.53 3117.88c4.6,1.9 17.98,9.45 17.98,32.76l0 100.43 -35.98 0 0 -100.43c0,-23.28 13.33,-30.83 18,-32.76z"/>
   <polygon class="fil1" points="2702.14,3251.07 2720.78,3251.07 2720.78,3022.24 2702.14,3022.24 "/>
   <path class="fil1" d="M3014.61 3117.88c4.61,1.9 17.99,9.45 17.99,32.76l0 100.43 -35.98 0 0 -100.43c0,-23.28 13.33,-30.83 17.99,-32.76z"/>
   <polygon class="fil1" points="3069.23,3251.07 3087.87,3251.07 3087.87,3022.24 3069.23,3022.24 "/>
   <path class="fil1" d="M3056.81 3111.35l-36.7 -70.24c0,-0.01 -0.01,-0.02 -0.01,-0.03 -0.17,-0.31 -0.37,-0.61 -0.59,-0.89 -0.04,-0.04 -0.06,-0.09 -0.1,-0.14 -0.14,-0.17 -0.32,-0.33 -0.48,-0.48 -0.13,-0.14 -0.24,-0.28 -0.38,-0.39 -0.07,-0.05 -0.14,-0.09 -0.2,-0.13 -0.27,-0.21 -0.55,-0.4 -0.84,-0.55 -0.01,-0.01 -0.02,-0.02 -0.02,-0.02 -0.11,-0.06 -0.22,-0.08 -0.33,-0.13 -0.25,-0.12 -0.51,-0.23 -0.77,-0.31 -0.19,-0.06 -0.38,-0.08 -0.57,-0.12 -0.2,-0.04 -0.4,-0.09 -0.61,-0.11 -0.19,-0.02 -0.38,-0.01 -0.58,-0.01 -0.21,0 -0.42,-0.01 -0.63,0.01 -0.19,0.02 -0.36,0.06 -0.55,0.1 -0.21,0.04 -0.43,0.07 -0.63,0.13 -0.23,0.07 -0.44,0.17 -0.66,0.27 -0.14,0.06 -0.29,0.1 -0.43,0.17 -0.01,0.01 -0.02,0.02 -0.04,0.03 -0.23,0.12 -0.45,0.28 -0.67,0.43 -0.11,0.09 -0.24,0.15 -0.36,0.25 -0.07,0.06 -0.13,0.14 -0.21,0.21 -0.23,0.2 -0.46,0.41 -0.65,0.65 -0.03,0.03 -0.04,0.06 -0.06,0.09 -0.24,0.3 -0.44,0.61 -0.62,0.94 -0.01,0.01 -0.01,0.02 -0.02,0.03l-36.69 70.24 0 -89.11 84.4 0 0 89.11z"/>
   <polygon class="fil1" points="2941.35,3251.07 2959.98,3251.07 2959.98,3022.24 2941.35,3022.24 "/>
   <path class="fil1" d="M2928.92 3022.24l0 79.88 -10.48 -28.2c-0.03,-0.07 -0.08,-0.13 -0.11,-0.2 -0.08,-0.2 -0.18,-0.39 -0.28,-0.58 -0.09,-0.17 -0.19,-0.35 -0.3,-0.51 -0.11,-0.17 -0.24,-0.33 -0.37,-0.48 -0.13,-0.15 -0.24,-0.3 -0.38,-0.44 -0.15,-0.16 -0.32,-0.29 -0.49,-0.43 -0.14,-0.11 -0.28,-0.23 -0.43,-0.33 -0.18,-0.12 -0.38,-0.23 -0.58,-0.33 -0.16,-0.09 -0.32,-0.17 -0.49,-0.25 -0.08,-0.03 -0.15,-0.08 -0.24,-0.11 -0.12,-0.05 -0.26,-0.06 -0.39,-0.1 -0.18,-0.06 -0.36,-0.1 -0.55,-0.14 -0.21,-0.05 -0.42,-0.07 -0.63,-0.09 -0.2,-0.02 -0.39,-0.03 -0.59,-0.04 -0.2,0.01 -0.4,0.02 -0.59,0.04 -0.22,0.02 -0.42,0.04 -0.63,0.08 -0.19,0.05 -0.37,0.09 -0.55,0.15 -0.14,0.04 -0.27,0.05 -0.39,0.1 -0.09,0.03 -0.15,0.08 -0.24,0.11 -0.17,0.08 -0.34,0.17 -0.5,0.26 -0.2,0.1 -0.39,0.2 -0.57,0.32 -0.15,0.1 -0.29,0.22 -0.44,0.34 -0.16,0.14 -0.33,0.26 -0.48,0.42 -0.13,0.14 -0.26,0.29 -0.38,0.44 -0.13,0.16 -0.26,0.31 -0.38,0.48 -0.1,0.16 -0.2,0.34 -0.29,0.51 -0.11,0.19 -0.2,0.38 -0.29,0.58 -0.02,0.07 -0.07,0.13 -0.1,0.2l-10.48 28.2 0 -79.88 32.62 0z"/>
   <path class="fil2" d="M1889.84 2735.16l-24.85 0 0 -67.48 24.85 0 0 67.48zm-93.8 0l-24.85 0 0 -67.48 24.85 0 0 67.48zm100.86 -117.48c-6.84,-4.41 -14.19,-9.18 -19.14,-15.56 -4.95,6.38 -12.3,11.15 -19.14,15.56 -11.75,7.58 -21.89,14.13 -21.89,26.47 0,3.43 -2.78,6.22 -6.22,6.22 -3.43,0 -6.21,-2.79 -6.21,-6.22 0,-12.34 -10.14,-18.89 -21.89,-26.47 -6.84,-4.41 -14.19,-9.18 -19.15,-15.56 -4.95,6.38 -12.3,11.15 -19.14,15.56 -11.74,7.58 -21.89,14.13 -21.89,26.47l0 173.36c0,0.02 0.01,0.03 0.01,0.05 0,3.67 1.05,6.88 2.88,9.83 6.79,-20.6 26.03,-33.08 43.38,-44.27 19.21,-12.41 35.8,-23.12 35.8,-41.75 0,-3.43 2.78,-6.21 6.21,-6.21 3.44,0 6.22,2.78 6.22,6.21 0,18.63 16.59,29.34 35.8,41.75 17.35,11.19 36.59,23.67 43.38,44.27 1.83,-2.95 2.88,-6.16 2.88,-9.83 0,-0.02 0.01,-0.03 0.01,-0.05l0 -173.36c0,-12.34 -10.15,-18.89 -21.9,-26.47z"/>
   <polygon class="fil2" points="1982.73,2412.57 1992.88,2467.89 1972.58,2467.89 "/>
   <polygon class="fil2" points="1789.13,2196.59 1871.9,2196.59 1871.9,2486.53 1789.13,2486.53 "/>
   <polygon class="fil2" points="1938.2,2486.53 1884.32,2486.53 1884.32,2242.21 1943.75,2486.53 "/>
   <polygon class="fil2" points="1776.7,2242.21 1776.7,2486.53 1717.28,2486.53 "/>
   <polygon class="fil2" points="1678.3,2412.57 1688.45,2467.89 1668.14,2467.89 "/>
   <path class="fil2" d="M1830.51 2565.58l144.29 0 0 293.84c-5.92,-5.92 -13.22,-10.66 -20.11,-15.11 -12.57,-8.12 -23.43,-15.12 -23.47,-26.68l0 -177.4c0,-9.38 6.92,-14.53 18.31,-21.89 10.21,-6.59 21.79,-14.06 21.79,-28.24 0,-3.43 -2.78,-6.21 -6.21,-6.21 -3.43,0 -6.21,2.78 -6.21,6.21 0,6.91 -6.08,11.34 -16.11,17.81 -6.47,4.17 -13.88,8.98 -18.73,15.84 -5.45,-6.84 -13.2,-11.85 -20.42,-16.51 -12.02,-7.76 -19.32,-13.1 -19.32,-21.71 0,-3.43 -2.78,-6.22 -6.21,-6.22 -0.12,0 -0.23,0.03 -0.35,0.04 -0.12,-0.01 -0.23,-0.04 -0.35,-0.04 -3.43,0 -6.21,2.79 -6.21,6.22 0,8.61 -7.3,13.95 -19.32,21.71 -7.66,4.94 -15.9,10.3 -21.37,17.8 -5.46,-7.5 -13.7,-12.86 -21.36,-17.8 -12.02,-7.76 -19.32,-13.1 -19.32,-21.71 0,-3.43 -2.78,-6.22 -6.21,-6.22 -0.12,0 -0.24,0.03 -0.36,0.04 -0.11,-0.01 -0.22,-0.04 -0.34,-0.04 -3.44,0 -6.22,2.79 -6.22,6.22 0,8.61 -7.29,13.95 -19.32,21.71 -7.21,4.66 -14.97,9.67 -20.41,16.51 -4.86,-6.86 -12.27,-11.67 -18.74,-15.84 -10.02,-6.47 -16.1,-10.9 -16.1,-17.81 0,-3.43 -2.78,-6.21 -6.22,-6.21 -3.43,0 -6.21,2.78 -6.21,6.21 0,14.18 11.58,21.65 21.8,28.24 11.39,7.36 18.31,12.51 18.31,21.89l0 177.4c-0.05,11.56 -10.9,18.56 -23.47,26.68 -6.89,4.45 -14.2,9.19 -20.11,15.11l0 -293.84 144.28 0z"/>
   <path class="fil2" d="M1929.23 3250.43l-197.44 0 0 -124.45c0,-58.61 36.9,-98.83 98.72,-107.8 61.83,8.97 98.72,49.19 98.72,107.8l0 124.45z"/>
   <path class="fil2" d="M1974.46 2983.06l-43.24 0 0 -140.44c5.07,4.58 11.05,8.47 16.73,12.13 13.63,8.8 26.51,17.11 26.51,32.4l0 95.91z"/>
   <polygon class="fil2" points="1799.44,2952.52 1799.44,2891.25 1824.3,2891.25 1824.3,2958.73 1799.44,2958.73 "/>
   <polygon class="fil2" points="1836.73,2891.25 1861.58,2891.25 1861.58,2958.73 1836.73,2958.73 "/>
   <path class="fil2" d="M1867.12 2869.27l-31.01 -64.47c-0.03,-0.08 -0.09,-0.14 -0.13,-0.22 -0.1,-0.18 -0.21,-0.36 -0.33,-0.54 -0.11,-0.17 -0.22,-0.33 -0.35,-0.49 -0.12,-0.14 -0.26,-0.28 -0.4,-0.42 -0.15,-0.15 -0.3,-0.31 -0.47,-0.44 -0.14,-0.11 -0.28,-0.21 -0.43,-0.31 -0.2,-0.14 -0.4,-0.26 -0.6,-0.37 -0.07,-0.04 -0.12,-0.08 -0.2,-0.11 -0.1,-0.06 -0.2,-0.08 -0.3,-0.12 -0.19,-0.08 -0.39,-0.15 -0.6,-0.22 -0.21,-0.06 -0.41,-0.11 -0.62,-0.14 -0.17,-0.04 -0.35,-0.07 -0.53,-0.09 -0.23,-0.02 -0.45,-0.04 -0.68,-0.03 -0.17,0 -0.34,0.01 -0.52,0.02 -0.22,0.02 -0.44,0.06 -0.67,0.1 -0.17,0.04 -0.34,0.08 -0.52,0.13 -0.22,0.07 -0.43,0.15 -0.65,0.24 -0.09,0.04 -0.19,0.06 -0.29,0.11 -0.07,0.03 -0.12,0.07 -0.19,0.11 -0.2,0.11 -0.4,0.23 -0.59,0.36 -0.15,0.11 -0.3,0.21 -0.45,0.32 -0.16,0.14 -0.31,0.28 -0.46,0.43 -0.14,0.15 -0.28,0.29 -0.41,0.44 -0.12,0.15 -0.23,0.31 -0.34,0.48 -0.12,0.17 -0.24,0.35 -0.34,0.55 -0.04,0.07 -0.09,0.13 -0.13,0.21l-31 64.47c-6.4,-10.43 -17.37,-17.55 -27.48,-24.08 -3.93,-2.53 -7.69,-4.97 -11.04,-7.46 2.9,-20.29 20.86,-31.92 39.85,-44.18 13.62,-8.79 27.52,-17.81 35.27,-30.38 7.76,12.57 21.66,21.59 35.28,30.38 18.99,12.26 36.95,23.89 39.84,44.18 -3.34,2.49 -7.1,4.93 -11.03,7.46 -10.11,6.53 -21.08,13.65 -27.48,24.08z"/>
   <path class="fil2" d="M1729.81 2958.84l0 24.22 -43.25 0 0 -95.91c0,-15.29 12.88,-23.6 26.52,-32.4 5.68,-3.66 11.66,-7.55 16.73,-12.13l0 116.22z"/>
   <polygon class="fil2" points="1686.23,2995.49 1974.8,2995.49 1974.8,3004.81 1686.23,3004.81 "/>
   <polygon class="fil2" points="1974.8,2553.15 1686.23,2553.15 1686.23,2543.83 1974.8,2543.83 "/>
   <path class="fil3" d="M3271.54 3263.5l-2756.08 0c-3.44,0 -6.22,-2.79 -6.22,-6.22 0,-3.43 2.78,-6.21 6.22,-6.21l2756.08 0c3.43,0 6.21,2.78 6.21,6.21 0,3.43 -2.78,6.22 -6.21,6.22z"/>
   <path class="fil3" d="M1455.01 2155.75c4.5,0 8.17,-3.67 8.17,-8.17 0,-4.51 -3.67,-8.17 -8.17,-8.17 -4.51,0 -8.17,3.66 -8.17,8.17 0,4.5 3.66,8.17 8.17,8.17z"/>
   <path class="fil3" d="M2528.49 1717.5c-3.71,0 -6.72,3.02 -6.72,6.72 0,3.71 3.01,6.73 6.72,6.73 3.71,0 6.72,-3.02 6.72,-6.73 0,-3.7 -3.01,-6.72 -6.72,-6.72z"/>
   <path class="fil3" d="M2499.66 2982.55c-3.7,0 -6.72,3.02 -6.72,6.73 0,3.7 3.02,6.72 6.72,6.72 3.71,0 6.73,-3.02 6.73,-6.72 0,-3.71 -3.02,-6.73 -6.73,-6.73z"/>
   <path class="fil3" d="M627.83 2377.64c-3.71,0 -6.72,3.02 -6.72,6.72 0,3.71 3.01,6.73 6.72,6.73 3.71,0 6.73,-3.02 6.73,-6.73 0,-3.7 -3.02,-6.72 -6.73,-6.72z"/>
   <path class="fil3" d="M2794.61 2263.24c4.09,0 7.42,-3.32 7.42,-7.41 0,-4.1 -3.33,-7.42 -7.42,-7.42 -4.09,0 -7.42,3.32 -7.42,7.42 0,4.09 3.33,7.41 7.42,7.41z"/>
   <path class="fil3" d="M2446.74 2307.23c1.43,0 2.59,1.15 2.59,2.58 0,1.42 -1.16,2.58 -2.59,2.58 -1.42,0 -2.58,-1.16 -2.58,-2.58 0,-1.43 1.16,-2.58 2.58,-2.58zm0 12.42c5.43,0 9.85,-4.41 9.85,-9.84 0,-5.43 -4.42,-9.85 -9.85,-9.85 -5.43,0 -9.84,4.42 -9.84,9.85 0,5.43 4.41,9.84 9.84,9.84z"/>
   <path class="fil3" d="M728.97 2256.61c2.29,1.9 5.62,1.9 7.91,0l36.19 -29.87 36.18 29.87c1.16,0.96 2.56,1.42 3.96,1.42 1.79,0 3.56,-0.77 4.79,-2.26 2.19,-2.64 1.81,-6.56 -0.83,-8.74l-40.14 -33.14c-2.3,-1.9 -5.62,-1.9 -7.92,0l-36.18 29.87 -36.16 -29.86c-2.3,-1.9 -5.62,-1.91 -7.91,-0.01l-36.17 29.87 -36.16 -29.86c-2.65,-2.2 -6.56,-1.82 -8.74,0.82 -2.19,2.65 -1.82,6.57 0.83,8.75l40.11 33.14c2.3,1.9 5.62,1.9 7.91,0l36.17 -29.87 36.16 29.87z"/>
   <path class="fil3" d="M2108.87 1799.96c1.16,0.96 2.56,1.42 3.95,1.42 1.79,0 3.57,-0.77 4.8,-2.25 2.18,-2.65 1.81,-6.56 -0.83,-8.75l-40.15 -33.13c-2.3,-1.9 -5.61,-1.9 -7.91,0l-36.19 29.87 -36.16 -29.87c-2.3,-1.9 -5.61,-1.9 -7.91,0l-36.17 29.87 -36.16 -29.87c-2.64,-2.19 -6.56,-1.82 -8.74,0.83 -2.19,2.65 -1.82,6.56 0.83,8.75l40.12 33.13c2.29,1.91 5.61,1.9 7.91,0l36.17 -29.86 36.16 29.86c2.29,1.9 5.61,1.9 7.91,0l36.18 -29.87 36.19 29.87z"/>
   <path class="fil3" d="M1139.55 1905.72l45.72 0c3.43,0 6.21,-2.78 6.21,-6.21 0,-3.44 -2.78,-6.22 -6.21,-6.22l-45.72 0c-3.43,0 -6.22,2.78 -6.22,6.22 0,3.43 2.79,6.21 6.22,6.21z"/>
   <path class="fil3" d="M1185.27 1920.35l-22.86 0c-3.43,0 -6.22,2.78 -6.22,6.21 0,3.44 2.79,6.22 6.22,6.22l22.86 0c3.43,0 6.21,-2.78 6.21,-6.22 0,-3.43 -2.78,-6.21 -6.21,-6.21z"/>
   <path class="fil3" d="M1220.59 1856.01l8.58 0c3.43,0 6.21,-2.77 6.21,-6.21 0,-3.43 -2.78,-6.21 -6.21,-6.21l-8.58 0c-3.43,0 -6.21,2.78 -6.21,6.21 0,3.44 2.78,6.21 6.21,6.21z"/>
   <path class="fil3" d="M1239.07 1880.55c1.86,0.71 3.95,0.46 5.61,-0.64 1.66,-1.09 2.69,-2.92 2.78,-4.91 0.77,-17.66 15.21,-31.49 32.87,-31.49 17.18,0 31.28,12.9 32.8,30 0.28,3.15 2.87,5.58 6.02,5.67 11.91,0.33 21.24,9.91 21.24,21.81 0,12.05 -9.81,21.86 -21.85,21.86l-87.12 0c-12.05,0 -21.85,-9.81 -21.85,-21.86 0,-12.05 9.8,-21.85 21.85,-21.85 2.58,0 5.16,0.48 7.65,1.41zm-48.17 -0.61l13.52 0c-4.54,5.82 -7.28,13.12 -7.28,21.05 0,18.9 15.38,34.28 34.28,34.28l87.12 0c18.9,0 34.28,-15.38 34.28,-34.28 0,-16.88 -11.96,-30.78 -28.05,-33.69 -4.24,-20.97 -22.52,-36.22 -44.44,-36.22 -21.78,0 -40.02,15.28 -44.35,35.94 -1.51,-0.2 -3.03,-0.31 -4.56,-0.31 -2.51,0 -4.95,0.29 -7.31,0.81l-33.21 0c-3.43,0 -6.21,2.78 -6.21,6.21 0,3.43 2.78,6.21 6.21,6.21z"/>
   <path class="fil3" d="M2932.57 1975.51c0.01,0 0.02,0 0.03,0l0.73 0.04c2.67,0.11 4.98,-1.5 5.95,-3.93 4.31,-10.91 14.73,-17.96 26.54,-17.96 15.72,0 28.51,12.65 28.49,28.48l-0.04 0.64c-0.09,2.28 1.07,4.42 3.03,5.59 1.95,1.16 4.38,1.17 6.35,0.01 4.43,-2.63 9.48,-4.02 14.59,-4.02 15.72,0 28.51,12.65 28.51,28.19 0,15.54 -12.79,28.19 -28.51,28.19l-85.83 0c-18.19,0 -32.99,-14.64 -32.99,-32.63 0,-17.98 14.78,-32.6 33.15,-32.6zm-61.63 3.27l27.09 0c-6.85,7.89 -11.04,18.13 -11.04,29.33 0,7.4 1.84,14.37 5.04,20.54l-21.09 0c-3.43,0 -6.21,2.78 -6.21,6.21 0,3.43 2.78,6.21 6.21,6.21l22.86 0c2.11,0 3.96,-1.05 5.09,-2.67 8.31,9.05 20.24,14.76 33.52,14.76l85.83 0c22.57,0 40.93,-18.22 40.93,-40.61 0,-22.39 -18.36,-40.61 -40.93,-40.61 -4.18,0 -8.32,0.64 -12.29,1.89 -3.76,-18.56 -20.33,-32.59 -40.13,-32.59 -15.5,0 -29.33,8.47 -36.32,21.92 -4.93,0.31 -9.62,1.44 -14,3.19l-44.56 0c-3.43,0 -6.21,2.78 -6.21,6.21 0,3.44 2.78,6.22 6.21,6.22z"/>
   <path class="fil3" d="M2828.82 2003.41l45.72 0c3.43,0 6.22,-2.78 6.22,-6.21 0,-3.43 -2.79,-6.21 -6.22,-6.21l-45.72 0c-3.43,0 -6.21,2.78 -6.21,6.21 0,3.43 2.78,6.21 6.21,6.21z"/>
   <path class="fil3" d="M2842.93 2028.65c-3.43,0 -6.21,2.78 -6.21,6.21 0,3.43 2.78,6.21 6.21,6.21l4.8 0c3.43,0 6.21,-2.78 6.21,-6.21 0,-3.43 -2.78,-6.21 -6.21,-6.21l-4.8 0z"/>
   <path class="fil3" d="M2914.26 1953.66l4.8 0c3.43,0 6.21,-2.78 6.21,-6.21 0,-3.43 -2.78,-6.21 -6.21,-6.21l-4.8 0c-3.43,0 -6.22,2.78 -6.22,6.21 0,3.43 2.79,6.21 6.22,6.21z"/>
   <path class="fil3" d="M2112.83 2192.08c-3.43,0 -6.22,2.78 -6.22,6.21l0 5.9 -5.89 0c-3.43,0 -6.21,2.78 -6.21,6.21 0,3.43 2.78,6.21 6.21,6.21l5.89 0 0 5.9c0,3.43 2.79,6.21 6.22,6.21 3.43,0 6.21,-2.78 6.21,-6.21l0 -5.9 5.89 0c3.43,0 6.22,-2.78 6.22,-6.21 0,-3.43 -2.79,-6.21 -6.22,-6.21l-5.89 0 0 -5.9c0,-3.43 -2.78,-6.21 -6.21,-6.21z"/>
   <path class="fil3" d="M1243.08 2458.55c3.43,0 6.21,-2.78 6.21,-6.21l0 -5.89 5.89 0c3.43,0 6.21,-2.78 6.21,-6.22 0,-3.43 -2.78,-6.21 -6.21,-6.21l-5.89 0 0 -5.89c0,-3.43 -2.78,-6.22 -6.21,-6.22 -3.44,0 -6.22,2.79 -6.22,6.22l0 5.89 -5.89 0c-3.43,0 -6.22,2.78 -6.22,6.21 0,3.44 2.79,6.22 6.22,6.22l5.89 0 0 5.89c0,3.43 2.78,6.21 6.22,6.21z"/>
   <path class="fil3" d="M1591.35 2906.26l5.9 0 0 5.9c0,3.43 2.78,6.21 6.21,6.21 3.43,0 6.21,-2.78 6.21,-6.21l0 -5.9 5.89 0c3.44,0 6.22,-2.78 6.22,-6.21 0,-3.43 -2.78,-6.21 -6.22,-6.21l-5.89 0 0 -5.9c0,-3.43 -2.78,-6.21 -6.21,-6.21 -3.43,0 -6.21,2.78 -6.21,6.21l0 5.9 -5.9 0c-3.43,0 -6.21,2.78 -6.21,6.21 0,3.43 2.78,6.21 6.21,6.21z"/>
   <path class="fil3" d="M1728.83 1856.01l1.24 0 0 1.25c0,3.43 2.78,6.21 6.21,6.21 3.44,0 6.22,-2.78 6.22,-6.21l0 -1.25 1.25 0c3.43,0 6.21,-2.77 6.21,-6.21 0,-3.43 -2.78,-6.21 -6.21,-6.21l-1.25 0 0 -1.25c0,-3.43 -2.78,-6.21 -6.22,-6.21 -3.43,0 -6.21,2.78 -6.21,6.21l0 1.25 -1.24 0c-3.43,0 -6.21,2.78 -6.21,6.21 0,3.44 2.78,6.21 6.21,6.21z"/>
   <path class="fil3" d="M605.12 2869.55l1.24 0 0 1.24c0,3.43 2.78,6.22 6.21,6.22 3.43,0 6.21,-2.79 6.21,-6.22l0 -1.24 1.25 0c3.44,0 6.22,-2.79 6.22,-6.22 0,-3.43 -2.78,-6.21 -6.22,-6.21l-1.25 0 0 -1.25c0,-3.43 -2.78,-6.21 -6.21,-6.21 -3.43,0 -6.21,2.78 -6.21,6.21l0 1.25 -1.24 0c-3.44,0 -6.22,2.78 -6.22,6.21 0,3.43 2.78,6.22 6.22,6.22z"/>
   <path class="fil3" d="M2101.32 2711.45c3.43,0 6.22,-2.78 6.22,-6.21l0 -1.25 1.25 0c3.43,0 6.21,-2.78 6.21,-6.21 0,-3.43 -2.78,-6.21 -6.21,-6.21l-1.25 0 0 -1.25c0,-3.43 -2.79,-6.22 -6.22,-6.22 -3.43,0 -6.21,2.79 -6.21,6.22l0 1.25 -1.25 0c-3.43,0 -6.21,2.78 -6.21,6.21 0,3.43 2.78,6.21 6.21,6.21l1.25 0 0 1.25c0,3.43 2.78,6.21 6.21,6.21z"/>
   <path class="fil3" d="M3215.84 2583.89l-1.24 0 0 -1.25c0,-3.43 -2.79,-6.21 -6.22,-6.21 -3.43,0 -6.21,2.78 -6.21,6.21l0 1.25 -1.25 0c-3.43,0 -6.21,2.78 -6.21,6.21 0,3.43 2.78,6.21 6.21,6.21l1.25 0 0 1.25c0,3.43 2.78,6.21 6.21,6.21 3.43,0 6.22,-2.78 6.22,-6.21l0 -1.25 1.24 0c3.43,0 6.21,-2.78 6.21,-6.21 0,-3.43 -2.78,-6.21 -6.21,-6.21z"/>
   <path class="fil3" d="M2128.68 3212.37l-47.07 0c-13.15,0 -23.85,-10.7 -23.85,-23.84 0,-8 3.99,-15.43 10.66,-19.86 2,-1.34 3.05,-3.7 2.7,-6.07 -0.23,-1.59 -0.33,-2.9 -0.33,-4.14 0,-16.14 13.13,-29.27 29.26,-29.27 16.14,0 29.27,13.13 29.27,29.27 0,4.44 -1,8.74 -2.98,12.79 -0.87,1.78 -0.84,3.87 0.09,5.63 0.92,1.75 2.63,2.96 4.6,3.25 7.9,1.15 13.87,8.04 13.87,16.02 0,8.94 -7.28,16.22 -16.22,16.22zm11.45 -42.44c1.08,-3.72 1.62,-7.55 1.62,-11.47 0,-22.99 -18.71,-41.69 -41.7,-41.69 -22.98,0 -41.69,18.7 -41.69,41.69 0,0.71 0.03,1.42 0.07,2.16 -8.26,6.86 -13.09,17.04 -13.09,27.91 0,20 16.27,36.27 36.27,36.27l13.51 0 0 27.18c0,3.43 2.78,6.21 6.21,6.21 3.43,0 6.21,-2.78 6.21,-6.21l0 -27.18 21.14 0c15.79,0 28.64,-12.85 28.64,-28.65 0,-11.52 -7.02,-21.75 -17.19,-26.22z"/>
   <path class="fil3" d="M1603.51 3220.02l-31.58 0c-8.4,0 -15.22,-6.82 -15.22,-15.22 0,-5.81 3.3,-11.04 8.61,-13.62 1.67,-0.82 2.89,-2.33 3.32,-4.14 0.44,-1.81 0.04,-3.71 -1.08,-5.2 -3.57,-4.72 -5.46,-10.32 -5.46,-16.18 0,-14.85 12.08,-26.93 26.92,-26.93 14.85,0 26.93,12.08 26.93,26.93 0,2.81 -0.45,5.61 -1.33,8.31 -0.82,2.51 0.04,5.26 2.13,6.86 5.47,4.18 8.61,10.5 8.61,17.34 0,12.05 -9.8,21.85 -21.85,21.85zm24.86 -54.36c0,-21.7 -17.65,-39.35 -39.35,-39.35 -21.69,0 -39.35,17.65 -39.35,39.35 0,6.37 1.52,12.51 4.43,18.08 -6.17,5.17 -9.82,12.78 -9.82,21.06 0,15.25 12.4,27.65 27.65,27.65l13.09 0 0 23.3c0,3.43 2.79,6.21 6.21,6.21 3.44,0 6.22,-2.78 6.22,-6.21l0 -23.3 6.06 0c18.9,0 34.27,-15.38 34.27,-34.28 0,-9.3 -3.69,-18 -10.26,-24.42 0.57,-2.66 0.85,-5.38 0.85,-8.09z"/>
   <path class="fil3" d="M3192.69 3227.93l-23.12 0c-7.9,0 -14.32,-6.43 -14.32,-14.33 0,-4.48 2.05,-8.63 5.64,-11.37 2.09,-1.6 2.95,-4.34 2.13,-6.85 -0.58,-1.83 -0.89,-3.7 -0.89,-5.58 0,-9.94 8.1,-18.04 18.05,-18.04 9.94,0 18.04,8.1 18.04,18.04 0,3.93 -1.26,7.68 -3.65,10.84 -1.13,1.49 -1.53,3.39 -1.09,5.2 0.43,1.81 1.64,3.33 3.32,4.14 3.31,1.61 5.37,4.86 5.37,8.48 0,5.22 -4.25,9.47 -9.48,9.47zm17.95 -38.13c0,-16.8 -13.66,-30.46 -30.46,-30.46 -16.8,0 -30.47,13.66 -30.47,30.46 0,1.8 0.16,3.6 0.48,5.38 -4.72,4.94 -7.37,11.46 -7.37,18.42 0,14.76 12,26.75 26.75,26.75l2.77 0 0 15.4c0,3.43 2.79,6.21 6.22,6.21 3.43,0 6.21,-2.78 6.21,-6.21l0 -15.4 7.92 0c12.08,0 21.91,-9.82 21.91,-21.89 0,-6.12 -2.51,-11.76 -6.8,-15.82 1.87,-3.99 2.84,-8.34 2.84,-12.84z"/>
   <path class="fil3" d="M616.5 3221.57c-3.19,3.54 -7.57,5.61 -12.32,5.85 -3.85,0.19 -13.58,0.11 -19.91,0.06l-5.02 -0.04c-6.4,0 -11.6,-5.2 -11.6,-11.6 0,-6.37 5.18,-11.57 11.55,-11.6 2.03,-0.01 3.93,-1.01 5.09,-2.68 1.15,-1.68 1.41,-3.81 0.7,-5.72 -0.5,-1.32 -0.75,-2.68 -0.75,-4.03 0,-6.4 5.21,-11.61 11.61,-11.61 5.41,0 10.05,3.68 11.28,8.95 0.44,1.88 1.72,3.45 3.48,4.25 6.13,2.78 10.14,8.65 10.48,15.33 0.23,4.75 -1.39,9.32 -4.59,12.84zm1.86 -38.15c-3.45,-9.35 -12.32,-15.65 -22.51,-15.65 -13.25,0 -24.04,10.78 -24.04,24.04 0,0.39 0.01,0.78 0.03,1.18 -9.63,3.13 -16.62,12.21 -16.62,22.85 0,13.25 10.78,24.03 24.03,24.03l4.92 0.03c1.22,0.02 2.59,0.03 3.99,0.04l0 17.15c0,3.43 2.78,6.22 6.22,6.22 3.43,0 6.21,-2.79 6.21,-6.22l0 -17.15c1.7,-0.02 3.17,-0.06 4.21,-0.11 8.07,-0.4 15.5,-3.92 20.92,-9.92 5.42,-5.99 8.18,-13.73 7.78,-21.8 -0.52,-10.37 -6.24,-19.58 -15.14,-24.69z"/>
   <path class="fil3" d="M2480.88 3207.5c-5.13,5.67 -12.16,9 -19.8,9.38 -2.3,0.12 -6.51,0.18 -12.5,0.18 -5.59,0 -11.71,-0.06 -16.52,-0.09 -3.13,-0.03 -5.71,-0.05 -7.23,-0.05 -10.82,0 -19.61,-8.79 -19.61,-19.61 0,-10.75 8.76,-19.55 19.52,-19.6 2.04,0 3.94,-1.01 5.09,-2.68 1.15,-1.68 1.41,-3.81 0.7,-5.72 -0.84,-2.23 -1.27,-4.53 -1.27,-6.83 0,-10.81 8.8,-19.6 19.61,-19.6 9.15,0 16.99,6.22 19.07,15.12 0.43,1.88 1.72,3.45 3.48,4.25 9.83,4.46 16.27,13.89 16.82,24.62 0.38,7.64 -2.23,14.96 -7.36,20.63zm-1.67 -55.25c-4.33,-12.97 -16.41,-21.8 -30.34,-21.8 -17.66,0 -32.04,14.37 -32.04,32.03 0,1.26 0.08,2.51 0.23,3.77 -13.91,3.48 -24.27,16.11 -24.27,31.06 0,17.67 14.37,32.04 32.04,32.04 1.5,0 4.04,0.02 7.13,0.04 2.57,0.02 5.53,0.04 8.57,0.06l0 27.64c0,3.43 2.78,6.22 6.21,6.22 3.43,0 6.22,-2.79 6.22,-6.22l0 -27.62c3.96,-0.03 6.85,-0.08 8.75,-0.18 10.95,-0.55 21.03,-5.32 28.38,-13.46 7.36,-8.13 11.11,-18.63 10.56,-29.58 -0.73,-14.42 -8.86,-27.19 -21.44,-34z"/>
   <path class="fil3" d="M2831.06 3061.59c-2.28,0 -4.14,-1.86 -4.14,-4.14 0,-2.29 1.86,-4.15 4.14,-4.15 2.29,0 4.15,1.86 4.15,4.15 0,2.28 -1.86,4.14 -4.15,4.14zm0 -20.71c-9.13,0 -16.56,7.43 -16.56,16.57 0,9.13 7.43,16.56 16.56,16.56 9.14,0 16.57,-7.43 16.57,-16.56 0,-9.14 -7.43,-16.57 -16.57,-16.57z"/>
   <path class="fil3" d="M2831.06 2612c6.67,0 12.09,5.42 12.09,12.09 0,6.66 -5.42,12.08 -12.09,12.08 -6.66,0 -12.08,-5.42 -12.08,-12.08 0,-6.67 5.42,-12.09 12.08,-12.09zm0 36.6c13.52,0 24.52,-11 24.52,-24.51 0,-13.52 -11,-24.52 -24.52,-24.52 -13.51,0 -24.51,11 -24.51,24.52 0,13.51 11,24.51 24.51,24.51z"/>
   <path class="fil3" d="M2883.87 3022.24l0 80.47 -30.48 -80.47 30.48 0zm45.05 0l0 79.88 -10.48 -28.2c-0.03,-0.07 -0.08,-0.13 -0.11,-0.2 -0.08,-0.2 -0.18,-0.39 -0.28,-0.58 -0.09,-0.17 -0.19,-0.35 -0.3,-0.51 -0.11,-0.17 -0.24,-0.33 -0.37,-0.48 -0.13,-0.15 -0.24,-0.3 -0.38,-0.44 -0.15,-0.16 -0.32,-0.29 -0.49,-0.43 -0.14,-0.11 -0.28,-0.23 -0.43,-0.33 -0.18,-0.12 -0.38,-0.23 -0.58,-0.33 -0.16,-0.09 -0.32,-0.17 -0.49,-0.25 -0.08,-0.03 -0.15,-0.08 -0.24,-0.11 -0.12,-0.05 -0.26,-0.06 -0.39,-0.1 -0.18,-0.06 -0.36,-0.1 -0.55,-0.14 -0.21,-0.05 -0.42,-0.07 -0.63,-0.09 -0.2,-0.02 -0.39,-0.03 -0.59,-0.04 -0.2,0.01 -0.4,0.02 -0.59,0.04 -0.22,0.02 -0.42,0.04 -0.63,0.08 -0.19,0.05 -0.37,0.09 -0.55,0.15 -0.14,0.04 -0.27,0.05 -0.39,0.1 -0.09,0.03 -0.15,0.08 -0.24,0.11 -0.17,0.08 -0.34,0.17 -0.5,0.26 -0.2,0.1 -0.39,0.2 -0.57,0.32 -0.15,0.1 -0.29,0.22 -0.44,0.34 -0.16,0.14 -0.33,0.26 -0.48,0.42 -0.13,0.14 -0.26,0.29 -0.38,0.44 -0.13,0.16 -0.26,0.31 -0.38,0.48 -0.1,0.16 -0.2,0.34 -0.29,0.51 -0.11,0.19 -0.2,0.38 -0.29,0.58 -0.02,0.07 -0.07,0.13 -0.1,0.2l-10.48 28.2 0 -79.88 32.62 0zm31.06 228.83l-18.63 0 0 -228.83 18.63 0 0 228.83zm96.83 -139.72l-36.7 -70.24c0,-0.01 -0.01,-0.02 -0.01,-0.03 -0.17,-0.31 -0.37,-0.61 -0.59,-0.89 -0.04,-0.04 -0.06,-0.09 -0.1,-0.14 -0.14,-0.17 -0.32,-0.33 -0.48,-0.48 -0.13,-0.14 -0.24,-0.28 -0.38,-0.39 -0.07,-0.05 -0.14,-0.09 -0.2,-0.13 -0.27,-0.21 -0.55,-0.4 -0.84,-0.55 -0.01,-0.01 -0.02,-0.02 -0.02,-0.02 -0.11,-0.06 -0.22,-0.08 -0.33,-0.13 -0.25,-0.12 -0.51,-0.23 -0.77,-0.31 -0.19,-0.06 -0.38,-0.08 -0.57,-0.12 -0.2,-0.04 -0.4,-0.09 -0.61,-0.11 -0.19,-0.02 -0.38,-0.01 -0.58,-0.01 -0.21,0 -0.42,-0.01 -0.63,0.01 -0.19,0.02 -0.36,0.06 -0.55,0.1 -0.21,0.04 -0.43,0.07 -0.63,0.13 -0.23,0.07 -0.44,0.17 -0.66,0.27 -0.14,0.06 -0.29,0.1 -0.43,0.17 -0.01,0.01 -0.02,0.02 -0.04,0.03 -0.23,0.12 -0.45,0.28 -0.67,0.43 -0.11,0.09 -0.24,0.15 -0.36,0.25 -0.07,0.06 -0.13,0.14 -0.21,0.21 -0.23,0.2 -0.46,0.41 -0.65,0.65 -0.03,0.03 -0.04,0.06 -0.06,0.09 -0.24,0.3 -0.44,0.61 -0.62,0.94 -0.01,0.01 -0.01,0.02 -0.02,0.03l-36.69 70.24 0 -89.11 84.4 0 0 89.11zm31.06 139.72l-18.64 0 0 -228.83 18.64 0 0 228.83zm-73.26 -133.19c4.61,1.9 17.99,9.45 17.99,32.76l0 100.43 -35.98 0 0 -100.43c0,-23.28 13.33,-30.83 17.99,-32.76zm-42.2 20.29l42.2 -80.77 42.2 80.77 0 112.9 -11.78 0 0 -100.43c0,-29.48 -18.2,-42.31 -28.31,-45.19 -0.03,-0.01 -0.07,-0.02 -0.1,-0.03 -0.15,-0.05 -0.32,-0.11 -0.47,-0.15 -0.08,-0.02 -0.17,-0.02 -0.26,-0.04 -0.23,-0.05 -0.46,-0.08 -0.7,-0.1 -0.2,-0.02 -0.39,-0.03 -0.59,-0.03 -0.19,0 -0.38,0.01 -0.57,0.03 -0.25,0.02 -0.49,0.05 -0.72,0.11 -0.09,0.01 -0.17,0.01 -0.25,0.03 -0.14,0.04 -0.29,0.09 -0.43,0.14 -0.05,0.01 -0.1,0.03 -0.15,0.04 -10.12,2.89 -28.29,15.73 -28.29,45.19l0 100.43 -11.78 0 0 -112.9zm-76.11 -0.39l16.31 -43.86 16.31 43.86 0 113.29 -32.62 0 0 -113.29zm-163.09 0l16.31 -43.86 16.31 43.86 0 113.29 -32.62 0 0 -113.29zm-31.07 -115.54l18.64 0 0 228.83 -18.64 0 0 -228.83zm-54.61 95.64c4.6,1.9 17.98,9.45 17.98,32.76l0 100.43 -35.98 0 0 -100.43c0,-23.28 13.33,-30.83 18,-32.76zm-42.21 20.29l42.2 -80.77 42.2 80.77 0 112.9 -11.78 0 0 -100.43c0,-29.48 -18.2,-42.31 -28.31,-45.19 -0.03,-0.01 -0.07,-0.02 -0.1,-0.03 -0.15,-0.05 -0.32,-0.11 -0.47,-0.15 -0.08,-0.02 -0.17,-0.02 -0.25,-0.04 -0.24,-0.05 -0.47,-0.08 -0.71,-0.1 -0.2,-0.02 -0.39,-0.03 -0.59,-0.03 -0.19,0 -0.37,0.01 -0.57,0.03 -0.25,0.02 -0.49,0.05 -0.72,0.11 -0.09,0.01 -0.16,0.01 -0.25,0.03 -0.13,0.04 -0.29,0.09 -0.43,0.14 -0.05,0.01 -0.1,0.03 -0.15,0.04 -10.12,2.89 -28.29,15.73 -28.29,45.19l0 100.43 -11.78 0 0 -112.9zm-31.06 -115.93l18.64 0 0 228.83 -18.64 0 0 -228.83zm115.46 89.11l-36.7 -70.24c0,-0.01 -0.01,-0.02 -0.01,-0.03 -0.17,-0.31 -0.37,-0.61 -0.59,-0.89 -0.04,-0.04 -0.06,-0.09 -0.1,-0.14 -0.14,-0.17 -0.32,-0.33 -0.48,-0.48 -0.13,-0.14 -0.24,-0.28 -0.38,-0.39 -0.07,-0.05 -0.14,-0.09 -0.2,-0.13 -0.27,-0.21 -0.54,-0.4 -0.84,-0.55 -0.01,-0.01 -0.02,-0.02 -0.02,-0.02 -0.11,-0.06 -0.22,-0.08 -0.33,-0.13 -0.25,-0.12 -0.51,-0.23 -0.77,-0.31 -0.19,-0.06 -0.38,-0.08 -0.57,-0.12 -0.2,-0.04 -0.4,-0.09 -0.61,-0.11 -0.19,-0.02 -0.38,-0.01 -0.58,-0.01 -0.21,0 -0.42,-0.01 -0.63,0.01 -0.18,0.02 -0.36,0.06 -0.54,0.1 -0.22,0.04 -0.43,0.07 -0.64,0.13 -0.23,0.07 -0.44,0.17 -0.66,0.27 -0.14,0.06 -0.29,0.1 -0.43,0.17 -0.01,0.01 -0.02,0.02 -0.03,0.03 -0.24,0.12 -0.46,0.28 -0.68,0.43 -0.11,0.09 -0.24,0.15 -0.36,0.25 -0.07,0.06 -0.13,0.14 -0.21,0.21 -0.22,0.2 -0.46,0.41 -0.65,0.65 -0.03,0.03 -0.04,0.06 -0.06,0.09 -0.24,0.3 -0.44,0.61 -0.62,0.94 0,0.01 -0.01,0.02 -0.02,0.03l-36.69 70.24 0 -89.11 84.4 0 0 89.11zm76.11 -9.23l-10.49 -28.2c-0.03,-0.07 -0.07,-0.13 -0.1,-0.2 -0.08,-0.2 -0.18,-0.39 -0.28,-0.58 -0.1,-0.17 -0.19,-0.35 -0.3,-0.51 -0.11,-0.17 -0.24,-0.33 -0.37,-0.48 -0.13,-0.15 -0.25,-0.3 -0.38,-0.44 -0.16,-0.16 -0.32,-0.29 -0.5,-0.43 -0.13,-0.11 -0.27,-0.23 -0.42,-0.33 -0.19,-0.12 -0.38,-0.23 -0.58,-0.33 -0.16,-0.09 -0.33,-0.17 -0.5,-0.25 -0.07,-0.03 -0.14,-0.08 -0.23,-0.11 -0.13,-0.05 -0.26,-0.06 -0.4,-0.1 -0.17,-0.06 -0.36,-0.1 -0.54,-0.14 -0.21,-0.05 -0.42,-0.07 -0.63,-0.09 -0.2,-0.02 -0.4,-0.03 -0.59,-0.04 -0.2,0.01 -0.4,0.02 -0.6,0.04 -0.21,0.02 -0.42,0.04 -0.63,0.08 -0.18,0.05 -0.36,0.09 -0.55,0.15 -0.13,0.04 -0.26,0.05 -0.39,0.1 -0.08,0.03 -0.15,0.08 -0.23,0.11 -0.17,0.08 -0.34,0.17 -0.5,0.26 -0.2,0.1 -0.39,0.2 -0.57,0.32 -0.15,0.1 -0.3,0.22 -0.44,0.34 -0.17,0.14 -0.33,0.26 -0.48,0.42 -0.14,0.14 -0.26,0.29 -0.39,0.44 -0.12,0.16 -0.26,0.31 -0.37,0.48 -0.11,0.16 -0.2,0.34 -0.3,0.51 -0.1,0.19 -0.2,0.38 -0.28,0.58 -0.02,0.07 -0.07,0.13 -0.1,0.2l-10.48 28.2 0 -79.88 32.62 0 0 79.88zm12.42 0.59l0 -80.47 30.48 0 -30.48 80.47zm52.81 148.36l-23.3 0 0 -114.41c0,-23.96 16.84,-35.73 23.3,-39.37 6.47,3.64 23.3,15.42 23.3,39.37l0 114.41 -23.3 0zm52.81 -113.28l0 113.28 -17.08 0 0 -114.41c0,-37.33 -31.92,-51.47 -33.27,-52.05 -0.02,0 -0.04,0 -0.05,-0.01 -0.29,-0.13 -0.6,-0.21 -0.91,-0.29 -0.09,-0.03 -0.18,-0.06 -0.27,-0.08 -0.29,-0.05 -0.57,-0.08 -0.86,-0.09 -0.12,-0.01 -0.23,-0.03 -0.35,-0.03 -0.24,0 -0.48,0.04 -0.72,0.07 -0.16,0.01 -0.32,0.01 -0.47,0.04 -0.2,0.05 -0.39,0.12 -0.59,0.17 -0.2,0.07 -0.4,0.11 -0.59,0.19 -0.03,0.02 -0.06,0.02 -0.1,0.03 -1.36,0.58 -33.27,14.72 -33.27,52.05l0 114.41 -17.09 0 0 -113.28 52.81 -139.44 52.81 139.44zm-128.14 -148.69l0 -124.26c0,-56.57 64.12,-78.2 75.2,-81.52 11.09,3.29 75.21,24.81 75.21,81.52l0 124.26 -65.3 0 -3.97 -10.48c-0.02,-0.06 -0.06,-0.11 -0.08,-0.16 -0.08,-0.21 -0.19,-0.41 -0.3,-0.61 -0.09,-0.16 -0.17,-0.33 -0.28,-0.48 -0.11,-0.17 -0.25,-0.33 -0.37,-0.49 -0.13,-0.15 -0.25,-0.31 -0.39,-0.45 -0.14,-0.13 -0.3,-0.25 -0.45,-0.38 -0.16,-0.14 -0.32,-0.27 -0.49,-0.38 -0.15,-0.1 -0.31,-0.19 -0.48,-0.28 -0.2,-0.11 -0.4,-0.21 -0.61,-0.3 -0.06,-0.02 -0.1,-0.06 -0.16,-0.08 -0.11,-0.04 -0.23,-0.06 -0.34,-0.09 -0.22,-0.07 -0.44,-0.14 -0.67,-0.18 -0.18,-0.04 -0.37,-0.05 -0.55,-0.08 -0.22,-0.02 -0.43,-0.04 -0.65,-0.03 -0.19,0 -0.39,0.01 -0.58,0.03 -0.21,0.02 -0.4,0.04 -0.61,0.08 -0.21,0.04 -0.42,0.11 -0.62,0.17 -0.12,0.04 -0.25,0.05 -0.38,0.1 -0.06,0.03 -0.11,0.06 -0.17,0.08 -0.19,0.09 -0.38,0.19 -0.57,0.29 -0.18,0.1 -0.35,0.18 -0.51,0.29 -0.17,0.11 -0.31,0.24 -0.46,0.37 -0.17,0.12 -0.33,0.25 -0.48,0.4 -0.13,0.13 -0.24,0.29 -0.37,0.44 -0.14,0.16 -0.27,0.31 -0.39,0.49 -0.1,0.15 -0.18,0.31 -0.27,0.47 -0.11,0.21 -0.22,0.41 -0.31,0.62 -0.02,0.05 -0.06,0.1 -0.08,0.16l-3.97 10.48 -65.55 0zm-38.05 -212.28l0 -257.06 12.81 -50.57 12.81 50.57 0 469.34 -25.62 0 0 -212.28zm-65.43 49.71c0,-9.41 2.81,-13.7 4.79,-15.56 1.92,1.84 4.77,6.15 4.77,15.56l0 162.57 -9.56 0 0 -162.57zm-43.43 -43.49l96.43 0 0 206.06 -31.01 0 0 -162.57c0,-22.22 -12.63,-27.75 -15.1,-28.62 -0.1,-0.04 -0.19,-0.07 -0.29,-0.1 -0.04,-0.02 -0.11,-0.04 -0.13,-0.04 -0.09,-0.03 -0.17,-0.03 -0.25,-0.05 -0.28,-0.07 -0.56,-0.12 -0.85,-0.15 -0.19,-0.02 -0.38,-0.01 -0.56,-0.01 -0.21,0 -0.41,-0.01 -0.62,0.01 -0.27,0.03 -0.52,0.08 -0.77,0.14 -0.11,0.03 -0.22,0.03 -0.33,0.06 -0.02,0.01 -0.1,0.03 -0.17,0.05 -0.06,0.02 -0.11,0.04 -0.17,0.06 -2.29,0.78 -15.17,6.21 -15.17,28.65l0 162.57 -31.01 0 0 -206.06zm-38.06 -263.28l12.82 -50.57 12.81 50.57 0 469.34 -25.63 0 0 -469.34zm38.06 198.04l96.43 0 0 52.81 -96.43 0 0 -52.81zm43.43 -12.43l0 -162.57c0,-9.41 2.81,-13.7 4.79,-15.56 1.92,1.84 4.77,6.15 4.77,15.56l0 162.57 -9.56 0zm-14.8 -236.09l39.17 0 28.63 76.37 0 159.72 -31.01 0 0 -162.57c0,-22.22 -12.63,-27.75 -15.1,-28.62 -0.1,-0.04 -0.19,-0.07 -0.29,-0.1 -0.04,-0.01 -0.11,-0.04 -0.13,-0.04 -0.09,-0.03 -0.18,-0.03 -0.26,-0.05 -0.27,-0.07 -0.55,-0.12 -0.84,-0.15 -0.2,-0.02 -0.4,-0.01 -0.6,-0.01 -0.19,0 -0.38,-0.01 -0.57,0.01 -0.28,0.03 -0.55,0.08 -0.83,0.15 -0.09,0.02 -0.19,0.02 -0.28,0.05 -0.02,0.01 -0.09,0.03 -0.15,0.05 -0.07,0.02 -0.14,0.04 -0.21,0.07 -2.35,0.81 -15.15,6.27 -15.15,28.64l0 162.57 -31.01 0 0 -159.72 28.63 -76.37zm19.58 -174.94l17.68 105.73 0 56.78 -35.35 0 0 -56.78 17.67 -105.73zm156.45 413.59c-5.42,13.33 -12.99,26.66 -23.19,34.16 -10.18,-7.5 -17.75,-20.82 -23.17,-34.16l46.36 0zm17.45 -185.81l63.87 173.38 -50.9 0c-3.86,-11.95 -5.96,-22.27 -6.68,-26.1 0.32,-3.25 -1.91,-6.22 -5.17,-6.75 -0.28,-0.04 -0.55,-0.04 -0.83,-0.05 -0.09,0 -0.17,-0.01 -0.27,-0.01 -0.13,0 -0.26,0.01 -0.39,0.02 -0.25,0.01 -0.49,0.01 -0.74,0.05 -3.26,0.52 -5.49,3.48 -5.18,6.73 -0.7,3.82 -2.8,14.15 -6.66,26.11l-50.91 0 63.86 -173.38zm40.65 219.97c-10.18,-7.5 -17.75,-20.82 -23.17,-34.16l46.36 0c-5.42,13.33 -13,26.66 -23.19,34.16zm193.9 247.01l0 -469.34 12.81 -50.57 12.82 50.57 0 469.34 -25.63 0zm-65.42 -162.57c0,-9.41 2.81,-13.7 4.79,-15.56 1.92,1.84 4.77,6.15 4.77,15.56l0 162.57 -9.56 0 0 -162.57zm-43.44 -43.49l96.43 0 0 206.06 -31.01 0 0 -162.57c0,-22.25 -12.66,-27.77 -15.11,-28.62 -0.09,-0.04 -0.17,-0.07 -0.27,-0.1 -0.04,-0.02 -0.11,-0.04 -0.14,-0.04 -0.08,-0.03 -0.17,-0.03 -0.26,-0.05 -0.27,-0.07 -0.55,-0.12 -0.83,-0.15 -0.19,-0.02 -0.38,-0.01 -0.57,-0.01 -0.2,0 -0.41,-0.01 -0.62,0.01 -0.25,0.03 -0.5,0.08 -0.75,0.14 -0.12,0.02 -0.23,0.03 -0.34,0.06 -0.03,0.01 -0.11,0.03 -0.18,0.05 -0.05,0.02 -0.09,0.03 -0.14,0.05 -2.24,0.77 -15.2,6.17 -15.2,28.66l0 162.57 -31.01 0 0 -206.06zm43.44 -240.24c0,-9.41 2.81,-13.7 4.79,-15.56 1.92,1.84 4.77,6.15 4.77,15.56l0 162.57 -9.56 0 0 -162.57zm-43.44 175l96.43 0 0 52.81 -96.43 0 0 -52.81zm28.63 -248.52l39.16 0 28.64 76.37 0 159.72 -31.01 0 0 -162.57c0,-22.25 -12.66,-27.77 -15.11,-28.62 -0.09,-0.04 -0.17,-0.07 -0.27,-0.1 -0.04,-0.01 -0.11,-0.04 -0.14,-0.04 -0.08,-0.03 -0.17,-0.03 -0.26,-0.05 -0.28,-0.07 -0.55,-0.12 -0.83,-0.15 -0.2,-0.02 -0.4,-0.01 -0.6,-0.01 -0.19,0 -0.38,-0.01 -0.57,0.01 -0.28,0.03 -0.55,0.08 -0.81,0.15 -0.1,0.02 -0.2,0.02 -0.3,0.05 -0.03,0.01 -0.1,0.03 -0.16,0.05 -0.06,0.02 -0.12,0.04 -0.18,0.06 -2.3,0.79 -15.18,6.22 -15.18,28.65l0 162.57 -31.01 0 0 -159.72 28.63 -76.37zm19.59 -174.94l17.67 105.73 0 56.78 -35.35 0 0 -56.78 17.68 -105.73zm-86.28 570.5l0 -345.08 12.82 -50.57 12.81 50.57 0 469.34 -25.63 0 0 -124.26zm-85.11 -93.73c-0.69,-0.28 -1.43,-0.44 -2.19,-0.47 -0.11,0 -0.22,-0.01 -0.33,-0.01 -0.11,0 -0.21,0.01 -0.32,0.01 -0.76,0.03 -1.51,0.19 -2.19,0.47 -7.52,2.18 -50.94,16.02 -72.69,50.49l0 -108.74c6.85,16.6 16.97,33.6 31.42,42.06 0.02,0.01 0.04,0.01 0.05,0.02 0.33,0.2 0.7,0.32 1.06,0.44 0.15,0.05 0.29,0.14 0.45,0.18 0.37,0.1 0.75,0.12 1.12,0.15 0.16,0.01 0.31,0.06 0.46,0.06l0 0c0.15,0 0.3,-0.05 0.45,-0.06 0.38,-0.03 0.76,-0.05 1.13,-0.15 0.16,-0.04 0.3,-0.13 0.45,-0.18 0.36,-0.12 0.72,-0.24 1.06,-0.44 0.01,-0.01 0.03,-0.01 0.05,-0.02 19.57,-11.45 31.2,-38.55 37.5,-59.14 6.31,20.59 17.94,47.69 37.51,59.14 0.01,0.01 0.04,0.01 0.05,0.02 0.33,0.2 0.7,0.32 1.06,0.44 0.15,0.05 0.29,0.14 0.44,0.18 0.37,0.1 0.75,0.12 1.13,0.15 0.16,0.01 0.3,0.06 0.45,0.06l0.01 0c0.15,0 0.3,-0.05 0.45,-0.06 0.38,-0.03 0.76,-0.05 1.13,-0.15 0.15,-0.04 0.29,-0.13 0.45,-0.18 0.36,-0.12 0.72,-0.24 1.05,-0.44 0.02,-0.01 0.04,-0.01 0.06,-0.02 14.45,-8.46 24.57,-25.46 31.42,-42.06l0 108.74c-21.75,-34.47 -65.18,-48.32 -72.69,-50.49zm78.9 230.42l188.98 0c3.43,0 6.22,-2.78 6.22,-6.21 0,-2.66 -1.68,-4.91 -4.02,-5.79l0 -470.55c0,-0.04 -0.01,-0.09 -0.01,-0.13 -0.01,-0.21 -0.04,-0.42 -0.06,-0.63 -0.03,-0.21 -0.05,-0.43 -0.1,-0.63 -0.01,-0.05 -0.01,-0.09 -0.02,-0.13l-19.03 -75.08c-0.02,-0.1 -0.06,-0.18 -0.09,-0.27 -0.07,-0.21 -0.14,-0.41 -0.23,-0.61 -0.07,-0.18 -0.15,-0.36 -0.25,-0.53 -0.1,-0.18 -0.21,-0.36 -0.32,-0.53 -0.11,-0.16 -0.21,-0.31 -0.33,-0.46 -0.15,-0.17 -0.3,-0.33 -0.46,-0.48 -0.12,-0.12 -0.24,-0.24 -0.37,-0.34 -0.18,-0.16 -0.38,-0.3 -0.58,-0.43 -0.13,-0.09 -0.26,-0.17 -0.4,-0.25 -0.21,-0.11 -0.42,-0.21 -0.65,-0.3 -0.16,-0.06 -0.32,-0.13 -0.49,-0.18 -0.12,-0.03 -0.21,-0.09 -0.33,-0.12 -0.1,-0.02 -0.21,-0.02 -0.32,-0.05 -0.19,-0.03 -0.38,-0.06 -0.57,-0.08 -0.22,-0.02 -0.42,-0.04 -0.63,-0.03 -0.2,-0.01 -0.41,0.01 -0.62,0.03 -0.19,0.02 -0.39,0.05 -0.58,0.08 -0.1,0.03 -0.21,0.03 -0.32,0.05 -0.12,0.03 -0.22,0.09 -0.33,0.12 -0.16,0.05 -0.32,0.11 -0.48,0.18 -0.23,0.09 -0.45,0.19 -0.66,0.31 -0.14,0.07 -0.26,0.15 -0.39,0.24 -0.21,0.13 -0.41,0.27 -0.6,0.43 -0.12,0.1 -0.23,0.22 -0.35,0.33 -0.16,0.16 -0.32,0.32 -0.47,0.5 -0.11,0.14 -0.22,0.29 -0.32,0.45 -0.12,0.17 -0.23,0.35 -0.33,0.53 -0.1,0.17 -0.17,0.35 -0.25,0.53 -0.09,0.19 -0.16,0.4 -0.22,0.61 -0.03,0.09 -0.08,0.17 -0.1,0.27l-18.02 71.08 -19.31 -51.53 0 -62.38c0,-0.17 -0.04,-0.34 -0.06,-0.51 -0.01,-0.17 0,-0.34 -0.03,-0.51l-23.89 -142.9c-0.01,-0.07 -0.03,-0.13 -0.05,-0.19 -0.04,-0.24 -0.11,-0.46 -0.19,-0.68 -0.05,-0.17 -0.1,-0.34 -0.16,-0.5 -0.1,-0.21 -0.2,-0.41 -0.31,-0.61 -0.09,-0.15 -0.17,-0.31 -0.27,-0.45 -0.12,-0.19 -0.27,-0.36 -0.42,-0.54 -0.11,-0.13 -0.21,-0.26 -0.33,-0.38 -0.16,-0.16 -0.34,-0.3 -0.52,-0.45 -0.13,-0.11 -0.26,-0.22 -0.4,-0.31 -0.17,-0.12 -0.36,-0.22 -0.54,-0.32 -0.18,-0.09 -0.36,-0.19 -0.55,-0.27 -0.15,-0.07 -0.32,-0.12 -0.48,-0.17 -0.24,-0.08 -0.48,-0.15 -0.73,-0.2 -0.05,-0.01 -0.1,-0.03 -0.15,-0.04 -0.11,-0.02 -0.21,-0.01 -0.32,-0.02 -0.24,-0.03 -0.47,-0.05 -0.72,-0.05 -0.23,0 -0.46,0.02 -0.69,0.05 -0.11,0.01 -0.21,0 -0.32,0.02 -0.05,0.01 -0.1,0.03 -0.15,0.04 -0.27,0.05 -0.54,0.13 -0.81,0.22 -0.12,0.05 -0.25,0.08 -0.37,0.13 -0.25,0.1 -0.48,0.23 -0.7,0.36 -0.13,0.07 -0.26,0.13 -0.38,0.21 -0.2,0.14 -0.39,0.29 -0.58,0.46 -0.11,0.1 -0.24,0.19 -0.35,0.3 -0.16,0.16 -0.31,0.35 -0.46,0.53 -0.1,0.13 -0.21,0.26 -0.3,0.4 -0.13,0.17 -0.22,0.36 -0.32,0.55 -0.1,0.17 -0.19,0.34 -0.27,0.52 -0.07,0.18 -0.12,0.35 -0.18,0.54 -0.07,0.21 -0.14,0.43 -0.18,0.66 -0.01,0.06 -0.04,0.12 -0.05,0.19l-23.89 142.9c-0.03,0.17 -0.02,0.34 -0.03,0.52 -0.02,0.17 -0.06,0.33 -0.06,0.5l0 62.38 -19.31 51.53 -18.02 -71.08c-0.02,-0.1 -0.07,-0.18 -0.1,-0.27 -0.06,-0.21 -0.13,-0.41 -0.22,-0.61 -0.07,-0.18 -0.16,-0.36 -0.25,-0.53 -0.1,-0.18 -0.21,-0.36 -0.33,-0.53 -0.1,-0.16 -0.21,-0.31 -0.33,-0.46 -0.14,-0.17 -0.3,-0.33 -0.45,-0.48 -0.12,-0.12 -0.24,-0.24 -0.37,-0.34 -0.18,-0.16 -0.38,-0.3 -0.59,-0.43 -0.12,-0.09 -0.26,-0.17 -0.39,-0.25 -0.21,-0.11 -0.42,-0.21 -0.65,-0.3 -0.16,-0.06 -0.33,-0.13 -0.5,-0.18 -0.1,-0.03 -0.2,-0.09 -0.32,-0.12 -0.11,-0.02 -0.22,-0.02 -0.32,-0.05 -0.19,-0.03 -0.38,-0.06 -0.58,-0.08 -0.21,-0.02 -0.42,-0.04 -0.62,-0.03 -0.21,-0.01 -0.41,0.01 -0.62,0.03 -0.2,0.02 -0.39,0.05 -0.58,0.08 -0.11,0.03 -0.22,0.03 -0.33,0.05 -0.11,0.03 -0.21,0.09 -0.32,0.12 -0.17,0.05 -0.33,0.11 -0.49,0.18 -0.23,0.09 -0.44,0.19 -0.66,0.31 -0.13,0.07 -0.26,0.15 -0.38,0.24 -0.21,0.13 -0.41,0.27 -0.6,0.43 -0.12,0.1 -0.24,0.22 -0.35,0.33 -0.16,0.16 -0.32,0.32 -0.47,0.5 -0.12,0.14 -0.22,0.29 -0.33,0.45 -0.11,0.17 -0.22,0.35 -0.33,0.53 -0.09,0.17 -0.17,0.35 -0.24,0.53 -0.09,0.19 -0.16,0.4 -0.23,0.61 -0.03,0.09 -0.07,0.17 -0.1,0.27l-19.02 75.08c-0.01,0.04 -0.01,0.08 -0.02,0.13 -0.05,0.2 -0.07,0.41 -0.1,0.62 -0.02,0.22 -0.05,0.43 -0.06,0.64 0,0.04 -0.01,0.09 -0.01,0.13l0 149.27c-0.26,1.47 -1.22,6.7 -3.03,13.87l-65.87 -178.82c-0.19,-2.34 -1.68,-4.47 -4.03,-5.33 -0.63,-0.24 -1.27,-0.33 -1.91,-0.35 -0.13,-0.01 -0.25,-0.02 -0.38,-0.02 -0.1,0 -0.2,0 -0.3,0.01 -0.65,0.02 -1.31,0.11 -1.96,0.36 -2.35,0.86 -3.84,2.99 -4.03,5.33l-65.87 178.8c-1.81,-7.13 -2.77,-12.34 -3.03,-13.83l0 -149.29c0,-0.04 -0.01,-0.09 -0.01,-0.13 -0.01,-0.21 -0.04,-0.42 -0.07,-0.63 -0.02,-0.21 -0.05,-0.43 -0.09,-0.63 -0.01,-0.05 -0.01,-0.09 -0.02,-0.13l-19.03 -75.08c-0.02,-0.1 -0.07,-0.18 -0.1,-0.27 -0.06,-0.21 -0.13,-0.41 -0.22,-0.61 -0.07,-0.19 -0.16,-0.36 -0.25,-0.53 -0.1,-0.18 -0.21,-0.36 -0.32,-0.53 -0.11,-0.16 -0.22,-0.31 -0.34,-0.46 -0.14,-0.17 -0.29,-0.32 -0.45,-0.48 -0.12,-0.12 -0.24,-0.24 -0.37,-0.34 -0.18,-0.16 -0.37,-0.29 -0.57,-0.43 -0.14,-0.08 -0.28,-0.17 -0.42,-0.25 -0.2,-0.11 -0.41,-0.21 -0.63,-0.3 -0.17,-0.06 -0.34,-0.13 -0.51,-0.18 -0.1,-0.04 -0.2,-0.09 -0.31,-0.12 -0.11,-0.02 -0.22,-0.02 -0.32,-0.04 -0.2,-0.04 -0.39,-0.07 -0.59,-0.09 -0.21,-0.02 -0.42,-0.04 -0.62,-0.04 -0.21,0 -0.41,0.02 -0.62,0.04 -0.2,0.02 -0.39,0.05 -0.58,0.09 -0.11,0.02 -0.22,0.02 -0.33,0.04 -0.11,0.03 -0.2,0.08 -0.31,0.12 -0.18,0.05 -0.35,0.12 -0.51,0.18 -0.22,0.09 -0.43,0.19 -0.64,0.3 -0.14,0.08 -0.27,0.17 -0.41,0.25 -0.2,0.14 -0.39,0.27 -0.57,0.43 -0.13,0.1 -0.25,0.22 -0.37,0.34 -0.16,0.16 -0.31,0.31 -0.46,0.48 -0.11,0.15 -0.22,0.3 -0.33,0.46 -0.12,0.17 -0.22,0.35 -0.32,0.53 -0.1,0.17 -0.18,0.35 -0.25,0.53 -0.09,0.2 -0.16,0.4 -0.23,0.61 -0.03,0.09 -0.07,0.17 -0.1,0.27l-18.01 71.08 -19.32 -51.53 0 -62.38c0,-0.17 -0.04,-0.34 -0.05,-0.51 -0.01,-0.17 -0.01,-0.34 -0.03,-0.51l-23.89 -142.9c-0.01,-0.07 -0.04,-0.12 -0.05,-0.19 -0.05,-0.24 -0.11,-0.46 -0.19,-0.68 -0.05,-0.17 -0.1,-0.34 -0.17,-0.5 -0.08,-0.21 -0.2,-0.41 -0.31,-0.61 -0.08,-0.15 -0.16,-0.31 -0.26,-0.45 -0.13,-0.19 -0.28,-0.37 -0.43,-0.55 -0.1,-0.12 -0.2,-0.25 -0.31,-0.37 -0.17,-0.16 -0.36,-0.31 -0.54,-0.46 -0.13,-0.1 -0.25,-0.21 -0.39,-0.3 -0.18,-0.12 -0.37,-0.22 -0.55,-0.32 -0.18,-0.1 -0.36,-0.19 -0.54,-0.27 -0.16,-0.07 -0.32,-0.12 -0.49,-0.17 -0.23,-0.08 -0.47,-0.15 -0.72,-0.2 -0.05,-0.01 -0.1,-0.03 -0.16,-0.04 -0.1,-0.02 -0.21,-0.01 -0.31,-0.02 -0.24,-0.03 -0.48,-0.05 -0.72,-0.05 -0.24,0 -0.46,0.02 -0.7,0.05 -0.1,0.01 -0.2,0 -0.31,0.02 -0.05,0.01 -0.1,0.03 -0.15,0.04 -0.28,0.05 -0.55,0.13 -0.81,0.22 -0.13,0.05 -0.25,0.08 -0.37,0.13 -0.25,0.1 -0.48,0.23 -0.72,0.36 -0.12,0.07 -0.24,0.13 -0.35,0.21 -0.22,0.14 -0.41,0.3 -0.6,0.46 -0.12,0.1 -0.23,0.19 -0.34,0.3 -0.17,0.16 -0.31,0.35 -0.46,0.54 -0.11,0.13 -0.21,0.25 -0.31,0.38 -0.12,0.18 -0.22,0.37 -0.32,0.56 -0.09,0.17 -0.19,0.34 -0.26,0.52 -0.07,0.18 -0.13,0.35 -0.19,0.54 -0.06,0.21 -0.13,0.43 -0.18,0.66 -0.01,0.06 -0.03,0.12 -0.04,0.19l-23.89 142.9c-0.03,0.17 -0.02,0.34 -0.03,0.52 -0.02,0.17 -0.05,0.33 -0.05,0.5l0 62.38 -19.32 51.53 -18.02 -71.08c-0.03,-0.1 -0.07,-0.18 -0.1,-0.27 -0.06,-0.21 -0.14,-0.41 -0.22,-0.61 -0.08,-0.18 -0.16,-0.36 -0.26,-0.53 -0.09,-0.18 -0.2,-0.35 -0.31,-0.52 -0.11,-0.17 -0.22,-0.33 -0.35,-0.47 -0.13,-0.17 -0.28,-0.32 -0.43,-0.47 -0.13,-0.13 -0.25,-0.25 -0.39,-0.36 -0.18,-0.15 -0.36,-0.28 -0.56,-0.41 -0.14,-0.09 -0.28,-0.18 -0.42,-0.26 -0.2,-0.11 -0.41,-0.21 -0.63,-0.29 -0.17,-0.07 -0.34,-0.14 -0.52,-0.19 -0.1,-0.04 -0.2,-0.09 -0.31,-0.12 -0.1,-0.02 -0.21,-0.02 -0.31,-0.04 -0.2,-0.04 -0.4,-0.07 -0.6,-0.09 -0.21,-0.02 -0.41,-0.04 -0.61,-0.04 -0.21,0 -0.41,0.02 -0.62,0.04 -0.19,0.02 -0.39,0.05 -0.59,0.09 -0.11,0.02 -0.21,0.02 -0.32,0.04 -0.11,0.03 -0.21,0.08 -0.32,0.12 -0.17,0.05 -0.34,0.12 -0.51,0.18 -0.21,0.09 -0.43,0.19 -0.63,0.3 -0.14,0.08 -0.27,0.17 -0.41,0.25 -0.2,0.14 -0.39,0.27 -0.57,0.43 -0.13,0.1 -0.26,0.22 -0.38,0.34 -0.16,0.16 -0.31,0.31 -0.45,0.48 -0.12,0.15 -0.22,0.3 -0.33,0.46 -0.12,0.17 -0.22,0.35 -0.33,0.53 -0.09,0.17 -0.17,0.35 -0.24,0.53 -0.09,0.2 -0.16,0.4 -0.23,0.61 -0.03,0.09 -0.07,0.17 -0.1,0.27l-19.02 75.08c-0.02,0.04 -0.01,0.08 -0.03,0.13 -0.04,0.2 -0.06,0.41 -0.09,0.62 -0.02,0.22 -0.06,0.43 -0.06,0.64 0,0.04 -0.01,0.09 -0.01,0.13l0 470.63c-2.21,0.96 -3.76,3.15 -3.76,5.71 0,3.43 2.79,6.21 6.22,6.21l255.78 0 -3.14 8.28 -252.64 0c-3.43,0 -6.22,2.79 -6.22,6.22 0,3.43 2.79,6.21 6.22,6.21l1.03 0 0 235.04c0,3.43 2.78,6.22 6.21,6.22l526.04 0c3.43,0 6.22,-2.79 6.22,-6.22l0 -235.04 1.03 0c3.43,0 6.22,-2.78 6.22,-6.21 0,-3.43 -2.79,-6.22 -6.22,-6.22l-252.64 0 -3.14 -8.28 66.8 0z"/>
   <path class="fil3" d="M2779.42 2900.05c0,-28.48 23.17,-51.65 51.64,-51.65 28.48,0 51.65,23.17 51.65,51.65 0,28.48 -23.17,51.65 -51.65,51.65 -28.47,0 -51.64,-23.17 -51.64,-51.65zm115.72 0c0,-35.33 -28.75,-64.07 -64.08,-64.07 -35.32,0 -64.07,28.74 -64.07,64.07 0,35.33 28.75,64.07 64.07,64.07 35.33,0 64.08,-28.74 64.08,-64.07z"/>
   <path class="fil3" d="M2624.06 2726.08c-3.43,0 -6.22,2.79 -6.22,6.22l0 24.85c0,3.43 2.79,6.21 6.22,6.21 3.43,0 6.21,-2.78 6.21,-6.21l0 -24.85c0,-3.43 -2.78,-6.22 -6.21,-6.22z"/>
   <path class="fil3" d="M2646.04 2726.08c-3.43,0 -6.21,2.79 -6.21,6.22l0 24.85c0,3.43 2.78,6.21 6.21,6.21 3.43,0 6.21,-2.78 6.21,-6.21l0 -24.85c0,-3.43 -2.78,-6.22 -6.21,-6.22z"/>
   <path class="fil3" d="M2668.02 2726.08c-3.43,0 -6.21,2.79 -6.21,6.22l0 24.85c0,3.43 2.78,6.21 6.21,6.21 3.43,0 6.22,-2.78 6.22,-6.21l0 -24.85c0,-3.43 -2.79,-6.22 -6.22,-6.22z"/>
   <path class="fil3" d="M2690.01 2726.08c-3.43,0 -6.22,2.79 -6.22,6.22l0 24.85c0,3.43 2.79,6.21 6.22,6.21 3.43,0 6.21,-2.78 6.21,-6.21l0 -24.85c0,-3.43 -2.78,-6.22 -6.21,-6.22z"/>
   <path class="fil3" d="M3037.81 2726.08c-3.43,0 -6.21,2.79 -6.21,6.22l0 24.85c0,3.43 2.78,6.21 6.21,6.21 3.43,0 6.21,-2.78 6.21,-6.21l0 -24.85c0,-3.43 -2.78,-6.22 -6.21,-6.22z"/>
   <path class="fil3" d="M3015.83 2726.08c-3.43,0 -6.21,2.79 -6.21,6.22l0 24.85c0,3.43 2.78,6.21 6.21,6.21 3.43,0 6.21,-2.78 6.21,-6.21l0 -24.85c0,-3.43 -2.78,-6.22 -6.21,-6.22z"/>
   <path class="fil3" d="M2993.85 2726.08c-3.44,0 -6.22,2.79 -6.22,6.22l0 24.85c0,3.43 2.78,6.21 6.22,6.21 3.43,0 6.21,-2.78 6.21,-6.21l0 -24.85c0,-3.43 -2.78,-6.22 -6.21,-6.22z"/>
   <path class="fil3" d="M2971.86 2726.08c-3.43,0 -6.21,2.79 -6.21,6.22l0 24.85c0,3.43 2.78,6.21 6.21,6.21 3.43,0 6.21,-2.78 6.21,-6.21l0 -24.85c0,-3.43 -2.78,-6.22 -6.21,-6.22z"/>
   <path class="fil3" d="M2370.58 2711.59l-46.25 0 0 -27.62 46.25 0 0 27.62zm0 56.6l0 27.62 -46.25 0 0 -27.62 46.25 0zm0 207.1l0 55.23 -46.25 0 0 -55.23 46.25 0zm-58.68 275.14l-28.99 0 0 -710.74 28.99 0 0 710.74zm-71.79 -219.91l-55.92 0 0 -55.23 86.29 0 0 55.23 -30.37 0zm-6.22 220.55l-24.85 0 0 -208.12 24.85 0 0 208.12zm-24.85 -442.84l24.85 0 0 154.64 -24.85 0 0 -154.64zm-24.85 -40.04l86.29 0 0 27.62 -86.29 0 0 -27.62zm24.85 -44.18l24.85 0 0 31.76 -24.85 0 0 -31.76zm-24.85 -40.04l86.29 0 0 27.62 -86.29 0 0 -27.62zm24.85 -156.7c0,-6.86 5.58,-12.43 12.43,-12.43 6.85,0 12.42,5.57 12.42,12.43l0 144.28 -24.85 0 0 -144.28zm102.86 -358.29l0 10.35 -28.99 0 0 -10.35 28.99 0zm-28.99 345.86l28.99 0 0 12.43 -28.99 0 0 -12.43zm28.99 -310.65l-28.99 0 0 -12.43 28.99 0 0 12.43zm0 285.8l0 12.42 -28.99 0 0 -12.42 28.99 0zm0 -24.86l0 12.43 -28.99 0 0 -12.43 28.99 0zm0 -24.85l0 12.43 -28.99 0 0 -12.43 28.99 0zm0 -24.85l0 12.43 -28.99 0 0 -12.43 28.99 0zm0 -24.85l0 12.42 -28.99 0 0 -12.42 28.99 0zm0 -24.85l0 12.42 -28.99 0 0 -12.42 28.99 0zm0 -24.86l0 12.43 -28.99 0 0 -12.43 28.99 0zm0 -24.85l0 12.43 -28.99 0 0 -12.43 28.99 0zm0 -24.85l0 12.43 -28.99 0 0 -12.43 28.99 0zm0 -24.85l0 12.42 -28.99 0 0 -12.42 28.99 0zm-28.99 -37.28l0 -12.43 28.99 0 0 12.43 -28.99 0zm28.99 12.42l0 12.43 -28.99 0 0 -12.43 28.99 0zm-41.42 482.55l0 31.76 -24.16 0 0 -31.76 24.16 0zm0 84.22l0 154.64 -24.16 0 0 -154.64 24.16 0zm106.31 -136.68l-52.46 0 0 -508.78c0,-3.44 -2.78,-6.22 -6.21,-6.22l-14.5 0 0 -66.27c0,-3.43 -2.78,-6.21 -6.21,-6.21 -3.43,0 -6.22,2.78 -6.22,6.21l0 66.27 -14.49 0c-3.43,0 -6.22,2.78 -6.22,6.22l0 508.78 -24.16 0 0 -144.28c0,-13.71 -11.15,-24.86 -24.85,-24.86 -13.71,0 -24.85,11.15 -24.85,24.86l0 144.28 -18.64 0c-3.43,0 -6.22,2.78 -6.22,6.21l0 40.04c0,3.43 2.79,6.21 6.22,6.21l18.64 0 0 31.76 -18.64 0c-3.43,0 -6.22,2.78 -6.22,6.21l0 40.04c0,3.43 2.79,6.21 6.22,6.21l18.64 0 0 154.64 -18.64 0c-3.43,0 -6.22,2.78 -6.22,6.21l0 67.66c0,3.43 2.79,6.21 6.22,6.21l18.64 0 0 214.33c0,3.43 2.78,6.22 6.21,6.22l37.28 0c3.43,0 6.21,-2.79 6.21,-6.22l0 -214.33 24.16 0 0 213.69c0,3.44 2.79,6.22 6.22,6.22l41.42 0c3.43,0 6.21,-2.78 6.21,-6.22l0 -213.69 52.46 0c3.43,0 6.22,-2.78 6.22,-6.21l0 -67.66c0,-3.43 -2.79,-6.21 -6.22,-6.21l-52.46 0 0 -154.64 52.46 0c3.43,0 6.22,-2.78 6.22,-6.21l0 -40.04c0,-3.43 -2.79,-6.21 -6.22,-6.21l-52.46 0 0 -31.76 52.46 0c3.43,0 6.22,-2.78 6.22,-6.21l0 -40.04c0,-3.43 -2.79,-6.21 -6.22,-6.21z"/>
   <path class="fil3" d="M2297.41 2062.32c3.43,0 6.21,-2.78 6.21,-6.21l0 -172.93c0,-3.44 -2.78,-6.22 -6.21,-6.22 -3.43,0 -6.22,2.78 -6.22,6.22l0 172.93c0,3.43 2.79,6.21 6.22,6.21z"/>
   <path class="fil3" d="M2278.77 2079.93l37.28 0c3.43,0 6.21,-2.78 6.21,-6.22 0,-3.43 -2.78,-6.21 -6.21,-6.21l-37.28 0c-3.43,0 -6.21,2.78 -6.21,6.21 0,3.44 2.78,6.22 6.21,6.22z"/>
   <path class="fil3" d="M1771.19 2667.68l24.85 0 0 67.48 -24.85 0 0 -67.48zm-12.43 -6.22l0 79.91c0,3.43 2.78,6.22 6.21,6.22l37.28 0c3.44,0 6.22,-2.79 6.22,-6.22l0 -79.91c0,-3.43 -2.78,-6.21 -6.22,-6.21l-37.28 0c-3.43,0 -6.21,2.78 -6.21,6.21z"/>
   <path class="fil3" d="M1812.32 2283.75c1.05,0.68 2.22,1 3.39,1 2.03,0 4.02,-0.99 5.21,-2.82l9.59 -14.72 9.6 14.72c1.19,1.83 3.18,2.82 5.21,2.82 1.16,0 2.34,-0.32 3.38,-1 2.88,-1.88 3.69,-5.73 1.82,-8.6l-14.8 -22.72c-0.01,-0.01 -0.02,-0.01 -0.03,-0.03 -0.15,-0.23 -0.34,-0.44 -0.53,-0.65 -0.08,-0.1 -0.16,-0.22 -0.25,-0.32 -0.11,-0.11 -0.25,-0.19 -0.37,-0.3 -0.2,-0.17 -0.39,-0.34 -0.6,-0.48 -0.01,-0.01 -0.02,-0.02 -0.04,-0.03 -0.11,-0.08 -0.24,-0.12 -0.36,-0.18 -0.22,-0.13 -0.45,-0.26 -0.68,-0.36 -0.19,-0.07 -0.37,-0.12 -0.55,-0.17 -0.2,-0.06 -0.4,-0.13 -0.6,-0.17 -0.2,-0.04 -0.41,-0.05 -0.61,-0.07 -0.2,-0.02 -0.39,-0.05 -0.59,-0.05 -0.2,0 -0.39,0.03 -0.59,0.05 -0.2,0.02 -0.4,0.03 -0.6,0.07 -0.21,0.04 -0.41,0.11 -0.61,0.17 -0.18,0.05 -0.36,0.1 -0.54,0.17 -0.25,0.1 -0.48,0.24 -0.71,0.36 -0.11,0.07 -0.23,0.11 -0.34,0.18 -0.01,0.01 -0.02,0.02 -0.03,0.03 -0.23,0.14 -0.43,0.33 -0.63,0.51 -0.11,0.09 -0.24,0.18 -0.34,0.27 -0.1,0.11 -0.18,0.23 -0.28,0.34 -0.18,0.21 -0.36,0.41 -0.51,0.63 0,0.02 -0.02,0.02 -0.02,0.03l-14.8 22.72c-1.88,2.87 -1.06,6.72 1.81,8.6z"/>
   <path class="fil3" d="M1812.32 2406.07c1.05,0.68 2.22,1.01 3.39,1.01 2.03,0 4.02,-0.99 5.21,-2.82l9.59 -14.73 9.6 14.73c1.19,1.83 3.18,2.82 5.21,2.82 1.16,0 2.34,-0.33 3.38,-1.01 2.88,-1.87 3.69,-5.73 1.82,-8.6l-14.8 -22.71c-0.01,-0.01 -0.02,-0.02 -0.03,-0.03 -0.15,-0.23 -0.33,-0.43 -0.51,-0.64 -0.09,-0.11 -0.17,-0.23 -0.27,-0.33 -0.1,-0.1 -0.22,-0.18 -0.33,-0.27 -0.21,-0.18 -0.41,-0.37 -0.65,-0.52 -0.01,-0.01 -0.01,-0.02 -0.03,-0.02 -0.1,-0.07 -0.21,-0.11 -0.31,-0.17 -0.24,-0.14 -0.48,-0.27 -0.74,-0.38 -0.17,-0.07 -0.35,-0.11 -0.52,-0.16 -0.21,-0.07 -0.41,-0.14 -0.62,-0.18 -0.2,-0.04 -0.4,-0.05 -0.61,-0.07 -0.19,-0.02 -0.39,-0.05 -0.59,-0.05 -0.2,0 -0.39,0.03 -0.59,0.05 -0.2,0.02 -0.4,0.03 -0.6,0.07 -0.22,0.04 -0.42,0.11 -0.63,0.18 -0.17,0.05 -0.34,0.09 -0.51,0.16 -0.27,0.11 -0.52,0.25 -0.77,0.4 -0.09,0.05 -0.19,0.08 -0.29,0.15 -0.01,0 -0.02,0.01 -0.03,0.02 -0.23,0.15 -0.45,0.35 -0.67,0.54 -0.1,0.09 -0.21,0.16 -0.3,0.24 -0.11,0.11 -0.19,0.24 -0.29,0.36 -0.18,0.2 -0.35,0.4 -0.5,0.62 0,0.01 -0.02,0.02 -0.02,0.03l-14.8 22.71c-1.88,2.87 -1.06,6.73 1.81,8.6z"/>
   <path class="fil3" d="M1678.3 2356.75c3.43,0 6.21,-2.78 6.21,-6.21l0 -20.71c0,-3.44 -2.78,-6.22 -6.21,-6.22 -3.43,0 -6.22,2.78 -6.22,6.22l0 20.71c0,3.43 2.79,6.21 6.22,6.21z"/>
   <path class="fil3" d="M1782.92 2164.15c3.43,0 6.21,-2.78 6.21,-6.22l0 -20.71c0,-3.43 -2.78,-6.21 -6.21,-6.21 -3.44,0 -6.22,2.78 -6.22,6.21l0 20.71c0,3.44 2.78,6.22 6.22,6.22z"/>
   <path class="fil3" d="M1864.99 2667.68l24.85 0 0 67.48 -24.85 0 0 -67.48zm-6.22 79.91l37.28 0c3.44,0 6.22,-2.79 6.22,-6.22l0 -79.91c0,-3.43 -2.78,-6.21 -6.22,-6.21l-37.28 0c-3.43,0 -6.21,2.78 -6.21,6.21l0 79.91c0,3.43 2.78,6.22 6.21,6.22z"/>
   <path class="fil3" d="M1994.13 2531.41l-22.8 0 0 -38.66c0,-0.02 -0.01,-0.03 -0.01,-0.05l0 -12.38 22.81 0 0 51.09zm-19.33 21.74l-288.57 0 0 -9.32 288.57 0 0 9.32zm-33.14 697.28l0 -124.45c0,-50.35 -25.62,-89.43 -69.06,-108.74l102.2 0 0 233.19 -33.14 0zm-255.43 -233.19l102.2 0c-43.44,19.31 -69.07,58.39 -69.07,108.74l0 124.45 -33.13 0 0 -233.19zm0 -21.75l288.57 0 0 9.32 -288.57 0 0 -9.32zm43.58 -36.65l0 24.22 -43.25 0 0 -95.91c0,-15.29 12.88,-23.6 26.52,-32.4 5.68,-3.66 11.66,-7.55 16.73,-12.13l0 116.22zm137.31 -89.57l-31.01 -64.47c-0.03,-0.08 -0.09,-0.14 -0.13,-0.22 -0.1,-0.18 -0.21,-0.36 -0.33,-0.54 -0.11,-0.17 -0.22,-0.33 -0.35,-0.49 -0.12,-0.14 -0.26,-0.28 -0.4,-0.42 -0.15,-0.15 -0.3,-0.31 -0.47,-0.44 -0.14,-0.11 -0.28,-0.21 -0.43,-0.31 -0.2,-0.14 -0.4,-0.26 -0.6,-0.37 -0.07,-0.04 -0.12,-0.08 -0.2,-0.11 -0.1,-0.06 -0.2,-0.08 -0.3,-0.12 -0.19,-0.08 -0.39,-0.15 -0.6,-0.22 -0.21,-0.06 -0.41,-0.11 -0.62,-0.14 -0.17,-0.04 -0.35,-0.07 -0.53,-0.09 -0.23,-0.02 -0.45,-0.04 -0.68,-0.03 -0.17,0 -0.34,0.01 -0.52,0.02 -0.22,0.02 -0.44,0.06 -0.67,0.1 -0.17,0.04 -0.34,0.08 -0.52,0.13 -0.22,0.07 -0.43,0.15 -0.65,0.24 -0.09,0.04 -0.19,0.06 -0.29,0.11 -0.07,0.03 -0.12,0.07 -0.19,0.11 -0.2,0.11 -0.4,0.23 -0.59,0.36 -0.15,0.11 -0.3,0.21 -0.45,0.32 -0.16,0.14 -0.31,0.28 -0.46,0.43 -0.14,0.15 -0.28,0.29 -0.41,0.44 -0.12,0.15 -0.23,0.31 -0.34,0.48 -0.12,0.17 -0.24,0.35 -0.34,0.55 -0.04,0.07 -0.09,0.13 -0.13,0.21l-31 64.47c-6.4,-10.43 -17.37,-17.55 -27.48,-24.08 -3.93,-2.53 -7.69,-4.97 -11.04,-7.46 2.9,-20.29 20.86,-31.92 39.85,-44.18 13.62,-8.79 27.52,-17.81 35.27,-30.38 7.76,12.57 21.66,21.59 35.28,30.38 18.99,12.26 36.95,23.89 39.84,44.18 -3.34,2.49 -7.1,4.93 -11.03,7.46 -10.11,6.53 -21.08,13.65 -27.48,24.08zm-30.39 21.98l24.85 0 0 67.48 -24.85 0 0 -67.48zm-33.62 -12.43l27.4 -56.98 27.4 56.98 -54.8 0zm-3.67 73.7l0 -61.27 24.86 0 0 67.48 -24.86 0 0 -6.21zm31.07 30.54l-88.28 0 0 -140.14c0.78,0.71 1.59,1.41 2.4,2.1 0.22,0.2 0.44,0.38 0.68,0.55 4.54,3.69 9.56,6.95 14.38,10.06 14.05,9.07 27.33,17.64 27.33,33.44l0 75.87c0,3.43 2.78,6.22 6.21,6.22l74.56 0c3.44,0 6.22,-2.79 6.22,-6.22l0 -75.87c0,-15.8 13.27,-24.37 27.33,-33.44 4.81,-3.11 9.83,-6.37 14.37,-10.06 0.24,-0.17 0.47,-0.35 0.68,-0.55 0.82,-0.69 1.62,-1.39 2.41,-2.1l0 140.14 -88.29 0zm143.95 0l-43.24 0 0 -140.44c5.07,4.58 11.05,8.47 16.73,12.13 13.63,8.8 26.51,17.11 26.51,32.4l0 95.91zm-191.2 -380.94c4.96,6.38 12.31,11.15 19.15,15.56 11.75,7.58 21.89,14.13 21.89,26.47 0,3.43 2.78,6.22 6.21,6.22 3.44,0 6.22,-2.79 6.22,-6.22 0,-12.34 10.14,-18.89 21.89,-26.47 6.84,-4.41 14.19,-9.18 19.14,-15.56 4.95,6.38 12.3,11.15 19.14,15.56 11.75,7.58 21.9,14.13 21.9,26.47l0 173.36c0,0.02 -0.01,0.03 -0.01,0.05 0,3.67 -1.05,6.88 -2.88,9.83 -6.79,-20.6 -26.03,-33.08 -43.38,-44.27 -19.21,-12.41 -35.8,-23.12 -35.8,-41.75 0,-3.43 -2.78,-6.21 -6.22,-6.21 -3.43,0 -6.21,2.78 -6.21,6.21 0,18.63 -16.59,29.34 -35.8,41.75 -17.35,11.19 -36.59,23.67 -43.38,44.27 -1.83,-2.95 -2.88,-6.16 -2.88,-9.83 0,-0.02 -0.01,-0.03 -0.01,-0.05l0 -173.36c0,-12.34 10.15,-18.89 21.89,-26.47 6.84,-4.41 14.19,-9.18 19.14,-15.56zm145.97 648.31l-197.44 0 0 -124.45c0,-58.61 36.9,-98.83 98.72,-107.8 61.83,8.97 98.72,49.19 98.72,107.8l0 124.45zm-98.72 -684.85l144.29 0 0 293.84c-5.92,-5.92 -13.22,-10.66 -20.11,-15.11 -12.57,-8.12 -23.43,-15.12 -23.47,-26.68l0 -177.4c0,-9.38 6.92,-14.53 18.31,-21.89 10.21,-6.59 21.79,-14.06 21.79,-28.24 0,-3.43 -2.78,-6.21 -6.21,-6.21 -3.43,0 -6.21,2.78 -6.21,6.21 0,6.91 -6.08,11.34 -16.11,17.81 -6.47,4.17 -13.88,8.98 -18.73,15.84 -5.45,-6.84 -13.2,-11.85 -20.42,-16.51 -12.02,-7.76 -19.32,-13.1 -19.32,-21.71 0,-3.43 -2.78,-6.22 -6.21,-6.22 -0.12,0 -0.23,0.03 -0.35,0.04 -0.12,-0.01 -0.23,-0.04 -0.35,-0.04 -3.43,0 -6.21,2.79 -6.21,6.22 0,8.61 -7.3,13.95 -19.32,21.71 -7.66,4.94 -15.9,10.3 -21.37,17.8 -5.46,-7.5 -13.7,-12.86 -21.36,-17.8 -12.02,-7.76 -19.32,-13.1 -19.32,-21.71 0,-3.43 -2.78,-6.22 -6.21,-6.22 -0.12,0 -0.24,0.03 -0.36,0.04 -0.11,-0.01 -0.22,-0.04 -0.34,-0.04 -3.44,0 -6.22,2.79 -6.22,6.22 0,8.61 -7.29,13.95 -19.32,21.71 -7.21,4.66 -14.97,9.67 -20.41,16.51 -4.86,-6.86 -12.27,-11.67 -18.74,-15.84 -10.02,-6.47 -16.1,-10.9 -16.1,-17.81 0,-3.43 -2.78,-6.21 -6.22,-6.21 -3.43,0 -6.21,2.78 -6.21,6.21 0,14.18 11.58,21.65 21.8,28.24 11.39,7.36 18.31,12.51 18.31,21.89l0 177.4c-0.05,11.56 -10.9,18.56 -23.47,26.68 -6.89,4.45 -14.2,9.19 -20.11,15.11l0 -293.84 144.28 0zm-163.61 -85.26l22.8 0 0 12.38c0,0.02 0,0.03 0,0.05l0 38.66 -22.8 0 0 -51.09zm11.4 -67.75l10.15 55.32 -20.31 0 10.16 -55.32zm38.31 86.39l0 32.45 -14.48 0 0 -32.45 14.48 0zm60.09 -256.75l0 244.32 -59.42 0 59.42 -244.32zm161.5 244.32l-53.88 0 0 -244.32 59.43 244.32 -5.55 0zm-128.39 12.43l14.49 0 0 32.45 -14.49 0 0 -32.45zm-20.68 -302.37l82.77 0 0 289.94 -82.77 0 0 -289.94zm-60.09 334.82l0 -32.45 14.5 0 0 32.45 -14.5 0zm26.92 0l0 -32.45 14.5 0 0 32.45 -14.5 0zm26.92 0l0 -32.45 14.5 0 0 32.45 -14.5 0zm53.85 0l0 -32.45 14.49 0 0 32.45 -14.49 0zm26.92 0l0 -32.45 14.49 0 0 32.45 -14.49 0zm26.92 0l0 -32.45 14.49 0 0 32.45 -14.49 0zm26.92 0l0 -32.45 14.49 0 0 32.45 -14.49 0zm41.41 0l-14.49 0 0 -32.45 14.49 0 0 32.45zm23.83 -118.84l10.15 55.32 -20.3 0 10.15 -55.32zm23.82 61.66l0 -0.12c0,-0.18 -0.03,-0.35 -0.05,-0.52 -0.01,-0.21 -0.01,-0.4 -0.05,-0.6l-17.61 -95.96c-0.01,-0.04 -0.02,-0.07 -0.03,-0.1 -0.05,-0.24 -0.12,-0.46 -0.2,-0.69 -0.05,-0.17 -0.09,-0.34 -0.16,-0.5 -0.08,-0.19 -0.2,-0.38 -0.3,-0.56 -0.09,-0.17 -0.17,-0.34 -0.27,-0.5 -0.13,-0.19 -0.29,-0.35 -0.43,-0.53 -0.11,-0.12 -0.2,-0.26 -0.32,-0.38 -0.19,-0.18 -0.39,-0.34 -0.6,-0.5 -0.1,-0.08 -0.2,-0.18 -0.32,-0.26 -0.19,-0.13 -0.41,-0.24 -0.62,-0.34 -0.15,-0.08 -0.29,-0.17 -0.45,-0.24 -0.17,-0.07 -0.35,-0.11 -0.54,-0.17 -0.21,-0.07 -0.43,-0.15 -0.65,-0.19 -0.04,-0.01 -0.06,-0.03 -0.1,-0.03 -0.15,-0.03 -0.3,-0.02 -0.45,-0.04 -0.22,-0.02 -0.44,-0.05 -0.67,-0.05 -0.23,-0.01 -0.46,0.03 -0.69,0.05 -0.15,0.02 -0.29,0.01 -0.43,0.04 -0.03,0 -0.06,0.02 -0.1,0.03 -0.23,0.04 -0.46,0.12 -0.68,0.19 -0.17,0.06 -0.35,0.1 -0.51,0.17 -0.17,0.07 -0.32,0.17 -0.48,0.25 -0.2,0.11 -0.41,0.21 -0.59,0.33 -0.13,0.08 -0.23,0.19 -0.35,0.28 -0.19,0.16 -0.39,0.3 -0.57,0.48 -0.12,0.12 -0.22,0.26 -0.33,0.39 -0.14,0.17 -0.3,0.34 -0.42,0.52 -0.1,0.16 -0.18,0.33 -0.27,0.5 -0.11,0.18 -0.22,0.37 -0.3,0.56 -0.07,0.16 -0.11,0.34 -0.17,0.5 -0.07,0.23 -0.15,0.45 -0.19,0.69 -0.01,0.03 -0.02,0.06 -0.03,0.1l-17.58 95.8c-0.01,0.02 -0.01,0.04 -0.02,0.06l-0.01 0.1c-0.03,0.13 -0.02,0.26 -0.04,0.4 -0.02,0.24 -0.07,0.47 -0.07,0.72l0 12.42 -2.36 0 -72.39 -297.62c-0.02,-0.05 -0.05,-0.09 -0.06,-0.14 -0.17,-0.61 -0.41,-1.17 -0.73,-1.69 -0.02,-0.03 -0.04,-0.07 -0.07,-0.11 -0.33,-0.51 -0.75,-0.95 -1.21,-1.34 -0.09,-0.07 -0.16,-0.14 -0.26,-0.2 -0.46,-0.36 -0.98,-0.64 -1.54,-0.85 -0.1,-0.04 -0.2,-0.06 -0.3,-0.1 -0.59,-0.18 -1.21,-0.31 -1.87,-0.31l-95.19 0c-0.66,0 -1.28,0.13 -1.87,0.31 -0.11,0.04 -0.2,0.06 -0.3,0.1 -0.56,0.21 -1.08,0.49 -1.55,0.85 -0.09,0.06 -0.16,0.13 -0.25,0.2 -0.47,0.39 -0.88,0.83 -1.22,1.34 -0.02,0.04 -0.04,0.08 -0.07,0.11 -0.32,0.52 -0.55,1.08 -0.72,1.69 -0.01,0.05 -0.05,0.09 -0.06,0.14l-72.39 297.62 -2.36 0 0 -12.42c0,-0.26 -0.05,-0.49 -0.07,-0.73 -0.02,-0.13 -0.01,-0.26 -0.04,-0.39l-0.01 -0.1c-0.01,-0.02 -0.01,-0.04 -0.02,-0.06l-17.58 -95.8c-0.01,-0.04 -0.03,-0.07 -0.03,-0.1 -0.05,-0.24 -0.12,-0.45 -0.19,-0.67 -0.06,-0.18 -0.1,-0.36 -0.17,-0.52 -0.07,-0.17 -0.17,-0.32 -0.25,-0.48 -0.11,-0.2 -0.21,-0.41 -0.34,-0.6 -0.08,-0.11 -0.17,-0.22 -0.26,-0.32 -0.16,-0.21 -0.31,-0.41 -0.5,-0.6 -0.09,-0.1 -0.22,-0.17 -0.32,-0.27 -0.19,-0.16 -0.38,-0.33 -0.6,-0.48 -0.12,-0.08 -0.26,-0.14 -0.39,-0.22 -0.22,-0.12 -0.43,-0.25 -0.67,-0.35 -0.13,-0.05 -0.28,-0.09 -0.41,-0.13 -0.26,-0.09 -0.5,-0.17 -0.77,-0.23 -0.03,0 -0.06,-0.02 -0.09,-0.02 -0.13,-0.03 -0.26,-0.02 -0.39,-0.03 -0.25,-0.03 -0.49,-0.06 -0.75,-0.06 -0.2,0 -0.4,0.03 -0.6,0.05 -0.17,0.01 -0.34,0.01 -0.51,0.04 -0.04,0.01 -0.07,0.02 -0.11,0.03 -0.21,0.04 -0.41,0.12 -0.61,0.18 -0.2,0.06 -0.39,0.11 -0.57,0.19 -0.18,0.07 -0.34,0.17 -0.51,0.27 -0.19,0.09 -0.37,0.18 -0.55,0.29 -0.17,0.12 -0.32,0.26 -0.48,0.4 -0.14,0.11 -0.3,0.22 -0.43,0.35 -0.17,0.17 -0.31,0.36 -0.46,0.55 -0.09,0.12 -0.21,0.24 -0.29,0.36 -0.13,0.19 -0.23,0.4 -0.34,0.6 -0.08,0.16 -0.17,0.31 -0.24,0.47 -0.07,0.17 -0.12,0.36 -0.17,0.54 -0.07,0.22 -0.15,0.43 -0.19,0.66 -0.01,0.03 -0.03,0.06 -0.03,0.1l-17.61 95.96c-0.04,0.2 -0.04,0.39 -0.05,0.6 -0.02,0.17 -0.06,0.34 -0.06,0.52l0 0.12c0,0 0,0.01 0,0.01l0 63.38c0,3.43 2.78,6.21 6.21,6.21l13.12 0 0 712.81c0,3.44 2.79,6.22 6.22,6.22l300.99 0c3.43,0 6.21,-2.78 6.21,-6.22l0 -712.81 13.12 0c3.43,0 6.21,-2.78 6.21,-6.21l0 -63.38c0,0 0,-0.01 0,-0.01z"/>
   <path class="fil3" d="M1982.73 2356.75c3.43,0 6.21,-2.78 6.21,-6.21l0 -20.71c0,-3.44 -2.78,-6.22 -6.21,-6.22 -3.43,0 -6.22,2.78 -6.22,6.22l0 20.71c0,3.43 2.79,6.21 6.22,6.21z"/>
   <path class="fil3" d="M1878.11 2164.15c3.43,0 6.21,-2.78 6.21,-6.22l0 -20.71c0,-3.43 -2.78,-6.21 -6.21,-6.21 -3.43,0 -6.21,2.78 -6.21,6.21l0 20.71c0,3.44 2.78,6.22 6.21,6.22z"/>
   <path class="fil3" d="M1403.23 3147.88l-279.59 0 0 -11.65c43.97,-0.92 313.58,-6 372.79,4.73l0 6.92 -93.2 0zm68.35 103.19l-62.13 0 0 -90.76 62.13 0 0 90.76zm-96.65 0l0 -90.76 22.09 0 0 90.76 -22.09 0zm-12.43 -90.76l0 90.76 -78.7 0 0 -90.76 78.7 0zm-113.21 90.76l0 -90.76 22.09 0 0 90.76 -22.09 0zm-280.28 -141.85l33.14 0 0 141.85 -33.14 0 0 -141.85zm-251.17 36.92c6.17,-0.81 12.72,-1.71 19.67,-2.72l-29.36 107.65 -18.88 0 28.57 -104.93zm60.64 -299.67c2.5,-73.98 -42.36,-269.68 -52.21,-311.61l172.32 0 0 7.42 -13.11 0c-1.81,0 -3.52,0.78 -4.7,2.15 -1.18,1.37 -1.71,3.18 -1.45,4.96 0.12,0.85 12.65,86.99 33.12,258.84 10.56,88.7 4.32,164.02 -4.14,216.07 -0.49,1.06 -0.67,2.21 -0.54,3.34 -6.27,37.46 -13.55,62.18 -16.13,70.32 -92.86,27.25 -186.94,37.8 -218.13,40.73 20.97,-44 102.49,-219.42 104.97,-292.22zm155.74 -317.82c0,-44.69 36.35,-81.04 81.04,-81.04 44.69,0 81.05,36.35 81.05,81.04 0,4.58 -0.48,9.14 -1.24,13.63l-159.71 0c-0.75,-4.48 -1.14,-9.05 -1.14,-13.63zm202.5 72.78c-6.21,-2.47 -12.98,-5.76 -20.04,-9.22 -20.16,-9.88 -45.25,-22.18 -73.04,-22.49 -0.43,0 -0.85,-0.01 -1.28,-0.01 -37.81,0 -74.77,19 -106.96,55 -12.52,14 -21.99,27.92 -28.33,38.28 -7.39,-57.82 -12.4,-93.93 -14.43,-108.28l37.49 0c0.05,0 0.09,0.02 0.14,0.02 0.07,0 0.14,-0.02 0.21,-0.02l208.1 0 -1.86 46.72zm124.1 58.87c12.85,3.4 32.18,9.94 54.55,17.52 56.34,19.07 132.6,44.88 181.06,46.17l0 9.15c-12.68,-1.38 -32.45,-0.28 -54.68,0.97 -26.22,1.48 -53.34,2.99 -69.25,0.34 -6.2,-1.03 -13.73,-2.85 -22.44,-4.96 -36.84,-8.92 -92.51,-22.39 -149.28,-0.22 -30.12,11.76 -47.6,19.65 -57.72,25.19l3.15 -79.11c15.61,-5.53 75.93,-25.29 114.61,-15.05zm-137.18 448.91c130.93,-1.51 339.46,-1.62 372.79,4.09l0 15.07c-66.1,-10.55 -327.28,-5.54 -372.79,-4.58l0 -14.58zm-109.07 0.01l96.65 0 0 44.88c0,3.43 2.78,6.21 6.21,6.21l119.43 0 0 90.76 -222.29 0 0 -141.85zm-109.55 -12.42c1.08,-3.59 2.43,-8.34 3.94,-14.12 27.67,-0.46 168.6,-2.5 208.46,3.24l-0.44 10.88 -211.96 0zm18.12 -86.78c16.37,-7.79 97.18,-45.13 137.76,-43.19 37.18,1.64 55.45,17.83 60.35,22.97l-0.98 24.47c-14.88,-8.05 -39.82,-11.97 -74.46,-11.75 -41.78,0.34 -98.24,7.54 -123.72,14.75 0.36,-2.37 0.71,-4.77 1.05,-7.25zm210.82 -339.29c0,0.01 0,0.02 0,0.02l-1.08 27.08c-19.32,-37.73 -58.94,-84.6 -109.42,-88.74 -40.77,-3.31 -76.67,40.44 -106.84,130.14 -2.47,-20.13 -4.78,-38.65 -6.92,-55.61 6.57,-12.83 54.87,-101.48 132.64,-101.48 0.39,0 0.77,0 1.16,0.01 24.98,0.27 47.68,11.4 67.71,21.21 8.8,4.32 17.16,8.35 24.99,11.12l-2.24 56.25zm362.47 89.79c-25.64,-5.84 -108.32,-21.23 -172.25,5.86 -69.07,29.27 -162.65,30.13 -182.41,20.56l0.18 -4.63c0,-0.01 0,-0.02 0,-0.02 0,-0.01 0,-0.02 0,-0.03l0.52 -13.04c4.09,-2.86 17.91,-10.83 62.83,-28.37 53.13,-20.76 106.52,-7.83 141.84,0.72 8.94,2.16 16.67,4.03 23.32,5.14 17.28,2.88 45.09,1.31 71.99,-0.19 21.08,-1.18 42.77,-2.4 53.98,-0.89l0 14.89zm-366.73 329.28c115.78,-2.47 326.49,-5.48 366.73,-0.82l0 12.01c-54.08,-7.24 -312.93,-4.85 -367,-4.27l0.27 -6.92zm-214.69 -32.92c51.48,-4.51 172.56,-12.23 203.63,-1.69l-0.72 18.28c-42.2,-5.54 -171.75,-3.84 -205.87,-3.27 0.96,-4.1 1.95,-8.54 2.96,-13.32zm11.83 -78.47c14.81,-14.07 97.69,-67.1 144.54,-53.75 29,8.27 48.21,23.2 51.36,27.55l-0.86 21.79c-10.79,-8.02 -30.23,-18.25 -60.44,-19.58 -39.34,-1.61 -109.96,28.86 -136.43,41.01 0.64,-5.45 1.26,-11.11 1.83,-17.02zm2.06 -26.51c22.22,-18.06 114.54,-72.45 157.21,-65.91 26.59,4.09 36.23,30.46 37.86,35.56l-0.59 14.64c-11.26,-8.58 -29.29,-17.97 -48.6,-23.48 -46.14,-13.15 -117.24,27.12 -146.52,48.68 0.23,-3.12 0.45,-6.28 0.64,-9.49zm1.2 -26.83c20.84,-26.21 102.02,-92.08 140.88,-81.83 24.97,6.56 52.36,34.14 54.14,49.4l-0.16 4.01c-7.42,-10.05 -19.11,-20.2 -36.95,-22.94 -44.24,-6.81 -126.03,39.61 -158.28,62.15 0.14,-3.54 0.27,-7.14 0.37,-10.79zm0.07 -42.78c10.57,-14.24 82.16,-81.05 128.58,-78.33 45.76,2.6 68.31,39.89 67.82,52.32l0 0 -0.45 11.26c-12.45,-16.08 -33.05,-31.34 -51.98,-36.32 -40.9,-10.7 -112.54,43.45 -143.74,75.05 0.04,-7.8 -0.04,-15.8 -0.23,-23.98zm-1.03 -25.87c0,-0.05 0.01,-0.09 0,-0.14 0.53,-8.58 33.34,-57.69 75.2,-86.09 25.19,-17.08 47.49,-22.62 66.29,-16.46 55.13,18.09 57.73,52.26 57.34,67.26l-0.17 4.39 -0.01 0.12c0,0.01 0,0.01 0,0.01l-0.1 2.51c-12.4,-17.28 -35.06,-34.58 -68.24,-36.47 -44.34,-2.49 -104.88,47.25 -129.93,72.91 -0.12,-2.68 -0.23,-5.33 -0.38,-8.04zm-2.26 -29.78c6.09,-16.56 24.02,-43.03 44.11,-65.01 24.8,-27.12 49.5,-43.87 67.76,-45.94 19.28,-2.18 43.8,8.57 65.55,28.78 14.74,13.7 23.74,27.96 25,35.35 -10.65,-16.72 -28.94,-29.41 -54.8,-37.89 -25.14,-8.26 -55.35,0.55 -87.4,25.45 -23.54,18.29 -46.7,44.97 -59.71,65.17 -0.17,-1.97 -0.33,-3.93 -0.51,-5.91zm-3.1 -28.28c4.21,-13.34 21.19,-46.68 43.76,-77.75 25.98,-35.74 49.95,-55.2 65.81,-53.27 32.03,3.82 76.53,42.62 91.43,80.61 -3.89,-4.58 -8.04,-8.88 -12.03,-12.58 -11.7,-10.88 -42.48,-35.79 -75.41,-32.03 -40.63,4.62 -90.73,62.12 -112.93,100.31 -0.21,-1.78 -0.42,-3.54 -0.63,-5.29zm572.65 6.11c-28.84,-16.68 -63.81,-20.16 -99.77,-9.62 -13.03,3.82 -26.19,8.04 -40.12,12.49 -45.1,14.44 -91.74,29.37 -132.18,29.89 -46.99,0.68 -74.11,-11.13 -83.85,-18.71l0.74 -18.66c10.46,3.31 26.53,5.08 45.73,5.08 41.57,0 97.62,-8.29 142.05,-27.12 62.31,-26.4 146.95,-9.27 167.4,-4.51l0 31.16zm-365.74 260.39c52.17,-7.62 282.5,-6.16 365.74,-4.12l0 15.82c-54.98,-5.4 -319.52,-0.18 -366.23,0.8l0.49 -12.5zm233.07 -80.03c31.89,-6.58 51.66,3.15 74.56,14.42 16.91,8.34 34.45,16.86 58.11,19.59l0 6.63c-109.29,-23.87 -315.56,-5.21 -364.2,0.7l0.89 -22.26c48.19,13.52 200.15,-12.76 230.64,-19.08zm-48.1 -36.55l2.68 -0.58c29.31,-6.47 93.02,14.31 135.18,28.07 18.97,6.18 33.62,10.94 42.91,12.79l0 17.78c-20.92,-2.69 -37.04,-10.56 -52.62,-18.23 -22.86,-11.26 -46.51,-22.91 -82.56,-15.45 -29.98,6.2 -81.59,14.55 -129.33,19.2 -66.16,6.45 -89.87,2.5 -98.29,-0.74l1.04 -26.09c35.04,12.5 110.34,-1.18 180.99,-16.75zm147.27 -6.19c-31.01,-10.76 -69.61,-24.16 -93.88,-25.46 -20.69,-1.09 -55.73,4.36 -89.6,9.65 -30.33,4.73 -61.72,9.71 -79.72,9.2 -35.59,-0.84 -55.04,-9.99 -63.28,-15.16l0.11 -2.74c21.42,8.14 78.94,23.88 159.45,-1.24 79.8,-24.9 163.52,-4.58 200.42,15.01l0 21.74c-7.95,-2.12 -20.88,-6.61 -33.5,-11zm-327.03 -7.86c11.48,5.79 31.86,12.93 63.54,13.68 19.14,0.45 49.64,-4.31 81.93,-9.36 33.23,-5.19 67.59,-10.56 87.01,-9.51 22.53,1.2 60.2,14.28 90.47,24.79 17.8,6.19 29.89,10.32 37.58,12.04l0 10.01c-8.97,-2.11 -23.68,-6.9 -39.06,-11.92 -46.03,-15.02 -109.09,-35.58 -141.71,-28.4l-2.67 0.59c-40.31,8.88 -145.33,32.02 -177.79,15.67l0.7 -17.59zm360.53 -63.26c-30.69,-10.63 -96.35,-13.63 -162.04,7.28 -73.45,23.37 -181.54,15.27 -196.42,4.02l0.31 -7.84c14.73,7.51 38.82,11.15 67.78,11.15 50.83,0 116.56,-11.17 172.44,-32.18 87.79,-33 107.9,-9.18 117.57,2.27 0.13,0.15 0.24,0.28 0.36,0.42l0 14.88zm0 46.5c-41.32,-19.57 -124.71,-37.77 -204.12,-13 -83.32,25.99 -139.9,6.51 -155.22,-0.05l0.35 -8.98c19.89,8.02 57.68,9.68 71.16,10.02 4.25,0.11 8.5,0.16 12.73,0.16 43.44,0 85.43,-5.54 116.83,-15.52 71.04,-22.61 136.15,-15.24 158.27,-5.82l0 33.19zm-364.7 121.28c44.03,-5.55 256.24,-25.4 364.7,-0.55l0 10.11c-76.74,-1.85 -305.64,-3.72 -365.24,3.94l0.54 -13.5zm8.21 -205.89c14.51,8.12 41.1,16.82 81,16.82 1.18,0 2.38,-0.01 3.58,-0.03 42.3,-0.54 89.84,-15.76 135.81,-30.47 13.85,-4.44 26.94,-8.62 39.82,-12.41 44.67,-13.09 76.65,-1 96.28,12.32l0 19.04c-15.17,-13 -45.92,-25.08 -122.3,3.64 -94.43,35.49 -209.85,40.08 -235.28,18.44l0.13 -3.42c0,-0.01 0.01,-0.01 0.01,-0.01 0,-0.01 0,-0.01 0,-0.02l0.95 -23.9zm-219.69 -63.88l0.17 -0.57c20.54,-69.17 54.91,-150.84 102.02,-146.93 58.72,4.81 100.96,76.32 109.24,106.35l-0.19 4.93c-6.01,-11.69 -14.4,-23.5 -24.9,-34.79 -22.54,-24.23 -49.37,-40.3 -71.77,-42.96 -39.82,-4.8 -92.21,74.49 -113.99,118.74 -0.2,-1.59 -0.39,-3.2 -0.58,-4.77zm-0.28 261.7c22.07,-8.21 169.84,-29.89 199.72,-1.79l-0.54 13.6c-42.14,-10.83 -165.61,-1.37 -201.61,1.7 0.82,-4.29 1.63,-8.8 2.43,-13.51zm-198.95 220.39l29.92 -109.69c6.8,-1.06 13.85,-2.21 21.15,-3.47l-30.84 113.16 -20.23 0zm33.11 0l31.5 -115.57c7.02,-1.28 14.2,-2.67 21.52,-4.13l-32.8 119.7 -20.22 0zm33.11 0l33.57 -122.53c7.24,-1.54 14.58,-3.18 21.99,-4.92l-35.33 127.45 -20.23 0zm169.34 0l-136.22 0 36.26 -130.78c13.5,-3.35 27.16,-7.02 40.79,-11.07l59.17 0 0 141.85zm552.27 -142.47l0 -390.8c0,-1.67 -0.67,-3.27 -1.86,-4.44 -1.2,-1.17 -2.87,-1.79 -4.48,-1.77 -45.89,1.08 -125.17,-25.92 -183.15,-45.55 -22.6,-7.64 -42.1,-14.25 -55.37,-17.76 -39.18,-10.37 -95.6,6.35 -117.25,13.71l4.52 -113.25c0.07,-1.69 -0.56,-3.33 -1.73,-4.55 -1.17,-1.22 -2.79,-1.91 -4.48,-1.91l-37.32 0c0.66,-4.5 1,-9.06 1,-13.63 0,-51.54 -41.93,-93.47 -93.47,-93.47 -51.54,0 -93.47,41.93 -93.47,93.47 0,4.57 0.37,9.13 1.03,13.63l-11.8 0 0 -13.63c0,-3.43 -2.78,-6.21 -6.21,-6.21l-186.39 0c-1.91,0 -3.7,0.87 -4.88,2.36 -1.18,1.5 -1.61,3.45 -1.16,5.3 0.56,2.35 56.38,236.31 53.67,315.95 -2.68,79.15 -107.39,294.87 -108.45,297.04 -0.97,1.99 -0.8,4.36 0.44,6.2 1.16,1.72 3.09,2.74 5.15,2.74 0.14,0 0.29,-0.01 0.43,-0.02 0.43,-0.03 15.93,-1.17 40.89,-4.19l-29.37 107.83c-0.5,1.87 -0.11,3.87 1.06,5.41 1.18,1.53 3,2.44 4.94,2.44l796.65 0c3.43,0 6.21,-2.79 6.21,-6.22l0 -96.97 18.64 0c3.43,0 6.21,-2.78 6.21,-6.21l0 -45.48c0,0 0,-0.01 0,-0.02z"/>
   <path class="fil3" d="M1145.78 1378.01l96.08 0c7.52,0 14.7,-1.42 21.33,-4.22 6.72,-2.84 12.7,-6.75 17.76,-11.64 5.03,-4.84 9.06,-10.59 11.96,-17.05 2.84,-6.38 4.29,-13.37 4.29,-20.81 0,-7.27 -1.41,-14.2 -4.19,-20.59 -2.81,-6.47 -6.74,-12.2 -11.66,-17.03 -4.96,-4.87 -10.91,-8.83 -17.65,-11.77 -6.6,-2.87 -13.75,-4.32 -21.23,-4.32l-96.69 0 0 107.43zm-9.53 125.41l-9.03 0c-5.28,0 -9.54,-4.27 -9.54,-9.54l0 -241.28c0,-5.27 4.26,-9.53 9.54,-9.53l116.26 0c11.28,0 22.11,2.18 32.21,6.48 9.97,4.26 18.8,10.08 26.24,17.29 7.49,7.27 13.47,15.94 17.76,25.77 4.33,9.92 6.52,20.57 6.52,31.68 0,11.12 -2.19,21.78 -6.53,31.69 -4.3,9.84 -10.29,18.5 -17.79,25.77 -7.45,7.22 -16.29,13.03 -26.28,17.28 -10.09,4.31 -20.95,6.49 -32.25,6.49l-97.58 0 0 88.36c0,5.27 -4.26,9.54 -9.53,9.54z"/>
   <path class="fil3" d="M1393.82 1371.99l92.88 0c8.21,0 16.02,-1.41 23.22,-4.19 7.22,-2.79 13.55,-6.57 18.79,-11.23 5.14,-4.56 9.23,-9.99 12.18,-16.15 2.92,-6.11 4.35,-12.42 4.35,-19.29 0,-6.65 -1.4,-13.1 -4.14,-19.18 -2.78,-6.17 -6.63,-11.62 -11.43,-16.18 -4.87,-4.63 -10.61,-8.38 -17.05,-11.13 -6.32,-2.69 -13.01,-4.06 -19.9,-4.06l-98.9 0 0 101.41zm-9.54 131.43l-9.04 0c-5.27,0 -9.53,-4.27 -9.53,-9.54l0 -241.28c0,-5.27 4.26,-9.53 9.53,-9.53l118.27 0c10.5,0 20.8,2.13 30.61,6.34 9.65,4.15 18.26,9.79 25.59,16.77 7.35,7.01 13.32,15.24 17.72,24.49 4.52,9.5 6.81,19.69 6.81,30.31 0,7.77 -1.58,15.82 -4.71,23.92 -3.09,8 -7.65,15.57 -13.56,22.49 -5.85,6.85 -13.32,13.08 -22.19,18.51 -5.35,3.27 -11.22,6.06 -17.53,8.33l62.74 92.89c1.55,1.7 2.51,3.97 2.51,6.46 0,5.26 -4.27,9.54 -9.53,9.54 -0.05,-0.01 -0.09,-0.01 -0.14,0l-12.34 0c-3.16,0 -6.11,-1.57 -7.89,-4.17l-67.66 -99.45 -90.12 0 0 94.38c0,5.27 -4.27,9.54 -9.54,9.54z"/>
   <path class="fil3" d="M1676.37 1402.71l104.68 0 -52.58 -114.77 -52.1 114.77zm166.96 100.41c-0.05,-0.01 -0.09,-0.01 -0.14,0l-9.93 0c-3.73,0 -7.12,-2.18 -8.68,-5.57l-30.88 -67.33 -129.93 0 -30.89 67.33c-1.55,3.39 -4.94,5.57 -8.67,5.57l-10.24 0c-3.25,0 -6.27,-1.65 -8.02,-4.38 -1.76,-2.73 -2.01,-6.17 -0.66,-9.12l109.94 -240.98c1.56,-3.39 4.95,-5.57 8.69,-5.57l9.03 0c3.73,0 7.12,2.17 8.67,5.57l109.66 239.67c1,1.51 1.58,3.32 1.58,5.27 0,5.26 -4.27,9.54 -9.53,9.54z"/>
   <path class="fil3" d="M2007.79 1507.63c-18.5,0 -36.21,-3.61 -52.6,-10.73 -16.3,-7.08 -30.73,-16.82 -42.86,-28.96 -12.13,-12.13 -21.87,-26.49 -28.95,-42.69 -7.12,-16.3 -10.74,-33.96 -10.74,-52.46 0,-18.3 3.62,-35.85 10.74,-52.17 7.08,-16.18 16.82,-30.55 28.96,-42.68 12.15,-12.16 26.59,-21.85 42.9,-28.83 16.39,-7.01 34.07,-10.57 52.55,-10.57 16.84,0 33.4,3.29 49.24,9.75 15.75,6.43 30.06,15.57 42.5,27.16 1.9,1.76 2.99,4.22 3.04,6.8 0.05,2.6 -0.96,5.09 -2.8,6.92l-6.62 6.63c-3.71,3.69 -9.69,3.72 -13.42,0.06 -9.52,-9.34 -20.73,-16.72 -33.28,-21.95 -26.49,-11.03 -55.78,-10.06 -79.98,0.67 -12.89,5.71 -24.27,13.53 -33.8,23.26 -9.57,9.75 -17.22,21.23 -22.75,34.13 -5.48,12.8 -8.26,26.53 -8.26,40.82 0,14.3 2.78,28.1 8.28,40.99 5.52,12.99 13.16,24.52 22.73,34.26 9.55,9.74 20.94,17.63 33.85,23.43 12.75,5.75 26.63,8.65 41.27,8.65 16.59,0 32.55,-4.07 47.43,-12.1 14.13,-7.63 26.27,-18.03 36.1,-30.92l0 -46.94 -66.97 0c-5.26,0 -9.53,-4.27 -9.53,-9.54l0 -8.43c0,-5.27 4.27,-9.54 9.53,-9.54l85.55 0c5.26,0 9.54,4.27 9.54,9.54l0 121.08c0,5.27 -4.28,9.54 -9.54,9.54l-9.04 0c-5.26,0 -9.54,-4.27 -9.54,-9.54l0 -15.45c-10.48,8.64 -21.38,15.22 -32.58,19.66 -17,6.74 -34.15,10.15 -50.95,10.15z"/>
   <path class="fil3" d="M2287.45 1507.63c-15.71,0 -30.6,-3 -44.3,-8.91 -13.59,-5.87 -25.62,-13.94 -35.76,-23.97 -10.18,-10.06 -18.27,-22.03 -24.05,-35.56 -5.81,-13.57 -8.75,-28.31 -8.75,-43.81l0 -142.78c0,-5.27 4.27,-9.53 9.54,-9.53l9.04 0c5.26,0 9.54,4.26 9.54,9.53l0 143.98c0,11.49 2.21,22.36 6.57,32.32 4.4,10.07 10.54,18.99 18.26,26.53 7.76,7.58 16.88,13.67 27.1,18.1 20.01,8.69 45,8.78 65.37,0.12 10.18,-4.32 19.21,-10.33 26.85,-17.88 7.63,-7.54 13.73,-16.48 18.14,-26.56 4.37,-9.99 6.58,-20.76 6.58,-32.02l0 -144.59c0,-5.27 4.27,-9.53 9.54,-9.53l9.04 0c5.27,0 9.53,4.26 9.53,9.53l0 142.48c0,15.48 -2.94,30.22 -8.74,43.81 -5.77,13.49 -13.79,25.49 -23.84,35.64 -10.04,10.16 -21.99,18.29 -35.49,24.17 -13.6,5.93 -28.47,8.93 -44.17,8.93z"/>
   <path class="fil3" d="M2654.01 1503.42l-181.02 0c-5.28,0 -9.54,-4.27 -9.54,-9.54l0 -241.28c0,-5.27 4.26,-9.53 9.54,-9.53l181.02 0c5.28,0 9.54,4.26 9.54,9.53l0 8.44c0,5.27 -4.26,9.54 -9.54,9.54l-162.45 0 0 87.25 144.08 0c5.27,0 9.54,4.27 9.54,9.54l0 8.43c0,5.27 -4.27,9.54 -9.54,9.54l-144.08 0 0 90.56 162.45 0c5.28,0 9.54,4.28 9.54,9.54l0 8.44c0,5.27 -4.26,9.54 -9.54,9.54z"/>
   <path class="fil4" d="M1239.07 1880.55c1.86,0.71 3.95,0.46 5.61,-0.64 1.66,-1.09 2.69,-2.92 2.78,-4.91 0.77,-17.66 15.21,-31.49 32.87,-31.49 17.18,0 31.28,12.9 32.8,30 0.28,3.15 2.87,5.58 6.02,5.67 11.91,0.33 21.24,9.91 21.24,21.81 0,12.05 -9.81,21.86 -21.85,21.86l-87.12 0c-12.05,0 -21.85,-9.81 -21.85,-21.86 0,-12.05 9.8,-21.85 21.85,-21.85 2.58,0 5.16,0.48 7.65,1.41z"/>
   <path class="fil5" d="M2932.57 1975.51c0.01,0 0.02,0 0.03,0l0.73 0.04c2.67,0.11 4.98,-1.5 5.95,-3.93 4.31,-10.91 14.73,-17.96 26.54,-17.96 15.72,0 28.51,12.65 28.49,28.48l-0.04 0.64c-0.09,2.28 1.07,4.42 3.03,5.59 1.95,1.16 4.38,1.17 6.35,0.01 4.43,-2.63 9.48,-4.02 14.59,-4.02 15.72,0 28.51,12.65 28.51,28.19 0,15.54 -12.79,28.19 -28.51,28.19l-85.83 0c-18.19,0 -32.99,-14.64 -32.99,-32.63 0,-17.98 14.78,-32.6 33.15,-32.6z"/>
   <path class="fil1" d="M616.5 3221.57c-3.19,3.54 -7.57,5.61 -12.32,5.85 -3.85,0.19 -13.58,0.11 -19.91,0.06l-5.02 -0.04c-6.4,0 -11.6,-5.2 -11.6,-11.6 0,-6.37 5.18,-11.57 11.55,-11.6 2.03,-0.01 3.93,-1.01 5.09,-2.68 1.15,-1.68 1.41,-3.81 0.7,-5.72 -0.5,-1.32 -0.75,-2.68 -0.75,-4.03 0,-6.4 5.21,-11.61 11.61,-11.61 5.41,0 10.05,3.68 11.28,8.95 0.44,1.88 1.72,3.45 3.48,4.25 6.13,2.78 10.14,8.65 10.48,15.33 0.23,4.75 -1.39,9.32 -4.59,12.84z"/>
   <path class="fil4" d="M1603.51 3220.02l-31.58 0c-8.4,0 -15.22,-6.82 -15.22,-15.22 0,-5.81 3.3,-11.04 8.61,-13.62 1.67,-0.82 2.89,-2.33 3.32,-4.14 0.44,-1.81 0.04,-3.71 -1.08,-5.2 -3.57,-4.72 -5.46,-10.32 -5.46,-16.18 0,-14.85 12.08,-26.93 26.92,-26.93 14.85,0 26.93,12.08 26.93,26.93 0,2.81 -0.45,5.61 -1.33,8.31 -0.82,2.51 0.04,5.26 2.13,6.86 5.47,4.18 8.61,10.5 8.61,17.34 0,12.05 -9.8,21.85 -21.85,21.85z"/>
   <path class="fil5" d="M2128.68 3212.37l-47.07 0c-13.15,0 -23.85,-10.7 -23.85,-23.84 0,-8 3.99,-15.43 10.66,-19.86 2,-1.34 3.05,-3.7 2.7,-6.07 -0.23,-1.59 -0.33,-2.9 -0.33,-4.14 0,-16.14 13.13,-29.27 29.26,-29.27 16.14,0 29.27,13.13 29.27,29.27 0,4.44 -1,8.74 -2.98,12.79 -0.87,1.78 -0.84,3.87 0.09,5.63 0.92,1.75 2.63,2.96 4.6,3.25 7.9,1.15 13.87,8.04 13.87,16.02 0,8.94 -7.28,16.22 -16.22,16.22z"/>
   <path class="fil2" d="M2480.88 3207.5c-5.13,5.67 -12.16,9 -19.8,9.38 -2.3,0.12 -6.51,0.18 -12.5,0.18 -5.59,0 -11.71,-0.06 -16.52,-0.09 -3.13,-0.03 -5.71,-0.05 -7.23,-0.05 -10.82,0 -19.61,-8.79 -19.61,-19.61 0,-10.75 8.76,-19.55 19.52,-19.6 2.04,0 3.94,-1.01 5.09,-2.68 1.15,-1.68 1.41,-3.81 0.7,-5.72 -0.84,-2.23 -1.27,-4.53 -1.27,-6.83 0,-10.81 8.8,-19.6 19.61,-19.6 9.15,0 16.99,6.22 19.07,15.12 0.43,1.88 1.72,3.45 3.48,4.25 9.83,4.46 16.27,13.89 16.82,24.62 0.38,7.64 -2.23,14.96 -7.36,20.63z"/>
   <path class="fil4" d="M3192.69 3227.93l-23.12 0c-7.9,0 -14.32,-6.43 -14.32,-14.33 0,-4.48 2.05,-8.63 5.64,-11.37 2.09,-1.6 2.95,-4.34 2.13,-6.85 -0.58,-1.83 -0.89,-3.7 -0.89,-5.58 0,-9.94 8.1,-18.04 18.05,-18.04 9.94,0 18.04,8.1 18.04,18.04 0,3.93 -1.26,7.68 -3.65,10.84 -1.13,1.49 -1.53,3.39 -1.09,5.2 0.43,1.81 1.64,3.33 3.32,4.14 3.31,1.61 5.37,4.86 5.37,8.48 0,5.22 -4.25,9.47 -9.48,9.47z"/>
   <path class="fil5" d="M956.58 3251.07l-136.22 0 36.26 -130.78c13.5,-3.35 27.16,-7.02 40.79,-11.07l59.17 0 0 141.85z"/>
   <path class="fil5" d="M754.13 3251.07l31.5 -115.57c7.02,-1.28 14.2,-2.67 21.52,-4.13l-32.8 119.7 -20.22 0z"/>
   <path class="fil5" d="M920.25 2768.98l0.17 -0.57c20.54,-69.17 54.91,-150.84 102.02,-146.93 58.72,4.81 100.96,76.32 109.24,106.35l-0.19 4.93c-6.01,-11.69 -14.4,-23.5 -24.9,-34.79 -22.54,-24.23 -49.37,-40.3 -71.77,-42.96 -39.82,-4.8 -92.21,74.49 -113.99,118.74 -0.2,-1.59 -0.39,-3.2 -0.58,-4.77z"/>
   <path class="fil5" d="M1139.94 2832.86c14.51,8.12 41.1,16.82 81,16.82 1.18,0 2.38,-0.01 3.58,-0.03 42.3,-0.54 89.84,-15.76 135.81,-30.47 13.85,-4.44 26.94,-8.62 39.82,-12.41 44.67,-13.09 76.65,-1 96.28,12.32l0 19.04c-15.17,-13 -45.92,-25.08 -122.3,3.64 -94.43,35.49 -209.85,40.08 -235.28,18.44l0.13 -3.42c0,-0.01 0.01,-0.01 0.01,-0.01 0,-0.01 0,-0.01 0,-0.02l0.95 -23.9z"/>
   <path class="fil5" d="M1496.43 2917.47c-41.32,-19.57 -124.71,-37.77 -204.12,-13 -83.32,25.99 -139.9,6.51 -155.22,-0.05l0.35 -8.98c19.89,8.02 57.68,9.68 71.16,10.02 4.25,0.11 8.5,0.16 12.73,0.16 43.44,0 85.43,-5.54 116.83,-15.52 71.04,-22.61 136.15,-15.24 158.27,-5.82l0 33.19z"/>
   <path class="fil5" d="M1135.9 2934.23c11.48,5.79 31.86,12.93 63.54,13.68 19.14,0.45 49.64,-4.31 81.93,-9.36 33.23,-5.19 67.59,-10.56 87.01,-9.51 22.53,1.2 60.2,14.28 90.47,24.79 17.8,6.19 29.89,10.32 37.58,12.04l0 10.01c-8.97,-2.11 -23.68,-6.9 -39.06,-11.92 -46.03,-15.02 -109.09,-35.58 -141.71,-28.4l-2.67 0.59c-40.31,8.88 -145.33,32.02 -177.79,15.67l0.7 -17.59z"/>
   <path class="fil5" d="M1363.76 2984.83c31.89,-6.58 51.66,3.15 74.56,14.42 16.91,8.34 34.45,16.86 58.11,19.59l0 6.63c-109.29,-23.87 -315.56,-5.21 -364.2,0.7l0.89 -22.26c48.19,13.52 200.15,-12.76 230.64,-19.08z"/>
   <path class="fil5" d="M1130.69 3064.86c52.17,-7.62 282.5,-6.16 365.74,-4.12l0 15.82c-54.98,-5.4 -319.52,-0.18 -366.23,0.8l0.49 -12.5z"/>
   <path class="fil5" d="M926.88 2826.64c6.09,-16.56 24.02,-43.03 44.11,-65.01 24.8,-27.12 49.5,-43.87 67.76,-45.94 19.28,-2.18 43.8,8.57 65.55,28.78 14.74,13.7 23.74,27.96 25,35.35 -10.65,-16.72 -28.94,-29.41 -54.8,-37.89 -25.14,-8.26 -55.35,0.55 -87.4,25.45 -23.54,18.29 -46.7,44.97 -59.71,65.17 -0.17,-1.97 -0.33,-3.93 -0.51,-5.91z"/>
   <path class="fil5" d="M930.17 2882.29c10.57,-14.24 82.16,-81.05 128.58,-78.33 45.76,2.6 68.31,39.89 67.82,52.32l0 0 -0.45 11.26c-12.45,-16.08 -33.05,-31.34 -51.98,-36.32 -40.9,-10.7 -112.54,43.45 -143.74,75.05 0.04,-7.8 -0.04,-15.8 -0.23,-23.98z"/>
   <path class="fil5" d="M928.9 2951.9c22.22,-18.06 114.54,-72.45 157.21,-65.91 26.59,4.09 36.23,30.46 37.86,35.56l-0.59 14.64c-11.26,-8.58 -29.29,-17.97 -48.6,-23.48 -46.14,-13.15 -117.24,27.12 -146.52,48.68 0.23,-3.12 0.45,-6.28 0.64,-9.49z"/>
   <path class="fil5" d="M915.01 3056.88c51.48,-4.51 172.56,-12.23 203.63,-1.69l-0.72 18.28c-42.2,-5.54 -171.75,-3.84 -205.87,-3.27 0.96,-4.1 1.95,-8.54 2.96,-13.32z"/>
   <path class="fil5" d="M1496.43 2760.52c-25.64,-5.84 -108.32,-21.23 -172.25,5.86 -69.07,29.27 -162.65,30.13 -182.41,20.56l0.18 -4.63c0,-0.01 0,-0.02 0,-0.02 0,-0.01 0,-0.02 0,-0.03l0.52 -13.04c4.09,-2.86 17.91,-10.83 62.83,-28.37 53.13,-20.76 106.52,-7.83 141.84,0.72 8.94,2.16 16.67,4.03 23.32,5.14 17.28,2.88 45.09,1.31 71.99,-0.19 21.08,-1.18 42.77,-2.4 53.98,-0.89l0 14.89z"/>
   <path class="fil5" d="M923.14 3010.02c16.37,-7.79 97.18,-45.13 137.76,-43.19 37.18,1.64 55.45,17.83 60.35,22.97l-0.98 24.47c-14.88,-8.05 -39.82,-11.97 -74.46,-11.75 -41.78,0.34 -98.24,7.54 -123.72,14.75 0.36,-2.37 0.71,-4.77 1.05,-7.25z"/>
   <path class="fil5" d="M1014.57 3109.22l96.65 0 0 44.88c0,3.43 2.78,6.21 6.21,6.21l119.43 0 0 90.76 -222.29 0 0 -141.85z"/>
   <path class="fil5" d="M1123.64 3109.21c130.93,-1.51 339.46,-1.62 372.79,4.09l0 15.07c-66.1,-10.55 -327.28,-5.54 -372.79,-4.58l0 -14.58z"/>
   <path class="fil5" d="M1136.72 2601.43c-6.21,-2.47 -12.98,-5.76 -20.04,-9.22 -20.16,-9.88 -45.25,-22.18 -73.04,-22.49 -0.43,0 -0.85,-0.01 -1.28,-0.01 -37.81,0 -74.77,19 -106.96,55 -12.52,14 -21.99,27.92 -28.33,38.28 -7.39,-57.82 -12.4,-93.93 -14.43,-108.28l37.49 0c0.05,0 0.09,0.02 0.14,0.02 0.07,0 0.14,-0.02 0.21,-0.02l208.1 0 -1.86 46.72z"/>
   <path class="fil5" d="M934.22 2528.65c0,-44.69 36.35,-81.04 81.04,-81.04 44.69,0 81.05,36.35 81.05,81.04 0,4.58 -0.48,9.14 -1.24,13.63l-159.71 0c-0.75,-4.48 -1.14,-9.05 -1.14,-13.63z"/>
   <path class="fil5" d="M778.48 2846.47c2.5,-73.98 -42.36,-269.68 -52.21,-311.61l172.32 0 0 7.42 -13.11 0c-1.81,0 -3.52,0.78 -4.7,2.15 -1.18,1.37 -1.71,3.18 -1.45,4.96 0.12,0.85 12.65,86.99 33.12,258.84 10.56,88.7 4.32,164.02 -4.14,216.07 -0.49,1.06 -0.67,2.21 -0.54,3.34 -6.27,37.46 -13.55,62.18 -16.13,70.32 -92.86,27.25 -186.94,37.8 -218.13,40.73 20.97,-44 102.49,-219.42 104.97,-292.22z"/>
   <path class="fil5" d="M717.84 3146.14c6.17,-0.81 12.72,-1.71 19.67,-2.72l-29.36 107.65 -18.88 0 28.57 -104.93z"/>
   <polygon class="fil5" points="1283.8,3251.07 1362.5,3251.07 1362.5,3160.31 1283.8,3160.31 "/>
   <polygon class="fil5" points="1409.45,3251.07 1471.58,3251.07 1471.58,3160.31 1409.45,3160.31 "/>
   <polygon class="fil4" points="2282.91,2253.89 2311.9,2253.89 2311.9,2241.46 2282.91,2241.46 "/>
   <polygon class="fil4" points="2282.91,2303.6 2311.9,2303.6 2311.9,2291.17 2282.91,2291.17 "/>
   <polygon class="fil4" points="2282.91,2353.3 2311.9,2353.3 2311.9,2340.87 2282.91,2340.87 "/>
   <polygon class="fil4" points="2282.91,2403 2311.9,2403 2311.9,2390.58 2282.91,2390.58 "/>
   <polygon class="fil4" points="2282.91,2452.71 2311.9,2452.71 2311.9,2440.28 2282.91,2440.28 "/>
   <polygon class="fil4" points="2282.91,2502.41 2311.9,2502.41 2311.9,2489.99 2282.91,2489.99 "/>
   <polygon class="fil4" points="2282.91,2204.19 2311.9,2204.19 2311.9,2191.76 2282.91,2191.76 "/>
   <path class="fil4" d="M2209.04 2527.27c0,-6.86 5.58,-12.43 12.43,-12.43 6.85,0 12.42,5.57 12.42,12.43l0 144.28 -24.85 0 0 -144.28z"/>
   <polygon class="fil4" points="2184.19,2683.97 2270.48,2683.97 2270.48,2711.59 2184.19,2711.59 "/>
   <polygon class="fil4" points="2209.04,2755.77 2233.89,2755.77 2233.89,2724.01 2209.04,2724.01 "/>
   <polygon class="fil4" points="2184.19,2768.19 2270.48,2768.19 2270.48,2795.81 2184.19,2795.81 "/>
   <polygon class="fil4" points="2209.04,2962.87 2233.89,2962.87 2233.89,2808.23 2209.04,2808.23 "/>
   <polygon class="fil4" points="2209.04,3251.07 2233.89,3251.07 2233.89,3042.95 2209.04,3042.95 "/>
   <polygon class="fil4" points="2240.11,3030.52 2184.19,3030.52 2184.19,2975.29 2270.48,2975.29 2270.48,3030.52 "/>
   <polygon class="fil4" points="2311.9,3250.43 2282.91,3250.43 2282.91,2539.69 2311.9,2539.69 "/>
   <polygon class="fil4" points="2324.33,3030.52 2370.58,3030.52 2370.58,2975.29 2324.33,2975.29 "/>
   <polygon class="fil4" points="2324.33,2795.81 2370.58,2795.81 2370.58,2768.19 2324.33,2768.19 "/>
   <polygon class="fil4" points="2324.33,2711.59 2370.58,2711.59 2370.58,2683.97 2324.33,2683.97 "/>
  </g>
 </g>
</svg>
