<?xml version="1.0" encoding="UTF-8"?>
<!DOCTYPE svg PUBLIC "-//W3C//DTD SVG 1.1//EN" "http://www.w3.org/Graphics/SVG/1.1/DTD/svg11.dtd">
<!-- Creator: CorelDRAW 2018 (64-Bit) -->
<svg xmlns="http://www.w3.org/2000/svg" xml:space="preserve" width="1847px" height="700px" version="1.1" style="shape-rendering:geometricPrecision; text-rendering:geometricPrecision; image-rendering:optimizeQuality; fill-rule:evenodd; clip-rule:evenodd"
viewBox="0 0 1763.27 667.71"
 xmlns:xlink="http://www.w3.org/1999/xlink">
 <defs>
  <style type="text/css">
   <![CDATA[
    .fil0 {fill:black}
   ]]>
  </style>
 </defs>
 <g id="Слой_x0020_1">
  <metadata id="CorelCorpID_0Corel-Layer"/>
  <path class="fil0" d="M233.06 0l160.03 0 0 52.66 56.43 0 0 341.61 -56.43 0 0 57.04 157.05 0c34.9,0 62.55,-1.79 82.72,-5.26 20.28,-3.46 38.98,-10.29 55.98,-20.24 16.99,-10.07 30.7,-24.27 41.01,-42.62 10.32,-18.23 15.42,-38.7 15.42,-61.18 0,-25.95 -6.92,-48.99 -20.85,-69.13 -13.83,-20.24 -33.66,-34.67 -59.38,-43.4 18.7,-8.72 32.86,-21.7 42.61,-38.7 9.63,-17.11 14.5,-36.24 14.5,-57.38 0,-27.63 -8.05,-51.56 -24.25,-72.03 -16.2,-20.47 -34.78,-33.22 -55.97,-38.26 -4.94,-1.17 -10.46,-2.21 -16.55,-3.11l164.76 0 0 52.66 55.75 0 0 341.61 -55.75 0 0 57.04 163.85 0 0 -57.04 -51 0 0 -341.61 157.62 403.35 13.6 0 159.2 -403.35 0 341.61 -55.07 0 0 57.04 174.05 0 0 -57.04 -55.75 0 0 -341.61 55.75 0 0 -52.66 28.55 0 0 52.66 57.79 0 0 341.61 -57.79 0 0 57.04 180.84 0 0 -57.04 -53.02 0 0 -341.61 59.14 0 0 -52.66 38.08 0 0 52.66 53.25 0 -148.1 158.05 142.66 183.56 -49.85 0 0 57.04 159.33 0 0 216.4 -1763.27 0 0 -216.4 168.06 0 0 -57.04 -59.15 0 0 -155.7 64.93 0 104.7 212.74 100.28 0 0 -57.04 -56.32 0 -81.47 -165.55c63.34,-15.54 94.96,-53.46 94.96,-113.75 0,-28.86 -7.48,-53.02 -22.55,-72.26 -15.07,-19.35 -34.11,-32.1 -57.11,-38.03 -7.01,-1.84 -14.77,-3.4 -23.27,-4.68zm717.07 0l240.77 0 -121 308.14 -119.77 -308.14zm813.14 52.66l0 341.61 -21.09 0 -146.29 -183.56 142.43 -158.05 24.95 0zm-1763.27 341.61l0 -341.61 38.89 0 0 341.61 -38.89 0zm108.91 -212.75l54.28 0c26.29,0 45.66,-1.68 58.13,-5.03 12.46,-3.47 22.77,-10.29 30.7,-20.7 7.93,-10.4 11.9,-24.38 11.9,-41.83 0,-14.88 -4.08,-27.4 -12.12,-37.69 -8.05,-10.29 -17.91,-16.78 -29.8,-19.47 -11.79,-2.79 -29.8,-4.14 -54.17,-4.14l-58.92 0 0 128.86zm410.64 4.03l43.4 0c33.2,0 56.31,-5.71 69.46,-17.23 13.14,-11.52 19.71,-28.41 19.71,-50.67 0,-43.29 -29.68,-64.99 -89.17,-64.99l-43.4 0 0 132.89zm0 208.72l26.17 0c34.34,0 59.49,-1.68 75.36,-5.04 15.97,-3.35 29.01,-11.41 39.09,-23.93 10.08,-12.53 15.07,-28.53 15.07,-48.21 0,-17.9 -4.76,-32.89 -14.39,-44.97 -9.63,-12.08 -22.1,-20.13 -37.28,-24.16 -15.07,-4.03 -36.49,-6.04 -64.13,-6.04l-39.89 0 0 152.35zm-477.36 109.69l11.72 0 0 116.88 -11.72 0 0 -116.88zm276.37 116.88l0 -116.88 2.52 0 77.74 89.4 0 -89.4 11.72 0 0 116.88 -2.66 0 -77.27 -88.61 0 88.61 -12.05 0zm349.24 -116.88l12.73 0 38.8 90.48 39.45 -90.48 12.72 0 -50.95 116.88 -2.61 0 -50.14 -116.88zm361.05 0l66.91 0 0 11.39 -55.19 0 0 36.63 54.7 0 0 11.4 -54.7 0 0 46.07 54.7 0 0 11.39 -66.42 0 0 -116.88zm312.86 95.02l9.93 -5.97c7,12.91 15.08,19.37 24.25,19.37 3.94,0 7.63,-0.92 11.08,-2.74 3.44,-1.82 6.07,-4.29 7.86,-7.35 1.82,-3.07 2.72,-6.33 2.72,-9.77 0,-3.91 -1.33,-7.74 -3.99,-11.51 -3.67,-5.18 -10.34,-11.45 -20.08,-18.75 -9.77,-7.38 -15.85,-12.69 -18.23,-15.98 -4.15,-5.5 -6.22,-11.47 -6.22,-17.88 0,-5.07 1.22,-9.71 3.67,-13.89 2.44,-4.18 5.88,-7.46 10.33,-9.87 4.45,-2.42 9.26,-3.61 14.46,-3.61 5.54,0 10.72,1.35 15.53,4.09 4.8,2.72 9.9,7.74 15.27,15.03l-9.55 7.25c-4.42,-5.83 -8.19,-9.69 -11.31,-11.53 -3.12,-1.87 -6.52,-2.8 -10.18,-2.8 -4.75,0 -8.63,1.44 -11.64,4.29 -3.01,2.88 -4.53,6.38 -4.53,10.58 0,2.53 0.54,4.99 1.6,7.38 1.06,2.39 3.01,4.97 5.83,7.79 1.52,1.47 6.6,5.37 15.17,11.67 10.15,7.48 17.12,14.13 20.89,19.94 3.78,5.83 5.67,11.69 5.67,17.58 0,8.47 -3.23,15.85 -9.66,22.09 -6.45,6.26 -14.29,9.38 -23.52,9.38 -7.11,0 -13.56,-1.9 -19.34,-5.69 -5.78,-3.8 -11.13,-10.18 -16.01,-19.1zm319.34 -83.63l0 -11.39 63.98 0 0 11.39 -26.05 0 0 105.49 -11.88 0 0 -105.49 -26.05 0z"/>
 </g>
</svg>
